<svg width="1092" height="290" viewBox="0 0 1092 290" fill="none" xmlns="http://www.w3.org/2000/svg">
<rect width="1092" height="290" rx="30" fill="#002269"/>
<path d="M22.8267 42H20.4972L25.7315 27.4545H28.267L33.5014 42H31.1719L27.0597 30.0966H26.946L22.8267 42ZM23.2173 36.304H30.7741V38.1506H23.2173V36.304ZM35.5291 42V31.0909H37.6527V42H35.5291ZM36.6016 29.4077C36.2322 29.4077 35.915 29.2846 35.6499 29.0384C35.3894 28.7874 35.2592 28.4891 35.2592 28.1435C35.2592 27.7931 35.3894 27.4948 35.6499 27.2486C35.915 26.9976 36.2322 26.8722 36.6016 26.8722C36.9709 26.8722 37.2857 26.9976 37.5462 27.2486C37.8113 27.4948 37.9439 27.7931 37.9439 28.1435C37.9439 28.4891 37.8113 28.7874 37.5462 29.0384C37.2857 29.2846 36.9709 29.4077 36.6016 29.4077ZM40.5096 42V31.0909H42.5621V32.8239H42.6758C42.8746 32.2367 43.225 31.7751 43.7269 31.4389C44.2335 31.098 44.8065 30.9276 45.4457 30.9276C45.5782 30.9276 45.7345 30.9323 45.9144 30.9418C46.0991 30.9512 46.2435 30.9631 46.3477 30.9773V33.0085C46.2624 32.9848 46.1109 32.9588 45.8931 32.9304C45.6753 32.8973 45.4575 32.8807 45.2397 32.8807C44.7378 32.8807 44.2904 32.9872 43.8974 33.2003C43.5091 33.4086 43.2013 33.6998 42.9741 34.0739C42.7468 34.4432 42.6332 34.8646 42.6332 35.3381V42H40.5096ZM58.0735 42.2202C57.0176 42.2202 56.1085 41.9811 55.3462 41.5028C54.5887 41.0199 54.0063 40.3546 53.5991 39.5071C53.1919 38.6596 52.9883 37.6889 52.9883 36.5952C52.9883 35.4872 53.1966 34.5095 53.6133 33.6619C54.0299 32.8097 54.6171 32.1444 55.3746 31.6662C56.1322 31.188 57.0247 30.9489 58.0522 30.9489C58.8808 30.9489 59.6194 31.1027 60.2681 31.4105C60.9168 31.7135 61.44 32.1397 61.8377 32.6889C62.2402 33.2382 62.4793 33.8797 62.555 34.6136H60.4883C60.3746 34.1023 60.1142 33.6619 59.707 33.2926C59.3046 32.9233 58.7648 32.7386 58.0877 32.7386C57.4959 32.7386 56.9774 32.8949 56.5323 33.2074C56.092 33.5152 55.7487 33.9555 55.5025 34.5284C55.2563 35.0966 55.1332 35.7689 55.1332 36.5455C55.1332 37.3409 55.2539 38.0275 55.4954 38.6051C55.7369 39.1828 56.0778 39.6302 56.5181 39.9474C56.9632 40.2647 57.4864 40.4233 58.0877 40.4233C58.4902 40.4233 58.8548 40.3499 59.1815 40.2031C59.5129 40.0516 59.7899 39.8362 60.0124 39.5568C60.2397 39.2775 60.3983 38.9413 60.4883 38.5483H62.555C62.4793 39.2538 62.2496 39.8835 61.8661 40.4375C61.4826 40.9915 60.9689 41.4271 60.3249 41.7443C59.6857 42.0616 58.9353 42.2202 58.0735 42.2202ZM69.4212 42.2202C68.3984 42.2202 67.5059 41.9858 66.7436 41.517C65.9813 41.0483 65.3894 40.3925 64.968 39.5497C64.5466 38.7069 64.3359 37.7221 64.3359 36.5952C64.3359 35.4635 64.5466 34.474 64.968 33.6264C65.3894 32.7789 65.9813 32.1207 66.7436 31.652C67.5059 31.1832 68.3984 30.9489 69.4212 30.9489C70.4439 30.9489 71.3364 31.1832 72.0987 31.652C72.861 32.1207 73.4529 32.7789 73.8743 33.6264C74.2957 34.474 74.5064 35.4635 74.5064 36.5952C74.5064 37.7221 74.2957 38.7069 73.8743 39.5497C73.4529 40.3925 72.861 41.0483 72.0987 41.517C71.3364 41.9858 70.4439 42.2202 69.4212 42.2202ZM69.4283 40.4375C70.0911 40.4375 70.6404 40.2623 71.076 39.9119C71.5116 39.5616 71.8336 39.0952 72.0419 38.5128C72.255 37.9304 72.3615 37.2888 72.3615 36.5881C72.3615 35.892 72.255 35.2528 72.0419 34.6705C71.8336 34.0833 71.5116 33.6122 71.076 33.2571C70.6404 32.902 70.0911 32.7244 69.4283 32.7244C68.7607 32.7244 68.2067 32.902 67.7663 33.2571C67.3307 33.6122 67.0064 34.0833 66.7933 34.6705C66.585 35.2528 66.4808 35.892 66.4808 36.5881C66.4808 37.2888 66.585 37.9304 66.7933 38.5128C67.0064 39.0952 67.3307 39.5616 67.7663 39.9119C68.2067 40.2623 68.7607 40.4375 69.4283 40.4375ZM79.0004 35.5227V42H76.8768V31.0909H78.9151V32.8665H79.0501C79.301 32.2888 79.694 31.8248 80.229 31.4744C80.7688 31.1241 81.4483 30.9489 82.2674 30.9489C83.0108 30.9489 83.6618 31.1051 84.2205 31.4176C84.7792 31.7254 85.2125 32.1847 85.5202 32.7955C85.828 33.4062 85.9819 34.1615 85.9819 35.0611V42H83.8583V35.3168C83.8583 34.526 83.6523 33.9081 83.2404 33.4631C82.8285 33.0133 82.2627 32.7884 81.543 32.7884C81.0505 32.7884 80.6126 32.8949 80.229 33.108C79.8503 33.321 79.5496 33.6335 79.3271 34.0455C79.1093 34.4527 79.0004 34.9451 79.0004 35.5227ZM92.9137 42.2131C92.033 42.2131 91.247 41.9882 90.5558 41.5384C89.8692 41.0838 89.3294 40.4375 88.9364 39.5994C88.5482 38.7566 88.354 37.7457 88.354 36.5668C88.354 35.3878 88.5505 34.3793 88.9435 33.5412C89.3413 32.7031 89.8858 32.0616 90.5771 31.6165C91.2683 31.1714 92.052 30.9489 92.9279 30.9489C93.605 30.9489 94.1495 31.0625 94.5614 31.2898C94.9781 31.5123 95.3001 31.7727 95.5273 32.071C95.7594 32.3693 95.9393 32.6321 96.0671 32.8594H96.195V27.4545H98.3185V42H96.2447V40.3026H96.0671C95.9393 40.5346 95.7546 40.7997 95.5131 41.098C95.2764 41.3963 94.9497 41.6567 94.533 41.8793C94.1164 42.1018 93.5766 42.2131 92.9137 42.2131ZM93.3825 40.402C93.9933 40.402 94.5094 40.241 94.9308 39.919C95.3569 39.5923 95.6789 39.1402 95.8967 38.5625C96.1192 37.9848 96.2305 37.3125 96.2305 36.5455C96.2305 35.7879 96.1216 35.125 95.9038 34.5568C95.686 33.9886 95.3664 33.5459 94.945 33.2287C94.5236 32.9115 94.0027 32.7528 93.3825 32.7528C92.7433 32.7528 92.2106 32.9186 91.7844 33.25C91.3583 33.5814 91.0363 34.0336 90.8185 34.6065C90.6055 35.1795 90.4989 35.8258 90.4989 36.5455C90.4989 37.2746 90.6078 37.9304 90.8256 38.5128C91.0434 39.0952 91.3654 39.5568 91.7915 39.8977C92.2224 40.2339 92.7527 40.402 93.3825 40.402ZM101.349 42V31.0909H103.473V42H101.349ZM102.422 29.4077C102.053 29.4077 101.735 29.2846 101.47 29.0384C101.21 28.7874 101.08 28.4891 101.08 28.1435C101.08 27.7931 101.21 27.4948 101.47 27.2486C101.735 26.9976 102.053 26.8722 102.422 26.8722C102.791 26.8722 103.106 26.9976 103.366 27.2486C103.632 27.4948 103.764 27.7931 103.764 28.1435C103.764 28.4891 103.632 28.7874 103.366 29.0384C103.106 29.2846 102.791 29.4077 102.422 29.4077ZM111.422 31.0909V32.7955H105.463V31.0909H111.422ZM107.061 28.4773H109.185V38.7969C109.185 39.2088 109.247 39.5189 109.37 39.7273C109.493 39.9309 109.651 40.0705 109.846 40.1463C110.044 40.2173 110.26 40.2528 110.492 40.2528C110.662 40.2528 110.811 40.241 110.939 40.2173C111.067 40.1937 111.167 40.1747 111.238 40.1605L111.621 41.9148C111.498 41.9621 111.323 42.0095 111.096 42.0568C110.868 42.1089 110.584 42.1373 110.243 42.142C109.685 42.1515 109.164 42.0521 108.681 41.8438C108.198 41.6354 107.807 41.3134 107.509 40.8778C107.211 40.4422 107.061 39.8954 107.061 39.2372V28.4773ZM113.771 42V31.0909H115.895V42H113.771ZM114.844 29.4077C114.474 29.4077 114.157 29.2846 113.892 29.0384C113.632 28.7874 113.501 28.4891 113.501 28.1435C113.501 27.7931 113.632 27.4948 113.892 27.2486C114.157 26.9976 114.474 26.8722 114.844 26.8722C115.213 26.8722 115.528 26.9976 115.788 27.2486C116.054 27.4948 116.186 27.7931 116.186 28.1435C116.186 28.4891 116.054 28.7874 115.788 29.0384C115.528 29.2846 115.213 29.4077 114.844 29.4077ZM123.347 42.2202C122.324 42.2202 121.432 41.9858 120.669 41.517C119.907 41.0483 119.315 40.3925 118.894 39.5497C118.472 38.7069 118.262 37.7221 118.262 36.5952C118.262 35.4635 118.472 34.474 118.894 33.6264C119.315 32.7789 119.907 32.1207 120.669 31.652C121.432 31.1832 122.324 30.9489 123.347 30.9489C124.37 30.9489 125.262 31.1832 126.025 31.652C126.787 32.1207 127.379 32.7789 127.8 33.6264C128.221 34.474 128.432 35.4635 128.432 36.5952C128.432 37.7221 128.221 38.7069 127.8 39.5497C127.379 40.3925 126.787 41.0483 126.025 41.517C125.262 41.9858 124.37 42.2202 123.347 42.2202ZM123.354 40.4375C124.017 40.4375 124.566 40.2623 125.002 39.9119C125.437 39.5616 125.759 39.0952 125.968 38.5128C126.181 37.9304 126.287 37.2888 126.287 36.5881C126.287 35.892 126.181 35.2528 125.968 34.6705C125.759 34.0833 125.437 33.6122 125.002 33.2571C124.566 32.902 124.017 32.7244 123.354 32.7244C122.686 32.7244 122.132 32.902 121.692 33.2571C121.257 33.6122 120.932 34.0833 120.719 34.6705C120.511 35.2528 120.407 35.892 120.407 36.5881C120.407 37.2888 120.511 37.9304 120.719 38.5128C120.932 39.0952 121.257 39.5616 121.692 39.9119C122.132 40.2623 122.686 40.4375 123.354 40.4375ZM132.926 35.5227V42H130.803V31.0909H132.841V32.8665H132.976C133.227 32.2888 133.62 31.8248 134.155 31.4744C134.695 31.1241 135.374 30.9489 136.193 30.9489C136.937 30.9489 137.588 31.1051 138.146 31.4176C138.705 31.7254 139.138 32.1847 139.446 32.7955C139.754 33.4062 139.908 34.1615 139.908 35.0611V42H137.784V35.3168C137.784 34.526 137.578 33.9081 137.166 33.4631C136.754 33.0133 136.188 32.7884 135.469 32.7884C134.976 32.7884 134.538 32.8949 134.155 33.108C133.776 33.321 133.475 33.6335 133.253 34.0455C133.035 34.4527 132.926 34.9451 132.926 35.5227ZM150.93 33.7543L149.006 34.0952C148.925 33.849 148.797 33.6146 148.622 33.392C148.452 33.1695 148.22 32.9872 147.926 32.8452C147.633 32.7031 147.266 32.6321 146.825 32.6321C146.224 32.6321 145.722 32.767 145.32 33.0369C144.917 33.3021 144.716 33.6454 144.716 34.0668C144.716 34.4313 144.851 34.7249 145.121 34.9474C145.391 35.17 145.826 35.3523 146.428 35.4943L148.161 35.892C149.164 36.1241 149.912 36.4815 150.405 36.9645C150.897 37.4474 151.143 38.0748 151.143 38.8466C151.143 39.5 150.954 40.0824 150.575 40.5938C150.201 41.1004 149.678 41.4981 149.006 41.7869C148.338 42.0758 147.564 42.2202 146.683 42.2202C145.462 42.2202 144.465 41.9598 143.693 41.4389C142.921 40.9134 142.448 40.1676 142.273 39.2017L144.325 38.8892C144.453 39.4242 144.716 39.8291 145.114 40.1037C145.511 40.3736 146.03 40.5085 146.669 40.5085C147.365 40.5085 147.921 40.3641 148.338 40.0753C148.755 39.7817 148.963 39.4242 148.963 39.0028C148.963 38.6619 148.835 38.3755 148.58 38.1435C148.329 37.9115 147.943 37.7363 147.422 37.6179L145.575 37.2131C144.557 36.9811 143.804 36.6117 143.317 36.1051C142.834 35.5985 142.592 34.9569 142.592 34.1804C142.592 33.5365 142.772 32.973 143.132 32.4901C143.492 32.0071 143.989 31.6307 144.624 31.3608C145.258 31.0862 145.985 30.9489 146.804 30.9489C147.983 30.9489 148.911 31.2045 149.588 31.7159C150.265 32.2225 150.713 32.902 150.93 33.7543Z" fill="white"/>
<path d="M21.598 105V90.4545H30.6179V92.3438H23.7926V96.7756H29.9716V98.6577H23.7926V105H21.598ZM37.0472 105.22C35.9724 105.22 35.0468 104.991 34.2702 104.531C33.4985 104.067 32.9019 103.416 32.4805 102.578C32.0638 101.735 31.8555 100.748 31.8555 99.6165C31.8555 98.4991 32.0638 97.5142 32.4805 96.6619C32.9019 95.8097 33.489 95.1444 34.2418 94.6662C34.9994 94.188 35.8848 93.9489 36.8981 93.9489C37.5136 93.9489 38.1102 94.0507 38.6879 94.2543C39.2655 94.4579 39.784 94.7775 40.2433 95.2131C40.7025 95.6487 41.0647 96.2145 41.3299 96.9105C41.5951 97.6018 41.7276 98.4422 41.7276 99.4318V100.185H33.0558V98.5938H39.6467C39.6467 98.035 39.533 97.5402 39.3058 97.1094C39.0785 96.6738 38.7589 96.3305 38.3469 96.0795C37.9397 95.8286 37.4615 95.7031 36.9123 95.7031C36.3157 95.7031 35.7949 95.8499 35.3498 96.1435C34.9094 96.4323 34.5685 96.8111 34.3271 97.2798C34.0903 97.7438 33.9719 98.2481 33.9719 98.7926V100.036C33.9719 100.765 34.0998 101.385 34.3555 101.896C34.6159 102.408 34.9781 102.798 35.4421 103.068C35.9061 103.333 36.4483 103.466 37.0685 103.466C37.471 103.466 37.838 103.409 38.1694 103.295C38.5008 103.177 38.7873 103.002 39.0288 102.77C39.2702 102.538 39.4549 102.251 39.5827 101.911L41.5927 102.273C41.4317 102.865 41.1429 103.383 40.7262 103.828C40.3143 104.268 39.7958 104.612 39.1708 104.858C38.5505 105.099 37.8427 105.22 37.0472 105.22ZM48.7855 105.22C47.7107 105.22 46.785 104.991 46.0085 104.531C45.2367 104.067 44.6402 103.416 44.2188 102.578C43.8021 101.735 43.5938 100.748 43.5938 99.6165C43.5938 98.4991 43.8021 97.5142 44.2188 96.6619C44.6402 95.8097 45.2273 95.1444 45.9801 94.6662C46.7377 94.188 47.6231 93.9489 48.6364 93.9489C49.2519 93.9489 49.8485 94.0507 50.4261 94.2543C51.0038 94.4579 51.5223 94.7775 51.9815 95.2131C52.4408 95.6487 52.803 96.2145 53.0682 96.9105C53.3333 97.6018 53.4659 98.4422 53.4659 99.4318V100.185H44.794V98.5938H51.3849C51.3849 98.035 51.2713 97.5402 51.044 97.1094C50.8168 96.6738 50.4972 96.3305 50.0852 96.0795C49.678 95.8286 49.1998 95.7031 48.6506 95.7031C48.054 95.7031 47.5331 95.8499 47.0881 96.1435C46.6477 96.4323 46.3068 96.8111 46.0653 97.2798C45.8286 97.7438 45.7102 98.2481 45.7102 98.7926V100.036C45.7102 100.765 45.8381 101.385 46.0938 101.896C46.3542 102.408 46.7164 102.798 47.1804 103.068C47.6444 103.333 48.1866 103.466 48.8068 103.466C49.2093 103.466 49.5762 103.409 49.9077 103.295C50.2391 103.177 50.5256 103.002 50.767 102.77C51.0085 102.538 51.1932 102.251 51.321 101.911L53.331 102.273C53.17 102.865 52.8812 103.383 52.4645 103.828C52.0526 104.268 51.5341 104.612 50.9091 104.858C50.2888 105.099 49.581 105.22 48.7855 105.22ZM57.9457 90.4545V105H55.8221V90.4545H57.9457ZM68.9773 96.7543L67.0526 97.0952C66.9721 96.849 66.8442 96.6146 66.669 96.392C66.4986 96.1695 66.2666 95.9872 65.973 95.8452C65.6795 95.7031 65.3125 95.6321 64.8722 95.6321C64.2708 95.6321 63.7689 95.767 63.3665 96.0369C62.964 96.3021 62.7628 96.6454 62.7628 97.0668C62.7628 97.4313 62.8977 97.7249 63.1676 97.9474C63.4375 98.17 63.8731 98.3523 64.4744 98.4943L66.2074 98.892C67.2112 99.1241 67.9593 99.4815 68.4517 99.9645C68.9441 100.447 69.1903 101.075 69.1903 101.847C69.1903 102.5 69.0009 103.082 68.6222 103.594C68.2481 104.1 67.7249 104.498 67.0526 104.787C66.3849 105.076 65.6108 105.22 64.7301 105.22C63.5085 105.22 62.5118 104.96 61.7401 104.439C60.9683 103.913 60.4948 103.168 60.3196 102.202L62.3722 101.889C62.5 102.424 62.7628 102.829 63.1605 103.104C63.5582 103.374 64.0767 103.509 64.7159 103.509C65.4119 103.509 65.9683 103.364 66.3849 103.075C66.8016 102.782 67.0099 102.424 67.0099 102.003C67.0099 101.662 66.8821 101.375 66.6264 101.143C66.3755 100.911 65.9896 100.736 65.4688 100.618L63.6222 100.213C62.6042 99.9811 61.8513 99.6117 61.3636 99.1051C60.8807 98.5985 60.6392 97.9569 60.6392 97.1804C60.6392 96.5365 60.8191 95.973 61.179 95.4901C61.5388 95.0071 62.036 94.6307 62.6705 94.3608C63.3049 94.0862 64.0317 93.9489 64.8509 93.9489C66.0298 93.9489 66.9579 94.2045 67.6349 94.7159C68.312 95.2225 68.7595 95.902 68.9773 96.7543ZM78.9418 90.4545V105H76.8182V90.4545H78.9418ZM81.7987 105V94.0909H83.9222V105H81.7987ZM82.8711 92.4077C82.5018 92.4077 82.1845 92.2846 81.9194 92.0384C81.659 91.7874 81.5288 91.4891 81.5288 91.1435C81.5288 90.7931 81.659 90.4948 81.9194 90.2486C82.1845 89.9976 82.5018 89.8722 82.8711 89.8722C83.2404 89.8722 83.5553 89.9976 83.8157 90.2486C84.0808 90.4948 84.2134 90.7931 84.2134 91.1435C84.2134 91.4891 84.0808 91.7874 83.8157 92.0384C83.5553 92.2846 83.2404 92.4077 82.8711 92.4077ZM88.7322 101.3L88.718 98.7074H89.0874L93.4339 94.0909H95.9766L91.0192 99.3466H90.6854L88.7322 101.3ZM86.7791 105V90.4545H88.9027V105H86.7791ZM93.6683 105L89.7621 99.8153L91.2251 98.331L96.2749 105H93.6683ZM102.164 105.22C101.09 105.22 100.164 104.991 99.3874 104.531C98.6156 104.067 98.0191 103.416 97.5977 102.578C97.181 101.735 96.9727 100.748 96.9727 99.6165C96.9727 98.4991 97.181 97.5142 97.5977 96.6619C98.0191 95.8097 98.6062 95.1444 99.359 94.6662C100.117 94.188 101.002 93.9489 102.015 93.9489C102.631 93.9489 103.227 94.0507 103.805 94.2543C104.383 94.4579 104.901 94.7775 105.36 95.2131C105.82 95.6487 106.182 96.2145 106.447 96.9105C106.712 97.6018 106.845 98.4422 106.845 99.4318V100.185H98.1729V98.5938H104.764C104.764 98.035 104.65 97.5402 104.423 97.1094C104.196 96.6738 103.876 96.3305 103.464 96.0795C103.057 95.8286 102.579 95.7031 102.029 95.7031C101.433 95.7031 100.912 95.8499 100.467 96.1435C100.027 96.4323 99.6857 96.8111 99.4442 97.2798C99.2075 97.7438 99.0891 98.2481 99.0891 98.7926V100.036C99.0891 100.765 99.217 101.385 99.4727 101.896C99.7331 102.408 100.095 102.798 100.559 103.068C101.023 103.333 101.565 103.466 102.186 103.466C102.588 103.466 102.955 103.409 103.287 103.295C103.618 103.177 103.904 103.002 104.146 102.77C104.387 102.538 104.572 102.251 104.7 101.911L106.71 102.273C106.549 102.865 106.26 103.383 105.843 103.828C105.431 104.268 104.913 104.612 104.288 104.858C103.668 105.099 102.96 105.22 102.164 105.22ZM110.6 105.135C110.212 105.135 109.878 104.998 109.599 104.723C109.319 104.444 109.18 104.107 109.18 103.714C109.18 103.326 109.319 102.995 109.599 102.72C109.878 102.441 110.212 102.301 110.6 102.301C110.988 102.301 111.322 102.441 111.602 102.72C111.881 102.995 112.021 103.326 112.021 103.714C112.021 103.975 111.954 104.214 111.822 104.432C111.694 104.645 111.523 104.815 111.31 104.943C111.097 105.071 110.861 105.135 110.6 105.135ZM110.6 97.1946C110.212 97.1946 109.878 97.0549 109.599 96.7756C109.319 96.4962 109.18 96.1624 109.18 95.7741C109.18 95.3859 109.319 95.0545 109.599 94.7798C109.878 94.5005 110.212 94.3608 110.6 94.3608C110.988 94.3608 111.322 94.5005 111.602 94.7798C111.881 95.0545 112.021 95.3859 112.021 95.7741C112.021 96.0346 111.954 96.2737 111.822 96.4915C111.694 96.7045 111.523 96.875 111.31 97.0028C111.097 97.1307 110.861 97.1946 110.6 97.1946Z" fill="white"/>
<path d="M33.679 197.185H31.4631C31.3778 196.711 31.2192 196.295 30.9872 195.935C30.7552 195.575 30.4711 195.269 30.1349 195.018C29.7988 194.768 29.4223 194.578 29.0057 194.45C28.5938 194.322 28.1558 194.259 27.6918 194.259C26.8537 194.259 26.1032 194.469 25.4403 194.891C24.7822 195.312 24.2614 195.93 23.8778 196.744C23.4991 197.559 23.3097 198.553 23.3097 199.727C23.3097 200.911 23.4991 201.91 23.8778 202.724C24.2614 203.539 24.7846 204.154 25.4474 204.571C26.1103 204.988 26.8561 205.196 27.6847 205.196C28.1439 205.196 28.5795 205.134 28.9915 205.011C29.4081 204.884 29.7846 204.696 30.1207 204.45C30.4569 204.204 30.741 203.903 30.973 203.548C31.2098 203.188 31.3731 202.777 31.4631 202.312L33.679 202.32C33.5606 203.035 33.331 203.693 32.9901 204.294C32.6539 204.891 32.2206 205.407 31.6903 205.842C31.1648 206.273 30.5634 206.607 29.8864 206.844C29.2093 207.08 28.4706 207.199 27.6705 207.199C26.411 207.199 25.2888 206.901 24.304 206.304C23.3191 205.703 22.5426 204.843 21.9744 203.726C21.411 202.608 21.1293 201.276 21.1293 199.727C21.1293 198.174 21.4134 196.841 21.9815 195.729C22.5497 194.611 23.3262 193.754 24.3111 193.158C25.2959 192.556 26.4157 192.256 27.6705 192.256C28.4422 192.256 29.1619 192.367 29.8295 192.589C30.5019 192.807 31.1056 193.129 31.6406 193.555C32.1757 193.977 32.6184 194.493 32.9688 195.104C33.3191 195.71 33.5559 196.403 33.679 197.185ZM38.2582 200.523V207H36.1346V192.455H38.2298V197.866H38.3647C38.6204 197.279 39.011 196.813 39.5366 196.467C40.0621 196.122 40.7487 195.949 41.5962 195.949C42.3443 195.949 42.9978 196.103 43.5565 196.411C44.1199 196.718 44.5555 197.178 44.8633 197.788C45.1758 198.394 45.332 199.152 45.332 200.061V207H43.2085V200.317C43.2085 199.517 43.0025 198.896 42.5906 198.456C42.1786 198.011 41.6057 197.788 40.8718 197.788C40.3699 197.788 39.9201 197.895 39.5224 198.108C39.1294 198.321 38.8192 198.634 38.592 199.045C38.3694 199.453 38.2582 199.945 38.2582 200.523ZM51.3406 207.241C50.6493 207.241 50.0243 207.114 49.4656 206.858C48.9068 206.598 48.4641 206.221 48.1374 205.729C47.8155 205.236 47.6545 204.633 47.6545 203.918C47.6545 203.302 47.7728 202.795 48.0096 202.398C48.2463 202 48.5659 201.685 48.9684 201.453C49.3709 201.221 49.8207 201.046 50.3178 200.928C50.815 200.809 51.3216 200.719 51.8377 200.658C52.4911 200.582 53.0214 200.52 53.4286 200.473C53.8358 200.421 54.1317 200.338 54.3164 200.224C54.5011 200.111 54.5934 199.926 54.5934 199.67V199.621C54.5934 199 54.4182 198.52 54.0678 198.179C53.7222 197.838 53.2061 197.668 52.5195 197.668C51.8046 197.668 51.2411 197.826 50.8292 198.143C50.422 198.456 50.1403 198.804 49.984 199.188L47.9883 198.733C48.225 198.07 48.5707 197.535 49.0252 197.128C49.4845 196.716 50.0124 196.418 50.609 196.233C51.2056 196.044 51.833 195.949 52.4911 195.949C52.9267 195.949 53.3884 196.001 53.8761 196.105C54.3685 196.205 54.8278 196.389 55.2539 196.659C55.6848 196.929 56.0375 197.315 56.3121 197.817C56.5868 198.314 56.7241 198.96 56.7241 199.756V207H54.6502V205.509H54.565C54.4277 205.783 54.2217 206.053 53.9471 206.318C53.6725 206.583 53.3197 206.804 52.8888 206.979C52.458 207.154 51.9419 207.241 51.3406 207.241ZM51.8022 205.537C52.3893 205.537 52.8912 205.421 53.3079 205.189C53.7293 204.957 54.0489 204.654 54.2667 204.28C54.4892 203.901 54.6005 203.496 54.6005 203.065V201.659C54.5247 201.735 54.378 201.806 54.1602 201.872C53.9471 201.934 53.7032 201.988 53.4286 202.036C53.154 202.078 52.8865 202.118 52.6261 202.156C52.3656 202.189 52.1478 202.218 51.9727 202.241C51.5607 202.294 51.1843 202.381 50.8434 202.504C50.5072 202.627 50.2373 202.805 50.0337 203.037C49.8349 203.264 49.7354 203.567 49.7354 203.946C49.7354 204.472 49.9296 204.869 50.3178 205.139C50.7061 205.404 51.2009 205.537 51.8022 205.537ZM61.6761 200.523V207H59.5526V196.091H61.5909V197.866H61.7259C61.9768 197.289 62.3698 196.825 62.9048 196.474C63.4446 196.124 64.1241 195.949 64.9432 195.949C65.6866 195.949 66.3376 196.105 66.8963 196.418C67.455 196.725 67.8883 197.185 68.196 197.795C68.5038 198.406 68.6577 199.161 68.6577 200.061V207H66.5341V200.317C66.5341 199.526 66.3281 198.908 65.9162 198.463C65.5043 198.013 64.9384 197.788 64.2188 197.788C63.7263 197.788 63.2884 197.895 62.9048 198.108C62.526 198.321 62.2254 198.634 62.0028 199.045C61.785 199.453 61.6761 199.945 61.6761 200.523ZM76.1009 207.22C75.045 207.22 74.1359 206.981 73.3736 206.503C72.616 206.02 72.0336 205.355 71.6264 204.507C71.2192 203.66 71.0156 202.689 71.0156 201.595C71.0156 200.487 71.224 199.509 71.6406 198.662C72.0573 197.81 72.6444 197.144 73.402 196.666C74.1596 196.188 75.0521 195.949 76.0795 195.949C76.9081 195.949 77.6468 196.103 78.2955 196.411C78.9441 196.714 79.4673 197.14 79.8651 197.689C80.2675 198.238 80.5066 198.88 80.5824 199.614H78.5156C78.402 199.102 78.1416 198.662 77.7344 198.293C77.3319 197.923 76.7921 197.739 76.1151 197.739C75.5232 197.739 75.0047 197.895 74.5597 198.207C74.1193 198.515 73.776 198.955 73.5298 199.528C73.2836 200.097 73.1605 200.769 73.1605 201.545C73.1605 202.341 73.2813 203.027 73.5227 203.605C73.7642 204.183 74.1051 204.63 74.5455 204.947C74.9905 205.265 75.5137 205.423 76.1151 205.423C76.5175 205.423 76.8821 205.35 77.2088 205.203C77.5402 205.052 77.8172 204.836 78.0398 204.557C78.267 204.277 78.4257 203.941 78.5156 203.548H80.5824C80.5066 204.254 80.277 204.884 79.8935 205.438C79.5099 205.991 78.9962 206.427 78.3523 206.744C77.7131 207.062 76.9626 207.22 76.1009 207.22ZM87.555 207.22C86.4802 207.22 85.5546 206.991 84.7781 206.531C84.0063 206.067 83.4097 205.416 82.9883 204.578C82.5716 203.735 82.3633 202.748 82.3633 201.616C82.3633 200.499 82.5716 199.514 82.9883 198.662C83.4097 197.81 83.9968 197.144 84.7496 196.666C85.5072 196.188 86.3926 195.949 87.4059 195.949C88.0214 195.949 88.618 196.051 89.1957 196.254C89.7733 196.458 90.2918 196.777 90.7511 197.213C91.2103 197.649 91.5726 198.214 91.8377 198.911C92.1029 199.602 92.2354 200.442 92.2354 201.432V202.185H83.5636V200.594H90.1545C90.1545 200.035 90.0408 199.54 89.8136 199.109C89.5863 198.674 89.2667 198.33 88.8548 198.08C88.4476 197.829 87.9693 197.703 87.4201 197.703C86.8235 197.703 86.3027 197.85 85.8576 198.143C85.4173 198.432 85.0763 198.811 84.8349 199.28C84.5981 199.744 84.4798 200.248 84.4798 200.793V202.036C84.4798 202.765 84.6076 203.385 84.8633 203.896C85.1237 204.408 85.4859 204.798 85.9499 205.068C86.4139 205.333 86.9561 205.466 87.5763 205.466C87.9788 205.466 88.3458 205.409 88.6772 205.295C89.0086 205.177 89.2951 205.002 89.5366 204.77C89.7781 204.538 89.9627 204.251 90.0906 203.911L92.1005 204.273C91.9395 204.865 91.6507 205.383 91.234 205.828C90.8221 206.268 90.3036 206.612 89.6786 206.858C89.0584 207.099 88.3505 207.22 87.555 207.22ZM104.48 207.22C103.457 207.22 102.565 206.986 101.802 206.517C101.04 206.048 100.448 205.393 100.027 204.55C99.6052 203.707 99.3945 202.722 99.3945 201.595C99.3945 200.464 99.6052 199.474 100.027 198.626C100.448 197.779 101.04 197.121 101.802 196.652C102.565 196.183 103.457 195.949 104.48 195.949C105.502 195.949 106.395 196.183 107.157 196.652C107.92 197.121 108.511 197.779 108.933 198.626C109.354 199.474 109.565 200.464 109.565 201.595C109.565 202.722 109.354 203.707 108.933 204.55C108.511 205.393 107.92 206.048 107.157 206.517C106.395 206.986 105.502 207.22 104.48 207.22ZM104.487 205.438C105.15 205.438 105.699 205.262 106.135 204.912C106.57 204.562 106.892 204.095 107.1 203.513C107.314 202.93 107.42 202.289 107.42 201.588C107.42 200.892 107.314 200.253 107.1 199.67C106.892 199.083 106.57 198.612 106.135 198.257C105.699 197.902 105.15 197.724 104.487 197.724C103.819 197.724 103.265 197.902 102.825 198.257C102.389 198.612 102.065 199.083 101.852 199.67C101.644 200.253 101.539 200.892 101.539 201.588C101.539 202.289 101.644 202.93 101.852 203.513C102.065 204.095 102.389 204.562 102.825 204.912C103.265 205.262 103.819 205.438 104.487 205.438ZM117.127 196.091V197.795H110.962V196.091H117.127ZM112.653 207V194.827C112.653 194.145 112.802 193.579 113.1 193.129C113.398 192.675 113.794 192.336 114.286 192.114C114.779 191.886 115.314 191.773 115.891 191.773C116.317 191.773 116.682 191.808 116.985 191.879C117.288 191.946 117.513 192.007 117.66 192.064L117.163 193.783C117.063 193.754 116.935 193.721 116.779 193.683C116.623 193.641 116.433 193.619 116.211 193.619C115.695 193.619 115.326 193.747 115.103 194.003C114.885 194.259 114.776 194.628 114.776 195.111V207H112.653ZM124.611 207V196.091H126.664V197.824H126.777C126.976 197.237 127.327 196.775 127.828 196.439C128.335 196.098 128.908 195.928 129.547 195.928C129.68 195.928 129.836 195.932 130.016 195.942C130.201 195.951 130.345 195.963 130.449 195.977V198.009C130.364 197.985 130.212 197.959 129.995 197.93C129.777 197.897 129.559 197.881 129.341 197.881C128.839 197.881 128.392 197.987 127.999 198.2C127.611 198.409 127.303 198.7 127.076 199.074C126.848 199.443 126.735 199.865 126.735 200.338V207H124.611ZM135.364 207.241C134.673 207.241 134.048 207.114 133.489 206.858C132.93 206.598 132.488 206.221 132.161 205.729C131.839 205.236 131.678 204.633 131.678 203.918C131.678 203.302 131.796 202.795 132.033 202.398C132.27 202 132.589 201.685 132.992 201.453C133.394 201.221 133.844 201.046 134.341 200.928C134.838 200.809 135.345 200.719 135.861 200.658C136.515 200.582 137.045 200.52 137.452 200.473C137.859 200.421 138.155 200.338 138.34 200.224C138.525 200.111 138.617 199.926 138.617 199.67V199.621C138.617 199 138.442 198.52 138.091 198.179C137.746 197.838 137.23 197.668 136.543 197.668C135.828 197.668 135.265 197.826 134.853 198.143C134.445 198.456 134.164 198.804 134.007 199.188L132.012 198.733C132.248 198.07 132.594 197.535 133.049 197.128C133.508 196.716 134.036 196.418 134.632 196.233C135.229 196.044 135.856 195.949 136.515 195.949C136.95 195.949 137.412 196.001 137.9 196.105C138.392 196.205 138.851 196.389 139.277 196.659C139.708 196.929 140.061 197.315 140.336 197.817C140.61 198.314 140.748 198.96 140.748 199.756V207H138.674V205.509H138.588C138.451 205.783 138.245 206.053 137.971 206.318C137.696 206.583 137.343 206.804 136.912 206.979C136.481 207.154 135.965 207.241 135.364 207.241ZM135.826 205.537C136.413 205.537 136.915 205.421 137.331 205.189C137.753 204.957 138.072 204.654 138.29 204.28C138.513 203.901 138.624 203.496 138.624 203.065V201.659C138.548 201.735 138.401 201.806 138.184 201.872C137.971 201.934 137.727 201.988 137.452 202.036C137.177 202.078 136.91 202.118 136.65 202.156C136.389 202.189 136.171 202.218 135.996 202.241C135.584 202.294 135.208 202.381 134.867 202.504C134.531 202.627 134.261 202.805 134.057 203.037C133.858 203.264 133.759 203.567 133.759 203.946C133.759 204.472 133.953 204.869 134.341 205.139C134.73 205.404 135.224 205.537 135.826 205.537ZM143.576 207V196.091H145.7V207H143.576ZM144.648 194.408C144.279 194.408 143.962 194.285 143.697 194.038C143.436 193.787 143.306 193.489 143.306 193.143C143.306 192.793 143.436 192.495 143.697 192.249C143.962 191.998 144.279 191.872 144.648 191.872C145.018 191.872 145.333 191.998 145.593 192.249C145.858 192.495 145.991 192.793 145.991 193.143C145.991 193.489 145.858 193.787 145.593 194.038C145.333 194.285 145.018 194.408 144.648 194.408ZM150.68 200.523V207H148.556V196.091H150.595V197.866H150.73C150.981 197.289 151.374 196.825 151.909 196.474C152.449 196.124 153.128 195.949 153.947 195.949C154.69 195.949 155.342 196.105 155.9 196.418C156.459 196.725 156.892 197.185 157.2 197.795C157.508 198.406 157.662 199.161 157.662 200.061V207H155.538V200.317C155.538 199.526 155.332 198.908 154.92 198.463C154.508 198.013 153.942 197.788 153.223 197.788C152.73 197.788 152.292 197.895 151.909 198.108C151.53 198.321 151.229 198.634 151.007 199.045C150.789 199.453 150.68 199.945 150.68 200.523ZM161.909 207.135C161.52 207.135 161.187 206.998 160.907 206.723C160.628 206.444 160.488 206.107 160.488 205.714C160.488 205.326 160.628 204.995 160.907 204.72C161.187 204.441 161.52 204.301 161.909 204.301C162.297 204.301 162.631 204.441 162.91 204.72C163.19 204.995 163.329 205.326 163.329 205.714C163.329 205.975 163.263 206.214 163.13 206.432C163.002 206.645 162.832 206.815 162.619 206.943C162.406 207.071 162.169 207.135 161.909 207.135ZM161.909 199.195C161.52 199.195 161.187 199.055 160.907 198.776C160.628 198.496 160.488 198.162 160.488 197.774C160.488 197.386 160.628 197.054 160.907 196.78C161.187 196.5 161.52 196.361 161.909 196.361C162.297 196.361 162.631 196.5 162.91 196.78C163.19 197.054 163.329 197.386 163.329 197.774C163.329 198.035 163.263 198.274 163.13 198.491C163.002 198.705 162.832 198.875 162.619 199.003C162.406 199.131 162.169 199.195 161.909 199.195Z" fill="white"/>
<path d="M566.952 192.455H569.153V202.021C569.153 203.039 568.914 203.941 568.436 204.727C567.958 205.509 567.286 206.124 566.419 206.574C565.553 207.019 564.537 207.241 563.372 207.241C562.212 207.241 561.199 207.019 560.332 206.574C559.466 206.124 558.794 205.509 558.315 204.727C557.837 203.941 557.598 203.039 557.598 202.021V192.455H559.793V201.844C559.793 202.502 559.937 203.087 560.226 203.598C560.519 204.109 560.934 204.512 561.469 204.805C562.004 205.094 562.638 205.239 563.372 205.239C564.111 205.239 564.748 205.094 565.283 204.805C565.822 204.512 566.234 204.109 566.518 203.598C566.807 203.087 566.952 202.502 566.952 201.844V192.455ZM573.615 192.455L577.664 204.301H577.827L581.875 192.455H584.248L579.013 207H576.478L571.243 192.455H573.615ZM593.836 192.455V207H591.641V192.455H593.836ZM598.985 200.523V207H596.861V196.091H598.9V197.866H599.034C599.285 197.289 599.678 196.825 600.213 196.474C600.753 196.124 601.433 195.949 602.252 195.949C602.995 195.949 603.646 196.105 604.205 196.418C604.764 196.725 605.197 197.185 605.505 197.795C605.812 198.406 605.966 199.161 605.966 200.061V207H603.843V200.317C603.843 199.526 603.637 198.908 603.225 198.463C602.813 198.013 602.247 197.788 601.527 197.788C601.035 197.788 600.597 197.895 600.213 198.108C599.835 198.321 599.534 198.634 599.311 199.045C599.094 199.453 598.985 199.945 598.985 200.523ZM612.898 207.213C612.017 207.213 611.231 206.988 610.54 206.538C609.854 206.084 609.314 205.437 608.921 204.599C608.533 203.757 608.338 202.746 608.338 201.567C608.338 200.388 608.535 199.379 608.928 198.541C609.326 197.703 609.87 197.062 610.561 196.616C611.253 196.171 612.036 195.949 612.912 195.949C613.589 195.949 614.134 196.062 614.546 196.29C614.962 196.512 615.284 196.773 615.512 197.071C615.744 197.369 615.924 197.632 616.051 197.859H616.179V192.455H618.303V207H616.229V205.303H616.051C615.924 205.535 615.739 205.8 615.498 206.098C615.261 206.396 614.934 206.657 614.517 206.879C614.101 207.102 613.561 207.213 612.898 207.213ZM613.367 205.402C613.978 205.402 614.494 205.241 614.915 204.919C615.341 204.592 615.663 204.14 615.881 203.562C616.104 202.985 616.215 202.312 616.215 201.545C616.215 200.788 616.106 200.125 615.888 199.557C615.67 198.989 615.351 198.546 614.929 198.229C614.508 197.911 613.987 197.753 613.367 197.753C612.728 197.753 612.195 197.919 611.769 198.25C611.343 198.581 611.021 199.034 610.803 199.607C610.59 200.179 610.483 200.826 610.483 201.545C610.483 202.275 610.592 202.93 610.81 203.513C611.028 204.095 611.35 204.557 611.776 204.898C612.207 205.234 612.737 205.402 613.367 205.402ZM626.036 207.22C624.961 207.22 624.035 206.991 623.259 206.531C622.487 206.067 621.89 205.416 621.469 204.578C621.052 203.735 620.844 202.748 620.844 201.616C620.844 200.499 621.052 199.514 621.469 198.662C621.89 197.81 622.477 197.144 623.23 196.666C623.988 196.188 624.873 195.949 625.886 195.949C626.502 195.949 627.098 196.051 627.676 196.254C628.254 196.458 628.772 196.777 629.232 197.213C629.691 197.649 630.053 198.214 630.318 198.911C630.583 199.602 630.716 200.442 630.716 201.432V202.185H622.044V200.594H628.635C628.635 200.035 628.521 199.54 628.294 199.109C628.067 198.674 627.747 198.33 627.335 198.08C626.928 197.829 626.45 197.703 625.901 197.703C625.304 197.703 624.783 197.85 624.338 198.143C623.898 198.432 623.557 198.811 623.315 199.28C623.079 199.744 622.96 200.248 622.96 200.793V202.036C622.96 202.765 623.088 203.385 623.344 203.896C623.604 204.408 623.966 204.798 624.43 205.068C624.894 205.333 625.437 205.466 626.057 205.466C626.459 205.466 626.826 205.409 627.158 205.295C627.489 205.177 627.776 205.002 628.017 204.77C628.259 204.538 628.443 204.251 628.571 203.911L630.581 204.273C630.42 204.865 630.131 205.383 629.714 205.828C629.303 206.268 628.784 206.612 628.159 206.858C627.539 207.099 626.831 207.22 626.036 207.22ZM634.494 196.091L636.902 200.338L639.331 196.091H641.653L638.251 201.545L641.682 207H639.359L636.902 202.923L634.452 207H632.122L635.517 201.545L632.165 196.091H634.494ZM645.233 207.135C644.845 207.135 644.511 206.998 644.232 206.723C643.952 206.444 643.812 206.107 643.812 205.714C643.812 205.326 643.952 204.995 644.232 204.72C644.511 204.441 644.845 204.301 645.233 204.301C645.621 204.301 645.955 204.441 646.234 204.72C646.514 204.995 646.653 205.326 646.653 205.714C646.653 205.975 646.587 206.214 646.455 206.432C646.327 206.645 646.156 206.815 645.943 206.943C645.73 207.071 645.493 207.135 645.233 207.135ZM645.233 199.195C644.845 199.195 644.511 199.055 644.232 198.776C643.952 198.496 643.812 198.162 643.812 197.774C643.812 197.386 643.952 197.054 644.232 196.78C644.511 196.5 644.845 196.361 645.233 196.361C645.621 196.361 645.955 196.5 646.234 196.78C646.514 197.054 646.653 197.386 646.653 197.774C646.653 198.035 646.587 198.274 646.455 198.491C646.327 198.705 646.156 198.875 645.943 199.003C645.73 199.131 645.493 199.195 645.233 199.195Z" fill="white"/>
<path d="M560.446 105L556.412 90.4545H558.72L561.554 101.719H561.689L564.636 90.4545H566.923L569.871 101.726H570.006L572.832 90.4545H575.148L571.107 105H568.898L565.837 94.1051H565.723L562.662 105H560.446ZM576.978 105V94.0909H579.102V105H576.978ZM578.051 92.4077C577.681 92.4077 577.364 92.2846 577.099 92.0384C576.839 91.7874 576.708 91.4891 576.708 91.1435C576.708 90.7931 576.839 90.4948 577.099 90.2486C577.364 89.9976 577.681 89.8722 578.051 89.8722C578.42 89.8722 578.735 89.9976 578.995 90.2486C579.261 90.4948 579.393 90.7931 579.393 91.1435C579.393 91.4891 579.261 91.7874 578.995 92.0384C578.735 92.2846 578.42 92.4077 578.051 92.4077ZM584.082 98.5227V105H581.959V94.0909H583.997V95.8665H584.132C584.383 95.2888 584.776 94.8248 585.311 94.4744C585.851 94.1241 586.53 93.9489 587.349 93.9489C588.093 93.9489 588.744 94.1051 589.303 94.4176C589.861 94.7254 590.295 95.1847 590.602 95.7955C590.91 96.4062 591.064 97.1615 591.064 98.0611V105H588.94V98.3168C588.94 97.526 588.734 96.9081 588.322 96.4631C587.911 96.0133 587.345 95.7884 586.625 95.7884C586.133 95.7884 585.695 95.8949 585.311 96.108C584.932 96.321 584.632 96.6335 584.409 97.0455C584.191 97.4527 584.082 97.9451 584.082 98.5227ZM597.996 105.213C597.115 105.213 596.329 104.988 595.638 104.538C594.951 104.084 594.411 103.437 594.018 102.599C593.63 101.757 593.436 100.746 593.436 99.5668C593.436 98.3878 593.633 97.3793 594.026 96.5412C594.423 95.7031 594.968 95.0616 595.659 94.6165C596.35 94.1714 597.134 93.9489 598.01 93.9489C598.687 93.9489 599.232 94.0625 599.643 94.2898C600.06 94.5123 600.382 94.7727 600.609 95.071C600.841 95.3693 601.021 95.6321 601.149 95.8594H601.277V90.4545H603.401V105H601.327V103.303H601.149C601.021 103.535 600.837 103.8 600.595 104.098C600.358 104.396 600.032 104.657 599.615 104.879C599.198 105.102 598.659 105.213 597.996 105.213ZM598.464 103.402C599.075 103.402 599.591 103.241 600.013 102.919C600.439 102.592 600.761 102.14 600.979 101.562C601.201 100.985 601.312 100.312 601.312 99.5455C601.312 98.7879 601.204 98.125 600.986 97.5568C600.768 96.9886 600.448 96.5459 600.027 96.2287C599.606 95.9115 599.085 95.7528 598.464 95.7528C597.825 95.7528 597.293 95.9186 596.866 96.25C596.44 96.5814 596.118 97.0336 595.901 97.6065C595.688 98.1795 595.581 98.8258 595.581 99.5455C595.581 100.275 595.69 100.93 595.908 101.513C596.125 102.095 596.447 102.557 596.874 102.898C597.304 103.234 597.835 103.402 598.464 103.402ZM607.831 105.135C607.442 105.135 607.109 104.998 606.829 104.723C606.55 104.444 606.41 104.107 606.41 103.714C606.41 103.326 606.55 102.995 606.829 102.72C607.109 102.441 607.442 102.301 607.831 102.301C608.219 102.301 608.553 102.441 608.832 102.72C609.111 102.995 609.251 103.326 609.251 103.714C609.251 103.975 609.185 104.214 609.052 104.432C608.924 104.645 608.754 104.815 608.541 104.943C608.328 105.071 608.091 105.135 607.831 105.135ZM607.831 97.1946C607.442 97.1946 607.109 97.0549 606.829 96.7756C606.55 96.4962 606.41 96.1624 606.41 95.7741C606.41 95.3859 606.55 95.0545 606.829 94.7798C607.109 94.5005 607.442 94.3608 607.831 94.3608C608.219 94.3608 608.553 94.5005 608.832 94.7798C609.111 95.0545 609.251 95.3859 609.251 95.7741C609.251 96.0346 609.185 96.2737 609.052 96.4915C608.924 96.7045 608.754 96.875 608.541 97.0028C608.328 97.1307 608.091 97.1946 607.831 97.1946Z" fill="white"/>
<rect x="925" y="23" width="139" height="45" rx="22.5" fill="#3DA9FC"/>
<path d="M958.531 41.7756C958.455 41.1032 958.143 40.5824 957.594 40.2131C957.045 39.839 956.353 39.652 955.52 39.652C954.923 39.652 954.407 39.7467 953.972 39.9361C953.536 40.1207 953.197 40.3764 952.956 40.7031C952.719 41.0251 952.601 41.392 952.601 41.804C952.601 42.1496 952.681 42.4479 952.842 42.6989C953.008 42.9498 953.223 43.1605 953.489 43.331C953.759 43.4967 954.047 43.6364 954.355 43.75C954.663 43.8589 954.959 43.9489 955.243 44.0199L956.663 44.3892C957.127 44.5028 957.603 44.6567 958.091 44.8509C958.579 45.045 959.031 45.3007 959.447 45.6179C959.864 45.9351 960.2 46.3281 960.456 46.7969C960.716 47.2656 960.847 47.8267 960.847 48.4801C960.847 49.304 960.634 50.0355 960.207 50.6747C959.786 51.3139 959.173 51.8182 958.368 52.1875C957.568 52.5568 956.599 52.7415 955.463 52.7415C954.374 52.7415 953.432 52.5687 952.636 52.223C951.841 51.8774 951.218 51.3873 950.768 50.7528C950.319 50.1136 950.07 49.3561 950.023 48.4801H952.224C952.267 49.0057 952.438 49.4437 952.736 49.794C953.039 50.1397 953.425 50.3977 953.893 50.5682C954.367 50.7339 954.885 50.8168 955.449 50.8168C956.069 50.8168 956.621 50.7197 957.104 50.5256C957.591 50.3267 957.975 50.0521 958.254 49.7017C958.534 49.3466 958.673 48.9323 958.673 48.4588C958.673 48.0279 958.55 47.6752 958.304 47.4006C958.063 47.1259 957.733 46.8987 957.317 46.7188C956.905 46.5388 956.438 46.3802 955.918 46.2429L954.199 45.7741C953.034 45.4569 952.111 44.9905 951.429 44.375C950.752 43.7595 950.413 42.9451 950.413 41.9318C950.413 41.0937 950.641 40.3622 951.095 39.7372C951.55 39.1122 952.165 38.6269 952.942 38.2812C953.718 37.9309 954.594 37.7557 955.57 37.7557C956.554 37.7557 957.423 37.9285 958.176 38.2741C958.934 38.6198 959.53 39.0956 959.966 39.7017C960.402 40.303 960.629 40.9943 960.648 41.7756H958.531ZM968 52.7202C966.926 52.7202 966 52.4905 965.223 52.0312C964.452 51.5672 963.855 50.9162 963.434 50.0781C963.017 49.2353 962.809 48.2481 962.809 47.1165C962.809 45.9991 963.017 45.0142 963.434 44.1619C963.855 43.3097 964.442 42.6444 965.195 42.1662C965.953 41.688 966.838 41.4489 967.851 41.4489C968.467 41.4489 969.063 41.5507 969.641 41.7543C970.219 41.9579 970.737 42.2775 971.196 42.7131C971.656 43.1487 972.018 43.7145 972.283 44.4105C972.548 45.1018 972.681 45.9422 972.681 46.9318V47.6847H964.009V46.0938H970.6C970.6 45.535 970.486 45.0402 970.259 44.6094C970.032 44.1738 969.712 43.8305 969.3 43.5795C968.893 43.3286 968.415 43.2031 967.865 43.2031C967.269 43.2031 966.748 43.3499 966.303 43.6435C965.863 43.9323 965.522 44.3111 965.28 44.7798C965.043 45.2438 964.925 45.7481 964.925 46.2926V47.5355C964.925 48.2647 965.053 48.8849 965.309 49.3963C965.569 49.9077 965.931 50.2983 966.395 50.5682C966.859 50.8333 967.401 50.9659 968.022 50.9659C968.424 50.9659 968.791 50.9091 969.123 50.7955C969.454 50.6771 969.74 50.5019 969.982 50.2699C970.223 50.0379 970.408 49.7514 970.536 49.4105L972.546 49.7727C972.385 50.3646 972.096 50.883 971.679 51.3281C971.267 51.7685 970.749 52.1117 970.124 52.358C969.504 52.5994 968.796 52.7202 968 52.7202ZM979.739 52.7202C978.664 52.7202 977.738 52.4905 976.962 52.0312C976.19 51.5672 975.593 50.9162 975.172 50.0781C974.755 49.2353 974.547 48.2481 974.547 47.1165C974.547 45.9991 974.755 45.0142 975.172 44.1619C975.593 43.3097 976.18 42.6444 976.933 42.1662C977.691 41.688 978.576 41.4489 979.589 41.4489C980.205 41.4489 980.802 41.5507 981.379 41.7543C981.957 41.9579 982.475 42.2775 982.935 42.7131C983.394 43.1487 983.756 43.7145 984.021 44.4105C984.286 45.1018 984.419 45.9422 984.419 46.9318V47.6847H975.747V46.0938H982.338C982.338 45.535 982.224 45.0402 981.997 44.6094C981.77 44.1738 981.45 43.8305 981.038 43.5795C980.631 43.3286 980.153 43.2031 979.604 43.2031C979.007 43.2031 978.486 43.3499 978.041 43.6435C977.601 43.9323 977.26 44.3111 977.018 44.7798C976.782 45.2438 976.663 45.7481 976.663 46.2926V47.5355C976.663 48.2647 976.791 48.8849 977.047 49.3963C977.307 49.9077 977.67 50.2983 978.134 50.5682C978.598 50.8333 979.14 50.9659 979.76 50.9659C980.162 50.9659 980.529 50.9091 980.861 50.7955C981.192 50.6771 981.479 50.5019 981.72 50.2699C981.962 50.0379 982.146 49.7514 982.274 49.4105L984.284 49.7727C984.123 50.3646 983.834 50.883 983.418 51.3281C983.006 51.7685 982.487 52.1117 981.862 52.358C981.242 52.5994 980.534 52.7202 979.739 52.7202ZM992.239 37.9545H994.902L999.533 49.2614H999.703L1004.33 37.9545H1007V52.5H1004.91V41.9744H1004.77L1000.48 52.4787H998.751L994.462 41.9673H994.327V52.5H992.239V37.9545ZM1014.61 52.7202C1013.59 52.7202 1012.7 52.4858 1011.94 52.017C1011.17 51.5483 1010.58 50.8925 1010.16 50.0497C1009.74 49.2069 1009.53 48.2221 1009.53 47.0952C1009.53 45.9635 1009.74 44.974 1010.16 44.1264C1010.58 43.2789 1011.17 42.6207 1011.94 42.152C1012.7 41.6832 1013.59 41.4489 1014.61 41.4489C1015.64 41.4489 1016.53 41.6832 1017.29 42.152C1018.05 42.6207 1018.64 43.2789 1019.07 44.1264C1019.49 44.974 1019.7 45.9635 1019.7 47.0952C1019.7 48.2221 1019.49 49.2069 1019.07 50.0497C1018.64 50.8925 1018.05 51.5483 1017.29 52.017C1016.53 52.4858 1015.64 52.7202 1014.61 52.7202ZM1014.62 50.9375C1015.28 50.9375 1015.83 50.7623 1016.27 50.4119C1016.7 50.0616 1017.02 49.5952 1017.23 49.0128C1017.45 48.4304 1017.55 47.7888 1017.55 47.0881C1017.55 46.392 1017.45 45.7528 1017.23 45.1705C1017.02 44.5833 1016.7 44.1122 1016.27 43.7571C1015.83 43.402 1015.28 43.2244 1014.62 43.2244C1013.95 43.2244 1013.4 43.402 1012.96 43.7571C1012.52 44.1122 1012.2 44.5833 1011.98 45.1705C1011.78 45.7528 1011.67 46.392 1011.67 47.0881C1011.67 47.7888 1011.78 48.4304 1011.98 49.0128C1012.2 49.5952 1012.52 50.0616 1012.96 50.4119C1013.4 50.7623 1013.95 50.9375 1014.62 50.9375ZM1022.07 52.5V41.5909H1024.12V43.3239H1024.23C1024.43 42.7367 1024.78 42.2751 1025.29 41.9389C1025.79 41.598 1026.37 41.4276 1027 41.4276C1027.14 41.4276 1027.29 41.4323 1027.47 41.4418C1027.66 41.4512 1027.8 41.4631 1027.91 41.4773V43.5085C1027.82 43.4848 1027.67 43.4588 1027.45 43.4304C1027.23 43.3973 1027.02 43.3807 1026.8 43.3807C1026.3 43.3807 1025.85 43.4872 1025.46 43.7003C1025.07 43.9086 1024.76 44.1998 1024.53 44.5739C1024.31 44.9432 1024.19 45.3646 1024.19 45.8381V52.5H1022.07ZM1034.06 52.7202C1032.98 52.7202 1032.05 52.4905 1031.28 52.0312C1030.51 51.5672 1029.91 50.9162 1029.49 50.0781C1029.07 49.2353 1028.86 48.2481 1028.86 47.1165C1028.86 45.9991 1029.07 45.0142 1029.49 44.1619C1029.91 43.3097 1030.5 42.6444 1031.25 42.1662C1032.01 41.688 1032.89 41.4489 1033.91 41.4489C1034.52 41.4489 1035.12 41.5507 1035.7 41.7543C1036.27 41.9579 1036.79 42.2775 1037.25 42.7131C1037.71 43.1487 1038.07 43.7145 1038.34 44.4105C1038.6 45.1018 1038.74 45.9422 1038.74 46.9318V47.6847H1030.06V46.0938H1036.65C1036.65 45.535 1036.54 45.0402 1036.31 44.6094C1036.09 44.1738 1035.77 43.8305 1035.35 43.5795C1034.95 43.3286 1034.47 43.2031 1033.92 43.2031C1033.32 43.2031 1032.8 43.3499 1032.36 43.6435C1031.92 43.9323 1031.58 44.3111 1031.33 44.7798C1031.1 45.2438 1030.98 45.7481 1030.98 46.2926V47.5355C1030.98 48.2647 1031.11 48.8849 1031.36 49.3963C1031.62 49.9077 1031.99 50.2983 1032.45 50.5682C1032.91 50.8333 1033.46 50.9659 1034.08 50.9659C1034.48 50.9659 1034.85 50.9091 1035.18 50.7955C1035.51 50.6771 1035.8 50.5019 1036.04 50.2699C1036.28 50.0379 1036.46 49.7514 1036.59 49.4105L1038.6 49.7727C1038.44 50.3646 1038.15 50.883 1037.73 51.3281C1037.32 51.7685 1036.8 52.1117 1036.18 52.358C1035.56 52.5994 1034.85 52.7202 1034.06 52.7202Z" fill="#002269"/>
<path d="M30.3409 153.318C28.7803 153.318 27.3864 153.049 26.1591 152.511C24.9394 151.973 23.9735 151.227 23.2614 150.273C22.5568 149.311 22.178 148.197 22.125 146.932H25.6932C25.7386 147.621 25.9697 148.22 26.3864 148.727C26.8106 149.227 27.3636 149.614 28.0455 149.886C28.7273 150.159 29.4848 150.295 30.3182 150.295C31.2348 150.295 32.0455 150.136 32.75 149.818C33.4621 149.5 34.0189 149.057 34.4205 148.489C34.822 147.913 35.0227 147.25 35.0227 146.5C35.0227 145.72 34.822 145.034 34.4205 144.443C34.0265 143.845 33.447 143.375 32.6818 143.034C31.9242 142.693 31.0076 142.523 29.9318 142.523H27.9659V139.659H29.9318C30.7955 139.659 31.553 139.504 32.2045 139.193C32.8636 138.883 33.3788 138.451 33.75 137.898C34.1212 137.337 34.3068 136.682 34.3068 135.932C34.3068 135.212 34.1439 134.587 33.8182 134.057C33.5 133.519 33.0455 133.098 32.4545 132.795C31.8712 132.492 31.1818 132.341 30.3864 132.341C29.6288 132.341 28.9205 132.481 28.2614 132.761C27.6098 133.034 27.0795 133.428 26.6705 133.943C26.2614 134.451 26.0417 135.061 26.0114 135.773H22.6136C22.6515 134.515 23.0227 133.409 23.7273 132.455C24.4394 131.5 25.3788 130.754 26.5455 130.216C27.7121 129.678 29.0076 129.409 30.4318 129.409C31.9242 129.409 33.2121 129.701 34.2955 130.284C35.3864 130.86 36.2273 131.629 36.8182 132.591C37.4167 133.553 37.7121 134.606 37.7045 135.75C37.7121 137.053 37.3485 138.159 36.6136 139.068C35.8864 139.977 34.9167 140.587 33.7045 140.898V141.08C35.25 141.314 36.447 141.928 37.2955 142.92C38.1515 143.913 38.5758 145.144 38.5682 146.614C38.5758 147.894 38.2197 149.042 37.5 150.057C36.7879 151.072 35.8144 151.871 34.5795 152.455C33.3447 153.03 31.9318 153.318 30.3409 153.318ZM50.5455 153.318C49.1212 153.318 47.8409 153.045 46.7045 152.5C45.5758 151.947 44.6742 151.189 44 150.227C43.3258 149.265 42.9659 148.167 42.9205 146.932H46.3295C46.4129 147.932 46.8561 148.754 47.6591 149.398C48.4621 150.042 49.4242 150.364 50.5455 150.364C51.4394 150.364 52.2311 150.159 52.9205 149.75C53.6174 149.333 54.1629 148.761 54.5568 148.034C54.9583 147.307 55.1591 146.477 55.1591 145.545C55.1591 144.598 54.9545 143.754 54.5455 143.011C54.1364 142.269 53.572 141.686 52.8523 141.261C52.1402 140.837 51.322 140.621 50.3977 140.614C49.6932 140.614 48.9848 140.735 48.2727 140.977C47.5606 141.22 46.9848 141.538 46.5455 141.932L43.3295 141.455L44.6364 129.727H57.4318V132.739H47.5568L46.8182 139.25H46.9545C47.4091 138.811 48.0114 138.443 48.7614 138.148C49.5189 137.852 50.3295 137.705 51.1932 137.705C52.6098 137.705 53.8712 138.042 54.9773 138.716C56.0909 139.39 56.9659 140.311 57.6023 141.477C58.2462 142.636 58.5644 143.97 58.5568 145.477C58.5644 146.985 58.2235 148.33 57.5341 149.511C56.8523 150.693 55.9053 151.625 54.6932 152.307C53.4886 152.981 52.1061 153.318 50.5455 153.318ZM67.7642 140.25C66.7794 140.25 65.8816 140.011 65.071 139.534C64.268 139.049 63.6241 138.402 63.1392 137.591C62.6619 136.78 62.4233 135.883 62.4233 134.898C62.4233 133.913 62.6619 133.019 63.1392 132.216C63.6241 131.405 64.268 130.761 65.071 130.284C65.8816 129.799 66.7794 129.557 67.7642 129.557C68.7491 129.557 69.6468 129.799 70.4574 130.284C71.268 130.761 71.9119 131.405 72.3892 132.216C72.8741 133.019 73.1165 133.913 73.1165 134.898C73.1165 135.883 72.8741 136.78 72.3892 137.591C71.9119 138.402 71.268 139.049 70.4574 139.534C69.6468 140.011 68.7491 140.25 67.7642 140.25ZM67.7642 137.659C68.2794 137.659 68.7453 137.534 69.1619 137.284C69.5786 137.034 69.9081 136.701 70.1506 136.284C70.4006 135.867 70.5256 135.405 70.5256 134.898C70.5256 134.39 70.4006 133.928 70.1506 133.511C69.9081 133.095 69.5786 132.765 69.1619 132.523C68.7453 132.273 68.2794 132.148 67.7642 132.148C67.2566 132.148 66.7945 132.273 66.3778 132.523C65.9612 132.765 65.6278 133.095 65.3778 133.511C65.1354 133.928 65.0142 134.39 65.0142 134.898C65.0142 135.405 65.1354 135.867 65.3778 136.284C65.6278 136.701 65.9612 137.034 66.3778 137.284C66.7945 137.534 67.2566 137.659 67.7642 137.659Z" fill="white"/>
<path d="M30.3409 255.386C28.5455 255.379 27.0114 254.905 25.7386 253.966C24.4659 253.027 23.4924 251.659 22.8182 249.864C22.1439 248.068 21.8068 245.905 21.8068 243.375C21.8068 240.852 22.1439 238.697 22.8182 236.909C23.5 235.121 24.4773 233.758 25.75 232.818C27.0303 231.879 28.5606 231.409 30.3409 231.409C32.1212 231.409 33.6477 231.883 34.9205 232.83C36.1932 233.769 37.1667 235.133 37.8409 236.92C38.5227 238.701 38.8636 240.852 38.8636 243.375C38.8636 245.913 38.5265 248.08 37.8523 249.875C37.178 251.663 36.2045 253.03 34.9318 253.977C33.6591 254.917 32.1288 255.386 30.3409 255.386ZM30.3409 252.352C31.9167 252.352 33.1477 251.583 34.0341 250.045C34.928 248.508 35.375 246.284 35.375 243.375C35.375 241.443 35.1705 239.811 34.7614 238.477C34.3598 237.136 33.7803 236.121 33.0227 235.432C32.2727 234.735 31.3788 234.386 30.3409 234.386C28.7727 234.386 27.5417 235.159 26.6477 236.705C25.7538 238.25 25.303 240.473 25.2955 243.375C25.2955 245.314 25.4962 246.955 25.8977 248.295C26.3068 249.629 26.8864 250.64 27.6364 251.33C28.3864 252.011 29.2879 252.352 30.3409 252.352ZM55.0426 250.636V249.409C55.0426 248.53 55.2244 247.727 55.5881 247C55.9593 246.265 56.4972 245.678 57.2017 245.239C57.9138 244.792 58.7737 244.568 59.7812 244.568C60.8116 244.568 61.6752 244.788 62.3722 245.227C63.0691 245.667 63.5956 246.254 63.9517 246.989C64.3153 247.723 64.4972 248.53 64.4972 249.409V250.636C64.4972 251.515 64.3153 252.322 63.9517 253.057C63.5881 253.784 63.054 254.371 62.3494 254.818C61.6525 255.258 60.7964 255.477 59.7812 255.477C58.7585 255.477 57.8949 255.258 57.1903 254.818C56.4858 254.371 55.9517 253.784 55.5881 253.057C55.2244 252.322 55.0426 251.515 55.0426 250.636ZM57.6903 249.409V250.636C57.6903 251.288 57.8456 251.879 58.1562 252.409C58.4669 252.939 59.0085 253.205 59.7812 253.205C60.5464 253.205 61.0805 252.939 61.3835 252.409C61.6866 251.879 61.8381 251.288 61.8381 250.636V249.409C61.8381 248.758 61.6903 248.167 61.3949 247.636C61.107 247.106 60.5691 246.841 59.7812 246.841C59.0237 246.841 58.4858 247.106 58.1676 247.636C57.8494 248.167 57.6903 248.758 57.6903 249.409ZM43.3381 237.318V236.091C43.3381 235.212 43.5199 234.405 43.8835 233.67C44.2547 232.936 44.7926 232.348 45.4972 231.909C46.2093 231.47 47.0691 231.25 48.0767 231.25C49.107 231.25 49.9706 231.47 50.6676 231.909C51.3646 232.348 51.8911 232.936 52.2472 233.67C52.6032 234.405 52.7812 235.212 52.7812 236.091V237.318C52.7812 238.197 52.5994 239.004 52.2358 239.739C51.8797 240.466 51.3494 241.053 50.6449 241.5C49.9479 241.939 49.0919 242.159 48.0767 242.159C47.0464 242.159 46.179 241.939 45.4744 241.5C44.7775 241.053 44.2472 240.466 43.8835 239.739C43.5199 239.004 43.3381 238.197 43.3381 237.318ZM45.9972 236.091V237.318C45.9972 237.97 46.1487 238.561 46.4517 239.091C46.7623 239.621 47.304 239.886 48.0767 239.886C48.8343 239.886 49.3646 239.621 49.6676 239.091C49.9782 238.561 50.1335 237.97 50.1335 237.318V236.091C50.1335 235.439 49.9858 234.848 49.6903 234.318C49.3949 233.788 48.857 233.523 48.0767 233.523C47.3191 233.523 46.7813 233.788 46.4631 234.318C46.1525 234.848 45.9972 235.439 45.9972 236.091ZM44.4176 255L60.4176 231.727H63.1335L47.1335 255H44.4176Z" fill="white"/>
<path d="M566.341 255.318C564.78 255.318 563.386 255.049 562.159 254.511C560.939 253.973 559.973 253.227 559.261 252.273C558.557 251.311 558.178 250.197 558.125 248.932H561.693C561.739 249.621 561.97 250.22 562.386 250.727C562.811 251.227 563.364 251.614 564.045 251.886C564.727 252.159 565.485 252.295 566.318 252.295C567.235 252.295 568.045 252.136 568.75 251.818C569.462 251.5 570.019 251.057 570.42 250.489C570.822 249.913 571.023 249.25 571.023 248.5C571.023 247.72 570.822 247.034 570.42 246.443C570.027 245.845 569.447 245.375 568.682 245.034C567.924 244.693 567.008 244.523 565.932 244.523H563.966V241.659H565.932C566.795 241.659 567.553 241.504 568.205 241.193C568.864 240.883 569.379 240.451 569.75 239.898C570.121 239.337 570.307 238.682 570.307 237.932C570.307 237.212 570.144 236.587 569.818 236.057C569.5 235.519 569.045 235.098 568.455 234.795C567.871 234.492 567.182 234.341 566.386 234.341C565.629 234.341 564.92 234.481 564.261 234.761C563.61 235.034 563.08 235.428 562.67 235.943C562.261 236.451 562.042 237.061 562.011 237.773H558.614C558.652 236.515 559.023 235.409 559.727 234.455C560.439 233.5 561.379 232.754 562.545 232.216C563.712 231.678 565.008 231.409 566.432 231.409C567.924 231.409 569.212 231.701 570.295 232.284C571.386 232.86 572.227 233.629 572.818 234.591C573.417 235.553 573.712 236.606 573.705 237.75C573.712 239.053 573.348 240.159 572.614 241.068C571.886 241.977 570.917 242.587 569.705 242.898V243.08C571.25 243.314 572.447 243.928 573.295 244.92C574.152 245.913 574.576 247.144 574.568 248.614C574.576 249.894 574.22 251.042 573.5 252.057C572.788 253.072 571.814 253.871 570.58 254.455C569.345 255.03 567.932 255.318 566.341 255.318Z" fill="white"/>
<path d="M566.341 153.386C564.545 153.379 563.011 152.905 561.739 151.966C560.466 151.027 559.492 149.659 558.818 147.864C558.144 146.068 557.807 143.905 557.807 141.375C557.807 138.852 558.144 136.697 558.818 134.909C559.5 133.121 560.477 131.758 561.75 130.818C563.03 129.879 564.561 129.409 566.341 129.409C568.121 129.409 569.648 129.883 570.92 130.83C572.193 131.769 573.167 133.133 573.841 134.92C574.523 136.701 574.864 138.852 574.864 141.375C574.864 143.913 574.527 146.08 573.852 147.875C573.178 149.663 572.205 151.03 570.932 151.977C569.659 152.917 568.129 153.386 566.341 153.386ZM566.341 150.352C567.917 150.352 569.148 149.583 570.034 148.045C570.928 146.508 571.375 144.284 571.375 141.375C571.375 139.443 571.17 137.811 570.761 136.477C570.36 135.136 569.78 134.121 569.023 133.432C568.273 132.735 567.379 132.386 566.341 132.386C564.773 132.386 563.542 133.159 562.648 134.705C561.754 136.25 561.303 138.473 561.295 141.375C561.295 143.314 561.496 144.955 561.898 146.295C562.307 147.629 562.886 148.64 563.636 149.33C564.386 150.011 565.288 150.352 566.341 150.352ZM580.335 153.216C579.714 153.216 579.18 152.996 578.733 152.557C578.286 152.11 578.062 151.572 578.062 150.943C578.062 150.322 578.286 149.792 578.733 149.352C579.18 148.905 579.714 148.682 580.335 148.682C580.956 148.682 581.491 148.905 581.938 149.352C582.384 149.792 582.608 150.322 582.608 150.943C582.608 151.36 582.502 151.742 582.29 152.091C582.085 152.432 581.812 152.705 581.472 152.909C581.131 153.114 580.752 153.216 580.335 153.216ZM586.625 148.455V145.614L596.682 129.727H598.92V133.909H597.5L590.307 145.295V145.477H604.091V148.455H586.625ZM597.659 153V147.591L597.682 146.295V129.727H601.011V153H597.659ZM611.222 147.08L611.199 142.932H611.79L618.744 135.545H622.812L614.881 143.955H614.347L611.222 147.08ZM608.097 153V129.727H611.494V153H608.097ZM619.119 153L612.869 144.705L615.21 142.33L623.29 153H619.119ZM625.909 153V135.545H629.17V138.386H629.386C629.75 137.424 630.345 136.674 631.17 136.136C631.996 135.591 632.985 135.318 634.136 135.318C635.303 135.318 636.28 135.591 637.068 136.136C637.864 136.682 638.451 137.432 638.83 138.386H639.011C639.428 137.455 640.091 136.712 641 136.159C641.909 135.598 642.992 135.318 644.25 135.318C645.833 135.318 647.125 135.814 648.125 136.807C649.133 137.799 649.636 139.295 649.636 141.295V153H646.239V141.614C646.239 140.432 645.917 139.576 645.273 139.045C644.629 138.515 643.86 138.25 642.966 138.25C641.86 138.25 641 138.591 640.386 139.273C639.773 139.947 639.466 140.814 639.466 141.875V153H636.08V141.398C636.08 140.451 635.784 139.689 635.193 139.114C634.602 138.538 633.833 138.25 632.886 138.25C632.242 138.25 631.648 138.42 631.102 138.761C630.564 139.095 630.129 139.561 629.795 140.159C629.47 140.758 629.307 141.451 629.307 142.239V153H625.909ZM663.054 128.636L655.554 156.5H652.52L660.02 128.636H663.054ZM669.338 142.636V153H665.94V129.727H669.293V138.386H669.509C669.918 137.447 670.543 136.701 671.384 136.148C672.224 135.595 673.323 135.318 674.679 135.318C675.876 135.318 676.921 135.564 677.815 136.057C678.717 136.549 679.414 137.284 679.906 138.261C680.406 139.231 680.656 140.443 680.656 141.898V153H677.259V142.307C677.259 141.027 676.929 140.034 676.27 139.33C675.611 138.617 674.694 138.261 673.52 138.261C672.717 138.261 671.997 138.432 671.361 138.773C670.732 139.114 670.236 139.614 669.872 140.273C669.516 140.924 669.338 141.712 669.338 142.636Z" fill="white"/>
</svg>
