<svg width="675" height="268" viewBox="0 0 675 268" fill="none" xmlns="http://www.w3.org/2000/svg">
<rect x="215" y="68" width="458" height="65" fill="#FF9306"/>
<rect x="215" y="135" width="458" height="65" fill="#EBE00A"/>
<path d="M215 201H673V238C673 253.464 660.464 266 645 266H215V201Z" fill="#73DC10"/>
<rect x="2" y="68" width="213" height="65" fill="white"/>
<rect x="2" y="135" width="213" height="64" fill="#C1D831"/>
<path d="M2 201H215V266H29C14.0883 266 2 253.912 2 239V201Z" fill="#6EA469"/>
<path d="M240.463 107.199C239.488 107.199 238.616 107.031 237.849 106.695C237.087 106.358 236.483 105.892 236.038 105.295C235.598 104.694 235.361 103.998 235.328 103.207H237.558C237.587 103.638 237.731 104.012 237.991 104.33C238.257 104.642 238.602 104.884 239.028 105.054C239.455 105.224 239.928 105.31 240.449 105.31C241.022 105.31 241.528 105.21 241.969 105.011C242.414 104.812 242.762 104.536 243.013 104.18C243.264 103.821 243.389 103.406 243.389 102.938C243.389 102.45 243.264 102.021 243.013 101.652C242.767 101.278 242.404 100.984 241.926 100.771C241.453 100.558 240.88 100.452 240.207 100.452H238.979V98.6619H240.207C240.747 98.6619 241.221 98.5649 241.628 98.3707C242.04 98.1766 242.362 97.9067 242.594 97.5611C242.826 97.2107 242.942 96.8011 242.942 96.3324C242.942 95.8826 242.84 95.492 242.636 95.1605C242.438 94.8243 242.153 94.5616 241.784 94.3722C241.42 94.1828 240.989 94.0881 240.491 94.0881C240.018 94.0881 239.575 94.1757 239.163 94.3509C238.756 94.5213 238.425 94.7675 238.169 95.0895C237.913 95.4067 237.776 95.7879 237.757 96.233H235.634C235.657 95.447 235.889 94.7557 236.33 94.1591C236.775 93.5625 237.362 93.0961 238.091 92.7599C238.82 92.4238 239.63 92.2557 240.52 92.2557C241.453 92.2557 242.258 92.438 242.935 92.8026C243.616 93.1624 244.142 93.643 244.511 94.2443C244.885 94.8456 245.07 95.5038 245.065 96.2188C245.07 97.0331 244.843 97.7244 244.384 98.2926C243.929 98.8608 243.323 99.242 242.565 99.4361V99.5497C243.531 99.6965 244.279 100.08 244.81 100.7C245.345 101.321 245.61 102.09 245.605 103.009C245.61 103.809 245.387 104.526 244.938 105.161C244.492 105.795 243.884 106.295 243.112 106.659C242.34 107.019 241.457 107.199 240.463 107.199ZM260.039 98.804V100.651H253.59V98.804H260.039ZM280.413 97.1847H278.197C278.112 96.7112 277.954 96.2945 277.722 95.9347C277.49 95.5748 277.205 95.2694 276.869 95.0185C276.533 94.7675 276.157 94.5781 275.74 94.4503C275.328 94.3224 274.89 94.2585 274.426 94.2585C273.588 94.2585 272.838 94.4692 272.175 94.8906C271.517 95.312 270.996 95.9299 270.612 96.7443C270.233 97.5587 270.044 98.553 270.044 99.7273C270.044 100.911 270.233 101.91 270.612 102.724C270.996 103.539 271.519 104.154 272.182 104.571C272.845 104.988 273.59 105.196 274.419 105.196C274.878 105.196 275.314 105.134 275.726 105.011C276.143 104.884 276.519 104.696 276.855 104.45C277.191 104.204 277.475 103.903 277.707 103.548C277.944 103.188 278.107 102.777 278.197 102.312L280.413 102.32C280.295 103.035 280.065 103.693 279.724 104.294C279.388 104.891 278.955 105.407 278.425 105.842C277.899 106.273 277.298 106.607 276.621 106.844C275.944 107.08 275.205 107.199 274.405 107.199C273.145 107.199 272.023 106.901 271.038 106.304C270.054 105.703 269.277 104.843 268.709 103.726C268.145 102.608 267.864 101.276 267.864 99.7273C267.864 98.1742 268.148 96.8414 268.716 95.7287C269.284 94.6113 270.061 93.7543 271.045 93.1577C272.03 92.5563 273.15 92.2557 274.405 92.2557C275.177 92.2557 275.896 92.367 276.564 92.5895C277.236 92.8073 277.84 93.1293 278.375 93.5554C278.91 93.9768 279.353 94.4929 279.703 95.1037C280.054 95.7098 280.29 96.4034 280.413 97.1847ZM287.464 107.22C286.441 107.22 285.549 106.986 284.787 106.517C284.024 106.048 283.432 105.393 283.011 104.55C282.59 103.707 282.379 102.722 282.379 101.595C282.379 100.464 282.59 99.474 283.011 98.6264C283.432 97.7789 284.024 97.1207 284.787 96.652C285.549 96.1832 286.441 95.9489 287.464 95.9489C288.487 95.9489 289.379 96.1832 290.142 96.652C290.904 97.1207 291.496 97.7789 291.917 98.6264C292.339 99.474 292.549 100.464 292.549 101.595C292.549 102.722 292.339 103.707 291.917 104.55C291.496 105.393 290.904 106.048 290.142 106.517C289.379 106.986 288.487 107.22 287.464 107.22ZM287.471 105.438C288.134 105.438 288.683 105.262 289.119 104.912C289.555 104.562 289.877 104.095 290.085 103.513C290.298 102.93 290.404 102.289 290.404 101.588C290.404 100.892 290.298 100.253 290.085 99.6705C289.877 99.0833 289.555 98.6122 289.119 98.2571C288.683 97.902 288.134 97.7244 287.471 97.7244C286.804 97.7244 286.25 97.902 285.809 98.2571C285.374 98.6122 285.049 99.0833 284.836 99.6705C284.628 100.253 284.524 100.892 284.524 101.588C284.524 102.289 284.628 102.93 284.836 103.513C285.049 104.095 285.374 104.562 285.809 104.912C286.25 105.262 286.804 105.438 287.471 105.438ZM297.043 100.523V107H294.92V96.0909H296.958V97.8665H297.093C297.344 97.2888 297.737 96.8248 298.272 96.4744C298.812 96.1241 299.491 95.9489 300.31 95.9489C301.054 95.9489 301.705 96.1051 302.263 96.4176C302.822 96.7254 303.255 97.1847 303.563 97.7955C303.871 98.4062 304.025 99.1615 304.025 100.061V107H301.901V100.317C301.901 99.526 301.695 98.9081 301.283 98.4631C300.871 98.0133 300.306 97.7884 299.586 97.7884C299.094 97.7884 298.656 97.8949 298.272 98.108C297.893 98.321 297.593 98.6335 297.37 99.0455C297.152 99.4527 297.043 99.9451 297.043 100.523ZM315.048 98.7543L313.123 99.0952C313.042 98.849 312.915 98.6146 312.739 98.392C312.569 98.1695 312.337 97.9872 312.043 97.8452C311.75 97.7031 311.383 97.6321 310.942 97.6321C310.341 97.6321 309.839 97.767 309.437 98.0369C309.034 98.3021 308.833 98.6454 308.833 99.0668C308.833 99.4313 308.968 99.7249 309.238 99.9474C309.508 100.17 309.943 100.352 310.545 100.494L312.278 100.892C313.281 101.124 314.03 101.482 314.522 101.964C315.014 102.447 315.261 103.075 315.261 103.847C315.261 104.5 315.071 105.082 314.692 105.594C314.318 106.1 313.795 106.498 313.123 106.787C312.455 107.076 311.681 107.22 310.8 107.22C309.579 107.22 308.582 106.96 307.81 106.439C307.039 105.913 306.565 105.168 306.39 104.202L308.442 103.889C308.57 104.424 308.833 104.829 309.231 105.104C309.629 105.374 310.147 105.509 310.786 105.509C311.482 105.509 312.039 105.364 312.455 105.075C312.872 104.782 313.08 104.424 313.08 104.003C313.08 103.662 312.952 103.375 312.697 103.143C312.446 102.911 312.06 102.736 311.539 102.618L309.692 102.213C308.674 101.981 307.922 101.612 307.434 101.105C306.951 100.598 306.71 99.9569 306.71 99.1804C306.71 98.5365 306.889 97.973 307.249 97.4901C307.609 97.0071 308.106 96.6307 308.741 96.3608C309.375 96.0862 310.102 95.9489 310.921 95.9489C312.1 95.9489 313.028 96.2045 313.705 96.7159C314.382 97.2225 314.83 97.902 315.048 98.7543ZM317.596 107V96.0909H319.719V107H317.596ZM318.668 94.4077C318.299 94.4077 317.981 94.2846 317.716 94.0384C317.456 93.7874 317.326 93.4891 317.326 93.1435C317.326 92.7931 317.456 92.4948 317.716 92.2486C317.981 91.9976 318.299 91.8722 318.668 91.8722C319.037 91.8722 319.352 91.9976 319.613 92.2486C319.878 92.4948 320.01 92.7931 320.01 93.1435C320.01 93.4891 319.878 93.7874 319.613 94.0384C319.352 94.2846 319.037 94.4077 318.668 94.4077ZM326.66 107.213C325.779 107.213 324.993 106.988 324.302 106.538C323.615 106.084 323.076 105.437 322.683 104.599C322.294 103.757 322.1 102.746 322.1 101.567C322.1 100.388 322.297 99.3793 322.69 98.5412C323.087 97.7031 323.632 97.0616 324.323 96.6165C325.014 96.1714 325.798 95.9489 326.674 95.9489C327.351 95.9489 327.896 96.0625 328.308 96.2898C328.724 96.5123 329.046 96.7727 329.273 97.071C329.505 97.3693 329.685 97.6321 329.813 97.8594H329.941V92.4545H332.065V107H329.991V105.303H329.813C329.685 105.535 329.501 105.8 329.259 106.098C329.022 106.396 328.696 106.657 328.279 106.879C327.862 107.102 327.323 107.213 326.66 107.213ZM327.129 105.402C327.739 105.402 328.255 105.241 328.677 104.919C329.103 104.592 329.425 104.14 329.643 103.562C329.865 102.985 329.977 102.312 329.977 101.545C329.977 100.788 329.868 100.125 329.65 99.5568C329.432 98.9886 329.112 98.5459 328.691 98.2287C328.27 97.9115 327.749 97.7528 327.129 97.7528C326.489 97.7528 325.957 97.9186 325.531 98.25C325.104 98.5814 324.782 99.0336 324.565 99.6065C324.352 100.179 324.245 100.826 324.245 101.545C324.245 102.275 324.354 102.93 324.572 103.513C324.79 104.095 325.112 104.557 325.538 104.898C325.969 105.234 326.499 105.402 327.129 105.402ZM339.797 107.22C338.722 107.22 337.797 106.991 337.02 106.531C336.248 106.067 335.652 105.416 335.23 104.578C334.814 103.735 334.605 102.748 334.605 101.616C334.605 100.499 334.814 99.5142 335.23 98.6619C335.652 97.8097 336.239 97.1444 336.992 96.6662C337.749 96.188 338.635 95.9489 339.648 95.9489C340.264 95.9489 340.86 96.0507 341.438 96.2543C342.016 96.4579 342.534 96.7775 342.993 97.2131C343.453 97.6487 343.815 98.2145 344.08 98.9105C344.345 99.6018 344.478 100.442 344.478 101.432V102.185H335.806V100.594H342.397C342.397 100.035 342.283 99.5402 342.056 99.1094C341.828 98.6738 341.509 98.3305 341.097 98.0795C340.69 97.8286 340.212 97.7031 339.662 97.7031C339.066 97.7031 338.545 97.8499 338.1 98.1435C337.659 98.4323 337.319 98.8111 337.077 99.2798C336.84 99.7438 336.722 100.248 336.722 100.793V102.036C336.722 102.765 336.85 103.385 337.105 103.896C337.366 104.408 337.728 104.798 338.192 105.068C338.656 105.333 339.198 105.466 339.819 105.466C340.221 105.466 340.588 105.409 340.919 105.295C341.251 105.177 341.537 105.002 341.779 104.77C342.02 104.538 342.205 104.251 342.333 103.911L344.343 104.273C344.182 104.865 343.893 105.383 343.476 105.828C343.064 106.268 342.546 106.612 341.921 106.858C341.301 107.099 340.593 107.22 339.797 107.22ZM346.834 107V96.0909H348.886V97.8239H349C349.199 97.2367 349.549 96.7751 350.051 96.4389C350.558 96.098 351.131 95.9276 351.77 95.9276C351.902 95.9276 352.059 95.9323 352.239 95.9418C352.423 95.9512 352.568 95.9631 352.672 95.9773V98.0085C352.587 97.9848 352.435 97.9588 352.217 97.9304C352 97.8973 351.782 97.8807 351.564 97.8807C351.062 97.8807 350.615 97.9872 350.222 98.2003C349.833 98.4086 349.526 98.6998 349.298 99.0739C349.071 99.4432 348.957 99.8646 348.957 100.338V107H346.834ZM357.587 107.241C356.895 107.241 356.27 107.114 355.712 106.858C355.153 106.598 354.71 106.221 354.384 105.729C354.062 105.236 353.901 104.633 353.901 103.918C353.901 103.302 354.019 102.795 354.256 102.398C354.492 102 354.812 101.685 355.214 101.453C355.617 101.221 356.067 101.046 356.564 100.928C357.061 100.809 357.568 100.719 358.084 100.658C358.737 100.582 359.268 100.52 359.675 100.473C360.082 100.421 360.378 100.338 360.562 100.224C360.747 100.111 360.839 99.9261 360.839 99.6705V99.6207C360.839 99.0005 360.664 98.5199 360.314 98.179C359.968 97.8381 359.452 97.6676 358.766 97.6676C358.051 97.6676 357.487 97.8262 357.075 98.1435C356.668 98.456 356.386 98.804 356.23 99.1875L354.234 98.733C354.471 98.0701 354.817 97.535 355.271 97.1278C355.731 96.7159 356.259 96.4176 356.855 96.233C357.452 96.0436 358.079 95.9489 358.737 95.9489C359.173 95.9489 359.634 96.0009 360.122 96.1051C360.615 96.2045 361.074 96.3892 361.5 96.6591C361.931 96.929 362.284 97.3149 362.558 97.8168C362.833 98.3139 362.97 98.9602 362.97 99.7557V107H360.896V105.509H360.811C360.674 105.783 360.468 106.053 360.193 106.318C359.919 106.583 359.566 106.804 359.135 106.979C358.704 107.154 358.188 107.241 357.587 107.241ZM358.048 105.537C358.635 105.537 359.137 105.421 359.554 105.189C359.975 104.957 360.295 104.654 360.513 104.28C360.735 103.901 360.847 103.496 360.847 103.065V101.659C360.771 101.735 360.624 101.806 360.406 101.872C360.193 101.934 359.949 101.988 359.675 102.036C359.4 102.078 359.133 102.118 358.872 102.156C358.612 102.189 358.394 102.218 358.219 102.241C357.807 102.294 357.43 102.381 357.089 102.504C356.753 102.627 356.483 102.805 356.28 103.037C356.081 103.264 355.982 103.567 355.982 103.946C355.982 104.472 356.176 104.869 356.564 105.139C356.952 105.404 357.447 105.537 358.048 105.537ZM365.969 107V92.4545H368.093V97.8594H368.221C368.344 97.6321 368.521 97.3693 368.753 97.071C368.985 96.7727 369.307 96.5123 369.719 96.2898C370.131 96.0625 370.676 95.9489 371.353 95.9489C372.233 95.9489 373.019 96.1714 373.711 96.6165C374.402 97.0616 374.944 97.7031 375.337 98.5412C375.735 99.3793 375.934 100.388 375.934 101.567C375.934 102.746 375.737 103.757 375.344 104.599C374.951 105.437 374.411 106.084 373.725 106.538C373.038 106.988 372.255 107.213 371.374 107.213C370.711 107.213 370.169 107.102 369.748 106.879C369.331 106.657 369.004 106.396 368.767 106.098C368.531 105.8 368.348 105.535 368.221 105.303H368.043V107H365.969ZM368.05 101.545C368.05 102.312 368.161 102.985 368.384 103.562C368.606 104.14 368.928 104.592 369.35 104.919C369.771 105.241 370.287 105.402 370.898 105.402C371.533 105.402 372.063 105.234 372.489 104.898C372.915 104.557 373.237 104.095 373.455 103.513C373.677 102.93 373.789 102.275 373.789 101.545C373.789 100.826 373.68 100.179 373.462 99.6065C373.249 99.0336 372.927 98.5814 372.496 98.25C372.07 97.9186 371.537 97.7528 370.898 97.7528C370.283 97.7528 369.762 97.9115 369.336 98.2287C368.914 98.5459 368.595 98.9886 368.377 99.5568C368.159 100.125 368.05 100.788 368.05 101.545ZM380.442 92.4545V107H378.318V92.4545H380.442ZM388 107.22C386.926 107.22 386 106.991 385.223 106.531C384.452 106.067 383.855 105.416 383.434 104.578C383.017 103.735 382.809 102.748 382.809 101.616C382.809 100.499 383.017 99.5142 383.434 98.6619C383.855 97.8097 384.442 97.1444 385.195 96.6662C385.953 96.188 386.838 95.9489 387.851 95.9489C388.467 95.9489 389.063 96.0507 389.641 96.2543C390.219 96.4579 390.737 96.7775 391.196 97.2131C391.656 97.6487 392.018 98.2145 392.283 98.9105C392.548 99.6018 392.681 100.442 392.681 101.432V102.185H384.009V100.594H390.6C390.6 100.035 390.486 99.5402 390.259 99.1094C390.032 98.6738 389.712 98.3305 389.3 98.0795C388.893 97.8286 388.415 97.7031 387.865 97.7031C387.269 97.7031 386.748 97.8499 386.303 98.1435C385.863 98.4323 385.522 98.8111 385.28 99.2798C385.043 99.7438 384.925 100.248 384.925 100.793V102.036C384.925 102.765 385.053 103.385 385.309 103.896C385.569 104.408 385.931 104.798 386.395 105.068C386.859 105.333 387.401 105.466 388.022 105.466C388.424 105.466 388.791 105.409 389.123 105.295C389.454 105.177 389.74 105.002 389.982 104.77C390.223 104.538 390.408 104.251 390.536 103.911L392.546 104.273C392.385 104.865 392.096 105.383 391.679 105.828C391.267 106.268 390.749 106.612 390.124 106.858C389.504 107.099 388.796 107.22 388 107.22Z" fill="black"/>
<path d="M235.399 175V173.409L240.321 168.31C240.847 167.756 241.28 167.27 241.621 166.854C241.966 166.432 242.224 166.032 242.395 165.653C242.565 165.275 242.651 164.872 242.651 164.446C242.651 163.963 242.537 163.546 242.31 163.196C242.082 162.841 241.772 162.569 241.379 162.379C240.986 162.185 240.544 162.088 240.051 162.088C239.53 162.088 239.076 162.195 238.688 162.408C238.299 162.621 238.001 162.921 237.793 163.31C237.584 163.698 237.48 164.152 237.48 164.673H235.385C235.385 163.788 235.589 163.014 235.996 162.351C236.403 161.688 236.962 161.174 237.672 160.81C238.382 160.44 239.189 160.256 240.094 160.256C241.008 160.256 241.813 160.438 242.509 160.803C243.209 161.162 243.756 161.655 244.149 162.28C244.542 162.9 244.739 163.601 244.739 164.382C244.739 164.922 244.637 165.45 244.433 165.966C244.234 166.482 243.886 167.057 243.389 167.692C242.892 168.321 242.201 169.086 241.315 169.986L238.425 173.011V173.118H244.973V175H235.399ZM259.414 166.804V168.651H252.965V166.804H259.414ZM267.707 160.455H270.371L275.001 171.761H275.172L279.803 160.455H282.466V175H280.378V164.474H280.243L275.953 174.979H274.22L269.93 164.467H269.795V175H267.707V160.455ZM290.081 175.22C289.059 175.22 288.166 174.986 287.404 174.517C286.641 174.048 286.05 173.393 285.628 172.55C285.207 171.707 284.996 170.722 284.996 169.595C284.996 168.464 285.207 167.474 285.628 166.626C286.05 165.779 286.641 165.121 287.404 164.652C288.166 164.183 289.059 163.949 290.081 163.949C291.104 163.949 291.997 164.183 292.759 164.652C293.521 165.121 294.113 165.779 294.534 166.626C294.956 167.474 295.167 168.464 295.167 169.595C295.167 170.722 294.956 171.707 294.534 172.55C294.113 173.393 293.521 174.048 292.759 174.517C291.997 174.986 291.104 175.22 290.081 175.22ZM290.088 173.438C290.751 173.438 291.301 173.262 291.736 172.912C292.172 172.562 292.494 172.095 292.702 171.513C292.915 170.93 293.022 170.289 293.022 169.588C293.022 168.892 292.915 168.253 292.702 167.67C292.494 167.083 292.172 166.612 291.736 166.257C291.301 165.902 290.751 165.724 290.088 165.724C289.421 165.724 288.867 165.902 288.426 166.257C287.991 166.612 287.667 167.083 287.453 167.67C287.245 168.253 287.141 168.892 287.141 169.588C287.141 170.289 287.245 170.93 287.453 171.513C287.667 172.095 287.991 172.562 288.426 172.912C288.867 173.262 289.421 173.438 290.088 173.438ZM301.621 175.213C300.74 175.213 299.954 174.988 299.263 174.538C298.576 174.084 298.036 173.437 297.643 172.599C297.255 171.757 297.061 170.746 297.061 169.567C297.061 168.388 297.258 167.379 297.651 166.541C298.048 165.703 298.593 165.062 299.284 164.616C299.975 164.171 300.759 163.949 301.635 163.949C302.312 163.949 302.857 164.062 303.268 164.29C303.685 164.512 304.007 164.773 304.234 165.071C304.466 165.369 304.646 165.632 304.774 165.859H304.902V160.455H307.026V175H304.952V173.303H304.774C304.646 173.535 304.462 173.8 304.22 174.098C303.983 174.396 303.657 174.657 303.24 174.879C302.823 175.102 302.284 175.213 301.621 175.213ZM302.089 173.402C302.7 173.402 303.216 173.241 303.638 172.919C304.064 172.592 304.386 172.14 304.604 171.562C304.826 170.985 304.938 170.312 304.938 169.545C304.938 168.788 304.829 168.125 304.611 167.557C304.393 166.989 304.073 166.546 303.652 166.229C303.231 165.911 302.71 165.753 302.089 165.753C301.45 165.753 300.918 165.919 300.491 166.25C300.065 166.581 299.743 167.034 299.526 167.607C299.313 168.179 299.206 168.826 299.206 169.545C299.206 170.275 299.315 170.93 299.533 171.513C299.75 172.095 300.072 172.557 300.499 172.898C300.929 173.234 301.46 173.402 302.089 173.402ZM314.758 175.22C313.683 175.22 312.758 174.991 311.981 174.531C311.209 174.067 310.613 173.416 310.191 172.578C309.775 171.735 309.566 170.748 309.566 169.616C309.566 168.499 309.775 167.514 310.191 166.662C310.613 165.81 311.2 165.144 311.953 164.666C312.71 164.188 313.596 163.949 314.609 163.949C315.225 163.949 315.821 164.051 316.399 164.254C316.976 164.458 317.495 164.777 317.954 165.213C318.413 165.649 318.776 166.214 319.041 166.911C319.306 167.602 319.439 168.442 319.439 169.432V170.185H310.767V168.594H317.358C317.358 168.035 317.244 167.54 317.017 167.109C316.789 166.674 316.47 166.33 316.058 166.08C315.651 165.829 315.172 165.703 314.623 165.703C314.027 165.703 313.506 165.85 313.061 166.143C312.62 166.432 312.279 166.811 312.038 167.28C311.801 167.744 311.683 168.248 311.683 168.793V170.036C311.683 170.765 311.811 171.385 312.066 171.896C312.327 172.408 312.689 172.798 313.153 173.068C313.617 173.333 314.159 173.466 314.779 173.466C315.182 173.466 315.549 173.409 315.88 173.295C316.212 173.177 316.498 173.002 316.74 172.77C316.981 172.538 317.166 172.251 317.294 171.911L319.304 172.273C319.143 172.865 318.854 173.383 318.437 173.828C318.025 174.268 317.507 174.612 316.882 174.858C316.261 175.099 315.554 175.22 314.758 175.22ZM321.795 175V164.091H323.847V165.824H323.961C324.16 165.237 324.51 164.775 325.012 164.439C325.519 164.098 326.092 163.928 326.731 163.928C326.863 163.928 327.02 163.932 327.2 163.942C327.384 163.951 327.529 163.963 327.633 163.977V166.009C327.548 165.985 327.396 165.959 327.178 165.93C326.96 165.897 326.743 165.881 326.525 165.881C326.023 165.881 325.576 165.987 325.183 166.2C324.794 166.409 324.487 166.7 324.259 167.074C324.032 167.443 323.918 167.865 323.918 168.338V175H321.795ZM332.548 175.241C331.856 175.241 331.231 175.114 330.673 174.858C330.114 174.598 329.671 174.221 329.344 173.729C329.022 173.236 328.862 172.633 328.862 171.918C328.862 171.302 328.98 170.795 329.217 170.398C329.453 170 329.773 169.685 330.175 169.453C330.578 169.221 331.028 169.046 331.525 168.928C332.022 168.809 332.529 168.719 333.045 168.658C333.698 168.582 334.228 168.52 334.636 168.473C335.043 168.421 335.339 168.338 335.523 168.224C335.708 168.111 335.8 167.926 335.8 167.67V167.621C335.8 167 335.625 166.52 335.275 166.179C334.929 165.838 334.413 165.668 333.727 165.668C333.012 165.668 332.448 165.826 332.036 166.143C331.629 166.456 331.347 166.804 331.191 167.188L329.195 166.733C329.432 166.07 329.778 165.535 330.232 165.128C330.692 164.716 331.219 164.418 331.816 164.233C332.413 164.044 333.04 163.949 333.698 163.949C334.134 163.949 334.595 164.001 335.083 164.105C335.576 164.205 336.035 164.389 336.461 164.659C336.892 164.929 337.245 165.315 337.519 165.817C337.794 166.314 337.931 166.96 337.931 167.756V175H335.857V173.509H335.772C335.635 173.783 335.429 174.053 335.154 174.318C334.879 174.583 334.527 174.804 334.096 174.979C333.665 175.154 333.149 175.241 332.548 175.241ZM333.009 173.537C333.596 173.537 334.098 173.421 334.515 173.189C334.936 172.957 335.256 172.654 335.474 172.28C335.696 171.901 335.808 171.496 335.808 171.065V169.659C335.732 169.735 335.585 169.806 335.367 169.872C335.154 169.934 334.91 169.988 334.636 170.036C334.361 170.078 334.094 170.118 333.833 170.156C333.573 170.189 333.355 170.218 333.18 170.241C332.768 170.294 332.391 170.381 332.05 170.504C331.714 170.627 331.444 170.805 331.241 171.037C331.042 171.264 330.942 171.567 330.942 171.946C330.942 172.472 331.137 172.869 331.525 173.139C331.913 173.404 332.408 173.537 333.009 173.537ZM345.852 164.091V165.795H339.893V164.091H345.852ZM341.491 161.477H343.615V171.797C343.615 172.209 343.676 172.519 343.799 172.727C343.922 172.931 344.081 173.071 344.275 173.146C344.474 173.217 344.69 173.253 344.922 173.253C345.092 173.253 345.241 173.241 345.369 173.217C345.497 173.194 345.596 173.175 345.667 173.161L346.051 174.915C345.928 174.962 345.752 175.009 345.525 175.057C345.298 175.109 345.014 175.137 344.673 175.142C344.114 175.152 343.593 175.052 343.11 174.844C342.627 174.635 342.237 174.313 341.939 173.878C341.64 173.442 341.491 172.895 341.491 172.237V161.477ZM352.786 175.22C351.711 175.22 350.785 174.991 350.009 174.531C349.237 174.067 348.64 173.416 348.219 172.578C347.802 171.735 347.594 170.748 347.594 169.616C347.594 168.499 347.802 167.514 348.219 166.662C348.64 165.81 349.227 165.144 349.98 164.666C350.738 164.188 351.623 163.949 352.636 163.949C353.252 163.949 353.848 164.051 354.426 164.254C355.004 164.458 355.522 164.777 355.982 165.213C356.441 165.649 356.803 166.214 357.068 166.911C357.333 167.602 357.466 168.442 357.466 169.432V170.185H348.794V168.594H355.385C355.385 168.035 355.271 167.54 355.044 167.109C354.817 166.674 354.497 166.33 354.085 166.08C353.678 165.829 353.2 165.703 352.651 165.703C352.054 165.703 351.533 165.85 351.088 166.143C350.648 166.432 350.307 166.811 350.065 167.28C349.829 167.744 349.71 168.248 349.71 168.793V170.036C349.71 170.765 349.838 171.385 350.094 171.896C350.354 172.408 350.716 172.798 351.18 173.068C351.644 173.333 352.187 173.466 352.807 173.466C353.209 173.466 353.576 173.409 353.908 173.295C354.239 173.177 354.526 173.002 354.767 172.77C355.009 172.538 355.193 172.251 355.321 171.911L357.331 172.273C357.17 172.865 356.881 173.383 356.464 173.828C356.053 174.268 355.534 174.612 354.909 174.858C354.289 175.099 353.581 175.22 352.786 175.22Z" fill="black"/>
<path d="M240.918 226.455V241H238.716V228.656H238.631L235.151 230.929V228.827L238.78 226.455H240.918ZM256.601 232.804V234.651H250.152V232.804H256.601ZM264.895 241V226.455H267.089V239.111H273.68V241H264.895ZM280.609 241.22C279.586 241.22 278.693 240.986 277.931 240.517C277.169 240.048 276.577 239.393 276.156 238.55C275.734 237.707 275.523 236.722 275.523 235.595C275.523 234.464 275.734 233.474 276.156 232.626C276.577 231.779 277.169 231.121 277.931 230.652C278.693 230.183 279.586 229.949 280.609 229.949C281.631 229.949 282.524 230.183 283.286 230.652C284.049 231.121 284.64 231.779 285.062 232.626C285.483 233.474 285.694 234.464 285.694 235.595C285.694 236.722 285.483 237.707 285.062 238.55C284.64 239.393 284.049 240.048 283.286 240.517C282.524 240.986 281.631 241.22 280.609 241.22ZM280.616 239.438C281.279 239.438 281.828 239.262 282.263 238.912C282.699 238.562 283.021 238.095 283.229 237.513C283.442 236.93 283.549 236.289 283.549 235.588C283.549 234.892 283.442 234.253 283.229 233.67C283.021 233.083 282.699 232.612 282.263 232.257C281.828 231.902 281.279 231.724 280.616 231.724C279.948 231.724 279.394 231.902 278.954 232.257C278.518 232.612 278.194 233.083 277.981 233.67C277.772 234.253 277.668 234.892 277.668 235.588C277.668 236.289 277.772 236.93 277.981 237.513C278.194 238.095 278.518 238.562 278.954 238.912C279.394 239.262 279.948 239.438 280.616 239.438ZM290.097 241L286.887 230.091H289.082L291.219 238.102H291.326L293.471 230.091H295.665L297.796 238.067H297.903L300.026 230.091H302.221L299.018 241H296.852L294.636 233.124H294.472L292.256 241H290.097Z" fill="black"/>
<path d="M30.8267 107H28.4972L33.7315 92.4545H36.267L41.5014 107H39.1719L35.0597 95.0966H34.946L30.8267 107ZM31.2173 101.304H38.7741V103.151H31.2173V101.304ZM45.555 92.4545V107H43.4315V92.4545H45.555ZM48.4119 111.091V96.0909H50.4858V97.8594H50.6634C50.7865 97.6321 50.964 97.3693 51.196 97.071C51.428 96.7727 51.75 96.5123 52.1619 96.2898C52.5739 96.0625 53.1184 95.9489 53.7955 95.9489C54.6761 95.9489 55.4621 96.1714 56.1534 96.6165C56.8447 97.0616 57.3868 97.7031 57.7798 98.5412C58.1776 99.3793 58.3764 100.388 58.3764 101.567C58.3764 102.746 58.1799 103.757 57.7869 104.599C57.3939 105.437 56.8542 106.084 56.1676 106.538C55.4811 106.988 54.6974 107.213 53.8168 107.213C53.1539 107.213 52.6117 107.102 52.1903 106.879C51.7737 106.657 51.447 106.396 51.2102 106.098C50.9735 105.8 50.7912 105.535 50.6634 105.303H50.5355V111.091H48.4119ZM50.4929 101.545C50.4929 102.312 50.6042 102.985 50.8267 103.562C51.0492 104.14 51.3712 104.592 51.7926 104.919C52.214 105.241 52.7301 105.402 53.3409 105.402C53.9754 105.402 54.5057 105.234 54.9318 104.898C55.358 104.557 55.6799 104.095 55.8977 103.513C56.1203 102.93 56.2315 102.275 56.2315 101.545C56.2315 100.826 56.1226 100.179 55.9048 99.6065C55.6918 99.0336 55.3698 98.5814 54.9389 98.25C54.5128 97.9186 53.9801 97.7528 53.3409 97.7528C52.7254 97.7528 52.2045 97.9115 51.7784 98.2287C51.357 98.5459 51.0374 98.9886 50.8196 99.5568C50.6018 100.125 50.4929 100.788 50.4929 101.545ZM60.7557 107V96.0909H62.8793V107H60.7557ZM61.8281 94.4077C61.4588 94.4077 61.1416 94.2846 60.8764 94.0384C60.616 93.7874 60.4858 93.4891 60.4858 93.1435C60.4858 92.7931 60.616 92.4948 60.8764 92.2486C61.1416 91.9976 61.4588 91.8722 61.8281 91.8722C62.1974 91.8722 62.5123 91.9976 62.7727 92.2486C63.0379 92.4948 63.1705 92.7931 63.1705 93.1435C63.1705 93.4891 63.0379 93.7874 62.7727 94.0384C62.5123 94.2846 62.1974 94.4077 61.8281 94.4077ZM67.8597 100.523V107H65.7362V96.0909H67.7745V97.8665H67.9094C68.1604 97.2888 68.5534 96.8248 69.0884 96.4744C69.6282 96.1241 70.3076 95.9489 71.1268 95.9489C71.8701 95.9489 72.5212 96.1051 73.0799 96.4176C73.6386 96.7254 74.0719 97.1847 74.3796 97.7955C74.6874 98.4062 74.8413 99.1615 74.8413 100.061V107H72.7177V100.317C72.7177 99.526 72.5117 98.9081 72.0998 98.4631C71.6879 98.0133 71.122 97.7884 70.4023 97.7884C69.9099 97.7884 69.4719 97.8949 69.0884 98.108C68.7096 98.321 68.409 98.6335 68.1864 99.0455C67.9686 99.4527 67.8597 99.9451 67.8597 100.523ZM82.391 107.22C81.3162 107.22 80.3905 106.991 79.614 106.531C78.8422 106.067 78.2456 105.416 77.8242 104.578C77.4076 103.735 77.1992 102.748 77.1992 101.616C77.1992 100.499 77.4076 99.5142 77.8242 98.6619C78.2456 97.8097 78.8327 97.1444 79.5856 96.6662C80.3432 96.188 81.2286 95.9489 82.2418 95.9489C82.8574 95.9489 83.454 96.0507 84.0316 96.2543C84.6093 96.4579 85.1277 96.7775 85.587 97.2131C86.0463 97.6487 86.4085 98.2145 86.6737 98.9105C86.9388 99.6018 87.0714 100.442 87.0714 101.432V102.185H78.3995V100.594H84.9904C84.9904 100.035 84.8768 99.5402 84.6495 99.1094C84.4222 98.6738 84.1026 98.3305 83.6907 98.0795C83.2835 97.8286 82.8053 97.7031 82.256 97.7031C81.6594 97.7031 81.1386 97.8499 80.6935 98.1435C80.2532 98.4323 79.9123 98.8111 79.6708 99.2798C79.4341 99.7438 79.3157 100.248 79.3157 100.793V102.036C79.3157 102.765 79.4435 103.385 79.6992 103.896C79.9596 104.408 80.3219 104.798 80.7859 105.068C81.2499 105.333 81.792 105.466 82.4123 105.466C82.8147 105.466 83.1817 105.409 83.5131 105.295C83.8446 105.177 84.131 105.002 84.3725 104.77C84.614 104.538 84.7987 104.251 84.9265 103.911L86.9364 104.273C86.7754 104.865 86.4866 105.383 86.07 105.828C85.658 106.268 85.1396 106.612 84.5146 106.858C83.8943 107.099 83.1864 107.22 82.391 107.22Z" fill="black"/>
<path d="M27.8807 162.344V160.455H39.1378V162.344H34.5994V175H32.4119V162.344H27.8807ZM40.3221 175V164.091H42.3746V165.824H42.4883C42.6871 165.237 43.0375 164.775 43.5394 164.439C44.046 164.098 44.619 163.928 45.2582 163.928C45.3907 163.928 45.547 163.932 45.7269 163.942C45.9116 163.951 46.056 163.963 46.1602 163.977V166.009C46.0749 165.985 45.9234 165.959 45.7056 165.93C45.4878 165.897 45.27 165.881 45.0522 165.881C44.5503 165.881 44.1029 165.987 43.7099 166.2C43.3216 166.409 43.0138 166.7 42.7866 167.074C42.5593 167.443 42.4457 167.865 42.4457 168.338V175H40.3221ZM52.3089 175.22C51.2341 175.22 50.3085 174.991 49.532 174.531C48.7602 174.067 48.1636 173.416 47.7422 172.578C47.3255 171.735 47.1172 170.748 47.1172 169.616C47.1172 168.499 47.3255 167.514 47.7422 166.662C48.1636 165.81 48.7507 165.144 49.5036 164.666C50.2611 164.188 51.1465 163.949 52.1598 163.949C52.7753 163.949 53.3719 164.051 53.9496 164.254C54.5272 164.458 55.0457 164.777 55.505 165.213C55.9643 165.649 56.3265 166.214 56.5916 166.911C56.8568 167.602 56.9893 168.442 56.9893 169.432V170.185H48.3175V168.594H54.9084C54.9084 168.035 54.7947 167.54 54.5675 167.109C54.3402 166.674 54.0206 166.33 53.6087 166.08C53.2015 165.829 52.7232 165.703 52.174 165.703C51.5774 165.703 51.0566 165.85 50.6115 166.143C50.1712 166.432 49.8303 166.811 49.5888 167.28C49.352 167.744 49.2337 168.248 49.2337 168.793V170.036C49.2337 170.765 49.3615 171.385 49.6172 171.896C49.8776 172.408 50.2398 172.798 50.7038 173.068C51.1679 173.333 51.71 173.466 52.3303 173.466C52.7327 173.466 53.0997 173.409 53.4311 173.295C53.7625 173.177 54.049 173.002 54.2905 172.77C54.532 172.538 54.7166 172.251 54.8445 171.911L56.8544 172.273C56.6934 172.865 56.4046 173.383 55.9879 173.828C55.576 174.268 55.0575 174.612 54.4325 174.858C53.8123 175.099 53.1044 175.22 52.3089 175.22ZM64.0472 175.22C62.9724 175.22 62.0468 174.991 61.2702 174.531C60.4985 174.067 59.9019 173.416 59.4805 172.578C59.0638 171.735 58.8555 170.748 58.8555 169.616C58.8555 168.499 59.0638 167.514 59.4805 166.662C59.9019 165.81 60.489 165.144 61.2418 164.666C61.9994 164.188 62.8848 163.949 63.8981 163.949C64.5136 163.949 65.1102 164.051 65.6879 164.254C66.2655 164.458 66.784 164.777 67.2433 165.213C67.7025 165.649 68.0647 166.214 68.3299 166.911C68.5951 167.602 68.7276 168.442 68.7276 169.432V170.185H60.0558V168.594H66.6467C66.6467 168.035 66.533 167.54 66.3058 167.109C66.0785 166.674 65.7589 166.33 65.3469 166.08C64.9397 165.829 64.4615 165.703 63.9123 165.703C63.3157 165.703 62.7949 165.85 62.3498 166.143C61.9094 166.432 61.5685 166.811 61.3271 167.28C61.0903 167.744 60.9719 168.248 60.9719 168.793V170.036C60.9719 170.765 61.0998 171.385 61.3555 171.896C61.6159 172.408 61.9781 172.798 62.4421 173.068C62.9061 173.333 63.4483 173.466 64.0685 173.466C64.471 173.466 64.838 173.409 65.1694 173.295C65.5008 173.177 65.7873 173.002 66.0288 172.77C66.2702 172.538 66.4549 172.251 66.5827 171.911L68.5927 172.273C68.4317 172.865 68.1429 173.383 67.7262 173.828C67.3143 174.268 66.7958 174.612 66.1708 174.858C65.5505 175.099 64.8427 175.22 64.0472 175.22ZM78.5004 160.455V175H76.3768V160.455H78.5004ZM81.3572 175V164.091H83.4808V175H81.3572ZM82.4297 162.408C82.0604 162.408 81.7431 162.285 81.478 162.038C81.2176 161.787 81.0874 161.489 81.0874 161.143C81.0874 160.793 81.2176 160.495 81.478 160.249C81.7431 159.998 82.0604 159.872 82.4297 159.872C82.799 159.872 83.1139 159.998 83.3743 160.249C83.6394 160.495 83.772 160.793 83.772 161.143C83.772 161.489 83.6394 161.787 83.3743 162.038C83.1139 162.285 82.799 162.408 82.4297 162.408ZM88.4613 168.523V175H86.3377V164.091H88.3761V165.866H88.511C88.762 165.289 89.1549 164.825 89.69 164.474C90.2298 164.124 90.9092 163.949 91.7283 163.949C92.4717 163.949 93.1228 164.105 93.6815 164.418C94.2402 164.725 94.6734 165.185 94.9812 165.795C95.2889 166.406 95.4428 167.161 95.4428 168.061V175H93.3192V168.317C93.3192 167.526 93.1133 166.908 92.7013 166.463C92.2894 166.013 91.7236 165.788 91.0039 165.788C90.5115 165.788 90.0735 165.895 89.69 166.108C89.3112 166.321 89.0105 166.634 88.788 167.045C88.5702 167.453 88.4613 167.945 88.4613 168.523ZM102.993 175.22C101.918 175.22 100.992 174.991 100.216 174.531C99.4438 174.067 98.8472 173.416 98.4258 172.578C98.0091 171.735 97.8008 170.748 97.8008 169.616C97.8008 168.499 98.0091 167.514 98.4258 166.662C98.8472 165.81 99.4343 165.144 100.187 164.666C100.945 164.188 101.83 163.949 102.843 163.949C103.459 163.949 104.056 164.051 104.633 164.254C105.211 164.458 105.729 164.777 106.189 165.213C106.648 165.649 107.01 166.214 107.275 166.911C107.54 167.602 107.673 168.442 107.673 169.432V170.185H99.0011V168.594H105.592C105.592 168.035 105.478 167.54 105.251 167.109C105.024 166.674 104.704 166.33 104.292 166.08C103.885 165.829 103.407 165.703 102.858 165.703C102.261 165.703 101.74 165.85 101.295 166.143C100.855 166.432 100.514 166.811 100.272 167.28C100.036 167.744 99.9173 168.248 99.9173 168.793V170.036C99.9173 170.765 100.045 171.385 100.301 171.896C100.561 172.408 100.923 172.798 101.387 173.068C101.851 173.333 102.394 173.466 103.014 173.466C103.416 173.466 103.783 173.409 104.115 173.295C104.446 173.177 104.733 173.002 104.974 172.77C105.216 172.538 105.4 172.251 105.528 171.911L107.538 172.273C107.377 172.865 107.088 173.383 106.672 173.828C106.26 174.268 105.741 174.612 105.116 174.858C104.496 175.099 103.788 175.22 102.993 175.22Z" fill="black"/>
<path d="M29.598 241V226.455H34.9247C35.9569 226.455 36.8116 226.625 37.4886 226.966C38.1657 227.302 38.6723 227.759 39.0085 228.337C39.3447 228.91 39.5128 229.556 39.5128 230.276C39.5128 230.882 39.4015 231.393 39.179 231.81C38.9564 232.222 38.6581 232.553 38.2841 232.804C37.9148 233.05 37.5076 233.23 37.0625 233.344V233.486C37.5455 233.509 38.0166 233.666 38.4759 233.955C38.9399 234.239 39.3234 234.643 39.6264 235.169C39.9295 235.695 40.081 236.334 40.081 237.087C40.081 237.83 39.9058 238.498 39.5554 239.089C39.2098 239.677 38.6747 240.143 37.9503 240.489C37.2259 240.83 36.3002 241 35.1733 241H29.598ZM31.7926 239.118H34.9602C36.0114 239.118 36.7642 238.914 37.2188 238.507C37.6733 238.1 37.9006 237.591 37.9006 236.98C37.9006 236.521 37.7846 236.099 37.5526 235.716C37.3205 235.332 36.9891 235.027 36.5582 234.8C36.1321 234.572 35.6255 234.459 35.0384 234.459H31.7926V239.118ZM31.7926 232.747H34.733C35.2254 232.747 35.6681 232.652 36.0611 232.463C36.4588 232.274 36.7737 232.009 37.0057 231.668C37.2424 231.322 37.3608 230.915 37.3608 230.446C37.3608 229.845 37.1501 229.34 36.7287 228.933C36.3073 228.526 35.661 228.322 34.7898 228.322H31.7926V232.747ZM47.2152 241.22C46.1404 241.22 45.2147 240.991 44.4382 240.531C43.6664 240.067 43.0698 239.416 42.6484 238.578C42.2318 237.735 42.0234 236.748 42.0234 235.616C42.0234 234.499 42.2318 233.514 42.6484 232.662C43.0698 231.81 43.657 231.144 44.4098 230.666C45.1674 230.188 46.0528 229.949 47.0661 229.949C47.6816 229.949 48.2782 230.051 48.8558 230.254C49.4335 230.458 49.9519 230.777 50.4112 231.213C50.8705 231.649 51.2327 232.214 51.4979 232.911C51.763 233.602 51.8956 234.442 51.8956 235.432V236.185H43.2237V234.594H49.8146C49.8146 234.035 49.701 233.54 49.4737 233.109C49.2464 232.674 48.9268 232.33 48.5149 232.08C48.1077 231.829 47.6295 231.703 47.0803 231.703C46.4837 231.703 45.9628 231.85 45.5178 232.143C45.0774 232.432 44.7365 232.811 44.495 233.28C44.2583 233.744 44.1399 234.248 44.1399 234.793V236.036C44.1399 236.765 44.2678 237.385 44.5234 237.896C44.7839 238.408 45.1461 238.798 45.6101 239.068C46.0741 239.333 46.6162 239.466 47.2365 239.466C47.639 239.466 48.0059 239.409 48.3374 239.295C48.6688 239.177 48.9553 239.002 49.1967 238.77C49.4382 238.538 49.6229 238.251 49.7507 237.911L51.7607 238.273C51.5997 238.865 51.3108 239.383 50.8942 239.828C50.4822 240.268 49.9638 240.612 49.3388 240.858C48.7185 241.099 48.0107 241.22 47.2152 241.22ZM56.3754 226.455V241H54.2518V226.455H56.3754ZM63.8274 241.22C62.8047 241.22 61.9122 240.986 61.1499 240.517C60.3875 240.048 59.7957 239.393 59.3743 238.55C58.9529 237.707 58.7422 236.722 58.7422 235.595C58.7422 234.464 58.9529 233.474 59.3743 232.626C59.7957 231.779 60.3875 231.121 61.1499 230.652C61.9122 230.183 62.8047 229.949 63.8274 229.949C64.8501 229.949 65.7427 230.183 66.505 230.652C67.2673 231.121 67.8591 231.779 68.2805 232.626C68.7019 233.474 68.9126 234.464 68.9126 235.595C68.9126 236.722 68.7019 237.707 68.2805 238.55C67.8591 239.393 67.2673 240.048 66.505 240.517C65.7427 240.986 64.8501 241.22 63.8274 241.22ZM63.8345 239.438C64.4974 239.438 65.0466 239.262 65.4822 238.912C65.9179 238.562 66.2398 238.095 66.4482 237.513C66.6612 236.93 66.7678 236.289 66.7678 235.588C66.7678 234.892 66.6612 234.253 66.4482 233.67C66.2398 233.083 65.9179 232.612 65.4822 232.257C65.0466 231.902 64.4974 231.724 63.8345 231.724C63.1669 231.724 62.6129 231.902 62.1726 232.257C61.737 232.612 61.4126 233.083 61.1996 233.67C60.9912 234.253 60.8871 234.892 60.8871 235.588C60.8871 236.289 60.9912 236.93 61.1996 237.513C61.4126 238.095 61.737 238.562 62.1726 238.912C62.6129 239.262 63.1669 239.438 63.8345 239.438ZM73.3161 241L70.1058 230.091H72.3004L74.4382 238.102H74.5447L76.6896 230.091H78.8842L81.0149 238.067H81.1214L83.245 230.091H85.4396L82.2365 241H80.0703L77.8544 233.124H77.6911L75.4751 241H73.3161ZM97.8402 230.091V231.795H91.8814V230.091H97.8402ZM93.4794 227.477H95.603V237.797C95.603 238.209 95.6645 238.519 95.7876 238.727C95.9107 238.931 96.0694 239.071 96.2635 239.146C96.4624 239.217 96.6778 239.253 96.9098 239.253C97.0803 239.253 97.2294 239.241 97.3572 239.217C97.4851 239.194 97.5845 239.175 97.6555 239.161L98.0391 240.915C97.916 240.962 97.7408 241.009 97.5135 241.057C97.2862 241.109 97.0021 241.137 96.6612 241.142C96.1025 241.152 95.5817 241.052 95.0987 240.844C94.6158 240.635 94.2251 240.313 93.9268 239.878C93.6286 239.442 93.4794 238.895 93.4794 238.237V227.477ZM100.189 241V230.091H102.242V231.824H102.355C102.554 231.237 102.905 230.775 103.407 230.439C103.913 230.098 104.486 229.928 105.125 229.928C105.258 229.928 105.414 229.932 105.594 229.942C105.779 229.951 105.923 229.963 106.027 229.977V232.009C105.942 231.985 105.791 231.959 105.573 231.93C105.355 231.897 105.137 231.881 104.919 231.881C104.417 231.881 103.97 231.987 103.577 232.2C103.189 232.409 102.881 232.7 102.654 233.074C102.426 233.443 102.313 233.865 102.313 234.338V241H100.189ZM112.176 241.22C111.101 241.22 110.176 240.991 109.399 240.531C108.627 240.067 108.031 239.416 107.609 238.578C107.193 237.735 106.984 236.748 106.984 235.616C106.984 234.499 107.193 233.514 107.609 232.662C108.031 231.81 108.618 231.144 109.371 230.666C110.128 230.188 111.014 229.949 112.027 229.949C112.643 229.949 113.239 230.051 113.817 230.254C114.394 230.458 114.913 230.777 115.372 231.213C115.831 231.649 116.194 232.214 116.459 232.911C116.724 233.602 116.857 234.442 116.857 235.432V236.185H108.185V234.594H114.776C114.776 234.035 114.662 233.54 114.435 233.109C114.207 232.674 113.888 232.33 113.476 232.08C113.069 231.829 112.59 231.703 112.041 231.703C111.445 231.703 110.924 231.85 110.479 232.143C110.038 232.432 109.697 232.811 109.456 233.28C109.219 233.744 109.101 234.248 109.101 234.793V236.036C109.101 236.765 109.229 237.385 109.484 237.896C109.745 238.408 110.107 238.798 110.571 239.068C111.035 239.333 111.577 239.466 112.197 239.466C112.6 239.466 112.967 239.409 113.298 239.295C113.63 239.177 113.916 239.002 114.158 238.77C114.399 238.538 114.584 238.251 114.712 237.911L116.722 238.273C116.561 238.865 116.272 239.383 115.855 239.828C115.443 240.268 114.925 240.612 114.3 240.858C113.679 241.099 112.972 241.22 112.176 241.22ZM123.914 241.22C122.84 241.22 121.914 240.991 121.137 240.531C120.366 240.067 119.769 239.416 119.348 238.578C118.931 237.735 118.723 236.748 118.723 235.616C118.723 234.499 118.931 233.514 119.348 232.662C119.769 231.81 120.356 231.144 121.109 230.666C121.867 230.188 122.752 229.949 123.765 229.949C124.381 229.949 124.977 230.051 125.555 230.254C126.133 230.458 126.651 230.777 127.11 231.213C127.57 231.649 127.932 232.214 128.197 232.911C128.462 233.602 128.595 234.442 128.595 235.432V236.185H119.923V234.594H126.514C126.514 234.035 126.4 233.54 126.173 233.109C125.946 232.674 125.626 232.33 125.214 232.08C124.807 231.829 124.329 231.703 123.779 231.703C123.183 231.703 122.662 231.85 122.217 232.143C121.777 232.432 121.436 232.811 121.194 233.28C120.958 233.744 120.839 234.248 120.839 234.793V236.036C120.839 236.765 120.967 237.385 121.223 237.896C121.483 238.408 121.845 238.798 122.309 239.068C122.773 239.333 123.315 239.466 123.936 239.466C124.338 239.466 124.705 239.409 125.037 239.295C125.368 239.177 125.654 239.002 125.896 238.77C126.137 238.538 126.322 238.251 126.45 237.911L128.46 238.273C128.299 238.865 128.01 239.383 127.593 239.828C127.181 240.268 126.663 240.612 126.038 240.858C125.418 241.099 124.71 241.22 123.914 241.22ZM138.368 226.455V241H136.244V226.455H138.368ZM141.224 241V230.091H143.348V241H141.224ZM142.297 228.408C141.928 228.408 141.61 228.285 141.345 228.038C141.085 227.787 140.955 227.489 140.955 227.143C140.955 226.793 141.085 226.495 141.345 226.249C141.61 225.998 141.928 225.872 142.297 225.872C142.666 225.872 142.981 225.998 143.241 226.249C143.507 226.495 143.639 226.793 143.639 227.143C143.639 227.489 143.507 227.787 143.241 228.038C142.981 228.285 142.666 228.408 142.297 228.408ZM148.328 234.523V241H146.205V230.091H148.243V231.866H148.378C148.629 231.289 149.022 230.825 149.557 230.474C150.097 230.124 150.776 229.949 151.596 229.949C152.339 229.949 152.99 230.105 153.549 230.418C154.107 230.725 154.541 231.185 154.848 231.795C155.156 232.406 155.31 233.161 155.31 234.061V241H153.186V234.317C153.186 233.526 152.98 232.908 152.569 232.463C152.157 232.013 151.591 231.788 150.871 231.788C150.379 231.788 149.941 231.895 149.557 232.108C149.178 232.321 148.878 232.634 148.655 233.045C148.437 233.453 148.328 233.945 148.328 234.523ZM162.86 241.22C161.785 241.22 160.859 240.991 160.083 240.531C159.311 240.067 158.714 239.416 158.293 238.578C157.876 237.735 157.668 236.748 157.668 235.616C157.668 234.499 157.876 233.514 158.293 232.662C158.714 231.81 159.301 231.144 160.054 230.666C160.812 230.188 161.697 229.949 162.711 229.949C163.326 229.949 163.923 230.051 164.5 230.254C165.078 230.458 165.596 230.777 166.056 231.213C166.515 231.649 166.877 232.214 167.142 232.911C167.408 233.602 167.54 234.442 167.54 235.432V236.185H158.868V234.594H165.459C165.459 234.035 165.346 233.54 165.118 233.109C164.891 232.674 164.571 232.33 164.159 232.08C163.752 231.829 163.274 231.703 162.725 231.703C162.128 231.703 161.607 231.85 161.162 232.143C160.722 232.432 160.381 232.811 160.14 233.28C159.903 233.744 159.784 234.248 159.784 234.793V236.036C159.784 236.765 159.912 237.385 160.168 237.896C160.428 238.408 160.791 238.798 161.255 239.068C161.719 239.333 162.261 239.466 162.881 239.466C163.283 239.466 163.65 239.409 163.982 239.295C164.313 239.177 164.6 239.002 164.841 238.77C165.083 238.538 165.267 238.251 165.395 237.911L167.405 238.273C167.244 238.865 166.955 239.383 166.539 239.828C166.127 240.268 165.608 240.612 164.983 240.858C164.363 241.099 163.655 241.22 162.86 241.22Z" fill="black"/>
<rect x="1" y="1" width="673" height="266" rx="29" stroke="black" stroke-width="2"/>
<path d="M214.5 1V267" stroke="black" stroke-width="2"/>
<path d="M2 134L674 134" stroke="black" stroke-width="2"/>
<path d="M215 200H674" stroke="black" stroke-width="2"/>
<path d="M674 67.0001L183.766 67L2 67" stroke="black" stroke-width="2"/>
<path d="M215 200L2 200" stroke="black" stroke-width="2"/>
<path d="M1 31C1 14.4315 14.4315 1 31 1H644C660.569 1 674 14.4315 674 31V67H1V31Z" fill="black"/>
<path d="M34.5312 30.2756C34.4555 29.6032 34.143 29.0824 33.5938 28.7131C33.0445 28.339 32.3532 28.152 31.5199 28.152C30.9233 28.152 30.4072 28.2467 29.9716 28.4361C29.536 28.6207 29.1974 28.8764 28.956 29.2031C28.7192 29.5251 28.6009 29.892 28.6009 30.304C28.6009 30.6496 28.6813 30.9479 28.8423 31.1989C29.008 31.4498 29.2235 31.6605 29.4886 31.831C29.7585 31.9967 30.0473 32.1364 30.3551 32.25C30.6629 32.3589 30.9588 32.4489 31.2429 32.5199L32.6634 32.8892C33.1274 33.0028 33.6032 33.1567 34.0909 33.3509C34.5786 33.545 35.0308 33.8007 35.4474 34.1179C35.8641 34.4351 36.2003 34.8281 36.456 35.2969C36.7164 35.7656 36.8466 36.3267 36.8466 36.9801C36.8466 37.804 36.6335 38.5355 36.2074 39.1747C35.786 39.8139 35.1728 40.3182 34.3679 40.6875C33.5677 41.0568 32.5994 41.2415 31.4631 41.2415C30.3741 41.2415 29.4318 41.0687 28.6364 40.723C27.8409 40.3774 27.2183 39.8873 26.7685 39.2528C26.3187 38.6136 26.0701 37.8561 26.0227 36.9801H28.2244C28.267 37.5057 28.4375 37.9437 28.7358 38.294C29.0388 38.6397 29.4247 38.8977 29.8935 39.0682C30.367 39.2339 30.8854 39.3168 31.4489 39.3168C32.0691 39.3168 32.6207 39.2197 33.1037 39.0256C33.5914 38.8267 33.9749 38.5521 34.2543 38.2017C34.5336 37.8466 34.6733 37.4323 34.6733 36.9588C34.6733 36.5279 34.5502 36.1752 34.304 35.9006C34.0625 35.6259 33.7334 35.3987 33.3168 35.2188C32.9048 35.0388 32.4384 34.8802 31.9176 34.7429L30.1989 34.2741C29.0341 33.9569 28.1108 33.4905 27.429 32.875C26.7519 32.2595 26.4134 31.4451 26.4134 30.4318C26.4134 29.5937 26.6406 28.8622 27.0952 28.2372C27.5497 27.6122 28.1652 27.1269 28.9418 26.7812C29.7183 26.4309 30.5942 26.2557 31.5696 26.2557C32.5545 26.2557 33.4233 26.4285 34.1761 26.7741C34.9337 27.1198 35.5303 27.5956 35.9659 28.2017C36.4015 28.803 36.6288 29.4943 36.6477 30.2756H34.5312ZM42.4734 41.2415C41.7821 41.2415 41.1571 41.1136 40.5984 40.858C40.0397 40.5975 39.5969 40.2211 39.2702 39.7287C38.9483 39.2363 38.7873 38.6326 38.7873 37.9176C38.7873 37.3021 38.9057 36.7955 39.1424 36.3977C39.3791 36 39.6987 35.6851 40.1012 35.4531C40.5037 35.2211 40.9535 35.0459 41.4506 34.9276C41.9478 34.8092 42.4544 34.7192 42.9705 34.6577C43.6239 34.5819 44.1542 34.5204 44.5614 34.473C44.9686 34.4209 45.2646 34.3381 45.4492 34.2244C45.6339 34.1108 45.7262 33.9261 45.7262 33.6705V33.6207C45.7262 33.0005 45.551 32.5199 45.2006 32.179C44.855 31.8381 44.3389 31.6676 43.6523 31.6676C42.9374 31.6676 42.3739 31.8262 41.962 32.1435C41.5548 32.456 41.2731 32.804 41.1168 33.1875L39.1211 32.733C39.3578 32.0701 39.7035 31.535 40.158 31.1278C40.6173 30.7159 41.1452 30.4176 41.7418 30.233C42.3384 30.0436 42.9658 29.9489 43.6239 29.9489C44.0595 29.9489 44.5212 30.0009 45.0089 30.1051C45.5013 30.2045 45.9606 30.3892 46.3867 30.6591C46.8176 30.929 47.1703 31.3149 47.445 31.8168C47.7196 32.3139 47.8569 32.9602 47.8569 33.7557V41H45.783V39.5085H45.6978C45.5605 39.7831 45.3545 40.053 45.0799 40.3182C44.8053 40.5833 44.4525 40.8035 44.0217 40.9787C43.5908 41.1539 43.0747 41.2415 42.4734 41.2415ZM42.935 39.5369C43.5221 39.5369 44.024 39.4209 44.4407 39.1889C44.8621 38.9569 45.1817 38.6539 45.3995 38.2798C45.622 37.901 45.7333 37.4962 45.7333 37.0653V35.6591C45.6576 35.7348 45.5108 35.8059 45.293 35.8722C45.0799 35.9337 44.8361 35.9882 44.5614 36.0355C44.2868 36.0781 44.0193 36.1184 43.7589 36.1562C43.4985 36.1894 43.2807 36.2178 43.1055 36.2415C42.6935 36.2936 42.3171 36.3812 41.9762 36.5043C41.64 36.6274 41.3701 36.8049 41.1665 37.0369C40.9677 37.2642 40.8683 37.5672 40.8683 37.946C40.8683 38.4716 41.0624 38.8693 41.4506 39.1392C41.8389 39.4044 42.3337 39.5369 42.935 39.5369ZM55.7777 30.0909V31.7955H49.8189V30.0909H55.7777ZM51.4169 27.4773H53.5405V37.7969C53.5405 38.2088 53.602 38.5189 53.7251 38.7273C53.8482 38.9309 54.0069 39.0705 54.201 39.1463C54.3999 39.2173 54.6153 39.2528 54.8473 39.2528C55.0178 39.2528 55.1669 39.241 55.2947 39.2173C55.4226 39.1937 55.522 39.1747 55.593 39.1605L55.9766 40.9148C55.8535 40.9621 55.6783 41.0095 55.451 41.0568C55.2237 41.1089 54.9396 41.1373 54.5987 41.142C54.04 41.1515 53.5192 41.0521 53.0362 40.8438C52.5533 40.6354 52.1626 40.3134 51.8643 39.8778C51.5661 39.4422 51.4169 38.8954 51.4169 38.2372V27.4773ZM65.0373 36.4759V30.0909H67.168V41H65.0799V39.1108H64.9663C64.7153 39.6932 64.3129 40.1785 63.7589 40.5668C63.2096 40.9503 62.5254 41.142 61.7063 41.142C61.0056 41.142 60.3853 40.9882 59.8455 40.6804C59.3105 40.3679 58.8891 39.9062 58.5813 39.2955C58.2783 38.6847 58.1268 37.9295 58.1268 37.0298V30.0909H60.2504V36.7741C60.2504 37.5175 60.4563 38.1094 60.8683 38.5497C61.2802 38.9901 61.8152 39.2102 62.4734 39.2102C62.8711 39.2102 63.2665 39.1108 63.6594 38.9119C64.0572 38.7131 64.3862 38.4124 64.6467 38.0099C64.9118 37.6075 65.042 37.0961 65.0373 36.4759ZM70.0213 41V30.0909H72.0739V31.8239H72.1875C72.3864 31.2367 72.7367 30.7751 73.2386 30.4389C73.7453 30.098 74.3182 29.9276 74.9574 29.9276C75.09 29.9276 75.2462 29.9323 75.4261 29.9418C75.6108 29.9512 75.7552 29.9631 75.8594 29.9773V32.0085C75.7741 31.9848 75.6226 31.9588 75.4048 31.9304C75.187 31.8973 74.9692 31.8807 74.7514 31.8807C74.2495 31.8807 73.8021 31.9872 73.4091 32.2003C73.0208 32.4086 72.7131 32.6998 72.4858 33.0739C72.2585 33.4432 72.1449 33.8646 72.1449 34.3381V41H70.0213ZM81.3903 41.2131C80.5096 41.2131 79.7236 40.9882 79.0323 40.5384C78.3458 40.0838 77.806 39.4375 77.413 38.5994C77.0247 37.7566 76.8306 36.7457 76.8306 35.5668C76.8306 34.3878 77.0271 33.3793 77.4201 32.5412C77.8178 31.7031 78.3623 31.0616 79.0536 30.6165C79.7449 30.1714 80.5285 29.9489 81.4045 29.9489C82.0816 29.9489 82.6261 30.0625 83.038 30.2898C83.4547 30.5123 83.7766 30.7727 84.0039 31.071C84.2359 31.3693 84.4158 31.6321 84.5437 31.8594H84.6715V26.4545H86.7951V41H84.7212V39.3026H84.5437C84.4158 39.5346 84.2312 39.7997 83.9897 40.098C83.753 40.3963 83.4263 40.6567 83.0096 40.8793C82.5929 41.1018 82.0531 41.2131 81.3903 41.2131ZM81.859 39.402C82.4698 39.402 82.9859 39.241 83.4073 38.919C83.8335 38.5923 84.1554 38.1402 84.3732 37.5625C84.5958 36.9848 84.707 36.3125 84.707 35.5455C84.707 34.7879 84.5981 34.125 84.3803 33.5568C84.1625 32.9886 83.8429 32.5459 83.4215 32.2287C83.0001 31.9115 82.4793 31.7528 81.859 31.7528C81.2198 31.7528 80.6871 31.9186 80.261 32.25C79.8349 32.5814 79.5129 33.0336 79.2951 33.6065C79.082 34.1795 78.9755 34.8258 78.9755 35.5455C78.9755 36.2746 79.0844 36.9304 79.3022 37.5128C79.52 38.0952 79.842 38.5568 80.2681 38.8977C80.699 39.2339 81.2293 39.402 81.859 39.402ZM93.0007 41.2415C92.3094 41.2415 91.6844 41.1136 91.1257 40.858C90.567 40.5975 90.1243 40.2211 89.7976 39.7287C89.4756 39.2363 89.3146 38.6326 89.3146 37.9176C89.3146 37.3021 89.433 36.7955 89.6697 36.3977C89.9065 36 90.2261 35.6851 90.6286 35.4531C91.031 35.2211 91.4808 35.0459 91.978 34.9276C92.4751 34.8092 92.9818 34.7192 93.4979 34.6577C94.1513 34.5819 94.6816 34.5204 95.0888 34.473C95.496 34.4209 95.7919 34.3381 95.9766 34.2244C96.1612 34.1108 96.2536 33.9261 96.2536 33.6705V33.6207C96.2536 33.0005 96.0784 32.5199 95.728 32.179C95.3823 31.8381 94.8662 31.6676 94.1797 31.6676C93.4647 31.6676 92.9013 31.8262 92.4893 32.1435C92.0821 32.456 91.8004 32.804 91.6442 33.1875L89.6484 32.733C89.8852 32.0701 90.2308 31.535 90.6854 31.1278C91.1446 30.7159 91.6726 30.4176 92.2692 30.233C92.8658 30.0436 93.4931 29.9489 94.1513 29.9489C94.5869 29.9489 95.0485 30.0009 95.5362 30.1051C96.0286 30.2045 96.4879 30.3892 96.9141 30.6591C97.3449 30.929 97.6977 31.3149 97.9723 31.8168C98.2469 32.3139 98.3842 32.9602 98.3842 33.7557V41H96.3104V39.5085H96.2251C96.0878 39.7831 95.8819 40.053 95.6072 40.3182C95.3326 40.5833 94.9799 40.8035 94.549 40.9787C94.1181 41.1539 93.602 41.2415 93.0007 41.2415ZM93.4624 39.5369C94.0495 39.5369 94.5514 39.4209 94.968 39.1889C95.3894 38.9569 95.709 38.6539 95.9268 38.2798C96.1494 37.901 96.2607 37.4962 96.2607 37.0653V35.6591C96.1849 35.7348 96.0381 35.8059 95.8203 35.8722C95.6072 35.9337 95.3634 35.9882 95.0888 36.0355C94.8142 36.0781 94.5466 36.1184 94.2862 36.1562C94.0258 36.1894 93.808 36.2178 93.6328 36.2415C93.2209 36.2936 92.8445 36.3812 92.5036 36.5043C92.1674 36.6274 91.8975 36.8049 91.6939 37.0369C91.495 37.2642 91.3956 37.5672 91.3956 37.946C91.3956 38.4716 91.5897 38.8693 91.978 39.1392C92.3662 39.4044 92.861 39.5369 93.4624 39.5369ZM102.164 45.0909C101.847 45.0909 101.558 45.0649 101.298 45.0128C101.038 44.9654 100.843 44.9134 100.716 44.8565L101.227 43.1165C101.615 43.2206 101.961 43.2656 102.264 43.2514C102.567 43.2372 102.834 43.1236 103.066 42.9105C103.303 42.6974 103.511 42.3494 103.691 41.8665L103.954 41.142L99.9627 30.0909H102.235L104.998 38.5568H105.112L107.875 30.0909H110.154L105.659 42.456C105.45 43.0241 105.185 43.5047 104.863 43.8977C104.541 44.2955 104.158 44.5938 103.713 44.7926C103.268 44.9915 102.752 45.0909 102.164 45.0909Z" fill="white"/>
</svg>
