<svg width="675" height="268" viewBox="0 0 675 268" fill="none" xmlns="http://www.w3.org/2000/svg">
<rect x="215" y="68" width="458" height="65" fill="#FF0000"/>
<rect x="215" y="135" width="458" height="65" fill="#FF9306"/>
<path d="M215 201H673V238C673 253.464 660.464 266 645 266H215V201Z" fill="#FF9306"/>
<rect x="2" y="68" width="212" height="65" fill="white"/>
<rect x="2" y="135" width="213" height="64" fill="#C1D831"/>
<path d="M2 201H214V266H29C14.0883 266 2 253.912 2 239V201Z" fill="#6EA469"/>
<path d="M21.8267 106H19.4972L24.7315 91.4545H27.267L32.5014 106H30.1719L26.0597 94.0966H25.946L21.8267 106ZM22.2173 100.304H29.7741V102.151H22.2173V100.304ZM36.555 91.4545V106H34.4315V91.4545H36.555ZM39.4119 110.091V95.0909H41.4858V96.8594H41.6634C41.7865 96.6321 41.964 96.3693 42.196 96.071C42.428 95.7727 42.75 95.5123 43.1619 95.2898C43.5739 95.0625 44.1184 94.9489 44.7955 94.9489C45.6761 94.9489 46.4621 95.1714 47.1534 95.6165C47.8447 96.0616 48.3868 96.7031 48.7798 97.5412C49.1776 98.3793 49.3764 99.3878 49.3764 100.567C49.3764 101.746 49.1799 102.757 48.7869 103.599C48.3939 104.437 47.8542 105.084 47.1676 105.538C46.4811 105.988 45.6974 106.213 44.8168 106.213C44.1539 106.213 43.6117 106.102 43.1903 105.879C42.7737 105.657 42.447 105.396 42.2102 105.098C41.9735 104.8 41.7912 104.535 41.6634 104.303H41.5355V110.091H39.4119ZM41.4929 100.545C41.4929 101.312 41.6042 101.985 41.8267 102.562C42.0492 103.14 42.3712 103.592 42.7926 103.919C43.214 104.241 43.7301 104.402 44.3409 104.402C44.9754 104.402 45.5057 104.234 45.9318 103.898C46.358 103.557 46.6799 103.095 46.8977 102.513C47.1203 101.93 47.2315 101.275 47.2315 100.545C47.2315 99.8258 47.1226 99.1795 46.9048 98.6065C46.6918 98.0336 46.3698 97.5814 45.9389 97.25C45.5128 96.9186 44.9801 96.7528 44.3409 96.7528C43.7254 96.7528 43.2045 96.9115 42.7784 97.2287C42.357 97.5459 42.0374 97.9886 41.8196 98.5568C41.6018 99.125 41.4929 99.7879 41.4929 100.545ZM51.7557 106V95.0909H53.8793V106H51.7557ZM52.8281 93.4077C52.4588 93.4077 52.1416 93.2846 51.8764 93.0384C51.616 92.7874 51.4858 92.4891 51.4858 92.1435C51.4858 91.7931 51.616 91.4948 51.8764 91.2486C52.1416 90.9976 52.4588 90.8722 52.8281 90.8722C53.1974 90.8722 53.5123 90.9976 53.7727 91.2486C54.0379 91.4948 54.1705 91.7931 54.1705 92.1435C54.1705 92.4891 54.0379 92.7874 53.7727 93.0384C53.5123 93.2846 53.1974 93.4077 52.8281 93.4077ZM58.8597 99.5227V106H56.7362V95.0909H58.7745V96.8665H58.9094C59.1604 96.2888 59.5534 95.8248 60.0884 95.4744C60.6282 95.1241 61.3076 94.9489 62.1268 94.9489C62.8701 94.9489 63.5212 95.1051 64.0799 95.4176C64.6386 95.7254 65.0719 96.1847 65.3796 96.7955C65.6874 97.4062 65.8413 98.1615 65.8413 99.0611V106H63.7177V99.3168C63.7177 98.526 63.5117 97.9081 63.0998 97.4631C62.6879 97.0133 62.122 96.7884 61.4023 96.7884C60.9099 96.7884 60.4719 96.8949 60.0884 97.108C59.7096 97.321 59.409 97.6335 59.1864 98.0455C58.9686 98.4527 58.8597 98.9451 58.8597 99.5227ZM73.391 106.22C72.3162 106.22 71.3905 105.991 70.614 105.531C69.8422 105.067 69.2456 104.416 68.8242 103.578C68.4076 102.735 68.1992 101.748 68.1992 100.616C68.1992 99.4991 68.4076 98.5142 68.8242 97.6619C69.2456 96.8097 69.8327 96.1444 70.5856 95.6662C71.3432 95.188 72.2286 94.9489 73.2418 94.9489C73.8574 94.9489 74.454 95.0507 75.0316 95.2543C75.6093 95.4579 76.1277 95.7775 76.587 96.2131C77.0463 96.6487 77.4085 97.2145 77.6737 97.9105C77.9388 98.6018 78.0714 99.4422 78.0714 100.432V101.185H69.3995V99.5938H75.9904C75.9904 99.035 75.8768 98.5402 75.6495 98.1094C75.4222 97.6738 75.1026 97.3305 74.6907 97.0795C74.2835 96.8286 73.8053 96.7031 73.256 96.7031C72.6594 96.7031 72.1386 96.8499 71.6935 97.1435C71.2532 97.4323 70.9123 97.8111 70.6708 98.2798C70.4341 98.7438 70.3157 99.2481 70.3157 99.7926V101.036C70.3157 101.765 70.4435 102.385 70.6992 102.896C70.9596 103.408 71.3219 103.798 71.7859 104.068C72.2499 104.333 72.792 104.466 73.4123 104.466C73.8147 104.466 74.1817 104.409 74.5131 104.295C74.8446 104.177 75.131 104.002 75.3725 103.77C75.614 103.538 75.7987 103.251 75.9265 102.911L77.9364 103.273C77.7754 103.865 77.4866 104.383 77.07 104.828C76.658 105.268 76.1396 105.612 75.5146 105.858C74.8943 106.099 74.1864 106.22 73.391 106.22Z" fill="black"/>
<path d="M234.094 103.159V101.384L240.379 91.4545H241.778V94.0682H240.891L236.395 101.185V101.298H245.01V103.159H234.094ZM240.99 106V102.619L241.004 101.81V91.4545H243.085V106H240.99ZM259.234 97.804V99.6506H252.785V97.804H259.234ZM267.528 106V91.4545H269.722V97.7756H276.974V91.4545H279.175V106H276.974V99.6577H269.722V106H267.528ZM282.201 106V95.0909H284.325V106H282.201ZM283.273 93.4077C282.904 93.4077 282.587 93.2846 282.322 93.0384C282.061 92.7874 281.931 92.4891 281.931 92.1435C281.931 91.7931 282.061 91.4948 282.322 91.2486C282.587 90.9976 282.904 90.8722 283.273 90.8722C283.643 90.8722 283.958 90.9976 284.218 91.2486C284.483 91.4948 284.616 91.7931 284.616 92.1435C284.616 92.4891 284.483 92.7874 284.218 93.0384C283.958 93.2846 283.643 93.4077 283.273 93.4077ZM291.755 110.318C290.889 110.318 290.143 110.205 289.518 109.977C288.898 109.75 288.391 109.449 287.998 109.075C287.605 108.701 287.312 108.292 287.118 107.847L288.943 107.094C289.071 107.302 289.241 107.522 289.454 107.754C289.672 107.991 289.966 108.192 290.335 108.358C290.709 108.524 291.19 108.607 291.777 108.607C292.582 108.607 293.247 108.41 293.772 108.017C294.298 107.629 294.561 107.009 294.561 106.156V104.011H294.426C294.298 104.243 294.113 104.501 293.872 104.786C293.635 105.07 293.308 105.316 292.892 105.524C292.475 105.732 291.933 105.837 291.265 105.837C290.404 105.837 289.627 105.635 288.936 105.233C288.249 104.826 287.705 104.227 287.302 103.436C286.904 102.641 286.706 101.663 286.706 100.503C286.706 99.3428 286.902 98.3485 287.295 97.5199C287.693 96.6913 288.237 96.0568 288.929 95.6165C289.62 95.1714 290.404 94.9489 291.279 94.9489C291.957 94.9489 292.503 95.0625 292.92 95.2898C293.337 95.5123 293.661 95.7727 293.893 96.071C294.13 96.3693 294.312 96.6321 294.44 96.8594H294.596V95.0909H296.677V106.241C296.677 107.179 296.459 107.948 296.024 108.55C295.588 109.151 294.999 109.596 294.255 109.885C293.517 110.174 292.683 110.318 291.755 110.318ZM291.734 104.075C292.345 104.075 292.861 103.933 293.282 103.649C293.708 103.36 294.03 102.948 294.248 102.413C294.471 101.874 294.582 101.227 294.582 100.474C294.582 99.7405 294.473 99.0942 294.255 98.5355C294.038 97.9768 293.718 97.5412 293.297 97.2287C292.875 96.9115 292.354 96.7528 291.734 96.7528C291.095 96.7528 290.562 96.9186 290.136 97.25C289.71 97.5767 289.388 98.0218 289.17 98.5852C288.957 99.1487 288.85 99.7784 288.85 100.474C288.85 101.189 288.959 101.817 289.177 102.357C289.395 102.896 289.717 103.318 290.143 103.621C290.574 103.924 291.104 104.075 291.734 104.075ZM301.649 99.5227V106H299.525V91.4545H301.62V96.8665H301.755C302.011 96.2794 302.402 95.813 302.927 95.4673C303.453 95.1217 304.139 94.9489 304.987 94.9489C305.735 94.9489 306.388 95.1027 306.947 95.4105C307.511 95.7183 307.946 96.1776 308.254 96.7884C308.566 97.3944 308.723 98.152 308.723 99.0611V106H306.599V99.3168C306.599 98.5166 306.393 97.8963 305.981 97.456C305.569 97.0109 304.996 96.7884 304.262 96.7884C303.761 96.7884 303.311 96.8949 302.913 97.108C302.52 97.321 302.21 97.6335 301.983 98.0455C301.76 98.4527 301.649 98.9451 301.649 99.5227Z" fill="black"/>
<path d="M239.463 174.199C238.488 174.199 237.616 174.031 236.849 173.695C236.087 173.358 235.483 172.892 235.038 172.295C234.598 171.694 234.361 170.998 234.328 170.207H236.558C236.587 170.638 236.731 171.012 236.991 171.33C237.257 171.642 237.602 171.884 238.028 172.054C238.455 172.224 238.928 172.31 239.449 172.31C240.022 172.31 240.528 172.21 240.969 172.011C241.414 171.812 241.762 171.536 242.013 171.18C242.264 170.821 242.389 170.406 242.389 169.938C242.389 169.45 242.264 169.021 242.013 168.652C241.767 168.278 241.404 167.984 240.926 167.771C240.453 167.558 239.88 167.452 239.207 167.452H237.979V165.662H239.207C239.747 165.662 240.221 165.565 240.628 165.371C241.04 165.177 241.362 164.907 241.594 164.561C241.826 164.211 241.942 163.801 241.942 163.332C241.942 162.883 241.84 162.492 241.636 162.161C241.438 161.824 241.153 161.562 240.784 161.372C240.42 161.183 239.989 161.088 239.491 161.088C239.018 161.088 238.575 161.176 238.163 161.351C237.756 161.521 237.425 161.768 237.169 162.089C236.913 162.407 236.776 162.788 236.757 163.233H234.634C234.657 162.447 234.889 161.756 235.33 161.159C235.775 160.562 236.362 160.096 237.091 159.76C237.82 159.424 238.63 159.256 239.52 159.256C240.453 159.256 241.258 159.438 241.935 159.803C242.616 160.162 243.142 160.643 243.511 161.244C243.885 161.846 244.07 162.504 244.065 163.219C244.07 164.033 243.843 164.724 243.384 165.293C242.929 165.861 242.323 166.242 241.565 166.436V166.55C242.531 166.696 243.279 167.08 243.81 167.7C244.345 168.321 244.61 169.09 244.605 170.009C244.61 170.809 244.387 171.526 243.938 172.161C243.492 172.795 242.884 173.295 242.112 173.659C241.34 174.019 240.457 174.199 239.463 174.199ZM259.039 165.804V167.651H252.59V165.804H259.039ZM279.413 164.185H277.197C277.112 163.711 276.954 163.295 276.722 162.935C276.49 162.575 276.205 162.269 275.869 162.018C275.533 161.768 275.157 161.578 274.74 161.45C274.328 161.322 273.89 161.259 273.426 161.259C272.588 161.259 271.838 161.469 271.175 161.891C270.517 162.312 269.996 162.93 269.612 163.744C269.233 164.559 269.044 165.553 269.044 166.727C269.044 167.911 269.233 168.91 269.612 169.724C269.996 170.539 270.519 171.154 271.182 171.571C271.845 171.988 272.59 172.196 273.419 172.196C273.878 172.196 274.314 172.134 274.726 172.011C275.143 171.884 275.519 171.696 275.855 171.45C276.191 171.204 276.475 170.903 276.707 170.548C276.944 170.188 277.107 169.777 277.197 169.312L279.413 169.32C279.295 170.035 279.065 170.693 278.724 171.294C278.388 171.891 277.955 172.407 277.425 172.842C276.899 173.273 276.298 173.607 275.621 173.844C274.944 174.08 274.205 174.199 273.405 174.199C272.145 174.199 271.023 173.901 270.038 173.304C269.054 172.703 268.277 171.843 267.709 170.726C267.145 169.608 266.864 168.276 266.864 166.727C266.864 165.174 267.148 163.841 267.716 162.729C268.284 161.611 269.061 160.754 270.045 160.158C271.03 159.556 272.15 159.256 273.405 159.256C274.177 159.256 274.896 159.367 275.564 159.589C276.236 159.807 276.84 160.129 277.375 160.555C277.91 160.977 278.353 161.493 278.703 162.104C279.054 162.71 279.29 163.403 279.413 164.185ZM286.464 174.22C285.441 174.22 284.549 173.986 283.787 173.517C283.024 173.048 282.432 172.393 282.011 171.55C281.59 170.707 281.379 169.722 281.379 168.595C281.379 167.464 281.59 166.474 282.011 165.626C282.432 164.779 283.024 164.121 283.787 163.652C284.549 163.183 285.441 162.949 286.464 162.949C287.487 162.949 288.379 163.183 289.142 163.652C289.904 164.121 290.496 164.779 290.917 165.626C291.339 166.474 291.549 167.464 291.549 168.595C291.549 169.722 291.339 170.707 290.917 171.55C290.496 172.393 289.904 173.048 289.142 173.517C288.379 173.986 287.487 174.22 286.464 174.22ZM286.471 172.438C287.134 172.438 287.683 172.262 288.119 171.912C288.555 171.562 288.877 171.095 289.085 170.513C289.298 169.93 289.404 169.289 289.404 168.588C289.404 167.892 289.298 167.253 289.085 166.67C288.877 166.083 288.555 165.612 288.119 165.257C287.683 164.902 287.134 164.724 286.471 164.724C285.804 164.724 285.25 164.902 284.809 165.257C284.374 165.612 284.049 166.083 283.836 166.67C283.628 167.253 283.524 167.892 283.524 168.588C283.524 169.289 283.628 169.93 283.836 170.513C284.049 171.095 284.374 171.562 284.809 171.912C285.25 172.262 285.804 172.438 286.471 172.438ZM296.043 167.523V174H293.92V163.091H295.958V164.866H296.093C296.344 164.289 296.737 163.825 297.272 163.474C297.812 163.124 298.491 162.949 299.31 162.949C300.054 162.949 300.705 163.105 301.263 163.418C301.822 163.725 302.255 164.185 302.563 164.795C302.871 165.406 303.025 166.161 303.025 167.061V174H300.901V167.317C300.901 166.526 300.695 165.908 300.283 165.463C299.871 165.013 299.306 164.788 298.586 164.788C298.094 164.788 297.656 164.895 297.272 165.108C296.893 165.321 296.593 165.634 296.37 166.045C296.152 166.453 296.043 166.945 296.043 167.523ZM314.048 165.754L312.123 166.095C312.042 165.849 311.915 165.615 311.739 165.392C311.569 165.17 311.337 164.987 311.043 164.845C310.75 164.703 310.383 164.632 309.942 164.632C309.341 164.632 308.839 164.767 308.437 165.037C308.034 165.302 307.833 165.645 307.833 166.067C307.833 166.431 307.968 166.725 308.238 166.947C308.508 167.17 308.943 167.352 309.545 167.494L311.278 167.892C312.281 168.124 313.03 168.482 313.522 168.964C314.014 169.447 314.261 170.075 314.261 170.847C314.261 171.5 314.071 172.082 313.692 172.594C313.318 173.1 312.795 173.498 312.123 173.787C311.455 174.076 310.681 174.22 309.8 174.22C308.579 174.22 307.582 173.96 306.81 173.439C306.039 172.913 305.565 172.168 305.39 171.202L307.442 170.889C307.57 171.424 307.833 171.829 308.231 172.104C308.629 172.374 309.147 172.509 309.786 172.509C310.482 172.509 311.039 172.364 311.455 172.075C311.872 171.782 312.08 171.424 312.08 171.003C312.08 170.662 311.952 170.375 311.697 170.143C311.446 169.911 311.06 169.736 310.539 169.618L308.692 169.213C307.674 168.981 306.922 168.612 306.434 168.105C305.951 167.598 305.71 166.957 305.71 166.18C305.71 165.536 305.889 164.973 306.249 164.49C306.609 164.007 307.106 163.631 307.741 163.361C308.375 163.086 309.102 162.949 309.921 162.949C311.1 162.949 312.028 163.205 312.705 163.716C313.382 164.223 313.83 164.902 314.048 165.754ZM316.596 174V163.091H318.719V174H316.596ZM317.668 161.408C317.299 161.408 316.981 161.285 316.716 161.038C316.456 160.787 316.326 160.489 316.326 160.143C316.326 159.793 316.456 159.495 316.716 159.249C316.981 158.998 317.299 158.872 317.668 158.872C318.037 158.872 318.352 158.998 318.613 159.249C318.878 159.495 319.01 159.793 319.01 160.143C319.01 160.489 318.878 160.787 318.613 161.038C318.352 161.285 318.037 161.408 317.668 161.408ZM325.66 174.213C324.779 174.213 323.993 173.988 323.302 173.538C322.615 173.084 322.076 172.437 321.683 171.599C321.294 170.757 321.1 169.746 321.1 168.567C321.1 167.388 321.297 166.379 321.69 165.541C322.087 164.703 322.632 164.062 323.323 163.616C324.014 163.171 324.798 162.949 325.674 162.949C326.351 162.949 326.896 163.062 327.308 163.29C327.724 163.512 328.046 163.773 328.273 164.071C328.505 164.369 328.685 164.632 328.813 164.859H328.941V159.455H331.065V174H328.991V172.303H328.813C328.685 172.535 328.501 172.8 328.259 173.098C328.022 173.396 327.696 173.657 327.279 173.879C326.862 174.102 326.323 174.213 325.66 174.213ZM326.129 172.402C326.739 172.402 327.255 172.241 327.677 171.919C328.103 171.592 328.425 171.14 328.643 170.562C328.865 169.985 328.977 169.312 328.977 168.545C328.977 167.788 328.868 167.125 328.65 166.557C328.432 165.989 328.112 165.546 327.691 165.229C327.27 164.911 326.749 164.753 326.129 164.753C325.489 164.753 324.957 164.919 324.531 165.25C324.104 165.581 323.782 166.034 323.565 166.607C323.352 167.179 323.245 167.826 323.245 168.545C323.245 169.275 323.354 169.93 323.572 170.513C323.79 171.095 324.112 171.557 324.538 171.898C324.969 172.234 325.499 172.402 326.129 172.402ZM338.797 174.22C337.722 174.22 336.797 173.991 336.02 173.531C335.248 173.067 334.652 172.416 334.23 171.578C333.814 170.735 333.605 169.748 333.605 168.616C333.605 167.499 333.814 166.514 334.23 165.662C334.652 164.81 335.239 164.144 335.992 163.666C336.749 163.188 337.635 162.949 338.648 162.949C339.264 162.949 339.86 163.051 340.438 163.254C341.016 163.458 341.534 163.777 341.993 164.213C342.453 164.649 342.815 165.214 343.08 165.911C343.345 166.602 343.478 167.442 343.478 168.432V169.185H334.806V167.594H341.397C341.397 167.035 341.283 166.54 341.056 166.109C340.828 165.674 340.509 165.33 340.097 165.08C339.69 164.829 339.212 164.703 338.662 164.703C338.066 164.703 337.545 164.85 337.1 165.143C336.659 165.432 336.319 165.811 336.077 166.28C335.84 166.744 335.722 167.248 335.722 167.793V169.036C335.722 169.765 335.85 170.385 336.105 170.896C336.366 171.408 336.728 171.798 337.192 172.068C337.656 172.333 338.198 172.466 338.819 172.466C339.221 172.466 339.588 172.409 339.919 172.295C340.251 172.177 340.537 172.002 340.779 171.77C341.02 171.538 341.205 171.251 341.333 170.911L343.343 171.273C343.182 171.865 342.893 172.383 342.476 172.828C342.064 173.268 341.546 173.612 340.921 173.858C340.301 174.099 339.593 174.22 338.797 174.22ZM345.834 174V163.091H347.886V164.824H348C348.199 164.237 348.549 163.775 349.051 163.439C349.558 163.098 350.131 162.928 350.77 162.928C350.902 162.928 351.059 162.932 351.239 162.942C351.423 162.951 351.568 162.963 351.672 162.977V165.009C351.587 164.985 351.435 164.959 351.217 164.93C351 164.897 350.782 164.881 350.564 164.881C350.062 164.881 349.615 164.987 349.222 165.2C348.833 165.409 348.526 165.7 348.298 166.074C348.071 166.443 347.957 166.865 347.957 167.338V174H345.834ZM356.587 174.241C355.895 174.241 355.27 174.114 354.712 173.858C354.153 173.598 353.71 173.221 353.384 172.729C353.062 172.236 352.901 171.633 352.901 170.918C352.901 170.302 353.019 169.795 353.256 169.398C353.492 169 353.812 168.685 354.214 168.453C354.617 168.221 355.067 168.046 355.564 167.928C356.061 167.809 356.568 167.719 357.084 167.658C357.737 167.582 358.268 167.52 358.675 167.473C359.082 167.421 359.378 167.338 359.562 167.224C359.747 167.111 359.839 166.926 359.839 166.67V166.621C359.839 166 359.664 165.52 359.314 165.179C358.968 164.838 358.452 164.668 357.766 164.668C357.051 164.668 356.487 164.826 356.075 165.143C355.668 165.456 355.386 165.804 355.23 166.188L353.234 165.733C353.471 165.07 353.817 164.535 354.271 164.128C354.731 163.716 355.259 163.418 355.855 163.233C356.452 163.044 357.079 162.949 357.737 162.949C358.173 162.949 358.634 163.001 359.122 163.105C359.615 163.205 360.074 163.389 360.5 163.659C360.931 163.929 361.284 164.315 361.558 164.817C361.833 165.314 361.97 165.96 361.97 166.756V174H359.896V172.509H359.811C359.674 172.783 359.468 173.053 359.193 173.318C358.919 173.583 358.566 173.804 358.135 173.979C357.704 174.154 357.188 174.241 356.587 174.241ZM357.048 172.537C357.635 172.537 358.137 172.421 358.554 172.189C358.975 171.957 359.295 171.654 359.513 171.28C359.735 170.901 359.847 170.496 359.847 170.065V168.659C359.771 168.735 359.624 168.806 359.406 168.872C359.193 168.934 358.949 168.988 358.675 169.036C358.4 169.078 358.133 169.118 357.872 169.156C357.612 169.189 357.394 169.218 357.219 169.241C356.807 169.294 356.43 169.381 356.089 169.504C355.753 169.627 355.483 169.805 355.28 170.037C355.081 170.264 354.982 170.567 354.982 170.946C354.982 171.472 355.176 171.869 355.564 172.139C355.952 172.404 356.447 172.537 357.048 172.537ZM364.969 174V159.455H367.093V164.859H367.221C367.344 164.632 367.521 164.369 367.753 164.071C367.985 163.773 368.307 163.512 368.719 163.29C369.131 163.062 369.676 162.949 370.353 162.949C371.233 162.949 372.019 163.171 372.711 163.616C373.402 164.062 373.944 164.703 374.337 165.541C374.735 166.379 374.934 167.388 374.934 168.567C374.934 169.746 374.737 170.757 374.344 171.599C373.951 172.437 373.411 173.084 372.725 173.538C372.038 173.988 371.255 174.213 370.374 174.213C369.711 174.213 369.169 174.102 368.748 173.879C368.331 173.657 368.004 173.396 367.767 173.098C367.531 172.8 367.348 172.535 367.221 172.303H367.043V174H364.969ZM367.05 168.545C367.05 169.312 367.161 169.985 367.384 170.562C367.606 171.14 367.928 171.592 368.35 171.919C368.771 172.241 369.287 172.402 369.898 172.402C370.533 172.402 371.063 172.234 371.489 171.898C371.915 171.557 372.237 171.095 372.455 170.513C372.677 169.93 372.789 169.275 372.789 168.545C372.789 167.826 372.68 167.179 372.462 166.607C372.249 166.034 371.927 165.581 371.496 165.25C371.07 164.919 370.537 164.753 369.898 164.753C369.283 164.753 368.762 164.911 368.336 165.229C367.914 165.546 367.595 165.989 367.377 166.557C367.159 167.125 367.05 167.788 367.05 168.545ZM379.442 159.455V174H377.318V159.455H379.442ZM387 174.22C385.926 174.22 385 173.991 384.223 173.531C383.452 173.067 382.855 172.416 382.434 171.578C382.017 170.735 381.809 169.748 381.809 168.616C381.809 167.499 382.017 166.514 382.434 165.662C382.855 164.81 383.442 164.144 384.195 163.666C384.953 163.188 385.838 162.949 386.851 162.949C387.467 162.949 388.063 163.051 388.641 163.254C389.219 163.458 389.737 163.777 390.196 164.213C390.656 164.649 391.018 165.214 391.283 165.911C391.548 166.602 391.681 167.442 391.681 168.432V169.185H383.009V167.594H389.6C389.6 167.035 389.486 166.54 389.259 166.109C389.032 165.674 388.712 165.33 388.3 165.08C387.893 164.829 387.415 164.703 386.865 164.703C386.269 164.703 385.748 164.85 385.303 165.143C384.863 165.432 384.522 165.811 384.28 166.28C384.043 166.744 383.925 167.248 383.925 167.793V169.036C383.925 169.765 384.053 170.385 384.309 170.896C384.569 171.408 384.931 171.798 385.395 172.068C385.859 172.333 386.401 172.466 387.022 172.466C387.424 172.466 387.791 172.409 388.123 172.295C388.454 172.177 388.74 172.002 388.982 171.77C389.223 171.538 389.408 171.251 389.536 170.911L391.546 171.273C391.385 171.865 391.096 172.383 390.679 172.828C390.267 173.268 389.749 173.612 389.124 173.858C388.504 174.099 387.796 174.22 387 174.22Z" fill="black"/>
<path d="M239.463 240.199C238.488 240.199 237.616 240.031 236.849 239.695C236.087 239.358 235.483 238.892 235.038 238.295C234.598 237.694 234.361 236.998 234.328 236.207H236.558C236.587 236.638 236.731 237.012 236.991 237.33C237.257 237.642 237.602 237.884 238.028 238.054C238.455 238.224 238.928 238.31 239.449 238.31C240.022 238.31 240.528 238.21 240.969 238.011C241.414 237.812 241.762 237.536 242.013 237.18C242.264 236.821 242.389 236.406 242.389 235.938C242.389 235.45 242.264 235.021 242.013 234.652C241.767 234.278 241.404 233.984 240.926 233.771C240.453 233.558 239.88 233.452 239.207 233.452H237.979V231.662H239.207C239.747 231.662 240.221 231.565 240.628 231.371C241.04 231.177 241.362 230.907 241.594 230.561C241.826 230.211 241.942 229.801 241.942 229.332C241.942 228.883 241.84 228.492 241.636 228.161C241.438 227.824 241.153 227.562 240.784 227.372C240.42 227.183 239.989 227.088 239.491 227.088C239.018 227.088 238.575 227.176 238.163 227.351C237.756 227.521 237.425 227.768 237.169 228.089C236.913 228.407 236.776 228.788 236.757 229.233H234.634C234.657 228.447 234.889 227.756 235.33 227.159C235.775 226.562 236.362 226.096 237.091 225.76C237.82 225.424 238.63 225.256 239.52 225.256C240.453 225.256 241.258 225.438 241.935 225.803C242.616 226.162 243.142 226.643 243.511 227.244C243.885 227.846 244.07 228.504 244.065 229.219C244.07 230.033 243.843 230.724 243.384 231.293C242.929 231.861 242.323 232.242 241.565 232.436V232.55C242.531 232.696 243.279 233.08 243.81 233.7C244.345 234.321 244.61 235.09 244.605 236.009C244.61 236.809 244.387 237.526 243.938 238.161C243.492 238.795 242.884 239.295 242.112 239.659C241.34 240.019 240.457 240.199 239.463 240.199ZM259.039 231.804V233.651H252.59V231.804H259.039ZM279.413 230.185H277.197C277.112 229.711 276.954 229.295 276.722 228.935C276.49 228.575 276.205 228.269 275.869 228.018C275.533 227.768 275.157 227.578 274.74 227.45C274.328 227.322 273.89 227.259 273.426 227.259C272.588 227.259 271.838 227.469 271.175 227.891C270.517 228.312 269.996 228.93 269.612 229.744C269.233 230.559 269.044 231.553 269.044 232.727C269.044 233.911 269.233 234.91 269.612 235.724C269.996 236.539 270.519 237.154 271.182 237.571C271.845 237.988 272.59 238.196 273.419 238.196C273.878 238.196 274.314 238.134 274.726 238.011C275.143 237.884 275.519 237.696 275.855 237.45C276.191 237.204 276.475 236.903 276.707 236.548C276.944 236.188 277.107 235.777 277.197 235.312L279.413 235.32C279.295 236.035 279.065 236.693 278.724 237.294C278.388 237.891 277.955 238.407 277.425 238.842C276.899 239.273 276.298 239.607 275.621 239.844C274.944 240.08 274.205 240.199 273.405 240.199C272.145 240.199 271.023 239.901 270.038 239.304C269.054 238.703 268.277 237.843 267.709 236.726C267.145 235.608 266.864 234.276 266.864 232.727C266.864 231.174 267.148 229.841 267.716 228.729C268.284 227.611 269.061 226.754 270.045 226.158C271.03 225.556 272.15 225.256 273.405 225.256C274.177 225.256 274.896 225.367 275.564 225.589C276.236 225.807 276.84 226.129 277.375 226.555C277.91 226.977 278.353 227.493 278.703 228.104C279.054 228.71 279.29 229.403 279.413 230.185ZM286.464 240.22C285.441 240.22 284.549 239.986 283.787 239.517C283.024 239.048 282.432 238.393 282.011 237.55C281.59 236.707 281.379 235.722 281.379 234.595C281.379 233.464 281.59 232.474 282.011 231.626C282.432 230.779 283.024 230.121 283.787 229.652C284.549 229.183 285.441 228.949 286.464 228.949C287.487 228.949 288.379 229.183 289.142 229.652C289.904 230.121 290.496 230.779 290.917 231.626C291.339 232.474 291.549 233.464 291.549 234.595C291.549 235.722 291.339 236.707 290.917 237.55C290.496 238.393 289.904 239.048 289.142 239.517C288.379 239.986 287.487 240.22 286.464 240.22ZM286.471 238.438C287.134 238.438 287.683 238.262 288.119 237.912C288.555 237.562 288.877 237.095 289.085 236.513C289.298 235.93 289.404 235.289 289.404 234.588C289.404 233.892 289.298 233.253 289.085 232.67C288.877 232.083 288.555 231.612 288.119 231.257C287.683 230.902 287.134 230.724 286.471 230.724C285.804 230.724 285.25 230.902 284.809 231.257C284.374 231.612 284.049 232.083 283.836 232.67C283.628 233.253 283.524 233.892 283.524 234.588C283.524 235.289 283.628 235.93 283.836 236.513C284.049 237.095 284.374 237.562 284.809 237.912C285.25 238.262 285.804 238.438 286.471 238.438ZM296.043 233.523V240H293.92V229.091H295.958V230.866H296.093C296.344 230.289 296.737 229.825 297.272 229.474C297.812 229.124 298.491 228.949 299.31 228.949C300.054 228.949 300.705 229.105 301.263 229.418C301.822 229.725 302.255 230.185 302.563 230.795C302.871 231.406 303.025 232.161 303.025 233.061V240H300.901V233.317C300.901 232.526 300.695 231.908 300.283 231.463C299.871 231.013 299.306 230.788 298.586 230.788C298.094 230.788 297.656 230.895 297.272 231.108C296.893 231.321 296.593 231.634 296.37 232.045C296.152 232.453 296.043 232.945 296.043 233.523ZM314.048 231.754L312.123 232.095C312.042 231.849 311.915 231.615 311.739 231.392C311.569 231.17 311.337 230.987 311.043 230.845C310.75 230.703 310.383 230.632 309.942 230.632C309.341 230.632 308.839 230.767 308.437 231.037C308.034 231.302 307.833 231.645 307.833 232.067C307.833 232.431 307.968 232.725 308.238 232.947C308.508 233.17 308.943 233.352 309.545 233.494L311.278 233.892C312.281 234.124 313.03 234.482 313.522 234.964C314.014 235.447 314.261 236.075 314.261 236.847C314.261 237.5 314.071 238.082 313.692 238.594C313.318 239.1 312.795 239.498 312.123 239.787C311.455 240.076 310.681 240.22 309.8 240.22C308.579 240.22 307.582 239.96 306.81 239.439C306.039 238.913 305.565 238.168 305.39 237.202L307.442 236.889C307.57 237.424 307.833 237.829 308.231 238.104C308.629 238.374 309.147 238.509 309.786 238.509C310.482 238.509 311.039 238.364 311.455 238.075C311.872 237.782 312.08 237.424 312.08 237.003C312.08 236.662 311.952 236.375 311.697 236.143C311.446 235.911 311.06 235.736 310.539 235.618L308.692 235.213C307.674 234.981 306.922 234.612 306.434 234.105C305.951 233.598 305.71 232.957 305.71 232.18C305.71 231.536 305.889 230.973 306.249 230.49C306.609 230.007 307.106 229.631 307.741 229.361C308.375 229.086 309.102 228.949 309.921 228.949C311.1 228.949 312.028 229.205 312.705 229.716C313.382 230.223 313.83 230.902 314.048 231.754ZM316.596 240V229.091H318.719V240H316.596ZM317.668 227.408C317.299 227.408 316.981 227.285 316.716 227.038C316.456 226.787 316.326 226.489 316.326 226.143C316.326 225.793 316.456 225.495 316.716 225.249C316.981 224.998 317.299 224.872 317.668 224.872C318.037 224.872 318.352 224.998 318.613 225.249C318.878 225.495 319.01 225.793 319.01 226.143C319.01 226.489 318.878 226.787 318.613 227.038C318.352 227.285 318.037 227.408 317.668 227.408ZM325.66 240.213C324.779 240.213 323.993 239.988 323.302 239.538C322.615 239.084 322.076 238.437 321.683 237.599C321.294 236.757 321.1 235.746 321.1 234.567C321.1 233.388 321.297 232.379 321.69 231.541C322.087 230.703 322.632 230.062 323.323 229.616C324.014 229.171 324.798 228.949 325.674 228.949C326.351 228.949 326.896 229.062 327.308 229.29C327.724 229.512 328.046 229.773 328.273 230.071C328.505 230.369 328.685 230.632 328.813 230.859H328.941V225.455H331.065V240H328.991V238.303H328.813C328.685 238.535 328.501 238.8 328.259 239.098C328.022 239.396 327.696 239.657 327.279 239.879C326.862 240.102 326.323 240.213 325.66 240.213ZM326.129 238.402C326.739 238.402 327.255 238.241 327.677 237.919C328.103 237.592 328.425 237.14 328.643 236.562C328.865 235.985 328.977 235.312 328.977 234.545C328.977 233.788 328.868 233.125 328.65 232.557C328.432 231.989 328.112 231.546 327.691 231.229C327.27 230.911 326.749 230.753 326.129 230.753C325.489 230.753 324.957 230.919 324.531 231.25C324.104 231.581 323.782 232.034 323.565 232.607C323.352 233.179 323.245 233.826 323.245 234.545C323.245 235.275 323.354 235.93 323.572 236.513C323.79 237.095 324.112 237.557 324.538 237.898C324.969 238.234 325.499 238.402 326.129 238.402ZM338.797 240.22C337.722 240.22 336.797 239.991 336.02 239.531C335.248 239.067 334.652 238.416 334.23 237.578C333.814 236.735 333.605 235.748 333.605 234.616C333.605 233.499 333.814 232.514 334.23 231.662C334.652 230.81 335.239 230.144 335.992 229.666C336.749 229.188 337.635 228.949 338.648 228.949C339.264 228.949 339.86 229.051 340.438 229.254C341.016 229.458 341.534 229.777 341.993 230.213C342.453 230.649 342.815 231.214 343.08 231.911C343.345 232.602 343.478 233.442 343.478 234.432V235.185H334.806V233.594H341.397C341.397 233.035 341.283 232.54 341.056 232.109C340.828 231.674 340.509 231.33 340.097 231.08C339.69 230.829 339.212 230.703 338.662 230.703C338.066 230.703 337.545 230.85 337.1 231.143C336.659 231.432 336.319 231.811 336.077 232.28C335.84 232.744 335.722 233.248 335.722 233.793V235.036C335.722 235.765 335.85 236.385 336.105 236.896C336.366 237.408 336.728 237.798 337.192 238.068C337.656 238.333 338.198 238.466 338.819 238.466C339.221 238.466 339.588 238.409 339.919 238.295C340.251 238.177 340.537 238.002 340.779 237.77C341.02 237.538 341.205 237.251 341.333 236.911L343.343 237.273C343.182 237.865 342.893 238.383 342.476 238.828C342.064 239.268 341.546 239.612 340.921 239.858C340.301 240.099 339.593 240.22 338.797 240.22ZM345.834 240V229.091H347.886V230.824H348C348.199 230.237 348.549 229.775 349.051 229.439C349.558 229.098 350.131 228.928 350.77 228.928C350.902 228.928 351.059 228.932 351.239 228.942C351.423 228.951 351.568 228.963 351.672 228.977V231.009C351.587 230.985 351.435 230.959 351.217 230.93C351 230.897 350.782 230.881 350.564 230.881C350.062 230.881 349.615 230.987 349.222 231.2C348.833 231.409 348.526 231.7 348.298 232.074C348.071 232.443 347.957 232.865 347.957 233.338V240H345.834ZM356.587 240.241C355.895 240.241 355.27 240.114 354.712 239.858C354.153 239.598 353.71 239.221 353.384 238.729C353.062 238.236 352.901 237.633 352.901 236.918C352.901 236.302 353.019 235.795 353.256 235.398C353.492 235 353.812 234.685 354.214 234.453C354.617 234.221 355.067 234.046 355.564 233.928C356.061 233.809 356.568 233.719 357.084 233.658C357.737 233.582 358.268 233.52 358.675 233.473C359.082 233.421 359.378 233.338 359.562 233.224C359.747 233.111 359.839 232.926 359.839 232.67V232.621C359.839 232 359.664 231.52 359.314 231.179C358.968 230.838 358.452 230.668 357.766 230.668C357.051 230.668 356.487 230.826 356.075 231.143C355.668 231.456 355.386 231.804 355.23 232.188L353.234 231.733C353.471 231.07 353.817 230.535 354.271 230.128C354.731 229.716 355.259 229.418 355.855 229.233C356.452 229.044 357.079 228.949 357.737 228.949C358.173 228.949 358.634 229.001 359.122 229.105C359.615 229.205 360.074 229.389 360.5 229.659C360.931 229.929 361.284 230.315 361.558 230.817C361.833 231.314 361.97 231.96 361.97 232.756V240H359.896V238.509H359.811C359.674 238.783 359.468 239.053 359.193 239.318C358.919 239.583 358.566 239.804 358.135 239.979C357.704 240.154 357.188 240.241 356.587 240.241ZM357.048 238.537C357.635 238.537 358.137 238.421 358.554 238.189C358.975 237.957 359.295 237.654 359.513 237.28C359.735 236.901 359.847 236.496 359.847 236.065V234.659C359.771 234.735 359.624 234.806 359.406 234.872C359.193 234.934 358.949 234.988 358.675 235.036C358.4 235.078 358.133 235.118 357.872 235.156C357.612 235.189 357.394 235.218 357.219 235.241C356.807 235.294 356.43 235.381 356.089 235.504C355.753 235.627 355.483 235.805 355.28 236.037C355.081 236.264 354.982 236.567 354.982 236.946C354.982 237.472 355.176 237.869 355.564 238.139C355.952 238.404 356.447 238.537 357.048 238.537ZM364.969 240V225.455H367.093V230.859H367.221C367.344 230.632 367.521 230.369 367.753 230.071C367.985 229.773 368.307 229.512 368.719 229.29C369.131 229.062 369.676 228.949 370.353 228.949C371.233 228.949 372.019 229.171 372.711 229.616C373.402 230.062 373.944 230.703 374.337 231.541C374.735 232.379 374.934 233.388 374.934 234.567C374.934 235.746 374.737 236.757 374.344 237.599C373.951 238.437 373.411 239.084 372.725 239.538C372.038 239.988 371.255 240.213 370.374 240.213C369.711 240.213 369.169 240.102 368.748 239.879C368.331 239.657 368.004 239.396 367.767 239.098C367.531 238.8 367.348 238.535 367.221 238.303H367.043V240H364.969ZM367.05 234.545C367.05 235.312 367.161 235.985 367.384 236.562C367.606 237.14 367.928 237.592 368.35 237.919C368.771 238.241 369.287 238.402 369.898 238.402C370.533 238.402 371.063 238.234 371.489 237.898C371.915 237.557 372.237 237.095 372.455 236.513C372.677 235.93 372.789 235.275 372.789 234.545C372.789 233.826 372.68 233.179 372.462 232.607C372.249 232.034 371.927 231.581 371.496 231.25C371.07 230.919 370.537 230.753 369.898 230.753C369.283 230.753 368.762 230.911 368.336 231.229C367.914 231.546 367.595 231.989 367.377 232.557C367.159 233.125 367.05 233.788 367.05 234.545ZM379.442 225.455V240H377.318V225.455H379.442ZM387 240.22C385.926 240.22 385 239.991 384.223 239.531C383.452 239.067 382.855 238.416 382.434 237.578C382.017 236.735 381.809 235.748 381.809 234.616C381.809 233.499 382.017 232.514 382.434 231.662C382.855 230.81 383.442 230.144 384.195 229.666C384.953 229.188 385.838 228.949 386.851 228.949C387.467 228.949 388.063 229.051 388.641 229.254C389.219 229.458 389.737 229.777 390.196 230.213C390.656 230.649 391.018 231.214 391.283 231.911C391.548 232.602 391.681 233.442 391.681 234.432V235.185H383.009V233.594H389.6C389.6 233.035 389.486 232.54 389.259 232.109C389.032 231.674 388.712 231.33 388.3 231.08C387.893 230.829 387.415 230.703 386.865 230.703C386.269 230.703 385.748 230.85 385.303 231.143C384.863 231.432 384.522 231.811 384.28 232.28C384.043 232.744 383.925 233.248 383.925 233.793V235.036C383.925 235.765 384.053 236.385 384.309 236.896C384.569 237.408 384.931 237.798 385.395 238.068C385.859 238.333 386.401 238.466 387.022 238.466C387.424 238.466 387.791 238.409 388.123 238.295C388.454 238.177 388.74 238.002 388.982 237.77C389.223 237.538 389.408 237.251 389.536 236.911L391.546 237.273C391.385 237.865 391.096 238.383 390.679 238.828C390.267 239.268 389.749 239.612 389.124 239.858C388.504 240.099 387.796 240.22 387 240.22Z" fill="black"/>
<path d="M18.8807 161.344V159.455H30.1378V161.344H25.5994V174H23.4119V161.344H18.8807ZM31.3221 174V163.091H33.3746V164.824H33.4883C33.6871 164.237 34.0375 163.775 34.5394 163.439C35.046 163.098 35.619 162.928 36.2582 162.928C36.3907 162.928 36.547 162.932 36.7269 162.942C36.9116 162.951 37.056 162.963 37.1602 162.977V165.009C37.0749 164.985 36.9234 164.959 36.7056 164.93C36.4878 164.897 36.27 164.881 36.0522 164.881C35.5503 164.881 35.1029 164.987 34.7099 165.2C34.3216 165.409 34.0138 165.7 33.7866 166.074C33.5593 166.443 33.4457 166.865 33.4457 167.338V174H31.3221ZM43.3089 174.22C42.2341 174.22 41.3085 173.991 40.532 173.531C39.7602 173.067 39.1636 172.416 38.7422 171.578C38.3255 170.735 38.1172 169.748 38.1172 168.616C38.1172 167.499 38.3255 166.514 38.7422 165.662C39.1636 164.81 39.7507 164.144 40.5036 163.666C41.2611 163.188 42.1465 162.949 43.1598 162.949C43.7753 162.949 44.3719 163.051 44.9496 163.254C45.5272 163.458 46.0457 163.777 46.505 164.213C46.9643 164.649 47.3265 165.214 47.5916 165.911C47.8568 166.602 47.9893 167.442 47.9893 168.432V169.185H39.3175V167.594H45.9084C45.9084 167.035 45.7947 166.54 45.5675 166.109C45.3402 165.674 45.0206 165.33 44.6087 165.08C44.2015 164.829 43.7232 164.703 43.174 164.703C42.5774 164.703 42.0566 164.85 41.6115 165.143C41.1712 165.432 40.8303 165.811 40.5888 166.28C40.352 166.744 40.2337 167.248 40.2337 167.793V169.036C40.2337 169.765 40.3615 170.385 40.6172 170.896C40.8776 171.408 41.2398 171.798 41.7038 172.068C42.1679 172.333 42.71 172.466 43.3303 172.466C43.7327 172.466 44.0997 172.409 44.4311 172.295C44.7625 172.177 45.049 172.002 45.2905 171.77C45.532 171.538 45.7166 171.251 45.8445 170.911L47.8544 171.273C47.6934 171.865 47.4046 172.383 46.9879 172.828C46.576 173.268 46.0575 173.612 45.4325 173.858C44.8123 174.099 44.1044 174.22 43.3089 174.22ZM55.0472 174.22C53.9724 174.22 53.0468 173.991 52.2702 173.531C51.4985 173.067 50.9019 172.416 50.4805 171.578C50.0638 170.735 49.8555 169.748 49.8555 168.616C49.8555 167.499 50.0638 166.514 50.4805 165.662C50.9019 164.81 51.489 164.144 52.2418 163.666C52.9994 163.188 53.8848 162.949 54.8981 162.949C55.5136 162.949 56.1102 163.051 56.6879 163.254C57.2655 163.458 57.784 163.777 58.2433 164.213C58.7025 164.649 59.0647 165.214 59.3299 165.911C59.5951 166.602 59.7276 167.442 59.7276 168.432V169.185H51.0558V167.594H57.6467C57.6467 167.035 57.533 166.54 57.3058 166.109C57.0785 165.674 56.7589 165.33 56.3469 165.08C55.9397 164.829 55.4615 164.703 54.9123 164.703C54.3157 164.703 53.7949 164.85 53.3498 165.143C52.9094 165.432 52.5685 165.811 52.3271 166.28C52.0903 166.744 51.9719 167.248 51.9719 167.793V169.036C51.9719 169.765 52.0998 170.385 52.3555 170.896C52.6159 171.408 52.9781 171.798 53.4421 172.068C53.9061 172.333 54.4483 172.466 55.0685 172.466C55.471 172.466 55.838 172.409 56.1694 172.295C56.5008 172.177 56.7873 172.002 57.0288 171.77C57.2702 171.538 57.4549 171.251 57.5827 170.911L59.5927 171.273C59.4317 171.865 59.1429 172.383 58.7262 172.828C58.3143 173.268 57.7958 173.612 57.1708 173.858C56.5505 174.099 55.8427 174.22 55.0472 174.22ZM69.5004 159.455V174H67.3768V159.455H69.5004ZM72.3572 174V163.091H74.4808V174H72.3572ZM73.4297 161.408C73.0604 161.408 72.7431 161.285 72.478 161.038C72.2176 160.787 72.0874 160.489 72.0874 160.143C72.0874 159.793 72.2176 159.495 72.478 159.249C72.7431 158.998 73.0604 158.872 73.4297 158.872C73.799 158.872 74.1139 158.998 74.3743 159.249C74.6394 159.495 74.772 159.793 74.772 160.143C74.772 160.489 74.6394 160.787 74.3743 161.038C74.1139 161.285 73.799 161.408 73.4297 161.408ZM79.4613 167.523V174H77.3377V163.091H79.3761V164.866H79.511C79.762 164.289 80.1549 163.825 80.69 163.474C81.2298 163.124 81.9092 162.949 82.7283 162.949C83.4717 162.949 84.1228 163.105 84.6815 163.418C85.2402 163.725 85.6734 164.185 85.9812 164.795C86.2889 165.406 86.4428 166.161 86.4428 167.061V174H84.3192V167.317C84.3192 166.526 84.1133 165.908 83.7013 165.463C83.2894 165.013 82.7236 164.788 82.0039 164.788C81.5115 164.788 81.0735 164.895 80.69 165.108C80.3112 165.321 80.0105 165.634 79.788 166.045C79.5702 166.453 79.4613 166.945 79.4613 167.523ZM93.9925 174.22C92.9177 174.22 91.9921 173.991 91.2156 173.531C90.4438 173.067 89.8472 172.416 89.4258 171.578C89.0091 170.735 88.8008 169.748 88.8008 168.616C88.8008 167.499 89.0091 166.514 89.4258 165.662C89.8472 164.81 90.4343 164.144 91.1871 163.666C91.9447 163.188 92.8301 162.949 93.8434 162.949C94.4589 162.949 95.0555 163.051 95.6332 163.254C96.2108 163.458 96.7293 163.777 97.1886 164.213C97.6478 164.649 98.0101 165.214 98.2752 165.911C98.5404 166.602 98.6729 167.442 98.6729 168.432V169.185H90.0011V167.594H96.592C96.592 167.035 96.4783 166.54 96.2511 166.109C96.0238 165.674 95.7042 165.33 95.2923 165.08C94.8851 164.829 94.4068 164.703 93.8576 164.703C93.261 164.703 92.7402 164.85 92.2951 165.143C91.8548 165.432 91.5138 165.811 91.2724 166.28C91.0356 166.744 90.9173 167.248 90.9173 167.793V169.036C90.9173 169.765 91.0451 170.385 91.3008 170.896C91.5612 171.408 91.9234 171.798 92.3874 172.068C92.8514 172.333 93.3936 172.466 94.0138 172.466C94.4163 172.466 94.7833 172.409 95.1147 172.295C95.4461 172.177 95.7326 172.002 95.9741 171.77C96.2156 171.538 96.4002 171.251 96.5281 170.911L98.538 171.273C98.377 171.865 98.0882 172.383 97.6715 172.828C97.2596 173.268 96.7411 173.612 96.1161 173.858C95.4959 174.099 94.788 174.22 93.9925 174.22Z" fill="black"/>
<path d="M20.598 240V225.455H25.9247C26.9569 225.455 27.8116 225.625 28.4886 225.966C29.1657 226.302 29.6723 226.759 30.0085 227.337C30.3447 227.91 30.5128 228.556 30.5128 229.276C30.5128 229.882 30.4015 230.393 30.179 230.81C29.9564 231.222 29.6581 231.553 29.2841 231.804C28.9148 232.05 28.5076 232.23 28.0625 232.344V232.486C28.5455 232.509 29.0166 232.666 29.4759 232.955C29.9399 233.239 30.3234 233.643 30.6264 234.169C30.9295 234.695 31.081 235.334 31.081 236.087C31.081 236.83 30.9058 237.498 30.5554 238.089C30.2098 238.677 29.6747 239.143 28.9503 239.489C28.2259 239.83 27.3002 240 26.1733 240H20.598ZM22.7926 238.118H25.9602C27.0114 238.118 27.7642 237.914 28.2188 237.507C28.6733 237.1 28.9006 236.591 28.9006 235.98C28.9006 235.521 28.7846 235.099 28.5526 234.716C28.3205 234.332 27.9891 234.027 27.5582 233.8C27.1321 233.572 26.6255 233.459 26.0384 233.459H22.7926V238.118ZM22.7926 231.747H25.733C26.2254 231.747 26.6681 231.652 27.0611 231.463C27.4588 231.274 27.7737 231.009 28.0057 230.668C28.2424 230.322 28.3608 229.915 28.3608 229.446C28.3608 228.845 28.1501 228.34 27.7287 227.933C27.3073 227.526 26.661 227.322 25.7898 227.322H22.7926V231.747ZM38.2152 240.22C37.1404 240.22 36.2147 239.991 35.4382 239.531C34.6664 239.067 34.0698 238.416 33.6484 237.578C33.2318 236.735 33.0234 235.748 33.0234 234.616C33.0234 233.499 33.2318 232.514 33.6484 231.662C34.0698 230.81 34.657 230.144 35.4098 229.666C36.1674 229.188 37.0528 228.949 38.0661 228.949C38.6816 228.949 39.2782 229.051 39.8558 229.254C40.4335 229.458 40.9519 229.777 41.4112 230.213C41.8705 230.649 42.2327 231.214 42.4979 231.911C42.763 232.602 42.8956 233.442 42.8956 234.432V235.185H34.2237V233.594H40.8146C40.8146 233.035 40.701 232.54 40.4737 232.109C40.2464 231.674 39.9268 231.33 39.5149 231.08C39.1077 230.829 38.6295 230.703 38.0803 230.703C37.4837 230.703 36.9628 230.85 36.5178 231.143C36.0774 231.432 35.7365 231.811 35.495 232.28C35.2583 232.744 35.1399 233.248 35.1399 233.793V235.036C35.1399 235.765 35.2678 236.385 35.5234 236.896C35.7839 237.408 36.1461 237.798 36.6101 238.068C37.0741 238.333 37.6162 238.466 38.2365 238.466C38.639 238.466 39.0059 238.409 39.3374 238.295C39.6688 238.177 39.9553 238.002 40.1967 237.77C40.4382 237.538 40.6229 237.251 40.7507 236.911L42.7607 237.273C42.5997 237.865 42.3108 238.383 41.8942 238.828C41.4822 239.268 40.9638 239.612 40.3388 239.858C39.7185 240.099 39.0107 240.22 38.2152 240.22ZM47.3754 225.455V240H45.2518V225.455H47.3754ZM54.8274 240.22C53.8047 240.22 52.9122 239.986 52.1499 239.517C51.3875 239.048 50.7957 238.393 50.3743 237.55C49.9529 236.707 49.7422 235.722 49.7422 234.595C49.7422 233.464 49.9529 232.474 50.3743 231.626C50.7957 230.779 51.3875 230.121 52.1499 229.652C52.9122 229.183 53.8047 228.949 54.8274 228.949C55.8501 228.949 56.7427 229.183 57.505 229.652C58.2673 230.121 58.8591 230.779 59.2805 231.626C59.7019 232.474 59.9126 233.464 59.9126 234.595C59.9126 235.722 59.7019 236.707 59.2805 237.55C58.8591 238.393 58.2673 239.048 57.505 239.517C56.7427 239.986 55.8501 240.22 54.8274 240.22ZM54.8345 238.438C55.4974 238.438 56.0466 238.262 56.4822 237.912C56.9179 237.562 57.2398 237.095 57.4482 236.513C57.6612 235.93 57.7678 235.289 57.7678 234.588C57.7678 233.892 57.6612 233.253 57.4482 232.67C57.2398 232.083 56.9179 231.612 56.4822 231.257C56.0466 230.902 55.4974 230.724 54.8345 230.724C54.1669 230.724 53.6129 230.902 53.1726 231.257C52.737 231.612 52.4126 232.083 52.1996 232.67C51.9912 233.253 51.8871 233.892 51.8871 234.588C51.8871 235.289 51.9912 235.93 52.1996 236.513C52.4126 237.095 52.737 237.562 53.1726 237.912C53.6129 238.262 54.1669 238.438 54.8345 238.438ZM64.3161 240L61.1058 229.091H63.3004L65.4382 237.102H65.5447L67.6896 229.091H69.8842L72.0149 237.067H72.1214L74.245 229.091H76.4396L73.2365 240H71.0703L68.8544 232.124H68.6911L66.4751 240H64.3161ZM88.8402 229.091V230.795H82.8814V229.091H88.8402ZM84.4794 226.477H86.603V236.797C86.603 237.209 86.6645 237.519 86.7876 237.727C86.9107 237.931 87.0694 238.071 87.2635 238.146C87.4624 238.217 87.6778 238.253 87.9098 238.253C88.0803 238.253 88.2294 238.241 88.3572 238.217C88.4851 238.194 88.5845 238.175 88.6555 238.161L89.0391 239.915C88.916 239.962 88.7408 240.009 88.5135 240.057C88.2862 240.109 88.0021 240.137 87.6612 240.142C87.1025 240.152 86.5817 240.052 86.0987 239.844C85.6158 239.635 85.2251 239.313 84.9268 238.878C84.6286 238.442 84.4794 237.895 84.4794 237.237V226.477ZM91.1893 240V229.091H93.2418V230.824H93.3555C93.5543 230.237 93.9047 229.775 94.4066 229.439C94.9132 229.098 95.4862 228.928 96.1254 228.928C96.2579 228.928 96.4142 228.932 96.5941 228.942C96.7788 228.951 96.9232 228.963 97.0273 228.977V231.009C96.9421 230.985 96.7906 230.959 96.5728 230.93C96.355 230.897 96.1372 230.881 95.9194 230.881C95.4175 230.881 94.9701 230.987 94.5771 231.2C94.1888 231.409 93.881 231.7 93.6538 232.074C93.4265 232.443 93.3129 232.865 93.3129 233.338V240H91.1893ZM103.176 240.22C102.101 240.22 101.176 239.991 100.399 239.531C99.6274 239.067 99.0308 238.416 98.6094 237.578C98.1927 236.735 97.9844 235.748 97.9844 234.616C97.9844 233.499 98.1927 232.514 98.6094 231.662C99.0308 230.81 99.6179 230.144 100.371 229.666C101.128 229.188 102.014 228.949 103.027 228.949C103.643 228.949 104.239 229.051 104.817 229.254C105.394 229.458 105.913 229.777 106.372 230.213C106.831 230.649 107.194 231.214 107.459 231.911C107.724 232.602 107.857 233.442 107.857 234.432V235.185H99.1847V233.594H105.776C105.776 233.035 105.662 232.54 105.435 232.109C105.207 231.674 104.888 231.33 104.476 231.08C104.069 230.829 103.59 230.703 103.041 230.703C102.445 230.703 101.924 230.85 101.479 231.143C101.038 231.432 100.697 231.811 100.456 232.28C100.219 232.744 100.101 233.248 100.101 233.793V235.036C100.101 235.765 100.229 236.385 100.484 236.896C100.745 237.408 101.107 237.798 101.571 238.068C102.035 238.333 102.577 238.466 103.197 238.466C103.6 238.466 103.967 238.409 104.298 238.295C104.63 238.177 104.916 238.002 105.158 237.77C105.399 237.538 105.584 237.251 105.712 236.911L107.722 237.273C107.561 237.865 107.272 238.383 106.855 238.828C106.443 239.268 105.925 239.612 105.3 239.858C104.679 240.099 103.972 240.22 103.176 240.22ZM114.914 240.22C113.84 240.22 112.914 239.991 112.137 239.531C111.366 239.067 110.769 238.416 110.348 237.578C109.931 236.735 109.723 235.748 109.723 234.616C109.723 233.499 109.931 232.514 110.348 231.662C110.769 230.81 111.356 230.144 112.109 229.666C112.867 229.188 113.752 228.949 114.765 228.949C115.381 228.949 115.977 229.051 116.555 229.254C117.133 229.458 117.651 229.777 118.11 230.213C118.57 230.649 118.932 231.214 119.197 231.911C119.462 232.602 119.595 233.442 119.595 234.432V235.185H110.923V233.594H117.514C117.514 233.035 117.4 232.54 117.173 232.109C116.946 231.674 116.626 231.33 116.214 231.08C115.807 230.829 115.329 230.703 114.779 230.703C114.183 230.703 113.662 230.85 113.217 231.143C112.777 231.432 112.436 231.811 112.194 232.28C111.958 232.744 111.839 233.248 111.839 233.793V235.036C111.839 235.765 111.967 236.385 112.223 236.896C112.483 237.408 112.845 237.798 113.309 238.068C113.773 238.333 114.315 238.466 114.936 238.466C115.338 238.466 115.705 238.409 116.037 238.295C116.368 238.177 116.654 238.002 116.896 237.77C117.137 237.538 117.322 237.251 117.45 236.911L119.46 237.273C119.299 237.865 119.01 238.383 118.593 238.828C118.181 239.268 117.663 239.612 117.038 239.858C116.418 240.099 115.71 240.22 114.914 240.22ZM129.368 225.455V240H127.244V225.455H129.368ZM132.224 240V229.091H134.348V240H132.224ZM133.297 227.408C132.928 227.408 132.61 227.285 132.345 227.038C132.085 226.787 131.955 226.489 131.955 226.143C131.955 225.793 132.085 225.495 132.345 225.249C132.61 224.998 132.928 224.872 133.297 224.872C133.666 224.872 133.981 224.998 134.241 225.249C134.507 225.495 134.639 225.793 134.639 226.143C134.639 226.489 134.507 226.787 134.241 227.038C133.981 227.285 133.666 227.408 133.297 227.408ZM139.328 233.523V240H137.205V229.091H139.243V230.866H139.378C139.629 230.289 140.022 229.825 140.557 229.474C141.097 229.124 141.776 228.949 142.596 228.949C143.339 228.949 143.99 229.105 144.549 229.418C145.107 229.725 145.541 230.185 145.848 230.795C146.156 231.406 146.31 232.161 146.31 233.061V240H144.186V233.317C144.186 232.526 143.98 231.908 143.569 231.463C143.157 231.013 142.591 230.788 141.871 230.788C141.379 230.788 140.941 230.895 140.557 231.108C140.178 231.321 139.878 231.634 139.655 232.045C139.437 232.453 139.328 232.945 139.328 233.523ZM153.86 240.22C152.785 240.22 151.859 239.991 151.083 239.531C150.311 239.067 149.714 238.416 149.293 237.578C148.876 236.735 148.668 235.748 148.668 234.616C148.668 233.499 148.876 232.514 149.293 231.662C149.714 230.81 150.301 230.144 151.054 229.666C151.812 229.188 152.697 228.949 153.711 228.949C154.326 228.949 154.923 229.051 155.5 229.254C156.078 229.458 156.596 229.777 157.056 230.213C157.515 230.649 157.877 231.214 158.142 231.911C158.408 232.602 158.54 233.442 158.54 234.432V235.185H149.868V233.594H156.459C156.459 233.035 156.346 232.54 156.118 232.109C155.891 231.674 155.571 231.33 155.159 231.08C154.752 230.829 154.274 230.703 153.725 230.703C153.128 230.703 152.607 230.85 152.162 231.143C151.722 231.432 151.381 231.811 151.14 232.28C150.903 232.744 150.784 233.248 150.784 233.793V235.036C150.784 235.765 150.912 236.385 151.168 236.896C151.428 237.408 151.791 237.798 152.255 238.068C152.719 238.333 153.261 238.466 153.881 238.466C154.283 238.466 154.65 238.409 154.982 238.295C155.313 238.177 155.6 238.002 155.841 237.77C156.083 237.538 156.267 237.251 156.395 236.911L158.405 237.273C158.244 237.865 157.955 238.383 157.539 238.828C157.127 239.268 156.608 239.612 155.983 239.858C155.363 240.099 154.655 240.22 153.86 240.22Z" fill="black"/>
<rect x="1" y="1" width="673" height="266" rx="29" stroke="black" stroke-width="2"/>
<path d="M214 1V267" stroke="black" stroke-width="2"/>
<path d="M1 134H673" stroke="black" stroke-width="2"/>
<path d="M171 200H673" stroke="black" stroke-width="2"/>
<path d="M673 67H182.766H1" stroke="black" stroke-width="2"/>
<path d="M171 200H1.5" stroke="black" stroke-width="2"/>
<path d="M1 31C1 14.4315 14.4315 1 31 1H644C660.569 1 674 14.4315 674 31V67H1V31Z" fill="black"/>
<path d="M19.8807 28.3438V26.4545H31.1378V28.3438H26.5994V41H24.4119V28.3438H19.8807ZM36.468 41.2202C35.4453 41.2202 34.5528 40.9858 33.7905 40.517C33.0282 40.0483 32.4363 39.3925 32.0149 38.5497C31.5935 37.7069 31.3828 36.7221 31.3828 35.5952C31.3828 34.4635 31.5935 33.474 32.0149 32.6264C32.4363 31.7789 33.0282 31.1207 33.7905 30.652C34.5528 30.1832 35.4453 29.9489 36.468 29.9489C37.4908 29.9489 38.3833 30.1832 39.1456 30.652C39.9079 31.1207 40.4998 31.7789 40.9212 32.6264C41.3426 33.474 41.5533 34.4635 41.5533 35.5952C41.5533 36.7221 41.3426 37.7069 40.9212 38.5497C40.4998 39.3925 39.9079 40.0483 39.1456 40.517C38.3833 40.9858 37.4908 41.2202 36.468 41.2202ZM36.4751 39.4375C37.138 39.4375 37.6873 39.2623 38.1229 38.9119C38.5585 38.5616 38.8804 38.0952 39.0888 37.5128C39.3018 36.9304 39.4084 36.2888 39.4084 35.5881C39.4084 34.892 39.3018 34.2528 39.0888 33.6705C38.8804 33.0833 38.5585 32.6122 38.1229 32.2571C37.6873 31.902 37.138 31.7244 36.4751 31.7244C35.8075 31.7244 35.2536 31.902 34.8132 32.2571C34.3776 32.6122 34.0533 33.0833 33.8402 33.6705C33.6319 34.2528 33.5277 34.892 33.5277 35.5881C33.5277 36.2888 33.6319 36.9304 33.8402 37.5128C34.0533 38.0952 34.3776 38.5616 34.8132 38.9119C35.2536 39.2623 35.8075 39.4375 36.4751 39.4375ZM48.0075 41.2131C47.1268 41.2131 46.3408 40.9882 45.6495 40.5384C44.9629 40.0838 44.4232 39.4375 44.0302 38.5994C43.6419 37.7566 43.4478 36.7457 43.4478 35.5668C43.4478 34.3878 43.6443 33.3793 44.0373 32.5412C44.435 31.7031 44.9795 31.0616 45.6708 30.6165C46.3621 30.1714 47.1457 29.9489 48.0217 29.9489C48.6987 29.9489 49.2433 30.0625 49.6552 30.2898C50.0719 30.5123 50.3938 30.7727 50.6211 31.071C50.8531 31.3693 51.033 31.6321 51.1609 31.8594H51.2887V26.4545H53.4123V41H51.3384V39.3026H51.1609C51.033 39.5346 50.8484 39.7997 50.6069 40.098C50.3701 40.3963 50.0434 40.6567 49.6268 40.8793C49.2101 41.1018 48.6703 41.2131 48.0075 41.2131ZM48.4762 39.402C49.087 39.402 49.6031 39.241 50.0245 38.919C50.4506 38.5923 50.7726 38.1402 50.9904 37.5625C51.2129 36.9848 51.3242 36.3125 51.3242 35.5455C51.3242 34.7879 51.2153 34.125 50.9975 33.5568C50.7797 32.9886 50.4601 32.5459 50.0387 32.2287C49.6173 31.9115 49.0965 31.7528 48.4762 31.7528C47.837 31.7528 47.3043 31.9186 46.8782 32.25C46.4521 32.5814 46.1301 33.0336 45.9123 33.6065C45.6992 34.1795 45.5927 34.8258 45.5927 35.5455C45.5927 36.2746 45.7016 36.9304 45.9194 37.5128C46.1372 38.0952 46.4592 38.5568 46.8853 38.8977C47.3162 39.2339 47.8465 39.402 48.4762 39.402ZM59.6179 41.2415C58.9266 41.2415 58.3016 41.1136 57.7429 40.858C57.1842 40.5975 56.7415 40.2211 56.4148 39.7287C56.0928 39.2363 55.9318 38.6326 55.9318 37.9176C55.9318 37.3021 56.0502 36.7955 56.2869 36.3977C56.5237 36 56.8433 35.6851 57.2457 35.4531C57.6482 35.2211 58.098 35.0459 58.5952 34.9276C59.0923 34.8092 59.599 34.7192 60.1151 34.6577C60.7685 34.5819 61.2988 34.5204 61.706 34.473C62.1132 34.4209 62.4091 34.3381 62.5938 34.2244C62.7784 34.1108 62.8707 33.9261 62.8707 33.6705V33.6207C62.8707 33.0005 62.6955 32.5199 62.3452 32.179C61.9995 31.8381 61.4834 31.6676 60.7969 31.6676C60.0819 31.6676 59.5185 31.8262 59.1065 32.1435C58.6993 32.456 58.4176 32.804 58.2614 33.1875L56.2656 32.733C56.5024 32.0701 56.848 31.535 57.3026 31.1278C57.7618 30.7159 58.2898 30.4176 58.8864 30.233C59.483 30.0436 60.1103 29.9489 60.7685 29.9489C61.2041 29.9489 61.6657 30.0009 62.1534 30.1051C62.6458 30.2045 63.1051 30.3892 63.5312 30.6591C63.9621 30.929 64.3149 31.3149 64.5895 31.8168C64.8641 32.3139 65.0014 32.9602 65.0014 33.7557V41H62.9276V39.5085H62.8423C62.705 39.7831 62.4991 40.053 62.2244 40.3182C61.9498 40.5833 61.5971 40.8035 61.1662 40.9787C60.7353 41.1539 60.2192 41.2415 59.6179 41.2415ZM60.0795 39.5369C60.6667 39.5369 61.1686 39.4209 61.5852 39.1889C62.0066 38.9569 62.3262 38.6539 62.544 38.2798C62.7666 37.901 62.8778 37.4962 62.8778 37.0653V35.6591C62.8021 35.7348 62.6553 35.8059 62.4375 35.8722C62.2244 35.9337 61.9806 35.9882 61.706 36.0355C61.4313 36.0781 61.1638 36.1184 60.9034 36.1562C60.643 36.1894 60.4252 36.2178 60.25 36.2415C59.8381 36.2936 59.4616 36.3812 59.1207 36.5043C58.7846 36.6274 58.5147 36.8049 58.3111 37.0369C58.1122 37.2642 58.0128 37.5672 58.0128 37.946C58.0128 38.4716 58.2069 38.8693 58.5952 39.1392C58.9834 39.4044 59.4782 39.5369 60.0795 39.5369ZM68.7816 45.0909C68.4644 45.0909 68.1755 45.0649 67.9151 45.0128C67.6547 44.9654 67.4606 44.9134 67.3327 44.8565L67.8441 43.1165C68.2324 43.2206 68.578 43.2656 68.881 43.2514C69.1841 43.2372 69.4516 43.1236 69.6836 42.9105C69.9203 42.6974 70.1287 42.3494 70.3086 41.8665L70.5714 41.142L66.5799 30.0909H68.8526L71.6154 38.5568H71.729L74.4918 30.0909H76.7717L72.2759 42.456C72.0676 43.0241 71.8024 43.5047 71.4805 43.8977C71.1585 44.2955 70.775 44.5938 70.3299 44.7926C69.8848 44.9915 69.3687 45.0909 68.7816 45.0909Z" fill="white"/>
</svg>
