<svg width="675" height="268" viewBox="0 0 675 268" fill="none" xmlns="http://www.w3.org/2000/svg">
<rect x="215" y="68" width="458" height="65" fill="#FF9306"/>
<rect x="215" y="135" width="458" height="65" fill="#EBE00A"/>
<path d="M215 201H673V238C673 253.464 660.464 266 645 266H215V201Z" fill="#EBE00A"/>
<rect x="2" y="68" width="212" height="65" fill="white"/>
<rect x="2" y="135" width="213" height="64" fill="#C1D831"/>
<path d="M2 201H214V266H29C14.0883 266 2 253.912 2 239V201Z" fill="#6EA469"/>
<path d="M240.463 108.199C239.488 108.199 238.616 108.031 237.849 107.695C237.087 107.358 236.483 106.892 236.038 106.295C235.598 105.694 235.361 104.998 235.328 104.207H237.558C237.587 104.638 237.731 105.012 237.991 105.33C238.257 105.642 238.602 105.884 239.028 106.054C239.455 106.224 239.928 106.31 240.449 106.31C241.022 106.31 241.528 106.21 241.969 106.011C242.414 105.812 242.762 105.536 243.013 105.18C243.264 104.821 243.389 104.406 243.389 103.938C243.389 103.45 243.264 103.021 243.013 102.652C242.767 102.278 242.404 101.984 241.926 101.771C241.453 101.558 240.88 101.452 240.207 101.452H238.979V99.6619H240.207C240.747 99.6619 241.221 99.5649 241.628 99.3707C242.04 99.1766 242.362 98.9067 242.594 98.5611C242.826 98.2107 242.942 97.8011 242.942 97.3324C242.942 96.8826 242.84 96.492 242.636 96.1605C242.438 95.8243 242.153 95.5616 241.784 95.3722C241.42 95.1828 240.989 95.0881 240.491 95.0881C240.018 95.0881 239.575 95.1757 239.163 95.3509C238.756 95.5213 238.425 95.7675 238.169 96.0895C237.913 96.4067 237.776 96.7879 237.757 97.233H235.634C235.657 96.447 235.889 95.7557 236.33 95.1591C236.775 94.5625 237.362 94.0961 238.091 93.7599C238.82 93.4238 239.63 93.2557 240.52 93.2557C241.453 93.2557 242.258 93.438 242.935 93.8026C243.616 94.1624 244.142 94.643 244.511 95.2443C244.885 95.8456 245.07 96.5038 245.065 97.2188C245.07 98.0331 244.843 98.7244 244.384 99.2926C243.929 99.8608 243.323 100.242 242.565 100.436V100.55C243.531 100.696 244.279 101.08 244.81 101.7C245.345 102.321 245.61 103.09 245.605 104.009C245.61 104.809 245.387 105.526 244.938 106.161C244.492 106.795 243.884 107.295 243.112 107.659C242.34 108.019 241.457 108.199 240.463 108.199ZM260.039 99.804V101.651H253.59V99.804H260.039ZM280.413 98.1847H278.197C278.112 97.7112 277.954 97.2945 277.722 96.9347C277.49 96.5748 277.205 96.2694 276.869 96.0185C276.533 95.7675 276.157 95.5781 275.74 95.4503C275.328 95.3224 274.89 95.2585 274.426 95.2585C273.588 95.2585 272.838 95.4692 272.175 95.8906C271.517 96.312 270.996 96.9299 270.612 97.7443C270.233 98.5587 270.044 99.553 270.044 100.727C270.044 101.911 270.233 102.91 270.612 103.724C270.996 104.539 271.519 105.154 272.182 105.571C272.845 105.988 273.59 106.196 274.419 106.196C274.878 106.196 275.314 106.134 275.726 106.011C276.143 105.884 276.519 105.696 276.855 105.45C277.191 105.204 277.475 104.903 277.707 104.548C277.944 104.188 278.107 103.777 278.197 103.312L280.413 103.32C280.295 104.035 280.065 104.693 279.724 105.294C279.388 105.891 278.955 106.407 278.425 106.842C277.899 107.273 277.298 107.607 276.621 107.844C275.944 108.08 275.205 108.199 274.405 108.199C273.145 108.199 272.023 107.901 271.038 107.304C270.054 106.703 269.277 105.843 268.709 104.726C268.145 103.608 267.864 102.276 267.864 100.727C267.864 99.1742 268.148 97.8414 268.716 96.7287C269.284 95.6113 270.061 94.7543 271.045 94.1577C272.03 93.5563 273.15 93.2557 274.405 93.2557C275.177 93.2557 275.896 93.367 276.564 93.5895C277.236 93.8073 277.84 94.1293 278.375 94.5554C278.91 94.9768 279.353 95.4929 279.703 96.1037C280.054 96.7098 280.29 97.4034 280.413 98.1847ZM287.464 108.22C286.441 108.22 285.549 107.986 284.787 107.517C284.024 107.048 283.432 106.393 283.011 105.55C282.59 104.707 282.379 103.722 282.379 102.595C282.379 101.464 282.59 100.474 283.011 99.6264C283.432 98.7789 284.024 98.1207 284.787 97.652C285.549 97.1832 286.441 96.9489 287.464 96.9489C288.487 96.9489 289.379 97.1832 290.142 97.652C290.904 98.1207 291.496 98.7789 291.917 99.6264C292.339 100.474 292.549 101.464 292.549 102.595C292.549 103.722 292.339 104.707 291.917 105.55C291.496 106.393 290.904 107.048 290.142 107.517C289.379 107.986 288.487 108.22 287.464 108.22ZM287.471 106.438C288.134 106.438 288.683 106.262 289.119 105.912C289.555 105.562 289.877 105.095 290.085 104.513C290.298 103.93 290.404 103.289 290.404 102.588C290.404 101.892 290.298 101.253 290.085 100.67C289.877 100.083 289.555 99.6122 289.119 99.2571C288.683 98.902 288.134 98.7244 287.471 98.7244C286.804 98.7244 286.25 98.902 285.809 99.2571C285.374 99.6122 285.049 100.083 284.836 100.67C284.628 101.253 284.524 101.892 284.524 102.588C284.524 103.289 284.628 103.93 284.836 104.513C285.049 105.095 285.374 105.562 285.809 105.912C286.25 106.262 286.804 106.438 287.471 106.438ZM297.043 101.523V108H294.92V97.0909H296.958V98.8665H297.093C297.344 98.2888 297.737 97.8248 298.272 97.4744C298.812 97.1241 299.491 96.9489 300.31 96.9489C301.054 96.9489 301.705 97.1051 302.263 97.4176C302.822 97.7254 303.255 98.1847 303.563 98.7955C303.871 99.4062 304.025 100.161 304.025 101.061V108H301.901V101.317C301.901 100.526 301.695 99.9081 301.283 99.4631C300.871 99.0133 300.306 98.7884 299.586 98.7884C299.094 98.7884 298.656 98.8949 298.272 99.108C297.893 99.321 297.593 99.6335 297.37 100.045C297.152 100.453 297.043 100.945 297.043 101.523ZM315.048 99.7543L313.123 100.095C313.042 99.849 312.915 99.6146 312.739 99.392C312.569 99.1695 312.337 98.9872 312.043 98.8452C311.75 98.7031 311.383 98.6321 310.942 98.6321C310.341 98.6321 309.839 98.767 309.437 99.0369C309.034 99.3021 308.833 99.6454 308.833 100.067C308.833 100.431 308.968 100.725 309.238 100.947C309.508 101.17 309.943 101.352 310.545 101.494L312.278 101.892C313.281 102.124 314.03 102.482 314.522 102.964C315.014 103.447 315.261 104.075 315.261 104.847C315.261 105.5 315.071 106.082 314.692 106.594C314.318 107.1 313.795 107.498 313.123 107.787C312.455 108.076 311.681 108.22 310.8 108.22C309.579 108.22 308.582 107.96 307.81 107.439C307.039 106.913 306.565 106.168 306.39 105.202L308.442 104.889C308.57 105.424 308.833 105.829 309.231 106.104C309.629 106.374 310.147 106.509 310.786 106.509C311.482 106.509 312.039 106.364 312.455 106.075C312.872 105.782 313.08 105.424 313.08 105.003C313.08 104.662 312.952 104.375 312.697 104.143C312.446 103.911 312.06 103.736 311.539 103.618L309.692 103.213C308.674 102.981 307.922 102.612 307.434 102.105C306.951 101.598 306.71 100.957 306.71 100.18C306.71 99.5365 306.889 98.973 307.249 98.4901C307.609 98.0071 308.106 97.6307 308.741 97.3608C309.375 97.0862 310.102 96.9489 310.921 96.9489C312.1 96.9489 313.028 97.2045 313.705 97.7159C314.382 98.2225 314.83 98.902 315.048 99.7543ZM317.596 108V97.0909H319.719V108H317.596ZM318.668 95.4077C318.299 95.4077 317.981 95.2846 317.716 95.0384C317.456 94.7874 317.326 94.4891 317.326 94.1435C317.326 93.7931 317.456 93.4948 317.716 93.2486C317.981 92.9976 318.299 92.8722 318.668 92.8722C319.037 92.8722 319.352 92.9976 319.613 93.2486C319.878 93.4948 320.01 93.7931 320.01 94.1435C320.01 94.4891 319.878 94.7874 319.613 95.0384C319.352 95.2846 319.037 95.4077 318.668 95.4077ZM326.66 108.213C325.779 108.213 324.993 107.988 324.302 107.538C323.615 107.084 323.076 106.437 322.683 105.599C322.294 104.757 322.1 103.746 322.1 102.567C322.1 101.388 322.297 100.379 322.69 99.5412C323.087 98.7031 323.632 98.0616 324.323 97.6165C325.014 97.1714 325.798 96.9489 326.674 96.9489C327.351 96.9489 327.896 97.0625 328.308 97.2898C328.724 97.5123 329.046 97.7727 329.273 98.071C329.505 98.3693 329.685 98.6321 329.813 98.8594H329.941V93.4545H332.065V108H329.991V106.303H329.813C329.685 106.535 329.501 106.8 329.259 107.098C329.022 107.396 328.696 107.657 328.279 107.879C327.862 108.102 327.323 108.213 326.66 108.213ZM327.129 106.402C327.739 106.402 328.255 106.241 328.677 105.919C329.103 105.592 329.425 105.14 329.643 104.562C329.865 103.985 329.977 103.312 329.977 102.545C329.977 101.788 329.868 101.125 329.65 100.557C329.432 99.9886 329.112 99.5459 328.691 99.2287C328.27 98.9115 327.749 98.7528 327.129 98.7528C326.489 98.7528 325.957 98.9186 325.531 99.25C325.104 99.5814 324.782 100.034 324.565 100.607C324.352 101.179 324.245 101.826 324.245 102.545C324.245 103.275 324.354 103.93 324.572 104.513C324.79 105.095 325.112 105.557 325.538 105.898C325.969 106.234 326.499 106.402 327.129 106.402ZM339.797 108.22C338.722 108.22 337.797 107.991 337.02 107.531C336.248 107.067 335.652 106.416 335.23 105.578C334.814 104.735 334.605 103.748 334.605 102.616C334.605 101.499 334.814 100.514 335.23 99.6619C335.652 98.8097 336.239 98.1444 336.992 97.6662C337.749 97.188 338.635 96.9489 339.648 96.9489C340.264 96.9489 340.86 97.0507 341.438 97.2543C342.016 97.4579 342.534 97.7775 342.993 98.2131C343.453 98.6487 343.815 99.2145 344.08 99.9105C344.345 100.602 344.478 101.442 344.478 102.432V103.185H335.806V101.594H342.397C342.397 101.035 342.283 100.54 342.056 100.109C341.828 99.6738 341.509 99.3305 341.097 99.0795C340.69 98.8286 340.212 98.7031 339.662 98.7031C339.066 98.7031 338.545 98.8499 338.1 99.1435C337.659 99.4323 337.319 99.8111 337.077 100.28C336.84 100.744 336.722 101.248 336.722 101.793V103.036C336.722 103.765 336.85 104.385 337.105 104.896C337.366 105.408 337.728 105.798 338.192 106.068C338.656 106.333 339.198 106.466 339.819 106.466C340.221 106.466 340.588 106.409 340.919 106.295C341.251 106.177 341.537 106.002 341.779 105.77C342.02 105.538 342.205 105.251 342.333 104.911L344.343 105.273C344.182 105.865 343.893 106.383 343.476 106.828C343.064 107.268 342.546 107.612 341.921 107.858C341.301 108.099 340.593 108.22 339.797 108.22ZM346.834 108V97.0909H348.886V98.8239H349C349.199 98.2367 349.549 97.7751 350.051 97.4389C350.558 97.098 351.131 96.9276 351.77 96.9276C351.902 96.9276 352.059 96.9323 352.239 96.9418C352.423 96.9512 352.568 96.9631 352.672 96.9773V99.0085C352.587 98.9848 352.435 98.9588 352.217 98.9304C352 98.8973 351.782 98.8807 351.564 98.8807C351.062 98.8807 350.615 98.9872 350.222 99.2003C349.833 99.4086 349.526 99.6998 349.298 100.074C349.071 100.443 348.957 100.865 348.957 101.338V108H346.834ZM357.587 108.241C356.895 108.241 356.27 108.114 355.712 107.858C355.153 107.598 354.71 107.221 354.384 106.729C354.062 106.236 353.901 105.633 353.901 104.918C353.901 104.302 354.019 103.795 354.256 103.398C354.492 103 354.812 102.685 355.214 102.453C355.617 102.221 356.067 102.046 356.564 101.928C357.061 101.809 357.568 101.719 358.084 101.658C358.737 101.582 359.268 101.52 359.675 101.473C360.082 101.421 360.378 101.338 360.562 101.224C360.747 101.111 360.839 100.926 360.839 100.67V100.621C360.839 100 360.664 99.5199 360.314 99.179C359.968 98.8381 359.452 98.6676 358.766 98.6676C358.051 98.6676 357.487 98.8262 357.075 99.1435C356.668 99.456 356.386 99.804 356.23 100.188L354.234 99.733C354.471 99.0701 354.817 98.535 355.271 98.1278C355.731 97.7159 356.259 97.4176 356.855 97.233C357.452 97.0436 358.079 96.9489 358.737 96.9489C359.173 96.9489 359.634 97.0009 360.122 97.1051C360.615 97.2045 361.074 97.3892 361.5 97.6591C361.931 97.929 362.284 98.3149 362.558 98.8168C362.833 99.3139 362.97 99.9602 362.97 100.756V108H360.896V106.509H360.811C360.674 106.783 360.468 107.053 360.193 107.318C359.919 107.583 359.566 107.804 359.135 107.979C358.704 108.154 358.188 108.241 357.587 108.241ZM358.048 106.537C358.635 106.537 359.137 106.421 359.554 106.189C359.975 105.957 360.295 105.654 360.513 105.28C360.735 104.901 360.847 104.496 360.847 104.065V102.659C360.771 102.735 360.624 102.806 360.406 102.872C360.193 102.934 359.949 102.988 359.675 103.036C359.4 103.078 359.133 103.118 358.872 103.156C358.612 103.189 358.394 103.218 358.219 103.241C357.807 103.294 357.43 103.381 357.089 103.504C356.753 103.627 356.483 103.805 356.28 104.037C356.081 104.264 355.982 104.567 355.982 104.946C355.982 105.472 356.176 105.869 356.564 106.139C356.952 106.404 357.447 106.537 358.048 106.537ZM365.969 108V93.4545H368.093V98.8594H368.221C368.344 98.6321 368.521 98.3693 368.753 98.071C368.985 97.7727 369.307 97.5123 369.719 97.2898C370.131 97.0625 370.676 96.9489 371.353 96.9489C372.233 96.9489 373.019 97.1714 373.711 97.6165C374.402 98.0616 374.944 98.7031 375.337 99.5412C375.735 100.379 375.934 101.388 375.934 102.567C375.934 103.746 375.737 104.757 375.344 105.599C374.951 106.437 374.411 107.084 373.725 107.538C373.038 107.988 372.255 108.213 371.374 108.213C370.711 108.213 370.169 108.102 369.748 107.879C369.331 107.657 369.004 107.396 368.767 107.098C368.531 106.8 368.348 106.535 368.221 106.303H368.043V108H365.969ZM368.05 102.545C368.05 103.312 368.161 103.985 368.384 104.562C368.606 105.14 368.928 105.592 369.35 105.919C369.771 106.241 370.287 106.402 370.898 106.402C371.533 106.402 372.063 106.234 372.489 105.898C372.915 105.557 373.237 105.095 373.455 104.513C373.677 103.93 373.789 103.275 373.789 102.545C373.789 101.826 373.68 101.179 373.462 100.607C373.249 100.034 372.927 99.5814 372.496 99.25C372.07 98.9186 371.537 98.7528 370.898 98.7528C370.283 98.7528 369.762 98.9115 369.336 99.2287C368.914 99.5459 368.595 99.9886 368.377 100.557C368.159 101.125 368.05 101.788 368.05 102.545ZM380.442 93.4545V108H378.318V93.4545H380.442ZM388 108.22C386.926 108.22 386 107.991 385.223 107.531C384.452 107.067 383.855 106.416 383.434 105.578C383.017 104.735 382.809 103.748 382.809 102.616C382.809 101.499 383.017 100.514 383.434 99.6619C383.855 98.8097 384.442 98.1444 385.195 97.6662C385.953 97.188 386.838 96.9489 387.851 96.9489C388.467 96.9489 389.063 97.0507 389.641 97.2543C390.219 97.4579 390.737 97.7775 391.196 98.2131C391.656 98.6487 392.018 99.2145 392.283 99.9105C392.548 100.602 392.681 101.442 392.681 102.432V103.185H384.009V101.594H390.6C390.6 101.035 390.486 100.54 390.259 100.109C390.032 99.6738 389.712 99.3305 389.3 99.0795C388.893 98.8286 388.415 98.7031 387.865 98.7031C387.269 98.7031 386.748 98.8499 386.303 99.1435C385.863 99.4323 385.522 99.8111 385.28 100.28C385.043 100.744 384.925 101.248 384.925 101.793V103.036C384.925 103.765 385.053 104.385 385.309 104.896C385.569 105.408 385.931 105.798 386.395 106.068C386.859 106.333 387.401 106.466 388.022 106.466C388.424 106.466 388.791 106.409 389.123 106.295C389.454 106.177 389.74 106.002 389.982 105.77C390.223 105.538 390.408 105.251 390.536 104.911L392.546 105.273C392.385 105.865 392.096 106.383 391.679 106.828C391.267 107.268 390.749 107.612 390.124 107.858C389.504 108.099 388.796 108.22 388 108.22Z" fill="black"/>
<path d="M235.399 175V173.409L240.321 168.31C240.847 167.756 241.28 167.27 241.621 166.854C241.966 166.432 242.224 166.032 242.395 165.653C242.565 165.275 242.651 164.872 242.651 164.446C242.651 163.963 242.537 163.546 242.31 163.196C242.082 162.841 241.772 162.569 241.379 162.379C240.986 162.185 240.544 162.088 240.051 162.088C239.53 162.088 239.076 162.195 238.688 162.408C238.299 162.621 238.001 162.921 237.793 163.31C237.584 163.698 237.48 164.152 237.48 164.673H235.385C235.385 163.788 235.589 163.014 235.996 162.351C236.403 161.688 236.962 161.174 237.672 160.81C238.382 160.44 239.189 160.256 240.094 160.256C241.008 160.256 241.813 160.438 242.509 160.803C243.209 161.162 243.756 161.655 244.149 162.28C244.542 162.9 244.739 163.601 244.739 164.382C244.739 164.922 244.637 165.45 244.433 165.966C244.234 166.482 243.886 167.057 243.389 167.692C242.892 168.321 242.201 169.086 241.315 169.986L238.425 173.011V173.118H244.973V175H235.399ZM259.414 166.804V168.651H252.965V166.804H259.414ZM267.707 160.455H270.371L275.001 171.761H275.172L279.803 160.455H282.466V175H280.378V164.474H280.243L275.953 174.979H274.22L269.93 164.467H269.795V175H267.707V160.455ZM290.081 175.22C289.059 175.22 288.166 174.986 287.404 174.517C286.641 174.048 286.05 173.393 285.628 172.55C285.207 171.707 284.996 170.722 284.996 169.595C284.996 168.464 285.207 167.474 285.628 166.626C286.05 165.779 286.641 165.121 287.404 164.652C288.166 164.183 289.059 163.949 290.081 163.949C291.104 163.949 291.997 164.183 292.759 164.652C293.521 165.121 294.113 165.779 294.534 166.626C294.956 167.474 295.167 168.464 295.167 169.595C295.167 170.722 294.956 171.707 294.534 172.55C294.113 173.393 293.521 174.048 292.759 174.517C291.997 174.986 291.104 175.22 290.081 175.22ZM290.088 173.438C290.751 173.438 291.301 173.262 291.736 172.912C292.172 172.562 292.494 172.095 292.702 171.513C292.915 170.93 293.022 170.289 293.022 169.588C293.022 168.892 292.915 168.253 292.702 167.67C292.494 167.083 292.172 166.612 291.736 166.257C291.301 165.902 290.751 165.724 290.088 165.724C289.421 165.724 288.867 165.902 288.426 166.257C287.991 166.612 287.667 167.083 287.453 167.67C287.245 168.253 287.141 168.892 287.141 169.588C287.141 170.289 287.245 170.93 287.453 171.513C287.667 172.095 287.991 172.562 288.426 172.912C288.867 173.262 289.421 173.438 290.088 173.438ZM301.621 175.213C300.74 175.213 299.954 174.988 299.263 174.538C298.576 174.084 298.036 173.437 297.643 172.599C297.255 171.757 297.061 170.746 297.061 169.567C297.061 168.388 297.258 167.379 297.651 166.541C298.048 165.703 298.593 165.062 299.284 164.616C299.975 164.171 300.759 163.949 301.635 163.949C302.312 163.949 302.857 164.062 303.268 164.29C303.685 164.512 304.007 164.773 304.234 165.071C304.466 165.369 304.646 165.632 304.774 165.859H304.902V160.455H307.026V175H304.952V173.303H304.774C304.646 173.535 304.462 173.8 304.22 174.098C303.983 174.396 303.657 174.657 303.24 174.879C302.823 175.102 302.284 175.213 301.621 175.213ZM302.089 173.402C302.7 173.402 303.216 173.241 303.638 172.919C304.064 172.592 304.386 172.14 304.604 171.562C304.826 170.985 304.938 170.312 304.938 169.545C304.938 168.788 304.829 168.125 304.611 167.557C304.393 166.989 304.073 166.546 303.652 166.229C303.231 165.911 302.71 165.753 302.089 165.753C301.45 165.753 300.918 165.919 300.491 166.25C300.065 166.581 299.743 167.034 299.526 167.607C299.313 168.179 299.206 168.826 299.206 169.545C299.206 170.275 299.315 170.93 299.533 171.513C299.75 172.095 300.072 172.557 300.499 172.898C300.929 173.234 301.46 173.402 302.089 173.402ZM314.758 175.22C313.683 175.22 312.758 174.991 311.981 174.531C311.209 174.067 310.613 173.416 310.191 172.578C309.775 171.735 309.566 170.748 309.566 169.616C309.566 168.499 309.775 167.514 310.191 166.662C310.613 165.81 311.2 165.144 311.953 164.666C312.71 164.188 313.596 163.949 314.609 163.949C315.225 163.949 315.821 164.051 316.399 164.254C316.976 164.458 317.495 164.777 317.954 165.213C318.413 165.649 318.776 166.214 319.041 166.911C319.306 167.602 319.439 168.442 319.439 169.432V170.185H310.767V168.594H317.358C317.358 168.035 317.244 167.54 317.017 167.109C316.789 166.674 316.47 166.33 316.058 166.08C315.651 165.829 315.172 165.703 314.623 165.703C314.027 165.703 313.506 165.85 313.061 166.143C312.62 166.432 312.279 166.811 312.038 167.28C311.801 167.744 311.683 168.248 311.683 168.793V170.036C311.683 170.765 311.811 171.385 312.066 171.896C312.327 172.408 312.689 172.798 313.153 173.068C313.617 173.333 314.159 173.466 314.779 173.466C315.182 173.466 315.549 173.409 315.88 173.295C316.212 173.177 316.498 173.002 316.74 172.77C316.981 172.538 317.166 172.251 317.294 171.911L319.304 172.273C319.143 172.865 318.854 173.383 318.437 173.828C318.025 174.268 317.507 174.612 316.882 174.858C316.261 175.099 315.554 175.22 314.758 175.22ZM321.795 175V164.091H323.847V165.824H323.961C324.16 165.237 324.51 164.775 325.012 164.439C325.519 164.098 326.092 163.928 326.731 163.928C326.863 163.928 327.02 163.932 327.2 163.942C327.384 163.951 327.529 163.963 327.633 163.977V166.009C327.548 165.985 327.396 165.959 327.178 165.93C326.96 165.897 326.743 165.881 326.525 165.881C326.023 165.881 325.576 165.987 325.183 166.2C324.794 166.409 324.487 166.7 324.259 167.074C324.032 167.443 323.918 167.865 323.918 168.338V175H321.795ZM332.548 175.241C331.856 175.241 331.231 175.114 330.673 174.858C330.114 174.598 329.671 174.221 329.344 173.729C329.022 173.236 328.862 172.633 328.862 171.918C328.862 171.302 328.98 170.795 329.217 170.398C329.453 170 329.773 169.685 330.175 169.453C330.578 169.221 331.028 169.046 331.525 168.928C332.022 168.809 332.529 168.719 333.045 168.658C333.698 168.582 334.228 168.52 334.636 168.473C335.043 168.421 335.339 168.338 335.523 168.224C335.708 168.111 335.8 167.926 335.8 167.67V167.621C335.8 167 335.625 166.52 335.275 166.179C334.929 165.838 334.413 165.668 333.727 165.668C333.012 165.668 332.448 165.826 332.036 166.143C331.629 166.456 331.347 166.804 331.191 167.188L329.195 166.733C329.432 166.07 329.778 165.535 330.232 165.128C330.692 164.716 331.219 164.418 331.816 164.233C332.413 164.044 333.04 163.949 333.698 163.949C334.134 163.949 334.595 164.001 335.083 164.105C335.576 164.205 336.035 164.389 336.461 164.659C336.892 164.929 337.245 165.315 337.519 165.817C337.794 166.314 337.931 166.96 337.931 167.756V175H335.857V173.509H335.772C335.635 173.783 335.429 174.053 335.154 174.318C334.879 174.583 334.527 174.804 334.096 174.979C333.665 175.154 333.149 175.241 332.548 175.241ZM333.009 173.537C333.596 173.537 334.098 173.421 334.515 173.189C334.936 172.957 335.256 172.654 335.474 172.28C335.696 171.901 335.808 171.496 335.808 171.065V169.659C335.732 169.735 335.585 169.806 335.367 169.872C335.154 169.934 334.91 169.988 334.636 170.036C334.361 170.078 334.094 170.118 333.833 170.156C333.573 170.189 333.355 170.218 333.18 170.241C332.768 170.294 332.391 170.381 332.05 170.504C331.714 170.627 331.444 170.805 331.241 171.037C331.042 171.264 330.942 171.567 330.942 171.946C330.942 172.472 331.137 172.869 331.525 173.139C331.913 173.404 332.408 173.537 333.009 173.537ZM345.852 164.091V165.795H339.893V164.091H345.852ZM341.491 161.477H343.615V171.797C343.615 172.209 343.676 172.519 343.799 172.727C343.922 172.931 344.081 173.071 344.275 173.146C344.474 173.217 344.69 173.253 344.922 173.253C345.092 173.253 345.241 173.241 345.369 173.217C345.497 173.194 345.596 173.175 345.667 173.161L346.051 174.915C345.928 174.962 345.752 175.009 345.525 175.057C345.298 175.109 345.014 175.137 344.673 175.142C344.114 175.152 343.593 175.052 343.11 174.844C342.627 174.635 342.237 174.313 341.939 173.878C341.64 173.442 341.491 172.895 341.491 172.237V161.477ZM352.786 175.22C351.711 175.22 350.785 174.991 350.009 174.531C349.237 174.067 348.64 173.416 348.219 172.578C347.802 171.735 347.594 170.748 347.594 169.616C347.594 168.499 347.802 167.514 348.219 166.662C348.64 165.81 349.227 165.144 349.98 164.666C350.738 164.188 351.623 163.949 352.636 163.949C353.252 163.949 353.848 164.051 354.426 164.254C355.004 164.458 355.522 164.777 355.982 165.213C356.441 165.649 356.803 166.214 357.068 166.911C357.333 167.602 357.466 168.442 357.466 169.432V170.185H348.794V168.594H355.385C355.385 168.035 355.271 167.54 355.044 167.109C354.817 166.674 354.497 166.33 354.085 166.08C353.678 165.829 353.2 165.703 352.651 165.703C352.054 165.703 351.533 165.85 351.088 166.143C350.648 166.432 350.307 166.811 350.065 167.28C349.829 167.744 349.71 168.248 349.71 168.793V170.036C349.71 170.765 349.838 171.385 350.094 171.896C350.354 172.408 350.716 172.798 351.18 173.068C351.644 173.333 352.187 173.466 352.807 173.466C353.209 173.466 353.576 173.409 353.908 173.295C354.239 173.177 354.526 173.002 354.767 172.77C355.009 172.538 355.193 172.251 355.321 171.911L357.331 172.273C357.17 172.865 356.881 173.383 356.464 173.828C356.053 174.268 355.534 174.612 354.909 174.858C354.289 175.099 353.581 175.22 352.786 175.22Z" fill="black"/>
<path d="M235.399 242V240.409L240.321 235.31C240.847 234.756 241.28 234.27 241.621 233.854C241.966 233.432 242.224 233.032 242.395 232.653C242.565 232.275 242.651 231.872 242.651 231.446C242.651 230.963 242.537 230.546 242.31 230.196C242.082 229.841 241.772 229.569 241.379 229.379C240.986 229.185 240.544 229.088 240.051 229.088C239.53 229.088 239.076 229.195 238.688 229.408C238.299 229.621 238.001 229.921 237.793 230.31C237.584 230.698 237.48 231.152 237.48 231.673H235.385C235.385 230.788 235.589 230.014 235.996 229.351C236.403 228.688 236.962 228.174 237.672 227.81C238.382 227.44 239.189 227.256 240.094 227.256C241.008 227.256 241.813 227.438 242.509 227.803C243.209 228.162 243.756 228.655 244.149 229.28C244.542 229.9 244.739 230.601 244.739 231.382C244.739 231.922 244.637 232.45 244.433 232.966C244.234 233.482 243.886 234.057 243.389 234.692C242.892 235.321 242.201 236.086 241.315 236.986L238.425 240.011V240.118H244.973V242H235.399ZM259.414 233.804V235.651H252.965V233.804H259.414ZM267.707 227.455H270.371L275.001 238.761H275.172L279.803 227.455H282.466V242H280.378V231.474H280.243L275.953 241.979H274.22L269.93 231.467H269.795V242H267.707V227.455ZM290.081 242.22C289.059 242.22 288.166 241.986 287.404 241.517C286.641 241.048 286.05 240.393 285.628 239.55C285.207 238.707 284.996 237.722 284.996 236.595C284.996 235.464 285.207 234.474 285.628 233.626C286.05 232.779 286.641 232.121 287.404 231.652C288.166 231.183 289.059 230.949 290.081 230.949C291.104 230.949 291.997 231.183 292.759 231.652C293.521 232.121 294.113 232.779 294.534 233.626C294.956 234.474 295.167 235.464 295.167 236.595C295.167 237.722 294.956 238.707 294.534 239.55C294.113 240.393 293.521 241.048 292.759 241.517C291.997 241.986 291.104 242.22 290.081 242.22ZM290.088 240.438C290.751 240.438 291.301 240.262 291.736 239.912C292.172 239.562 292.494 239.095 292.702 238.513C292.915 237.93 293.022 237.289 293.022 236.588C293.022 235.892 292.915 235.253 292.702 234.67C292.494 234.083 292.172 233.612 291.736 233.257C291.301 232.902 290.751 232.724 290.088 232.724C289.421 232.724 288.867 232.902 288.426 233.257C287.991 233.612 287.667 234.083 287.453 234.67C287.245 235.253 287.141 235.892 287.141 236.588C287.141 237.289 287.245 237.93 287.453 238.513C287.667 239.095 287.991 239.562 288.426 239.912C288.867 240.262 289.421 240.438 290.088 240.438ZM301.621 242.213C300.74 242.213 299.954 241.988 299.263 241.538C298.576 241.084 298.036 240.437 297.643 239.599C297.255 238.757 297.061 237.746 297.061 236.567C297.061 235.388 297.258 234.379 297.651 233.541C298.048 232.703 298.593 232.062 299.284 231.616C299.975 231.171 300.759 230.949 301.635 230.949C302.312 230.949 302.857 231.062 303.268 231.29C303.685 231.512 304.007 231.773 304.234 232.071C304.466 232.369 304.646 232.632 304.774 232.859H304.902V227.455H307.026V242H304.952V240.303H304.774C304.646 240.535 304.462 240.8 304.22 241.098C303.983 241.396 303.657 241.657 303.24 241.879C302.823 242.102 302.284 242.213 301.621 242.213ZM302.089 240.402C302.7 240.402 303.216 240.241 303.638 239.919C304.064 239.592 304.386 239.14 304.604 238.562C304.826 237.985 304.938 237.312 304.938 236.545C304.938 235.788 304.829 235.125 304.611 234.557C304.393 233.989 304.073 233.546 303.652 233.229C303.231 232.911 302.71 232.753 302.089 232.753C301.45 232.753 300.918 232.919 300.491 233.25C300.065 233.581 299.743 234.034 299.526 234.607C299.313 235.179 299.206 235.826 299.206 236.545C299.206 237.275 299.315 237.93 299.533 238.513C299.75 239.095 300.072 239.557 300.499 239.898C300.929 240.234 301.46 240.402 302.089 240.402ZM314.758 242.22C313.683 242.22 312.758 241.991 311.981 241.531C311.209 241.067 310.613 240.416 310.191 239.578C309.775 238.735 309.566 237.748 309.566 236.616C309.566 235.499 309.775 234.514 310.191 233.662C310.613 232.81 311.2 232.144 311.953 231.666C312.71 231.188 313.596 230.949 314.609 230.949C315.225 230.949 315.821 231.051 316.399 231.254C316.976 231.458 317.495 231.777 317.954 232.213C318.413 232.649 318.776 233.214 319.041 233.911C319.306 234.602 319.439 235.442 319.439 236.432V237.185H310.767V235.594H317.358C317.358 235.035 317.244 234.54 317.017 234.109C316.789 233.674 316.47 233.33 316.058 233.08C315.651 232.829 315.172 232.703 314.623 232.703C314.027 232.703 313.506 232.85 313.061 233.143C312.62 233.432 312.279 233.811 312.038 234.28C311.801 234.744 311.683 235.248 311.683 235.793V237.036C311.683 237.765 311.811 238.385 312.066 238.896C312.327 239.408 312.689 239.798 313.153 240.068C313.617 240.333 314.159 240.466 314.779 240.466C315.182 240.466 315.549 240.409 315.88 240.295C316.212 240.177 316.498 240.002 316.74 239.77C316.981 239.538 317.166 239.251 317.294 238.911L319.304 239.273C319.143 239.865 318.854 240.383 318.437 240.828C318.025 241.268 317.507 241.612 316.882 241.858C316.261 242.099 315.554 242.22 314.758 242.22ZM321.795 242V231.091H323.847V232.824H323.961C324.16 232.237 324.51 231.775 325.012 231.439C325.519 231.098 326.092 230.928 326.731 230.928C326.863 230.928 327.02 230.932 327.2 230.942C327.384 230.951 327.529 230.963 327.633 230.977V233.009C327.548 232.985 327.396 232.959 327.178 232.93C326.96 232.897 326.743 232.881 326.525 232.881C326.023 232.881 325.576 232.987 325.183 233.2C324.794 233.409 324.487 233.7 324.259 234.074C324.032 234.443 323.918 234.865 323.918 235.338V242H321.795ZM332.548 242.241C331.856 242.241 331.231 242.114 330.673 241.858C330.114 241.598 329.671 241.221 329.344 240.729C329.022 240.236 328.862 239.633 328.862 238.918C328.862 238.302 328.98 237.795 329.217 237.398C329.453 237 329.773 236.685 330.175 236.453C330.578 236.221 331.028 236.046 331.525 235.928C332.022 235.809 332.529 235.719 333.045 235.658C333.698 235.582 334.228 235.52 334.636 235.473C335.043 235.421 335.339 235.338 335.523 235.224C335.708 235.111 335.8 234.926 335.8 234.67V234.621C335.8 234 335.625 233.52 335.275 233.179C334.929 232.838 334.413 232.668 333.727 232.668C333.012 232.668 332.448 232.826 332.036 233.143C331.629 233.456 331.347 233.804 331.191 234.188L329.195 233.733C329.432 233.07 329.778 232.535 330.232 232.128C330.692 231.716 331.219 231.418 331.816 231.233C332.413 231.044 333.04 230.949 333.698 230.949C334.134 230.949 334.595 231.001 335.083 231.105C335.576 231.205 336.035 231.389 336.461 231.659C336.892 231.929 337.245 232.315 337.519 232.817C337.794 233.314 337.931 233.96 337.931 234.756V242H335.857V240.509H335.772C335.635 240.783 335.429 241.053 335.154 241.318C334.879 241.583 334.527 241.804 334.096 241.979C333.665 242.154 333.149 242.241 332.548 242.241ZM333.009 240.537C333.596 240.537 334.098 240.421 334.515 240.189C334.936 239.957 335.256 239.654 335.474 239.28C335.696 238.901 335.808 238.496 335.808 238.065V236.659C335.732 236.735 335.585 236.806 335.367 236.872C335.154 236.934 334.91 236.988 334.636 237.036C334.361 237.078 334.094 237.118 333.833 237.156C333.573 237.189 333.355 237.218 333.18 237.241C332.768 237.294 332.391 237.381 332.05 237.504C331.714 237.627 331.444 237.805 331.241 238.037C331.042 238.264 330.942 238.567 330.942 238.946C330.942 239.472 331.137 239.869 331.525 240.139C331.913 240.404 332.408 240.537 333.009 240.537ZM345.852 231.091V232.795H339.893V231.091H345.852ZM341.491 228.477H343.615V238.797C343.615 239.209 343.676 239.519 343.799 239.727C343.922 239.931 344.081 240.071 344.275 240.146C344.474 240.217 344.69 240.253 344.922 240.253C345.092 240.253 345.241 240.241 345.369 240.217C345.497 240.194 345.596 240.175 345.667 240.161L346.051 241.915C345.928 241.962 345.752 242.009 345.525 242.057C345.298 242.109 345.014 242.137 344.673 242.142C344.114 242.152 343.593 242.052 343.11 241.844C342.627 241.635 342.237 241.313 341.939 240.878C341.64 240.442 341.491 239.895 341.491 239.237V228.477ZM352.786 242.22C351.711 242.22 350.785 241.991 350.009 241.531C349.237 241.067 348.64 240.416 348.219 239.578C347.802 238.735 347.594 237.748 347.594 236.616C347.594 235.499 347.802 234.514 348.219 233.662C348.64 232.81 349.227 232.144 349.98 231.666C350.738 231.188 351.623 230.949 352.636 230.949C353.252 230.949 353.848 231.051 354.426 231.254C355.004 231.458 355.522 231.777 355.982 232.213C356.441 232.649 356.803 233.214 357.068 233.911C357.333 234.602 357.466 235.442 357.466 236.432V237.185H348.794V235.594H355.385C355.385 235.035 355.271 234.54 355.044 234.109C354.817 233.674 354.497 233.33 354.085 233.08C353.678 232.829 353.2 232.703 352.651 232.703C352.054 232.703 351.533 232.85 351.088 233.143C350.648 233.432 350.307 233.811 350.065 234.28C349.829 234.744 349.71 235.248 349.71 235.793V237.036C349.71 237.765 349.838 238.385 350.094 238.896C350.354 239.408 350.716 239.798 351.18 240.068C351.644 240.333 352.187 240.466 352.807 240.466C353.209 240.466 353.576 240.409 353.908 240.295C354.239 240.177 354.526 240.002 354.767 239.77C355.009 239.538 355.193 239.251 355.321 238.911L357.331 239.273C357.17 239.865 356.881 240.383 356.464 240.828C356.053 241.268 355.534 241.612 354.909 241.858C354.289 242.099 353.581 242.22 352.786 242.22Z" fill="black"/>
<path d="M30.8267 108H28.4972L33.7315 93.4545H36.267L41.5014 108H39.1719L35.0597 96.0966H34.946L30.8267 108ZM31.2173 102.304H38.7741V104.151H31.2173V102.304ZM45.555 93.4545V108H43.4315V93.4545H45.555ZM48.4119 112.091V97.0909H50.4858V98.8594H50.6634C50.7865 98.6321 50.964 98.3693 51.196 98.071C51.428 97.7727 51.75 97.5123 52.1619 97.2898C52.5739 97.0625 53.1184 96.9489 53.7955 96.9489C54.6761 96.9489 55.4621 97.1714 56.1534 97.6165C56.8447 98.0616 57.3868 98.7031 57.7798 99.5412C58.1776 100.379 58.3764 101.388 58.3764 102.567C58.3764 103.746 58.1799 104.757 57.7869 105.599C57.3939 106.437 56.8542 107.084 56.1676 107.538C55.4811 107.988 54.6974 108.213 53.8168 108.213C53.1539 108.213 52.6117 108.102 52.1903 107.879C51.7737 107.657 51.447 107.396 51.2102 107.098C50.9735 106.8 50.7912 106.535 50.6634 106.303H50.5355V112.091H48.4119ZM50.4929 102.545C50.4929 103.312 50.6042 103.985 50.8267 104.562C51.0492 105.14 51.3712 105.592 51.7926 105.919C52.214 106.241 52.7301 106.402 53.3409 106.402C53.9754 106.402 54.5057 106.234 54.9318 105.898C55.358 105.557 55.6799 105.095 55.8977 104.513C56.1203 103.93 56.2315 103.275 56.2315 102.545C56.2315 101.826 56.1226 101.179 55.9048 100.607C55.6918 100.034 55.3698 99.5814 54.9389 99.25C54.5128 98.9186 53.9801 98.7528 53.3409 98.7528C52.7254 98.7528 52.2045 98.9115 51.7784 99.2287C51.357 99.5459 51.0374 99.9886 50.8196 100.557C50.6018 101.125 50.4929 101.788 50.4929 102.545ZM60.7557 108V97.0909H62.8793V108H60.7557ZM61.8281 95.4077C61.4588 95.4077 61.1416 95.2846 60.8764 95.0384C60.616 94.7874 60.4858 94.4891 60.4858 94.1435C60.4858 93.7931 60.616 93.4948 60.8764 93.2486C61.1416 92.9976 61.4588 92.8722 61.8281 92.8722C62.1974 92.8722 62.5123 92.9976 62.7727 93.2486C63.0379 93.4948 63.1705 93.7931 63.1705 94.1435C63.1705 94.4891 63.0379 94.7874 62.7727 95.0384C62.5123 95.2846 62.1974 95.4077 61.8281 95.4077ZM67.8597 101.523V108H65.7362V97.0909H67.7745V98.8665H67.9094C68.1604 98.2888 68.5534 97.8248 69.0884 97.4744C69.6282 97.1241 70.3076 96.9489 71.1268 96.9489C71.8701 96.9489 72.5212 97.1051 73.0799 97.4176C73.6386 97.7254 74.0719 98.1847 74.3796 98.7955C74.6874 99.4062 74.8413 100.161 74.8413 101.061V108H72.7177V101.317C72.7177 100.526 72.5117 99.9081 72.0998 99.4631C71.6879 99.0133 71.122 98.7884 70.4023 98.7884C69.9099 98.7884 69.4719 98.8949 69.0884 99.108C68.7096 99.321 68.409 99.6335 68.1864 100.045C67.9686 100.453 67.8597 100.945 67.8597 101.523ZM82.391 108.22C81.3162 108.22 80.3905 107.991 79.614 107.531C78.8422 107.067 78.2456 106.416 77.8242 105.578C77.4076 104.735 77.1992 103.748 77.1992 102.616C77.1992 101.499 77.4076 100.514 77.8242 99.6619C78.2456 98.8097 78.8327 98.1444 79.5856 97.6662C80.3432 97.188 81.2286 96.9489 82.2418 96.9489C82.8574 96.9489 83.454 97.0507 84.0316 97.2543C84.6093 97.4579 85.1277 97.7775 85.587 98.2131C86.0463 98.6487 86.4085 99.2145 86.6737 99.9105C86.9388 100.602 87.0714 101.442 87.0714 102.432V103.185H78.3995V101.594H84.9904C84.9904 101.035 84.8768 100.54 84.6495 100.109C84.4222 99.6738 84.1026 99.3305 83.6907 99.0795C83.2835 98.8286 82.8053 98.7031 82.256 98.7031C81.6594 98.7031 81.1386 98.8499 80.6935 99.1435C80.2532 99.4323 79.9123 99.8111 79.6708 100.28C79.4341 100.744 79.3157 101.248 79.3157 101.793V103.036C79.3157 103.765 79.4435 104.385 79.6992 104.896C79.9596 105.408 80.3219 105.798 80.7859 106.068C81.2499 106.333 81.792 106.466 82.4123 106.466C82.8147 106.466 83.1817 106.409 83.5131 106.295C83.8446 106.177 84.131 106.002 84.3725 105.77C84.614 105.538 84.7987 105.251 84.9265 104.911L86.9364 105.273C86.7754 105.865 86.4866 106.383 86.07 106.828C85.658 107.268 85.1396 107.612 84.5146 107.858C83.8943 108.099 83.1864 108.22 82.391 108.22Z" fill="black"/>
<path d="M27.8807 163.344V161.455H39.1378V163.344H34.5994V176H32.4119V163.344H27.8807ZM40.3221 176V165.091H42.3746V166.824H42.4883C42.6871 166.237 43.0375 165.775 43.5394 165.439C44.046 165.098 44.619 164.928 45.2582 164.928C45.3907 164.928 45.547 164.932 45.7269 164.942C45.9116 164.951 46.056 164.963 46.1602 164.977V167.009C46.0749 166.985 45.9234 166.959 45.7056 166.93C45.4878 166.897 45.27 166.881 45.0522 166.881C44.5503 166.881 44.1029 166.987 43.7099 167.2C43.3216 167.409 43.0138 167.7 42.7866 168.074C42.5593 168.443 42.4457 168.865 42.4457 169.338V176H40.3221ZM52.3089 176.22C51.2341 176.22 50.3085 175.991 49.532 175.531C48.7602 175.067 48.1636 174.416 47.7422 173.578C47.3255 172.735 47.1172 171.748 47.1172 170.616C47.1172 169.499 47.3255 168.514 47.7422 167.662C48.1636 166.81 48.7507 166.144 49.5036 165.666C50.2611 165.188 51.1465 164.949 52.1598 164.949C52.7753 164.949 53.3719 165.051 53.9496 165.254C54.5272 165.458 55.0457 165.777 55.505 166.213C55.9643 166.649 56.3265 167.214 56.5916 167.911C56.8568 168.602 56.9893 169.442 56.9893 170.432V171.185H48.3175V169.594H54.9084C54.9084 169.035 54.7947 168.54 54.5675 168.109C54.3402 167.674 54.0206 167.33 53.6087 167.08C53.2015 166.829 52.7232 166.703 52.174 166.703C51.5774 166.703 51.0566 166.85 50.6115 167.143C50.1712 167.432 49.8303 167.811 49.5888 168.28C49.352 168.744 49.2337 169.248 49.2337 169.793V171.036C49.2337 171.765 49.3615 172.385 49.6172 172.896C49.8776 173.408 50.2398 173.798 50.7038 174.068C51.1679 174.333 51.71 174.466 52.3303 174.466C52.7327 174.466 53.0997 174.409 53.4311 174.295C53.7625 174.177 54.049 174.002 54.2905 173.77C54.532 173.538 54.7166 173.251 54.8445 172.911L56.8544 173.273C56.6934 173.865 56.4046 174.383 55.9879 174.828C55.576 175.268 55.0575 175.612 54.4325 175.858C53.8123 176.099 53.1044 176.22 52.3089 176.22ZM64.0472 176.22C62.9724 176.22 62.0468 175.991 61.2702 175.531C60.4985 175.067 59.9019 174.416 59.4805 173.578C59.0638 172.735 58.8555 171.748 58.8555 170.616C58.8555 169.499 59.0638 168.514 59.4805 167.662C59.9019 166.81 60.489 166.144 61.2418 165.666C61.9994 165.188 62.8848 164.949 63.8981 164.949C64.5136 164.949 65.1102 165.051 65.6879 165.254C66.2655 165.458 66.784 165.777 67.2433 166.213C67.7025 166.649 68.0647 167.214 68.3299 167.911C68.5951 168.602 68.7276 169.442 68.7276 170.432V171.185H60.0558V169.594H66.6467C66.6467 169.035 66.533 168.54 66.3058 168.109C66.0785 167.674 65.7589 167.33 65.3469 167.08C64.9397 166.829 64.4615 166.703 63.9123 166.703C63.3157 166.703 62.7949 166.85 62.3498 167.143C61.9094 167.432 61.5685 167.811 61.3271 168.28C61.0903 168.744 60.9719 169.248 60.9719 169.793V171.036C60.9719 171.765 61.0998 172.385 61.3555 172.896C61.6159 173.408 61.9781 173.798 62.4421 174.068C62.9061 174.333 63.4483 174.466 64.0685 174.466C64.471 174.466 64.838 174.409 65.1694 174.295C65.5008 174.177 65.7873 174.002 66.0288 173.77C66.2702 173.538 66.4549 173.251 66.5827 172.911L68.5927 173.273C68.4317 173.865 68.1429 174.383 67.7262 174.828C67.3143 175.268 66.7958 175.612 66.1708 175.858C65.5505 176.099 64.8427 176.22 64.0472 176.22ZM78.5004 161.455V176H76.3768V161.455H78.5004ZM81.3572 176V165.091H83.4808V176H81.3572ZM82.4297 163.408C82.0604 163.408 81.7431 163.285 81.478 163.038C81.2176 162.787 81.0874 162.489 81.0874 162.143C81.0874 161.793 81.2176 161.495 81.478 161.249C81.7431 160.998 82.0604 160.872 82.4297 160.872C82.799 160.872 83.1139 160.998 83.3743 161.249C83.6394 161.495 83.772 161.793 83.772 162.143C83.772 162.489 83.6394 162.787 83.3743 163.038C83.1139 163.285 82.799 163.408 82.4297 163.408ZM88.4613 169.523V176H86.3377V165.091H88.3761V166.866H88.511C88.762 166.289 89.1549 165.825 89.69 165.474C90.2298 165.124 90.9092 164.949 91.7283 164.949C92.4717 164.949 93.1228 165.105 93.6815 165.418C94.2402 165.725 94.6734 166.185 94.9812 166.795C95.2889 167.406 95.4428 168.161 95.4428 169.061V176H93.3192V169.317C93.3192 168.526 93.1133 167.908 92.7013 167.463C92.2894 167.013 91.7236 166.788 91.0039 166.788C90.5115 166.788 90.0735 166.895 89.69 167.108C89.3112 167.321 89.0105 167.634 88.788 168.045C88.5702 168.453 88.4613 168.945 88.4613 169.523ZM102.993 176.22C101.918 176.22 100.992 175.991 100.216 175.531C99.4438 175.067 98.8472 174.416 98.4258 173.578C98.0091 172.735 97.8008 171.748 97.8008 170.616C97.8008 169.499 98.0091 168.514 98.4258 167.662C98.8472 166.81 99.4343 166.144 100.187 165.666C100.945 165.188 101.83 164.949 102.843 164.949C103.459 164.949 104.056 165.051 104.633 165.254C105.211 165.458 105.729 165.777 106.189 166.213C106.648 166.649 107.01 167.214 107.275 167.911C107.54 168.602 107.673 169.442 107.673 170.432V171.185H99.0011V169.594H105.592C105.592 169.035 105.478 168.54 105.251 168.109C105.024 167.674 104.704 167.33 104.292 167.08C103.885 166.829 103.407 166.703 102.858 166.703C102.261 166.703 101.74 166.85 101.295 167.143C100.855 167.432 100.514 167.811 100.272 168.28C100.036 168.744 99.9173 169.248 99.9173 169.793V171.036C99.9173 171.765 100.045 172.385 100.301 172.896C100.561 173.408 100.923 173.798 101.387 174.068C101.851 174.333 102.394 174.466 103.014 174.466C103.416 174.466 103.783 174.409 104.115 174.295C104.446 174.177 104.733 174.002 104.974 173.77C105.216 173.538 105.4 173.251 105.528 172.911L107.538 173.273C107.377 173.865 107.088 174.383 106.672 174.828C106.26 175.268 105.741 175.612 105.116 175.858C104.496 176.099 103.788 176.22 102.993 176.22Z" fill="black"/>
<path d="M29.598 242V227.455H34.9247C35.9569 227.455 36.8116 227.625 37.4886 227.966C38.1657 228.302 38.6723 228.759 39.0085 229.337C39.3447 229.91 39.5128 230.556 39.5128 231.276C39.5128 231.882 39.4015 232.393 39.179 232.81C38.9564 233.222 38.6581 233.553 38.2841 233.804C37.9148 234.05 37.5076 234.23 37.0625 234.344V234.486C37.5455 234.509 38.0166 234.666 38.4759 234.955C38.9399 235.239 39.3234 235.643 39.6264 236.169C39.9295 236.695 40.081 237.334 40.081 238.087C40.081 238.83 39.9058 239.498 39.5554 240.089C39.2098 240.677 38.6747 241.143 37.9503 241.489C37.2259 241.83 36.3002 242 35.1733 242H29.598ZM31.7926 240.118H34.9602C36.0114 240.118 36.7642 239.914 37.2188 239.507C37.6733 239.1 37.9006 238.591 37.9006 237.98C37.9006 237.521 37.7846 237.099 37.5526 236.716C37.3205 236.332 36.9891 236.027 36.5582 235.8C36.1321 235.572 35.6255 235.459 35.0384 235.459H31.7926V240.118ZM31.7926 233.747H34.733C35.2254 233.747 35.6681 233.652 36.0611 233.463C36.4588 233.274 36.7737 233.009 37.0057 232.668C37.2424 232.322 37.3608 231.915 37.3608 231.446C37.3608 230.845 37.1501 230.34 36.7287 229.933C36.3073 229.526 35.661 229.322 34.7898 229.322H31.7926V233.747ZM47.2152 242.22C46.1404 242.22 45.2147 241.991 44.4382 241.531C43.6664 241.067 43.0698 240.416 42.6484 239.578C42.2318 238.735 42.0234 237.748 42.0234 236.616C42.0234 235.499 42.2318 234.514 42.6484 233.662C43.0698 232.81 43.657 232.144 44.4098 231.666C45.1674 231.188 46.0528 230.949 47.0661 230.949C47.6816 230.949 48.2782 231.051 48.8558 231.254C49.4335 231.458 49.9519 231.777 50.4112 232.213C50.8705 232.649 51.2327 233.214 51.4979 233.911C51.763 234.602 51.8956 235.442 51.8956 236.432V237.185H43.2237V235.594H49.8146C49.8146 235.035 49.701 234.54 49.4737 234.109C49.2464 233.674 48.9268 233.33 48.5149 233.08C48.1077 232.829 47.6295 232.703 47.0803 232.703C46.4837 232.703 45.9628 232.85 45.5178 233.143C45.0774 233.432 44.7365 233.811 44.495 234.28C44.2583 234.744 44.1399 235.248 44.1399 235.793V237.036C44.1399 237.765 44.2678 238.385 44.5234 238.896C44.7839 239.408 45.1461 239.798 45.6101 240.068C46.0741 240.333 46.6162 240.466 47.2365 240.466C47.639 240.466 48.0059 240.409 48.3374 240.295C48.6688 240.177 48.9553 240.002 49.1967 239.77C49.4382 239.538 49.6229 239.251 49.7507 238.911L51.7607 239.273C51.5997 239.865 51.3108 240.383 50.8942 240.828C50.4822 241.268 49.9638 241.612 49.3388 241.858C48.7185 242.099 48.0107 242.22 47.2152 242.22ZM56.3754 227.455V242H54.2518V227.455H56.3754ZM63.8274 242.22C62.8047 242.22 61.9122 241.986 61.1499 241.517C60.3875 241.048 59.7957 240.393 59.3743 239.55C58.9529 238.707 58.7422 237.722 58.7422 236.595C58.7422 235.464 58.9529 234.474 59.3743 233.626C59.7957 232.779 60.3875 232.121 61.1499 231.652C61.9122 231.183 62.8047 230.949 63.8274 230.949C64.8501 230.949 65.7427 231.183 66.505 231.652C67.2673 232.121 67.8591 232.779 68.2805 233.626C68.7019 234.474 68.9126 235.464 68.9126 236.595C68.9126 237.722 68.7019 238.707 68.2805 239.55C67.8591 240.393 67.2673 241.048 66.505 241.517C65.7427 241.986 64.8501 242.22 63.8274 242.22ZM63.8345 240.438C64.4974 240.438 65.0466 240.262 65.4822 239.912C65.9179 239.562 66.2398 239.095 66.4482 238.513C66.6612 237.93 66.7678 237.289 66.7678 236.588C66.7678 235.892 66.6612 235.253 66.4482 234.67C66.2398 234.083 65.9179 233.612 65.4822 233.257C65.0466 232.902 64.4974 232.724 63.8345 232.724C63.1669 232.724 62.6129 232.902 62.1726 233.257C61.737 233.612 61.4126 234.083 61.1996 234.67C60.9912 235.253 60.8871 235.892 60.8871 236.588C60.8871 237.289 60.9912 237.93 61.1996 238.513C61.4126 239.095 61.737 239.562 62.1726 239.912C62.6129 240.262 63.1669 240.438 63.8345 240.438ZM73.3161 242L70.1058 231.091H72.3004L74.4382 239.102H74.5447L76.6896 231.091H78.8842L81.0149 239.067H81.1214L83.245 231.091H85.4396L82.2365 242H80.0703L77.8544 234.124H77.6911L75.4751 242H73.3161ZM97.8402 231.091V232.795H91.8814V231.091H97.8402ZM93.4794 228.477H95.603V238.797C95.603 239.209 95.6645 239.519 95.7876 239.727C95.9107 239.931 96.0694 240.071 96.2635 240.146C96.4624 240.217 96.6778 240.253 96.9098 240.253C97.0803 240.253 97.2294 240.241 97.3572 240.217C97.4851 240.194 97.5845 240.175 97.6555 240.161L98.0391 241.915C97.916 241.962 97.7408 242.009 97.5135 242.057C97.2862 242.109 97.0021 242.137 96.6612 242.142C96.1025 242.152 95.5817 242.052 95.0987 241.844C94.6158 241.635 94.2251 241.313 93.9268 240.878C93.6286 240.442 93.4794 239.895 93.4794 239.237V228.477ZM100.189 242V231.091H102.242V232.824H102.355C102.554 232.237 102.905 231.775 103.407 231.439C103.913 231.098 104.486 230.928 105.125 230.928C105.258 230.928 105.414 230.932 105.594 230.942C105.779 230.951 105.923 230.963 106.027 230.977V233.009C105.942 232.985 105.791 232.959 105.573 232.93C105.355 232.897 105.137 232.881 104.919 232.881C104.417 232.881 103.97 232.987 103.577 233.2C103.189 233.409 102.881 233.7 102.654 234.074C102.426 234.443 102.313 234.865 102.313 235.338V242H100.189ZM112.176 242.22C111.101 242.22 110.176 241.991 109.399 241.531C108.627 241.067 108.031 240.416 107.609 239.578C107.193 238.735 106.984 237.748 106.984 236.616C106.984 235.499 107.193 234.514 107.609 233.662C108.031 232.81 108.618 232.144 109.371 231.666C110.128 231.188 111.014 230.949 112.027 230.949C112.643 230.949 113.239 231.051 113.817 231.254C114.394 231.458 114.913 231.777 115.372 232.213C115.831 232.649 116.194 233.214 116.459 233.911C116.724 234.602 116.857 235.442 116.857 236.432V237.185H108.185V235.594H114.776C114.776 235.035 114.662 234.54 114.435 234.109C114.207 233.674 113.888 233.33 113.476 233.08C113.069 232.829 112.59 232.703 112.041 232.703C111.445 232.703 110.924 232.85 110.479 233.143C110.038 233.432 109.697 233.811 109.456 234.28C109.219 234.744 109.101 235.248 109.101 235.793V237.036C109.101 237.765 109.229 238.385 109.484 238.896C109.745 239.408 110.107 239.798 110.571 240.068C111.035 240.333 111.577 240.466 112.197 240.466C112.6 240.466 112.967 240.409 113.298 240.295C113.63 240.177 113.916 240.002 114.158 239.77C114.399 239.538 114.584 239.251 114.712 238.911L116.722 239.273C116.561 239.865 116.272 240.383 115.855 240.828C115.443 241.268 114.925 241.612 114.3 241.858C113.679 242.099 112.972 242.22 112.176 242.22ZM123.914 242.22C122.84 242.22 121.914 241.991 121.137 241.531C120.366 241.067 119.769 240.416 119.348 239.578C118.931 238.735 118.723 237.748 118.723 236.616C118.723 235.499 118.931 234.514 119.348 233.662C119.769 232.81 120.356 232.144 121.109 231.666C121.867 231.188 122.752 230.949 123.765 230.949C124.381 230.949 124.977 231.051 125.555 231.254C126.133 231.458 126.651 231.777 127.11 232.213C127.57 232.649 127.932 233.214 128.197 233.911C128.462 234.602 128.595 235.442 128.595 236.432V237.185H119.923V235.594H126.514C126.514 235.035 126.4 234.54 126.173 234.109C125.946 233.674 125.626 233.33 125.214 233.08C124.807 232.829 124.329 232.703 123.779 232.703C123.183 232.703 122.662 232.85 122.217 233.143C121.777 233.432 121.436 233.811 121.194 234.28C120.958 234.744 120.839 235.248 120.839 235.793V237.036C120.839 237.765 120.967 238.385 121.223 238.896C121.483 239.408 121.845 239.798 122.309 240.068C122.773 240.333 123.315 240.466 123.936 240.466C124.338 240.466 124.705 240.409 125.037 240.295C125.368 240.177 125.654 240.002 125.896 239.77C126.137 239.538 126.322 239.251 126.45 238.911L128.46 239.273C128.299 239.865 128.01 240.383 127.593 240.828C127.181 241.268 126.663 241.612 126.038 241.858C125.418 242.099 124.71 242.22 123.914 242.22ZM138.368 227.455V242H136.244V227.455H138.368ZM141.224 242V231.091H143.348V242H141.224ZM142.297 229.408C141.928 229.408 141.61 229.285 141.345 229.038C141.085 228.787 140.955 228.489 140.955 228.143C140.955 227.793 141.085 227.495 141.345 227.249C141.61 226.998 141.928 226.872 142.297 226.872C142.666 226.872 142.981 226.998 143.241 227.249C143.507 227.495 143.639 227.793 143.639 228.143C143.639 228.489 143.507 228.787 143.241 229.038C142.981 229.285 142.666 229.408 142.297 229.408ZM148.328 235.523V242H146.205V231.091H148.243V232.866H148.378C148.629 232.289 149.022 231.825 149.557 231.474C150.097 231.124 150.776 230.949 151.596 230.949C152.339 230.949 152.99 231.105 153.549 231.418C154.107 231.725 154.541 232.185 154.848 232.795C155.156 233.406 155.31 234.161 155.31 235.061V242H153.186V235.317C153.186 234.526 152.98 233.908 152.569 233.463C152.157 233.013 151.591 232.788 150.871 232.788C150.379 232.788 149.941 232.895 149.557 233.108C149.178 233.321 148.878 233.634 148.655 234.045C148.437 234.453 148.328 234.945 148.328 235.523ZM162.86 242.22C161.785 242.22 160.859 241.991 160.083 241.531C159.311 241.067 158.714 240.416 158.293 239.578C157.876 238.735 157.668 237.748 157.668 236.616C157.668 235.499 157.876 234.514 158.293 233.662C158.714 232.81 159.301 232.144 160.054 231.666C160.812 231.188 161.697 230.949 162.711 230.949C163.326 230.949 163.923 231.051 164.5 231.254C165.078 231.458 165.596 231.777 166.056 232.213C166.515 232.649 166.877 233.214 167.142 233.911C167.408 234.602 167.54 235.442 167.54 236.432V237.185H158.868V235.594H165.459C165.459 235.035 165.346 234.54 165.118 234.109C164.891 233.674 164.571 233.33 164.159 233.08C163.752 232.829 163.274 232.703 162.725 232.703C162.128 232.703 161.607 232.85 161.162 233.143C160.722 233.432 160.381 233.811 160.14 234.28C159.903 234.744 159.784 235.248 159.784 235.793V237.036C159.784 237.765 159.912 238.385 160.168 238.896C160.428 239.408 160.791 239.798 161.255 240.068C161.719 240.333 162.261 240.466 162.881 240.466C163.283 240.466 163.65 240.409 163.982 240.295C164.313 240.177 164.6 240.002 164.841 239.77C165.083 239.538 165.267 239.251 165.395 238.911L167.405 239.273C167.244 239.865 166.955 240.383 166.539 240.828C166.127 241.268 165.608 241.612 164.983 241.858C164.363 242.099 163.655 242.22 162.86 242.22Z" fill="black"/>
<rect x="1" y="1" width="673" height="266" rx="29" stroke="black" stroke-width="2"/>
<path d="M214.5 1V267" stroke="black" stroke-width="2"/>
<path d="M2 134L674 134" stroke="black" stroke-width="2"/>
<path d="M215 200H674" stroke="black" stroke-width="2"/>
<path d="M215 200L1 200" stroke="black" stroke-width="2"/>
<path d="M0 32C0 15.4315 13.4315 2 30 2H645C661.569 2 675 15.4315 675 32V68H0V32Z" fill="black"/>
<path d="M25.8807 29.3438V27.4545H37.1378V29.3438H32.5994V42H30.4119V29.3438H25.8807ZM41.5785 35.5227V42H39.4549V27.4545H41.5501V32.8665H41.685C41.9407 32.2794 42.3313 31.813 42.8569 31.4673C43.3825 31.1217 44.069 30.9489 44.9165 30.9489C45.6647 30.9489 46.3181 31.1027 46.8768 31.4105C47.4402 31.7183 47.8758 32.1776 48.1836 32.7884C48.4961 33.3944 48.6523 34.152 48.6523 35.0611V42H46.5288V35.3168C46.5288 34.5166 46.3228 33.8963 45.9109 33.456C45.4989 33.0109 44.926 32.7884 44.1921 32.7884C43.6902 32.7884 43.2404 32.8949 42.8427 33.108C42.4497 33.321 42.1396 33.6335 41.9123 34.0455C41.6897 34.4527 41.5785 34.9451 41.5785 35.5227ZM58.3967 37.4759V31.0909H60.5273V42H58.4393V40.1108H58.3256C58.0747 40.6932 57.6722 41.1785 57.1183 41.5668C56.569 41.9503 55.8848 42.142 55.0657 42.142C54.3649 42.142 53.7447 41.9882 53.2049 41.6804C52.6699 41.3679 52.2485 40.9062 51.9407 40.2955C51.6377 39.6847 51.4862 38.9295 51.4862 38.0298V31.0909H53.6097V37.7741C53.6097 38.5175 53.8157 39.1094 54.2276 39.5497C54.6396 39.9901 55.1746 40.2102 55.8327 40.2102C56.2305 40.2102 56.6258 40.1108 57.0188 39.9119C57.4165 39.7131 57.7456 39.4124 58.006 39.0099C58.2712 38.6075 58.4014 38.0961 58.3967 37.4759ZM63.3807 42V31.0909H65.4332V32.8239H65.5469C65.7457 32.2367 66.0961 31.7751 66.598 31.4389C67.1046 31.098 67.6776 30.9276 68.3168 30.9276C68.4493 30.9276 68.6056 30.9323 68.7855 30.9418C68.9702 30.9512 69.1146 30.9631 69.2188 30.9773V33.0085C69.1335 32.9848 68.982 32.9588 68.7642 32.9304C68.5464 32.8973 68.3286 32.8807 68.1108 32.8807C67.6089 32.8807 67.1615 32.9872 66.7685 33.2003C66.3802 33.4086 66.0724 33.6998 65.8452 34.0739C65.6179 34.4432 65.5043 34.8646 65.5043 35.3381V42H63.3807ZM79.2312 33.7543L77.3065 34.0952C77.226 33.849 77.0981 33.6146 76.9229 33.392C76.7525 33.1695 76.5205 32.9872 76.2269 32.8452C75.9334 32.7031 75.5664 32.6321 75.1261 32.6321C74.5247 32.6321 74.0228 32.767 73.6204 33.0369C73.2179 33.3021 73.0167 33.6454 73.0167 34.0668C73.0167 34.4313 73.1516 34.7249 73.4215 34.9474C73.6914 35.17 74.127 35.3523 74.7283 35.4943L76.4613 35.892C77.4651 36.1241 78.2132 36.4815 78.7056 36.9645C79.198 37.4474 79.4442 38.0748 79.4442 38.8466C79.4442 39.5 79.2549 40.0824 78.8761 40.5938C78.502 41.1004 77.9788 41.4981 77.3065 41.7869C76.6388 42.0758 75.8647 42.2202 74.984 42.2202C73.7624 42.2202 72.7657 41.9598 71.994 41.4389C71.2222 40.9134 70.7487 40.1676 70.5735 39.2017L72.6261 38.8892C72.7539 39.4242 73.0167 39.8291 73.4144 40.1037C73.8121 40.3736 74.3306 40.5085 74.9698 40.5085C75.6658 40.5085 76.2222 40.3641 76.6388 40.0753C77.0555 39.7817 77.2638 39.4242 77.2638 39.0028C77.2638 38.6619 77.136 38.3755 76.8803 38.1435C76.6294 37.9115 76.2435 37.7363 75.7227 37.6179L73.8761 37.2131C72.8581 36.9811 72.1052 36.6117 71.6175 36.1051C71.1346 35.5985 70.8931 34.9569 70.8931 34.1804C70.8931 33.5365 71.073 32.973 71.4329 32.4901C71.7927 32.0071 72.2899 31.6307 72.9244 31.3608C73.5588 31.0862 74.2856 30.9489 75.1048 30.9489C76.2837 30.9489 77.2118 31.2045 77.8888 31.7159C78.5659 32.2225 79.0134 32.902 79.2312 33.7543ZM85.8629 42.2131C84.9822 42.2131 84.1963 41.9882 83.505 41.5384C82.8184 41.0838 82.2786 40.4375 81.8857 39.5994C81.4974 38.7566 81.3033 37.7457 81.3033 36.5668C81.3033 35.3878 81.4998 34.3793 81.8928 33.5412C82.2905 32.7031 82.835 32.0616 83.5263 31.6165C84.2176 31.1714 85.0012 30.9489 85.8771 30.9489C86.5542 30.9489 87.0987 31.0625 87.5107 31.2898C87.9273 31.5123 88.2493 31.7727 88.4766 32.071C88.7086 32.3693 88.8885 32.6321 89.0163 32.8594H89.1442V27.4545H91.2678V42H89.1939V40.3026H89.0163C88.8885 40.5346 88.7038 40.7997 88.4624 41.098C88.2256 41.3963 87.8989 41.6567 87.4822 41.8793C87.0656 42.1018 86.5258 42.2131 85.8629 42.2131ZM86.3317 40.402C86.9425 40.402 87.4586 40.241 87.88 39.919C88.3061 39.5923 88.6281 39.1402 88.8459 38.5625C89.0684 37.9848 89.1797 37.3125 89.1797 36.5455C89.1797 35.7879 89.0708 35.125 88.853 34.5568C88.6352 33.9886 88.3156 33.5459 87.8942 33.2287C87.4728 32.9115 86.9519 32.7528 86.3317 32.7528C85.6925 32.7528 85.1598 32.9186 84.7337 33.25C84.3075 33.5814 83.9856 34.0336 83.7678 34.6065C83.5547 35.1795 83.4482 35.8258 83.4482 36.5455C83.4482 37.2746 83.5571 37.9304 83.7749 38.5128C83.9927 39.0952 84.3146 39.5568 84.7408 39.8977C85.1716 40.2339 85.7019 40.402 86.3317 40.402ZM97.4734 42.2415C96.7821 42.2415 96.1571 42.1136 95.5984 41.858C95.0397 41.5975 94.5969 41.2211 94.2702 40.7287C93.9483 40.2363 93.7873 39.6326 93.7873 38.9176C93.7873 38.3021 93.9057 37.7955 94.1424 37.3977C94.3791 37 94.6987 36.6851 95.1012 36.4531C95.5037 36.2211 95.9535 36.0459 96.4506 35.9276C96.9478 35.8092 97.4544 35.7192 97.9705 35.6577C98.6239 35.5819 99.1542 35.5204 99.5614 35.473C99.9686 35.4209 100.265 35.3381 100.449 35.2244C100.634 35.1108 100.726 34.9261 100.726 34.6705V34.6207C100.726 34.0005 100.551 33.5199 100.201 33.179C99.855 32.8381 99.3389 32.6676 98.6523 32.6676C97.9374 32.6676 97.3739 32.8262 96.962 33.1435C96.5548 33.456 96.2731 33.804 96.1168 34.1875L94.1211 33.733C94.3578 33.0701 94.7035 32.535 95.158 32.1278C95.6173 31.7159 96.1452 31.4176 96.7418 31.233C97.3384 31.0436 97.9658 30.9489 98.6239 30.9489C99.0595 30.9489 99.5212 31.0009 100.009 31.1051C100.501 31.2045 100.961 31.3892 101.387 31.6591C101.818 31.929 102.17 32.3149 102.445 32.8168C102.72 33.3139 102.857 33.9602 102.857 34.7557V42H100.783V40.5085H100.698C100.56 40.7831 100.355 41.053 100.08 41.3182C99.8053 41.5833 99.4525 41.8035 99.0217 41.9787C98.5908 42.1539 98.0747 42.2415 97.4734 42.2415ZM97.935 40.5369C98.5221 40.5369 99.024 40.4209 99.4407 40.1889C99.8621 39.9569 100.182 39.6539 100.4 39.2798C100.622 38.901 100.733 38.4962 100.733 38.0653V36.6591C100.658 36.7348 100.511 36.8059 100.293 36.8722C100.08 36.9337 99.8361 36.9882 99.5614 37.0355C99.2868 37.0781 99.0193 37.1184 98.7589 37.1562C98.4985 37.1894 98.2807 37.2178 98.1055 37.2415C97.6935 37.2936 97.3171 37.3812 96.9762 37.5043C96.64 37.6274 96.3701 37.8049 96.1665 38.0369C95.9677 38.2642 95.8683 38.5672 95.8683 38.946C95.8683 39.4716 96.0624 39.8693 96.4506 40.1392C96.8389 40.4044 97.3337 40.5369 97.935 40.5369ZM106.637 46.0909C106.32 46.0909 106.031 46.0649 105.771 46.0128C105.51 45.9654 105.316 45.9134 105.188 45.8565L105.7 44.1165C106.088 44.2206 106.433 44.2656 106.737 44.2514C107.04 44.2372 107.307 44.1236 107.539 43.9105C107.776 43.6974 107.984 43.3494 108.164 42.8665L108.427 42.142L104.435 31.0909H106.708L109.471 39.5568H109.585L112.347 31.0909H114.627L110.131 43.456C109.923 44.0241 109.658 44.5047 109.336 44.8977C109.014 45.2955 108.63 45.5938 108.185 45.7926C107.74 45.9915 107.224 46.0909 106.637 46.0909Z" fill="white"/>
</svg>
