<svg width="673" height="268" viewBox="0 0 673 268" fill="none" xmlns="http://www.w3.org/2000/svg">
<rect x="215" y="68" width="458" height="65" fill="#FF9306"/>
<rect x="215" y="135" width="458" height="65" fill="#FF9306"/>
<path d="M215 201H673V238C673 253.464 660.464 266 645 266H215V201Z" fill="#EBE00A"/>
<rect x="2" y="68" width="213" height="65" fill="white"/>
<rect x="2" y="135" width="213" height="64" fill="#C1D831"/>
<path d="M2 201H215V266H29C14.0883 266 2 253.912 2 239V201Z" fill="#6EA469"/>
<path d="M237.463 107.199C236.488 107.199 235.616 107.031 234.849 106.695C234.087 106.358 233.483 105.892 233.038 105.295C232.598 104.694 232.361 103.998 232.328 103.207H234.558C234.587 103.638 234.731 104.012 234.991 104.33C235.257 104.642 235.602 104.884 236.028 105.054C236.455 105.224 236.928 105.31 237.449 105.31C238.022 105.31 238.528 105.21 238.969 105.011C239.414 104.812 239.762 104.536 240.013 104.18C240.264 103.821 240.389 103.406 240.389 102.938C240.389 102.45 240.264 102.021 240.013 101.652C239.767 101.278 239.404 100.984 238.926 100.771C238.453 100.558 237.88 100.452 237.207 100.452H235.979V98.6619H237.207C237.747 98.6619 238.221 98.5649 238.628 98.3707C239.04 98.1766 239.362 97.9067 239.594 97.5611C239.826 97.2107 239.942 96.8011 239.942 96.3324C239.942 95.8826 239.84 95.492 239.636 95.1605C239.438 94.8243 239.153 94.5616 238.784 94.3722C238.42 94.1828 237.989 94.0881 237.491 94.0881C237.018 94.0881 236.575 94.1757 236.163 94.3509C235.756 94.5213 235.425 94.7675 235.169 95.0895C234.913 95.4067 234.776 95.7879 234.757 96.233H232.634C232.657 95.447 232.889 94.7557 233.33 94.1591C233.775 93.5625 234.362 93.0961 235.091 92.7599C235.82 92.4238 236.63 92.2557 237.52 92.2557C238.453 92.2557 239.258 92.438 239.935 92.8026C240.616 93.1624 241.142 93.643 241.511 94.2443C241.885 94.8456 242.07 95.5038 242.065 96.2188C242.07 97.0331 241.843 97.7244 241.384 98.2926C240.929 98.8608 240.323 99.242 239.565 99.4361V99.5497C240.531 99.6965 241.279 100.08 241.81 100.7C242.345 101.321 242.61 102.09 242.605 103.009C242.61 103.809 242.387 104.526 241.938 105.161C241.492 105.795 240.884 106.295 240.112 106.659C239.34 107.019 238.457 107.199 237.463 107.199ZM257.039 98.804V100.651H250.59V98.804H257.039ZM277.413 97.1847H275.197C275.112 96.7112 274.954 96.2945 274.722 95.9347C274.49 95.5748 274.205 95.2694 273.869 95.0185C273.533 94.7675 273.157 94.5781 272.74 94.4503C272.328 94.3224 271.89 94.2585 271.426 94.2585C270.588 94.2585 269.838 94.4692 269.175 94.8906C268.517 95.312 267.996 95.9299 267.612 96.7443C267.233 97.5587 267.044 98.553 267.044 99.7273C267.044 100.911 267.233 101.91 267.612 102.724C267.996 103.539 268.519 104.154 269.182 104.571C269.845 104.988 270.59 105.196 271.419 105.196C271.878 105.196 272.314 105.134 272.726 105.011C273.143 104.884 273.519 104.696 273.855 104.45C274.191 104.204 274.475 103.903 274.707 103.548C274.944 103.188 275.107 102.777 275.197 102.312L277.413 102.32C277.295 103.035 277.065 103.693 276.724 104.294C276.388 104.891 275.955 105.407 275.425 105.842C274.899 106.273 274.298 106.607 273.621 106.844C272.944 107.08 272.205 107.199 271.405 107.199C270.145 107.199 269.023 106.901 268.038 106.304C267.054 105.703 266.277 104.843 265.709 103.726C265.145 102.608 264.864 101.276 264.864 99.7273C264.864 98.1742 265.148 96.8414 265.716 95.7287C266.284 94.6113 267.061 93.7543 268.045 93.1577C269.03 92.5563 270.15 92.2557 271.405 92.2557C272.177 92.2557 272.896 92.367 273.564 92.5895C274.236 92.8073 274.84 93.1293 275.375 93.5554C275.91 93.9768 276.353 94.4929 276.703 95.1037C277.054 95.7098 277.29 96.4034 277.413 97.1847ZM284.464 107.22C283.441 107.22 282.549 106.986 281.787 106.517C281.024 106.048 280.432 105.393 280.011 104.55C279.59 103.707 279.379 102.722 279.379 101.595C279.379 100.464 279.59 99.474 280.011 98.6264C280.432 97.7789 281.024 97.1207 281.787 96.652C282.549 96.1832 283.441 95.9489 284.464 95.9489C285.487 95.9489 286.379 96.1832 287.142 96.652C287.904 97.1207 288.496 97.7789 288.917 98.6264C289.339 99.474 289.549 100.464 289.549 101.595C289.549 102.722 289.339 103.707 288.917 104.55C288.496 105.393 287.904 106.048 287.142 106.517C286.379 106.986 285.487 107.22 284.464 107.22ZM284.471 105.438C285.134 105.438 285.683 105.262 286.119 104.912C286.555 104.562 286.877 104.095 287.085 103.513C287.298 102.93 287.404 102.289 287.404 101.588C287.404 100.892 287.298 100.253 287.085 99.6705C286.877 99.0833 286.555 98.6122 286.119 98.2571C285.683 97.902 285.134 97.7244 284.471 97.7244C283.804 97.7244 283.25 97.902 282.809 98.2571C282.374 98.6122 282.049 99.0833 281.836 99.6705C281.628 100.253 281.524 100.892 281.524 101.588C281.524 102.289 281.628 102.93 281.836 103.513C282.049 104.095 282.374 104.562 282.809 104.912C283.25 105.262 283.804 105.438 284.471 105.438ZM294.043 100.523V107H291.92V96.0909H293.958V97.8665H294.093C294.344 97.2888 294.737 96.8248 295.272 96.4744C295.812 96.1241 296.491 95.9489 297.31 95.9489C298.054 95.9489 298.705 96.1051 299.263 96.4176C299.822 96.7254 300.255 97.1847 300.563 97.7955C300.871 98.4062 301.025 99.1615 301.025 100.061V107H298.901V100.317C298.901 99.526 298.695 98.9081 298.283 98.4631C297.871 98.0133 297.306 97.7884 296.586 97.7884C296.094 97.7884 295.656 97.8949 295.272 98.108C294.893 98.321 294.593 98.6335 294.37 99.0455C294.152 99.4527 294.043 99.9451 294.043 100.523ZM312.048 98.7543L310.123 99.0952C310.042 98.849 309.915 98.6146 309.739 98.392C309.569 98.1695 309.337 97.9872 309.043 97.8452C308.75 97.7031 308.383 97.6321 307.942 97.6321C307.341 97.6321 306.839 97.767 306.437 98.0369C306.034 98.3021 305.833 98.6454 305.833 99.0668C305.833 99.4313 305.968 99.7249 306.238 99.9474C306.508 100.17 306.943 100.352 307.545 100.494L309.278 100.892C310.281 101.124 311.03 101.482 311.522 101.964C312.014 102.447 312.261 103.075 312.261 103.847C312.261 104.5 312.071 105.082 311.692 105.594C311.318 106.1 310.795 106.498 310.123 106.787C309.455 107.076 308.681 107.22 307.8 107.22C306.579 107.22 305.582 106.96 304.81 106.439C304.039 105.913 303.565 105.168 303.39 104.202L305.442 103.889C305.57 104.424 305.833 104.829 306.231 105.104C306.629 105.374 307.147 105.509 307.786 105.509C308.482 105.509 309.039 105.364 309.455 105.075C309.872 104.782 310.08 104.424 310.08 104.003C310.08 103.662 309.952 103.375 309.697 103.143C309.446 102.911 309.06 102.736 308.539 102.618L306.692 102.213C305.674 101.981 304.922 101.612 304.434 101.105C303.951 100.598 303.71 99.9569 303.71 99.1804C303.71 98.5365 303.889 97.973 304.249 97.4901C304.609 97.0071 305.106 96.6307 305.741 96.3608C306.375 96.0862 307.102 95.9489 307.921 95.9489C309.1 95.9489 310.028 96.2045 310.705 96.7159C311.382 97.2225 311.83 97.902 312.048 98.7543ZM314.596 107V96.0909H316.719V107H314.596ZM315.668 94.4077C315.299 94.4077 314.981 94.2846 314.716 94.0384C314.456 93.7874 314.326 93.4891 314.326 93.1435C314.326 92.7931 314.456 92.4948 314.716 92.2486C314.981 91.9976 315.299 91.8722 315.668 91.8722C316.037 91.8722 316.352 91.9976 316.613 92.2486C316.878 92.4948 317.01 92.7931 317.01 93.1435C317.01 93.4891 316.878 93.7874 316.613 94.0384C316.352 94.2846 316.037 94.4077 315.668 94.4077ZM323.66 107.213C322.779 107.213 321.993 106.988 321.302 106.538C320.615 106.084 320.076 105.437 319.683 104.599C319.294 103.757 319.1 102.746 319.1 101.567C319.1 100.388 319.297 99.3793 319.69 98.5412C320.087 97.7031 320.632 97.0616 321.323 96.6165C322.014 96.1714 322.798 95.9489 323.674 95.9489C324.351 95.9489 324.896 96.0625 325.308 96.2898C325.724 96.5123 326.046 96.7727 326.273 97.071C326.505 97.3693 326.685 97.6321 326.813 97.8594H326.941V92.4545H329.065V107H326.991V105.303H326.813C326.685 105.535 326.501 105.8 326.259 106.098C326.022 106.396 325.696 106.657 325.279 106.879C324.862 107.102 324.323 107.213 323.66 107.213ZM324.129 105.402C324.739 105.402 325.255 105.241 325.677 104.919C326.103 104.592 326.425 104.14 326.643 103.562C326.865 102.985 326.977 102.312 326.977 101.545C326.977 100.788 326.868 100.125 326.65 99.5568C326.432 98.9886 326.112 98.5459 325.691 98.2287C325.27 97.9115 324.749 97.7528 324.129 97.7528C323.489 97.7528 322.957 97.9186 322.531 98.25C322.104 98.5814 321.782 99.0336 321.565 99.6065C321.352 100.179 321.245 100.826 321.245 101.545C321.245 102.275 321.354 102.93 321.572 103.513C321.79 104.095 322.112 104.557 322.538 104.898C322.969 105.234 323.499 105.402 324.129 105.402ZM336.797 107.22C335.722 107.22 334.797 106.991 334.02 106.531C333.248 106.067 332.652 105.416 332.23 104.578C331.814 103.735 331.605 102.748 331.605 101.616C331.605 100.499 331.814 99.5142 332.23 98.6619C332.652 97.8097 333.239 97.1444 333.992 96.6662C334.749 96.188 335.635 95.9489 336.648 95.9489C337.264 95.9489 337.86 96.0507 338.438 96.2543C339.016 96.4579 339.534 96.7775 339.993 97.2131C340.453 97.6487 340.815 98.2145 341.08 98.9105C341.345 99.6018 341.478 100.442 341.478 101.432V102.185H332.806V100.594H339.397C339.397 100.035 339.283 99.5402 339.056 99.1094C338.828 98.6738 338.509 98.3305 338.097 98.0795C337.69 97.8286 337.212 97.7031 336.662 97.7031C336.066 97.7031 335.545 97.8499 335.1 98.1435C334.659 98.4323 334.319 98.8111 334.077 99.2798C333.84 99.7438 333.722 100.248 333.722 100.793V102.036C333.722 102.765 333.85 103.385 334.105 103.896C334.366 104.408 334.728 104.798 335.192 105.068C335.656 105.333 336.198 105.466 336.819 105.466C337.221 105.466 337.588 105.409 337.919 105.295C338.251 105.177 338.537 105.002 338.779 104.77C339.02 104.538 339.205 104.251 339.333 103.911L341.343 104.273C341.182 104.865 340.893 105.383 340.476 105.828C340.064 106.268 339.546 106.612 338.921 106.858C338.301 107.099 337.593 107.22 336.797 107.22ZM343.834 107V96.0909H345.886V97.8239H346C346.199 97.2367 346.549 96.7751 347.051 96.4389C347.558 96.098 348.131 95.9276 348.77 95.9276C348.902 95.9276 349.059 95.9323 349.239 95.9418C349.423 95.9512 349.568 95.9631 349.672 95.9773V98.0085C349.587 97.9848 349.435 97.9588 349.217 97.9304C349 97.8973 348.782 97.8807 348.564 97.8807C348.062 97.8807 347.615 97.9872 347.222 98.2003C346.833 98.4086 346.526 98.6998 346.298 99.0739C346.071 99.4432 345.957 99.8646 345.957 100.338V107H343.834ZM354.587 107.241C353.895 107.241 353.27 107.114 352.712 106.858C352.153 106.598 351.71 106.221 351.384 105.729C351.062 105.236 350.901 104.633 350.901 103.918C350.901 103.302 351.019 102.795 351.256 102.398C351.492 102 351.812 101.685 352.214 101.453C352.617 101.221 353.067 101.046 353.564 100.928C354.061 100.809 354.568 100.719 355.084 100.658C355.737 100.582 356.268 100.52 356.675 100.473C357.082 100.421 357.378 100.338 357.562 100.224C357.747 100.111 357.839 99.9261 357.839 99.6705V99.6207C357.839 99.0005 357.664 98.5199 357.314 98.179C356.968 97.8381 356.452 97.6676 355.766 97.6676C355.051 97.6676 354.487 97.8262 354.075 98.1435C353.668 98.456 353.386 98.804 353.23 99.1875L351.234 98.733C351.471 98.0701 351.817 97.535 352.271 97.1278C352.731 96.7159 353.259 96.4176 353.855 96.233C354.452 96.0436 355.079 95.9489 355.737 95.9489C356.173 95.9489 356.634 96.0009 357.122 96.1051C357.615 96.2045 358.074 96.3892 358.5 96.6591C358.931 96.929 359.284 97.3149 359.558 97.8168C359.833 98.3139 359.97 98.9602 359.97 99.7557V107H357.896V105.509H357.811C357.674 105.783 357.468 106.053 357.193 106.318C356.919 106.583 356.566 106.804 356.135 106.979C355.704 107.154 355.188 107.241 354.587 107.241ZM355.048 105.537C355.635 105.537 356.137 105.421 356.554 105.189C356.975 104.957 357.295 104.654 357.513 104.28C357.735 103.901 357.847 103.496 357.847 103.065V101.659C357.771 101.735 357.624 101.806 357.406 101.872C357.193 101.934 356.949 101.988 356.675 102.036C356.4 102.078 356.133 102.118 355.872 102.156C355.612 102.189 355.394 102.218 355.219 102.241C354.807 102.294 354.43 102.381 354.089 102.504C353.753 102.627 353.483 102.805 353.28 103.037C353.081 103.264 352.982 103.567 352.982 103.946C352.982 104.472 353.176 104.869 353.564 105.139C353.952 105.404 354.447 105.537 355.048 105.537ZM362.969 107V92.4545H365.093V97.8594H365.221C365.344 97.6321 365.521 97.3693 365.753 97.071C365.985 96.7727 366.307 96.5123 366.719 96.2898C367.131 96.0625 367.676 95.9489 368.353 95.9489C369.233 95.9489 370.019 96.1714 370.711 96.6165C371.402 97.0616 371.944 97.7031 372.337 98.5412C372.735 99.3793 372.934 100.388 372.934 101.567C372.934 102.746 372.737 103.757 372.344 104.599C371.951 105.437 371.411 106.084 370.725 106.538C370.038 106.988 369.255 107.213 368.374 107.213C367.711 107.213 367.169 107.102 366.748 106.879C366.331 106.657 366.004 106.396 365.767 106.098C365.531 105.8 365.348 105.535 365.221 105.303H365.043V107H362.969ZM365.05 101.545C365.05 102.312 365.161 102.985 365.384 103.562C365.606 104.14 365.928 104.592 366.35 104.919C366.771 105.241 367.287 105.402 367.898 105.402C368.533 105.402 369.063 105.234 369.489 104.898C369.915 104.557 370.237 104.095 370.455 103.513C370.677 102.93 370.789 102.275 370.789 101.545C370.789 100.826 370.68 100.179 370.462 99.6065C370.249 99.0336 369.927 98.5814 369.496 98.25C369.07 97.9186 368.537 97.7528 367.898 97.7528C367.283 97.7528 366.762 97.9115 366.336 98.2287C365.914 98.5459 365.595 98.9886 365.377 99.5568C365.159 100.125 365.05 100.788 365.05 101.545ZM377.442 92.4545V107H375.318V92.4545H377.442ZM385 107.22C383.926 107.22 383 106.991 382.223 106.531C381.452 106.067 380.855 105.416 380.434 104.578C380.017 103.735 379.809 102.748 379.809 101.616C379.809 100.499 380.017 99.5142 380.434 98.6619C380.855 97.8097 381.442 97.1444 382.195 96.6662C382.953 96.188 383.838 95.9489 384.851 95.9489C385.467 95.9489 386.063 96.0507 386.641 96.2543C387.219 96.4579 387.737 96.7775 388.196 97.2131C388.656 97.6487 389.018 98.2145 389.283 98.9105C389.548 99.6018 389.681 100.442 389.681 101.432V102.185H381.009V100.594H387.6C387.6 100.035 387.486 99.5402 387.259 99.1094C387.032 98.6738 386.712 98.3305 386.3 98.0795C385.893 97.8286 385.415 97.7031 384.865 97.7031C384.269 97.7031 383.748 97.8499 383.303 98.1435C382.863 98.4323 382.522 98.8111 382.28 99.2798C382.043 99.7438 381.925 100.248 381.925 100.793V102.036C381.925 102.765 382.053 103.385 382.309 103.896C382.569 104.408 382.931 104.798 383.395 105.068C383.859 105.333 384.401 105.466 385.022 105.466C385.424 105.466 385.791 105.409 386.123 105.295C386.454 105.177 386.74 105.002 386.982 104.77C387.223 104.538 387.408 104.251 387.536 103.911L389.546 104.273C389.385 104.865 389.096 105.383 388.679 105.828C388.267 106.268 387.749 106.612 387.124 106.858C386.504 107.099 385.796 107.22 385 107.22Z" fill="black"/>
<path d="M237.463 175.199C236.488 175.199 235.616 175.031 234.849 174.695C234.087 174.358 233.483 173.892 233.038 173.295C232.598 172.694 232.361 171.998 232.328 171.207H234.558C234.587 171.638 234.731 172.012 234.991 172.33C235.257 172.642 235.602 172.884 236.028 173.054C236.455 173.224 236.928 173.31 237.449 173.31C238.022 173.31 238.528 173.21 238.969 173.011C239.414 172.812 239.762 172.536 240.013 172.18C240.264 171.821 240.389 171.406 240.389 170.938C240.389 170.45 240.264 170.021 240.013 169.652C239.767 169.278 239.404 168.984 238.926 168.771C238.453 168.558 237.88 168.452 237.207 168.452H235.979V166.662H237.207C237.747 166.662 238.221 166.565 238.628 166.371C239.04 166.177 239.362 165.907 239.594 165.561C239.826 165.211 239.942 164.801 239.942 164.332C239.942 163.883 239.84 163.492 239.636 163.161C239.438 162.824 239.153 162.562 238.784 162.372C238.42 162.183 237.989 162.088 237.491 162.088C237.018 162.088 236.575 162.176 236.163 162.351C235.756 162.521 235.425 162.768 235.169 163.089C234.913 163.407 234.776 163.788 234.757 164.233H232.634C232.657 163.447 232.889 162.756 233.33 162.159C233.775 161.562 234.362 161.096 235.091 160.76C235.82 160.424 236.63 160.256 237.52 160.256C238.453 160.256 239.258 160.438 239.935 160.803C240.616 161.162 241.142 161.643 241.511 162.244C241.885 162.846 242.07 163.504 242.065 164.219C242.07 165.033 241.843 165.724 241.384 166.293C240.929 166.861 240.323 167.242 239.565 167.436V167.55C240.531 167.696 241.279 168.08 241.81 168.7C242.345 169.321 242.61 170.09 242.605 171.009C242.61 171.809 242.387 172.526 241.938 173.161C241.492 173.795 240.884 174.295 240.112 174.659C239.34 175.019 238.457 175.199 237.463 175.199ZM257.039 166.804V168.651H250.59V166.804H257.039ZM277.413 165.185H275.197C275.112 164.711 274.954 164.295 274.722 163.935C274.49 163.575 274.205 163.269 273.869 163.018C273.533 162.768 273.157 162.578 272.74 162.45C272.328 162.322 271.89 162.259 271.426 162.259C270.588 162.259 269.838 162.469 269.175 162.891C268.517 163.312 267.996 163.93 267.612 164.744C267.233 165.559 267.044 166.553 267.044 167.727C267.044 168.911 267.233 169.91 267.612 170.724C267.996 171.539 268.519 172.154 269.182 172.571C269.845 172.988 270.59 173.196 271.419 173.196C271.878 173.196 272.314 173.134 272.726 173.011C273.143 172.884 273.519 172.696 273.855 172.45C274.191 172.204 274.475 171.903 274.707 171.548C274.944 171.188 275.107 170.777 275.197 170.312L277.413 170.32C277.295 171.035 277.065 171.693 276.724 172.294C276.388 172.891 275.955 173.407 275.425 173.842C274.899 174.273 274.298 174.607 273.621 174.844C272.944 175.08 272.205 175.199 271.405 175.199C270.145 175.199 269.023 174.901 268.038 174.304C267.054 173.703 266.277 172.843 265.709 171.726C265.145 170.608 264.864 169.276 264.864 167.727C264.864 166.174 265.148 164.841 265.716 163.729C266.284 162.611 267.061 161.754 268.045 161.158C269.03 160.556 270.15 160.256 271.405 160.256C272.177 160.256 272.896 160.367 273.564 160.589C274.236 160.807 274.84 161.129 275.375 161.555C275.91 161.977 276.353 162.493 276.703 163.104C277.054 163.71 277.29 164.403 277.413 165.185ZM284.464 175.22C283.441 175.22 282.549 174.986 281.787 174.517C281.024 174.048 280.432 173.393 280.011 172.55C279.59 171.707 279.379 170.722 279.379 169.595C279.379 168.464 279.59 167.474 280.011 166.626C280.432 165.779 281.024 165.121 281.787 164.652C282.549 164.183 283.441 163.949 284.464 163.949C285.487 163.949 286.379 164.183 287.142 164.652C287.904 165.121 288.496 165.779 288.917 166.626C289.339 167.474 289.549 168.464 289.549 169.595C289.549 170.722 289.339 171.707 288.917 172.55C288.496 173.393 287.904 174.048 287.142 174.517C286.379 174.986 285.487 175.22 284.464 175.22ZM284.471 173.438C285.134 173.438 285.683 173.262 286.119 172.912C286.555 172.562 286.877 172.095 287.085 171.513C287.298 170.93 287.404 170.289 287.404 169.588C287.404 168.892 287.298 168.253 287.085 167.67C286.877 167.083 286.555 166.612 286.119 166.257C285.683 165.902 285.134 165.724 284.471 165.724C283.804 165.724 283.25 165.902 282.809 166.257C282.374 166.612 282.049 167.083 281.836 167.67C281.628 168.253 281.524 168.892 281.524 169.588C281.524 170.289 281.628 170.93 281.836 171.513C282.049 172.095 282.374 172.562 282.809 172.912C283.25 173.262 283.804 173.438 284.471 173.438ZM294.043 168.523V175H291.92V164.091H293.958V165.866H294.093C294.344 165.289 294.737 164.825 295.272 164.474C295.812 164.124 296.491 163.949 297.31 163.949C298.054 163.949 298.705 164.105 299.263 164.418C299.822 164.725 300.255 165.185 300.563 165.795C300.871 166.406 301.025 167.161 301.025 168.061V175H298.901V168.317C298.901 167.526 298.695 166.908 298.283 166.463C297.871 166.013 297.306 165.788 296.586 165.788C296.094 165.788 295.656 165.895 295.272 166.108C294.893 166.321 294.593 166.634 294.37 167.045C294.152 167.453 294.043 167.945 294.043 168.523ZM312.048 166.754L310.123 167.095C310.042 166.849 309.915 166.615 309.739 166.392C309.569 166.17 309.337 165.987 309.043 165.845C308.75 165.703 308.383 165.632 307.942 165.632C307.341 165.632 306.839 165.767 306.437 166.037C306.034 166.302 305.833 166.645 305.833 167.067C305.833 167.431 305.968 167.725 306.238 167.947C306.508 168.17 306.943 168.352 307.545 168.494L309.278 168.892C310.281 169.124 311.03 169.482 311.522 169.964C312.014 170.447 312.261 171.075 312.261 171.847C312.261 172.5 312.071 173.082 311.692 173.594C311.318 174.1 310.795 174.498 310.123 174.787C309.455 175.076 308.681 175.22 307.8 175.22C306.579 175.22 305.582 174.96 304.81 174.439C304.039 173.913 303.565 173.168 303.39 172.202L305.442 171.889C305.57 172.424 305.833 172.829 306.231 173.104C306.629 173.374 307.147 173.509 307.786 173.509C308.482 173.509 309.039 173.364 309.455 173.075C309.872 172.782 310.08 172.424 310.08 172.003C310.08 171.662 309.952 171.375 309.697 171.143C309.446 170.911 309.06 170.736 308.539 170.618L306.692 170.213C305.674 169.981 304.922 169.612 304.434 169.105C303.951 168.598 303.71 167.957 303.71 167.18C303.71 166.536 303.889 165.973 304.249 165.49C304.609 165.007 305.106 164.631 305.741 164.361C306.375 164.086 307.102 163.949 307.921 163.949C309.1 163.949 310.028 164.205 310.705 164.716C311.382 165.223 311.83 165.902 312.048 166.754ZM314.596 175V164.091H316.719V175H314.596ZM315.668 162.408C315.299 162.408 314.981 162.285 314.716 162.038C314.456 161.787 314.326 161.489 314.326 161.143C314.326 160.793 314.456 160.495 314.716 160.249C314.981 159.998 315.299 159.872 315.668 159.872C316.037 159.872 316.352 159.998 316.613 160.249C316.878 160.495 317.01 160.793 317.01 161.143C317.01 161.489 316.878 161.787 316.613 162.038C316.352 162.285 316.037 162.408 315.668 162.408ZM323.66 175.213C322.779 175.213 321.993 174.988 321.302 174.538C320.615 174.084 320.076 173.437 319.683 172.599C319.294 171.757 319.1 170.746 319.1 169.567C319.1 168.388 319.297 167.379 319.69 166.541C320.087 165.703 320.632 165.062 321.323 164.616C322.014 164.171 322.798 163.949 323.674 163.949C324.351 163.949 324.896 164.062 325.308 164.29C325.724 164.512 326.046 164.773 326.273 165.071C326.505 165.369 326.685 165.632 326.813 165.859H326.941V160.455H329.065V175H326.991V173.303H326.813C326.685 173.535 326.501 173.8 326.259 174.098C326.022 174.396 325.696 174.657 325.279 174.879C324.862 175.102 324.323 175.213 323.66 175.213ZM324.129 173.402C324.739 173.402 325.255 173.241 325.677 172.919C326.103 172.592 326.425 172.14 326.643 171.562C326.865 170.985 326.977 170.312 326.977 169.545C326.977 168.788 326.868 168.125 326.65 167.557C326.432 166.989 326.112 166.546 325.691 166.229C325.27 165.911 324.749 165.753 324.129 165.753C323.489 165.753 322.957 165.919 322.531 166.25C322.104 166.581 321.782 167.034 321.565 167.607C321.352 168.179 321.245 168.826 321.245 169.545C321.245 170.275 321.354 170.93 321.572 171.513C321.79 172.095 322.112 172.557 322.538 172.898C322.969 173.234 323.499 173.402 324.129 173.402ZM336.797 175.22C335.722 175.22 334.797 174.991 334.02 174.531C333.248 174.067 332.652 173.416 332.23 172.578C331.814 171.735 331.605 170.748 331.605 169.616C331.605 168.499 331.814 167.514 332.23 166.662C332.652 165.81 333.239 165.144 333.992 164.666C334.749 164.188 335.635 163.949 336.648 163.949C337.264 163.949 337.86 164.051 338.438 164.254C339.016 164.458 339.534 164.777 339.993 165.213C340.453 165.649 340.815 166.214 341.08 166.911C341.345 167.602 341.478 168.442 341.478 169.432V170.185H332.806V168.594H339.397C339.397 168.035 339.283 167.54 339.056 167.109C338.828 166.674 338.509 166.33 338.097 166.08C337.69 165.829 337.212 165.703 336.662 165.703C336.066 165.703 335.545 165.85 335.1 166.143C334.659 166.432 334.319 166.811 334.077 167.28C333.84 167.744 333.722 168.248 333.722 168.793V170.036C333.722 170.765 333.85 171.385 334.105 171.896C334.366 172.408 334.728 172.798 335.192 173.068C335.656 173.333 336.198 173.466 336.819 173.466C337.221 173.466 337.588 173.409 337.919 173.295C338.251 173.177 338.537 173.002 338.779 172.77C339.02 172.538 339.205 172.251 339.333 171.911L341.343 172.273C341.182 172.865 340.893 173.383 340.476 173.828C340.064 174.268 339.546 174.612 338.921 174.858C338.301 175.099 337.593 175.22 336.797 175.22ZM343.834 175V164.091H345.886V165.824H346C346.199 165.237 346.549 164.775 347.051 164.439C347.558 164.098 348.131 163.928 348.77 163.928C348.902 163.928 349.059 163.932 349.239 163.942C349.423 163.951 349.568 163.963 349.672 163.977V166.009C349.587 165.985 349.435 165.959 349.217 165.93C349 165.897 348.782 165.881 348.564 165.881C348.062 165.881 347.615 165.987 347.222 166.2C346.833 166.409 346.526 166.7 346.298 167.074C346.071 167.443 345.957 167.865 345.957 168.338V175H343.834ZM354.587 175.241C353.895 175.241 353.27 175.114 352.712 174.858C352.153 174.598 351.71 174.221 351.384 173.729C351.062 173.236 350.901 172.633 350.901 171.918C350.901 171.302 351.019 170.795 351.256 170.398C351.492 170 351.812 169.685 352.214 169.453C352.617 169.221 353.067 169.046 353.564 168.928C354.061 168.809 354.568 168.719 355.084 168.658C355.737 168.582 356.268 168.52 356.675 168.473C357.082 168.421 357.378 168.338 357.562 168.224C357.747 168.111 357.839 167.926 357.839 167.67V167.621C357.839 167 357.664 166.52 357.314 166.179C356.968 165.838 356.452 165.668 355.766 165.668C355.051 165.668 354.487 165.826 354.075 166.143C353.668 166.456 353.386 166.804 353.23 167.188L351.234 166.733C351.471 166.07 351.817 165.535 352.271 165.128C352.731 164.716 353.259 164.418 353.855 164.233C354.452 164.044 355.079 163.949 355.737 163.949C356.173 163.949 356.634 164.001 357.122 164.105C357.615 164.205 358.074 164.389 358.5 164.659C358.931 164.929 359.284 165.315 359.558 165.817C359.833 166.314 359.97 166.96 359.97 167.756V175H357.896V173.509H357.811C357.674 173.783 357.468 174.053 357.193 174.318C356.919 174.583 356.566 174.804 356.135 174.979C355.704 175.154 355.188 175.241 354.587 175.241ZM355.048 173.537C355.635 173.537 356.137 173.421 356.554 173.189C356.975 172.957 357.295 172.654 357.513 172.28C357.735 171.901 357.847 171.496 357.847 171.065V169.659C357.771 169.735 357.624 169.806 357.406 169.872C357.193 169.934 356.949 169.988 356.675 170.036C356.4 170.078 356.133 170.118 355.872 170.156C355.612 170.189 355.394 170.218 355.219 170.241C354.807 170.294 354.43 170.381 354.089 170.504C353.753 170.627 353.483 170.805 353.28 171.037C353.081 171.264 352.982 171.567 352.982 171.946C352.982 172.472 353.176 172.869 353.564 173.139C353.952 173.404 354.447 173.537 355.048 173.537ZM362.969 175V160.455H365.093V165.859H365.221C365.344 165.632 365.521 165.369 365.753 165.071C365.985 164.773 366.307 164.512 366.719 164.29C367.131 164.062 367.676 163.949 368.353 163.949C369.233 163.949 370.019 164.171 370.711 164.616C371.402 165.062 371.944 165.703 372.337 166.541C372.735 167.379 372.934 168.388 372.934 169.567C372.934 170.746 372.737 171.757 372.344 172.599C371.951 173.437 371.411 174.084 370.725 174.538C370.038 174.988 369.255 175.213 368.374 175.213C367.711 175.213 367.169 175.102 366.748 174.879C366.331 174.657 366.004 174.396 365.767 174.098C365.531 173.8 365.348 173.535 365.221 173.303H365.043V175H362.969ZM365.05 169.545C365.05 170.312 365.161 170.985 365.384 171.562C365.606 172.14 365.928 172.592 366.35 172.919C366.771 173.241 367.287 173.402 367.898 173.402C368.533 173.402 369.063 173.234 369.489 172.898C369.915 172.557 370.237 172.095 370.455 171.513C370.677 170.93 370.789 170.275 370.789 169.545C370.789 168.826 370.68 168.179 370.462 167.607C370.249 167.034 369.927 166.581 369.496 166.25C369.07 165.919 368.537 165.753 367.898 165.753C367.283 165.753 366.762 165.911 366.336 166.229C365.914 166.546 365.595 166.989 365.377 167.557C365.159 168.125 365.05 168.788 365.05 169.545ZM377.442 160.455V175H375.318V160.455H377.442ZM385 175.22C383.926 175.22 383 174.991 382.223 174.531C381.452 174.067 380.855 173.416 380.434 172.578C380.017 171.735 379.809 170.748 379.809 169.616C379.809 168.499 380.017 167.514 380.434 166.662C380.855 165.81 381.442 165.144 382.195 164.666C382.953 164.188 383.838 163.949 384.851 163.949C385.467 163.949 386.063 164.051 386.641 164.254C387.219 164.458 387.737 164.777 388.196 165.213C388.656 165.649 389.018 166.214 389.283 166.911C389.548 167.602 389.681 168.442 389.681 169.432V170.185H381.009V168.594H387.6C387.6 168.035 387.486 167.54 387.259 167.109C387.032 166.674 386.712 166.33 386.3 166.08C385.893 165.829 385.415 165.703 384.865 165.703C384.269 165.703 383.748 165.85 383.303 166.143C382.863 166.432 382.522 166.811 382.28 167.28C382.043 167.744 381.925 168.248 381.925 168.793V170.036C381.925 170.765 382.053 171.385 382.309 171.896C382.569 172.408 382.931 172.798 383.395 173.068C383.859 173.333 384.401 173.466 385.022 173.466C385.424 173.466 385.791 173.409 386.123 173.295C386.454 173.177 386.74 173.002 386.982 172.77C387.223 172.538 387.408 172.251 387.536 171.911L389.546 172.273C389.385 172.865 389.096 173.383 388.679 173.828C388.267 174.268 387.749 174.612 387.124 174.858C386.504 175.099 385.796 175.22 385 175.22Z" fill="black"/>
<path d="M232.399 241V239.409L237.321 234.31C237.847 233.756 238.28 233.27 238.621 232.854C238.966 232.432 239.224 232.032 239.395 231.653C239.565 231.275 239.651 230.872 239.651 230.446C239.651 229.963 239.537 229.546 239.31 229.196C239.082 228.841 238.772 228.569 238.379 228.379C237.986 228.185 237.544 228.088 237.051 228.088C236.53 228.088 236.076 228.195 235.688 228.408C235.299 228.621 235.001 228.921 234.793 229.31C234.584 229.698 234.48 230.152 234.48 230.673H232.385C232.385 229.788 232.589 229.014 232.996 228.351C233.403 227.688 233.962 227.174 234.672 226.81C235.382 226.44 236.189 226.256 237.094 226.256C238.008 226.256 238.813 226.438 239.509 226.803C240.209 227.162 240.756 227.655 241.149 228.28C241.542 228.9 241.739 229.601 241.739 230.382C241.739 230.922 241.637 231.45 241.433 231.966C241.234 232.482 240.886 233.057 240.389 233.692C239.892 234.321 239.201 235.086 238.315 235.986L235.425 239.011V239.118H241.973V241H232.399ZM256.414 232.804V234.651H249.965V232.804H256.414ZM264.707 226.455H267.371L272.001 237.761H272.172L276.803 226.455H279.466V241H277.378V230.474H277.243L272.953 240.979H271.22L266.93 230.467H266.795V241H264.707V226.455ZM287.081 241.22C286.059 241.22 285.166 240.986 284.404 240.517C283.641 240.048 283.05 239.393 282.628 238.55C282.207 237.707 281.996 236.722 281.996 235.595C281.996 234.464 282.207 233.474 282.628 232.626C283.05 231.779 283.641 231.121 284.404 230.652C285.166 230.183 286.059 229.949 287.081 229.949C288.104 229.949 288.997 230.183 289.759 230.652C290.521 231.121 291.113 231.779 291.534 232.626C291.956 233.474 292.167 234.464 292.167 235.595C292.167 236.722 291.956 237.707 291.534 238.55C291.113 239.393 290.521 240.048 289.759 240.517C288.997 240.986 288.104 241.22 287.081 241.22ZM287.088 239.438C287.751 239.438 288.301 239.262 288.736 238.912C289.172 238.562 289.494 238.095 289.702 237.513C289.915 236.93 290.022 236.289 290.022 235.588C290.022 234.892 289.915 234.253 289.702 233.67C289.494 233.083 289.172 232.612 288.736 232.257C288.301 231.902 287.751 231.724 287.088 231.724C286.421 231.724 285.867 231.902 285.426 232.257C284.991 232.612 284.667 233.083 284.453 233.67C284.245 234.253 284.141 234.892 284.141 235.588C284.141 236.289 284.245 236.93 284.453 237.513C284.667 238.095 284.991 238.562 285.426 238.912C285.867 239.262 286.421 239.438 287.088 239.438ZM298.621 241.213C297.74 241.213 296.954 240.988 296.263 240.538C295.576 240.084 295.036 239.437 294.643 238.599C294.255 237.757 294.061 236.746 294.061 235.567C294.061 234.388 294.258 233.379 294.651 232.541C295.048 231.703 295.593 231.062 296.284 230.616C296.975 230.171 297.759 229.949 298.635 229.949C299.312 229.949 299.857 230.062 300.268 230.29C300.685 230.512 301.007 230.773 301.234 231.071C301.466 231.369 301.646 231.632 301.774 231.859H301.902V226.455H304.026V241H301.952V239.303H301.774C301.646 239.535 301.462 239.8 301.22 240.098C300.983 240.396 300.657 240.657 300.24 240.879C299.823 241.102 299.284 241.213 298.621 241.213ZM299.089 239.402C299.7 239.402 300.216 239.241 300.638 238.919C301.064 238.592 301.386 238.14 301.604 237.562C301.826 236.985 301.938 236.312 301.938 235.545C301.938 234.788 301.829 234.125 301.611 233.557C301.393 232.989 301.073 232.546 300.652 232.229C300.231 231.911 299.71 231.753 299.089 231.753C298.45 231.753 297.918 231.919 297.491 232.25C297.065 232.581 296.743 233.034 296.526 233.607C296.313 234.179 296.206 234.826 296.206 235.545C296.206 236.275 296.315 236.93 296.533 237.513C296.75 238.095 297.072 238.557 297.499 238.898C297.929 239.234 298.46 239.402 299.089 239.402ZM311.758 241.22C310.683 241.22 309.758 240.991 308.981 240.531C308.209 240.067 307.613 239.416 307.191 238.578C306.775 237.735 306.566 236.748 306.566 235.616C306.566 234.499 306.775 233.514 307.191 232.662C307.613 231.81 308.2 231.144 308.953 230.666C309.71 230.188 310.596 229.949 311.609 229.949C312.225 229.949 312.821 230.051 313.399 230.254C313.976 230.458 314.495 230.777 314.954 231.213C315.413 231.649 315.776 232.214 316.041 232.911C316.306 233.602 316.439 234.442 316.439 235.432V236.185H307.767V234.594H314.358C314.358 234.035 314.244 233.54 314.017 233.109C313.789 232.674 313.47 232.33 313.058 232.08C312.651 231.829 312.172 231.703 311.623 231.703C311.027 231.703 310.506 231.85 310.061 232.143C309.62 232.432 309.279 232.811 309.038 233.28C308.801 233.744 308.683 234.248 308.683 234.793V236.036C308.683 236.765 308.811 237.385 309.066 237.896C309.327 238.408 309.689 238.798 310.153 239.068C310.617 239.333 311.159 239.466 311.779 239.466C312.182 239.466 312.549 239.409 312.88 239.295C313.212 239.177 313.498 239.002 313.74 238.77C313.981 238.538 314.166 238.251 314.294 237.911L316.304 238.273C316.143 238.865 315.854 239.383 315.437 239.828C315.025 240.268 314.507 240.612 313.882 240.858C313.261 241.099 312.554 241.22 311.758 241.22ZM318.795 241V230.091H320.847V231.824H320.961C321.16 231.237 321.51 230.775 322.012 230.439C322.519 230.098 323.092 229.928 323.731 229.928C323.863 229.928 324.02 229.932 324.2 229.942C324.384 229.951 324.529 229.963 324.633 229.977V232.009C324.548 231.985 324.396 231.959 324.178 231.93C323.96 231.897 323.743 231.881 323.525 231.881C323.023 231.881 322.576 231.987 322.183 232.2C321.794 232.409 321.487 232.7 321.259 233.074C321.032 233.443 320.918 233.865 320.918 234.338V241H318.795ZM329.548 241.241C328.856 241.241 328.231 241.114 327.673 240.858C327.114 240.598 326.671 240.221 326.344 239.729C326.022 239.236 325.862 238.633 325.862 237.918C325.862 237.302 325.98 236.795 326.217 236.398C326.453 236 326.773 235.685 327.175 235.453C327.578 235.221 328.028 235.046 328.525 234.928C329.022 234.809 329.529 234.719 330.045 234.658C330.698 234.582 331.228 234.52 331.636 234.473C332.043 234.421 332.339 234.338 332.523 234.224C332.708 234.111 332.8 233.926 332.8 233.67V233.621C332.8 233 332.625 232.52 332.275 232.179C331.929 231.838 331.413 231.668 330.727 231.668C330.012 231.668 329.448 231.826 329.036 232.143C328.629 232.456 328.347 232.804 328.191 233.188L326.195 232.733C326.432 232.07 326.778 231.535 327.232 231.128C327.692 230.716 328.219 230.418 328.816 230.233C329.413 230.044 330.04 229.949 330.698 229.949C331.134 229.949 331.595 230.001 332.083 230.105C332.576 230.205 333.035 230.389 333.461 230.659C333.892 230.929 334.245 231.315 334.519 231.817C334.794 232.314 334.931 232.96 334.931 233.756V241H332.857V239.509H332.772C332.635 239.783 332.429 240.053 332.154 240.318C331.879 240.583 331.527 240.804 331.096 240.979C330.665 241.154 330.149 241.241 329.548 241.241ZM330.009 239.537C330.596 239.537 331.098 239.421 331.515 239.189C331.936 238.957 332.256 238.654 332.474 238.28C332.696 237.901 332.808 237.496 332.808 237.065V235.659C332.732 235.735 332.585 235.806 332.367 235.872C332.154 235.934 331.91 235.988 331.636 236.036C331.361 236.078 331.094 236.118 330.833 236.156C330.573 236.189 330.355 236.218 330.18 236.241C329.768 236.294 329.391 236.381 329.05 236.504C328.714 236.627 328.444 236.805 328.241 237.037C328.042 237.264 327.942 237.567 327.942 237.946C327.942 238.472 328.137 238.869 328.525 239.139C328.913 239.404 329.408 239.537 330.009 239.537ZM342.852 230.091V231.795H336.893V230.091H342.852ZM338.491 227.477H340.615V237.797C340.615 238.209 340.676 238.519 340.799 238.727C340.922 238.931 341.081 239.071 341.275 239.146C341.474 239.217 341.69 239.253 341.922 239.253C342.092 239.253 342.241 239.241 342.369 239.217C342.497 239.194 342.596 239.175 342.667 239.161L343.051 240.915C342.928 240.962 342.752 241.009 342.525 241.057C342.298 241.109 342.014 241.137 341.673 241.142C341.114 241.152 340.593 241.052 340.11 240.844C339.627 240.635 339.237 240.313 338.939 239.878C338.64 239.442 338.491 238.895 338.491 238.237V227.477ZM349.786 241.22C348.711 241.22 347.785 240.991 347.009 240.531C346.237 240.067 345.64 239.416 345.219 238.578C344.802 237.735 344.594 236.748 344.594 235.616C344.594 234.499 344.802 233.514 345.219 232.662C345.64 231.81 346.227 231.144 346.98 230.666C347.738 230.188 348.623 229.949 349.636 229.949C350.252 229.949 350.848 230.051 351.426 230.254C352.004 230.458 352.522 230.777 352.982 231.213C353.441 231.649 353.803 232.214 354.068 232.911C354.333 233.602 354.466 234.442 354.466 235.432V236.185H345.794V234.594H352.385C352.385 234.035 352.271 233.54 352.044 233.109C351.817 232.674 351.497 232.33 351.085 232.08C350.678 231.829 350.2 231.703 349.651 231.703C349.054 231.703 348.533 231.85 348.088 232.143C347.648 232.432 347.307 232.811 347.065 233.28C346.829 233.744 346.71 234.248 346.71 234.793V236.036C346.71 236.765 346.838 237.385 347.094 237.896C347.354 238.408 347.716 238.798 348.18 239.068C348.644 239.333 349.187 239.466 349.807 239.466C350.209 239.466 350.576 239.409 350.908 239.295C351.239 239.177 351.526 239.002 351.767 238.77C352.009 238.538 352.193 238.251 352.321 237.911L354.331 238.273C354.17 238.865 353.881 239.383 353.464 239.828C353.053 240.268 352.534 240.612 351.909 240.858C351.289 241.099 350.581 241.22 349.786 241.22Z" fill="black"/>
<path d="M20.8267 107H18.4972L23.7315 92.4545H26.267L31.5014 107H29.1719L25.0597 95.0966H24.946L20.8267 107ZM21.2173 101.304H28.7741V103.151H21.2173V101.304ZM35.555 92.4545V107H33.4315V92.4545H35.555ZM38.4119 111.091V96.0909H40.4858V97.8594H40.6634C40.7865 97.6321 40.964 97.3693 41.196 97.071C41.428 96.7727 41.75 96.5123 42.1619 96.2898C42.5739 96.0625 43.1184 95.9489 43.7955 95.9489C44.6761 95.9489 45.4621 96.1714 46.1534 96.6165C46.8447 97.0616 47.3868 97.7031 47.7798 98.5412C48.1776 99.3793 48.3764 100.388 48.3764 101.567C48.3764 102.746 48.1799 103.757 47.7869 104.599C47.3939 105.437 46.8542 106.084 46.1676 106.538C45.4811 106.988 44.6974 107.213 43.8168 107.213C43.1539 107.213 42.6117 107.102 42.1903 106.879C41.7737 106.657 41.447 106.396 41.2102 106.098C40.9735 105.8 40.7912 105.535 40.6634 105.303H40.5355V111.091H38.4119ZM40.4929 101.545C40.4929 102.312 40.6042 102.985 40.8267 103.562C41.0492 104.14 41.3712 104.592 41.7926 104.919C42.214 105.241 42.7301 105.402 43.3409 105.402C43.9754 105.402 44.5057 105.234 44.9318 104.898C45.358 104.557 45.6799 104.095 45.8977 103.513C46.1203 102.93 46.2315 102.275 46.2315 101.545C46.2315 100.826 46.1226 100.179 45.9048 99.6065C45.6918 99.0336 45.3698 98.5814 44.9389 98.25C44.5128 97.9186 43.9801 97.7528 43.3409 97.7528C42.7254 97.7528 42.2045 97.9115 41.7784 98.2287C41.357 98.5459 41.0374 98.9886 40.8196 99.5568C40.6018 100.125 40.4929 100.788 40.4929 101.545ZM50.7557 107V96.0909H52.8793V107H50.7557ZM51.8281 94.4077C51.4588 94.4077 51.1416 94.2846 50.8764 94.0384C50.616 93.7874 50.4858 93.4891 50.4858 93.1435C50.4858 92.7931 50.616 92.4948 50.8764 92.2486C51.1416 91.9976 51.4588 91.8722 51.8281 91.8722C52.1974 91.8722 52.5123 91.9976 52.7727 92.2486C53.0379 92.4948 53.1705 92.7931 53.1705 93.1435C53.1705 93.4891 53.0379 93.7874 52.7727 94.0384C52.5123 94.2846 52.1974 94.4077 51.8281 94.4077ZM57.8597 100.523V107H55.7362V96.0909H57.7745V97.8665H57.9094C58.1604 97.2888 58.5534 96.8248 59.0884 96.4744C59.6282 96.1241 60.3076 95.9489 61.1268 95.9489C61.8701 95.9489 62.5212 96.1051 63.0799 96.4176C63.6386 96.7254 64.0719 97.1847 64.3796 97.7955C64.6874 98.4062 64.8413 99.1615 64.8413 100.061V107H62.7177V100.317C62.7177 99.526 62.5117 98.9081 62.0998 98.4631C61.6879 98.0133 61.122 97.7884 60.4023 97.7884C59.9099 97.7884 59.4719 97.8949 59.0884 98.108C58.7096 98.321 58.409 98.6335 58.1864 99.0455C57.9686 99.4527 57.8597 99.9451 57.8597 100.523ZM72.391 107.22C71.3162 107.22 70.3905 106.991 69.614 106.531C68.8422 106.067 68.2456 105.416 67.8242 104.578C67.4076 103.735 67.1992 102.748 67.1992 101.616C67.1992 100.499 67.4076 99.5142 67.8242 98.6619C68.2456 97.8097 68.8327 97.1444 69.5856 96.6662C70.3432 96.188 71.2286 95.9489 72.2418 95.9489C72.8574 95.9489 73.454 96.0507 74.0316 96.2543C74.6093 96.4579 75.1277 96.7775 75.587 97.2131C76.0463 97.6487 76.4085 98.2145 76.6737 98.9105C76.9388 99.6018 77.0714 100.442 77.0714 101.432V102.185H68.3995V100.594H74.9904C74.9904 100.035 74.8768 99.5402 74.6495 99.1094C74.4222 98.6738 74.1026 98.3305 73.6907 98.0795C73.2835 97.8286 72.8053 97.7031 72.256 97.7031C71.6594 97.7031 71.1386 97.8499 70.6935 98.1435C70.2532 98.4323 69.9123 98.8111 69.6708 99.2798C69.4341 99.7438 69.3157 100.248 69.3157 100.793V102.036C69.3157 102.765 69.4435 103.385 69.6992 103.896C69.9596 104.408 70.3219 104.798 70.7859 105.068C71.2499 105.333 71.792 105.466 72.4123 105.466C72.8147 105.466 73.1817 105.409 73.5131 105.295C73.8446 105.177 74.131 105.002 74.3725 104.77C74.614 104.538 74.7987 104.251 74.9265 103.911L76.9364 104.273C76.7754 104.865 76.4866 105.383 76.07 105.828C75.658 106.268 75.1396 106.612 74.5146 106.858C73.8943 107.099 73.1864 107.22 72.391 107.22Z" fill="black"/>
<path d="M17.8807 162.344V160.455H29.1378V162.344H24.5994V175H22.4119V162.344H17.8807ZM30.3221 175V164.091H32.3746V165.824H32.4883C32.6871 165.237 33.0375 164.775 33.5394 164.439C34.046 164.098 34.619 163.928 35.2582 163.928C35.3907 163.928 35.547 163.932 35.7269 163.942C35.9116 163.951 36.056 163.963 36.1602 163.977V166.009C36.0749 165.985 35.9234 165.959 35.7056 165.93C35.4878 165.897 35.27 165.881 35.0522 165.881C34.5503 165.881 34.1029 165.987 33.7099 166.2C33.3216 166.409 33.0138 166.7 32.7866 167.074C32.5593 167.443 32.4457 167.865 32.4457 168.338V175H30.3221ZM42.3089 175.22C41.2341 175.22 40.3085 174.991 39.532 174.531C38.7602 174.067 38.1636 173.416 37.7422 172.578C37.3255 171.735 37.1172 170.748 37.1172 169.616C37.1172 168.499 37.3255 167.514 37.7422 166.662C38.1636 165.81 38.7507 165.144 39.5036 164.666C40.2611 164.188 41.1465 163.949 42.1598 163.949C42.7753 163.949 43.3719 164.051 43.9496 164.254C44.5272 164.458 45.0457 164.777 45.505 165.213C45.9643 165.649 46.3265 166.214 46.5916 166.911C46.8568 167.602 46.9893 168.442 46.9893 169.432V170.185H38.3175V168.594H44.9084C44.9084 168.035 44.7947 167.54 44.5675 167.109C44.3402 166.674 44.0206 166.33 43.6087 166.08C43.2015 165.829 42.7232 165.703 42.174 165.703C41.5774 165.703 41.0566 165.85 40.6115 166.143C40.1712 166.432 39.8303 166.811 39.5888 167.28C39.352 167.744 39.2337 168.248 39.2337 168.793V170.036C39.2337 170.765 39.3615 171.385 39.6172 171.896C39.8776 172.408 40.2398 172.798 40.7038 173.068C41.1679 173.333 41.71 173.466 42.3303 173.466C42.7327 173.466 43.0997 173.409 43.4311 173.295C43.7625 173.177 44.049 173.002 44.2905 172.77C44.532 172.538 44.7166 172.251 44.8445 171.911L46.8544 172.273C46.6934 172.865 46.4046 173.383 45.9879 173.828C45.576 174.268 45.0575 174.612 44.4325 174.858C43.8123 175.099 43.1044 175.22 42.3089 175.22ZM54.0472 175.22C52.9724 175.22 52.0468 174.991 51.2702 174.531C50.4985 174.067 49.9019 173.416 49.4805 172.578C49.0638 171.735 48.8555 170.748 48.8555 169.616C48.8555 168.499 49.0638 167.514 49.4805 166.662C49.9019 165.81 50.489 165.144 51.2418 164.666C51.9994 164.188 52.8848 163.949 53.8981 163.949C54.5136 163.949 55.1102 164.051 55.6879 164.254C56.2655 164.458 56.784 164.777 57.2433 165.213C57.7025 165.649 58.0647 166.214 58.3299 166.911C58.5951 167.602 58.7276 168.442 58.7276 169.432V170.185H50.0558V168.594H56.6467C56.6467 168.035 56.533 167.54 56.3058 167.109C56.0785 166.674 55.7589 166.33 55.3469 166.08C54.9397 165.829 54.4615 165.703 53.9123 165.703C53.3157 165.703 52.7949 165.85 52.3498 166.143C51.9094 166.432 51.5685 166.811 51.3271 167.28C51.0903 167.744 50.9719 168.248 50.9719 168.793V170.036C50.9719 170.765 51.0998 171.385 51.3555 171.896C51.6159 172.408 51.9781 172.798 52.4421 173.068C52.9061 173.333 53.4483 173.466 54.0685 173.466C54.471 173.466 54.838 173.409 55.1694 173.295C55.5008 173.177 55.7873 173.002 56.0288 172.77C56.2702 172.538 56.4549 172.251 56.5827 171.911L58.5927 172.273C58.4317 172.865 58.1429 173.383 57.7262 173.828C57.3143 174.268 56.7958 174.612 56.1708 174.858C55.5505 175.099 54.8427 175.22 54.0472 175.22ZM68.5004 160.455V175H66.3768V160.455H68.5004ZM71.3572 175V164.091H73.4808V175H71.3572ZM72.4297 162.408C72.0604 162.408 71.7431 162.285 71.478 162.038C71.2176 161.787 71.0874 161.489 71.0874 161.143C71.0874 160.793 71.2176 160.495 71.478 160.249C71.7431 159.998 72.0604 159.872 72.4297 159.872C72.799 159.872 73.1139 159.998 73.3743 160.249C73.6394 160.495 73.772 160.793 73.772 161.143C73.772 161.489 73.6394 161.787 73.3743 162.038C73.1139 162.285 72.799 162.408 72.4297 162.408ZM78.4613 168.523V175H76.3377V164.091H78.3761V165.866H78.511C78.762 165.289 79.1549 164.825 79.69 164.474C80.2298 164.124 80.9092 163.949 81.7283 163.949C82.4717 163.949 83.1228 164.105 83.6815 164.418C84.2402 164.725 84.6734 165.185 84.9812 165.795C85.2889 166.406 85.4428 167.161 85.4428 168.061V175H83.3192V168.317C83.3192 167.526 83.1133 166.908 82.7013 166.463C82.2894 166.013 81.7236 165.788 81.0039 165.788C80.5115 165.788 80.0735 165.895 79.69 166.108C79.3112 166.321 79.0105 166.634 78.788 167.045C78.5702 167.453 78.4613 167.945 78.4613 168.523ZM92.9925 175.22C91.9177 175.22 90.9921 174.991 90.2156 174.531C89.4438 174.067 88.8472 173.416 88.4258 172.578C88.0091 171.735 87.8008 170.748 87.8008 169.616C87.8008 168.499 88.0091 167.514 88.4258 166.662C88.8472 165.81 89.4343 165.144 90.1871 164.666C90.9447 164.188 91.8301 163.949 92.8434 163.949C93.4589 163.949 94.0555 164.051 94.6332 164.254C95.2108 164.458 95.7293 164.777 96.1886 165.213C96.6478 165.649 97.0101 166.214 97.2752 166.911C97.5404 167.602 97.6729 168.442 97.6729 169.432V170.185H89.0011V168.594H95.592C95.592 168.035 95.4783 167.54 95.2511 167.109C95.0238 166.674 94.7042 166.33 94.2923 166.08C93.8851 165.829 93.4068 165.703 92.8576 165.703C92.261 165.703 91.7402 165.85 91.2951 166.143C90.8548 166.432 90.5138 166.811 90.2724 167.28C90.0356 167.744 89.9173 168.248 89.9173 168.793V170.036C89.9173 170.765 90.0451 171.385 90.3008 171.896C90.5612 172.408 90.9234 172.798 91.3874 173.068C91.8514 173.333 92.3936 173.466 93.0138 173.466C93.4163 173.466 93.7833 173.409 94.1147 173.295C94.4461 173.177 94.7326 173.002 94.9741 172.77C95.2156 172.538 95.4002 172.251 95.5281 171.911L97.538 172.273C97.377 172.865 97.0882 173.383 96.6715 173.828C96.2596 174.268 95.7411 174.612 95.1161 174.858C94.4959 175.099 93.788 175.22 92.9925 175.22Z" fill="black"/>
<path d="M19.598 241V226.455H24.9247C25.9569 226.455 26.8116 226.625 27.4886 226.966C28.1657 227.302 28.6723 227.759 29.0085 228.337C29.3447 228.91 29.5128 229.556 29.5128 230.276C29.5128 230.882 29.4015 231.393 29.179 231.81C28.9564 232.222 28.6581 232.553 28.2841 232.804C27.9148 233.05 27.5076 233.23 27.0625 233.344V233.486C27.5455 233.509 28.0166 233.666 28.4759 233.955C28.9399 234.239 29.3234 234.643 29.6264 235.169C29.9295 235.695 30.081 236.334 30.081 237.087C30.081 237.83 29.9058 238.498 29.5554 239.089C29.2098 239.677 28.6747 240.143 27.9503 240.489C27.2259 240.83 26.3002 241 25.1733 241H19.598ZM21.7926 239.118H24.9602C26.0114 239.118 26.7642 238.914 27.2188 238.507C27.6733 238.1 27.9006 237.591 27.9006 236.98C27.9006 236.521 27.7846 236.099 27.5526 235.716C27.3205 235.332 26.9891 235.027 26.5582 234.8C26.1321 234.572 25.6255 234.459 25.0384 234.459H21.7926V239.118ZM21.7926 232.747H24.733C25.2254 232.747 25.6681 232.652 26.0611 232.463C26.4588 232.274 26.7737 232.009 27.0057 231.668C27.2424 231.322 27.3608 230.915 27.3608 230.446C27.3608 229.845 27.1501 229.34 26.7287 228.933C26.3073 228.526 25.661 228.322 24.7898 228.322H21.7926V232.747ZM37.2152 241.22C36.1404 241.22 35.2147 240.991 34.4382 240.531C33.6664 240.067 33.0698 239.416 32.6484 238.578C32.2318 237.735 32.0234 236.748 32.0234 235.616C32.0234 234.499 32.2318 233.514 32.6484 232.662C33.0698 231.81 33.657 231.144 34.4098 230.666C35.1674 230.188 36.0528 229.949 37.0661 229.949C37.6816 229.949 38.2782 230.051 38.8558 230.254C39.4335 230.458 39.9519 230.777 40.4112 231.213C40.8705 231.649 41.2327 232.214 41.4979 232.911C41.763 233.602 41.8956 234.442 41.8956 235.432V236.185H33.2237V234.594H39.8146C39.8146 234.035 39.701 233.54 39.4737 233.109C39.2464 232.674 38.9268 232.33 38.5149 232.08C38.1077 231.829 37.6295 231.703 37.0803 231.703C36.4837 231.703 35.9628 231.85 35.5178 232.143C35.0774 232.432 34.7365 232.811 34.495 233.28C34.2583 233.744 34.1399 234.248 34.1399 234.793V236.036C34.1399 236.765 34.2678 237.385 34.5234 237.896C34.7839 238.408 35.1461 238.798 35.6101 239.068C36.0741 239.333 36.6162 239.466 37.2365 239.466C37.639 239.466 38.0059 239.409 38.3374 239.295C38.6688 239.177 38.9553 239.002 39.1967 238.77C39.4382 238.538 39.6229 238.251 39.7507 237.911L41.7607 238.273C41.5997 238.865 41.3108 239.383 40.8942 239.828C40.4822 240.268 39.9638 240.612 39.3388 240.858C38.7185 241.099 38.0107 241.22 37.2152 241.22ZM46.3754 226.455V241H44.2518V226.455H46.3754ZM53.8274 241.22C52.8047 241.22 51.9122 240.986 51.1499 240.517C50.3875 240.048 49.7957 239.393 49.3743 238.55C48.9529 237.707 48.7422 236.722 48.7422 235.595C48.7422 234.464 48.9529 233.474 49.3743 232.626C49.7957 231.779 50.3875 231.121 51.1499 230.652C51.9122 230.183 52.8047 229.949 53.8274 229.949C54.8501 229.949 55.7427 230.183 56.505 230.652C57.2673 231.121 57.8591 231.779 58.2805 232.626C58.7019 233.474 58.9126 234.464 58.9126 235.595C58.9126 236.722 58.7019 237.707 58.2805 238.55C57.8591 239.393 57.2673 240.048 56.505 240.517C55.7427 240.986 54.8501 241.22 53.8274 241.22ZM53.8345 239.438C54.4974 239.438 55.0466 239.262 55.4822 238.912C55.9179 238.562 56.2398 238.095 56.4482 237.513C56.6612 236.93 56.7678 236.289 56.7678 235.588C56.7678 234.892 56.6612 234.253 56.4482 233.67C56.2398 233.083 55.9179 232.612 55.4822 232.257C55.0466 231.902 54.4974 231.724 53.8345 231.724C53.1669 231.724 52.6129 231.902 52.1726 232.257C51.737 232.612 51.4126 233.083 51.1996 233.67C50.9912 234.253 50.8871 234.892 50.8871 235.588C50.8871 236.289 50.9912 236.93 51.1996 237.513C51.4126 238.095 51.737 238.562 52.1726 238.912C52.6129 239.262 53.1669 239.438 53.8345 239.438ZM63.3161 241L60.1058 230.091H62.3004L64.4382 238.102H64.5447L66.6896 230.091H68.8842L71.0149 238.067H71.1214L73.245 230.091H75.4396L72.2365 241H70.0703L67.8544 233.124H67.6911L65.4751 241H63.3161ZM87.8402 230.091V231.795H81.8814V230.091H87.8402ZM83.4794 227.477H85.603V237.797C85.603 238.209 85.6645 238.519 85.7876 238.727C85.9107 238.931 86.0694 239.071 86.2635 239.146C86.4624 239.217 86.6778 239.253 86.9098 239.253C87.0803 239.253 87.2294 239.241 87.3572 239.217C87.4851 239.194 87.5845 239.175 87.6555 239.161L88.0391 240.915C87.916 240.962 87.7408 241.009 87.5135 241.057C87.2862 241.109 87.0021 241.137 86.6612 241.142C86.1025 241.152 85.5817 241.052 85.0987 240.844C84.6158 240.635 84.2251 240.313 83.9268 239.878C83.6286 239.442 83.4794 238.895 83.4794 238.237V227.477ZM90.1893 241V230.091H92.2418V231.824H92.3555C92.5543 231.237 92.9047 230.775 93.4066 230.439C93.9132 230.098 94.4862 229.928 95.1254 229.928C95.2579 229.928 95.4142 229.932 95.5941 229.942C95.7788 229.951 95.9232 229.963 96.0273 229.977V232.009C95.9421 231.985 95.7906 231.959 95.5728 231.93C95.355 231.897 95.1372 231.881 94.9194 231.881C94.4175 231.881 93.9701 231.987 93.5771 232.2C93.1888 232.409 92.881 232.7 92.6538 233.074C92.4265 233.443 92.3129 233.865 92.3129 234.338V241H90.1893ZM102.176 241.22C101.101 241.22 100.176 240.991 99.3991 240.531C98.6274 240.067 98.0308 239.416 97.6094 238.578C97.1927 237.735 96.9844 236.748 96.9844 235.616C96.9844 234.499 97.1927 233.514 97.6094 232.662C98.0308 231.81 98.6179 231.144 99.3707 230.666C100.128 230.188 101.014 229.949 102.027 229.949C102.643 229.949 103.239 230.051 103.817 230.254C104.394 230.458 104.913 230.777 105.372 231.213C105.831 231.649 106.194 232.214 106.459 232.911C106.724 233.602 106.857 234.442 106.857 235.432V236.185H98.1847V234.594H104.776C104.776 234.035 104.662 233.54 104.435 233.109C104.207 232.674 103.888 232.33 103.476 232.08C103.069 231.829 102.59 231.703 102.041 231.703C101.445 231.703 100.924 231.85 100.479 232.143C100.038 232.432 99.6974 232.811 99.456 233.28C99.2192 233.744 99.1009 234.248 99.1009 234.793V236.036C99.1009 236.765 99.2287 237.385 99.4844 237.896C99.7448 238.408 100.107 238.798 100.571 239.068C101.035 239.333 101.577 239.466 102.197 239.466C102.6 239.466 102.967 239.409 103.298 239.295C103.63 239.177 103.916 239.002 104.158 238.77C104.399 238.538 104.584 238.251 104.712 237.911L106.722 238.273C106.561 238.865 106.272 239.383 105.855 239.828C105.443 240.268 104.925 240.612 104.3 240.858C103.679 241.099 102.972 241.22 102.176 241.22ZM113.914 241.22C112.84 241.22 111.914 240.991 111.137 240.531C110.366 240.067 109.769 239.416 109.348 238.578C108.931 237.735 108.723 236.748 108.723 235.616C108.723 234.499 108.931 233.514 109.348 232.662C109.769 231.81 110.356 231.144 111.109 230.666C111.867 230.188 112.752 229.949 113.765 229.949C114.381 229.949 114.977 230.051 115.555 230.254C116.133 230.458 116.651 230.777 117.11 231.213C117.57 231.649 117.932 232.214 118.197 232.911C118.462 233.602 118.595 234.442 118.595 235.432V236.185H109.923V234.594H116.514C116.514 234.035 116.4 233.54 116.173 233.109C115.946 232.674 115.626 232.33 115.214 232.08C114.807 231.829 114.329 231.703 113.779 231.703C113.183 231.703 112.662 231.85 112.217 232.143C111.777 232.432 111.436 232.811 111.194 233.28C110.958 233.744 110.839 234.248 110.839 234.793V236.036C110.839 236.765 110.967 237.385 111.223 237.896C111.483 238.408 111.845 238.798 112.309 239.068C112.773 239.333 113.315 239.466 113.936 239.466C114.338 239.466 114.705 239.409 115.037 239.295C115.368 239.177 115.654 239.002 115.896 238.77C116.137 238.538 116.322 238.251 116.45 237.911L118.46 238.273C118.299 238.865 118.01 239.383 117.593 239.828C117.181 240.268 116.663 240.612 116.038 240.858C115.418 241.099 114.71 241.22 113.914 241.22ZM128.368 226.455V241H126.244V226.455H128.368ZM131.224 241V230.091H133.348V241H131.224ZM132.297 228.408C131.928 228.408 131.61 228.285 131.345 228.038C131.085 227.787 130.955 227.489 130.955 227.143C130.955 226.793 131.085 226.495 131.345 226.249C131.61 225.998 131.928 225.872 132.297 225.872C132.666 225.872 132.981 225.998 133.241 226.249C133.507 226.495 133.639 226.793 133.639 227.143C133.639 227.489 133.507 227.787 133.241 228.038C132.981 228.285 132.666 228.408 132.297 228.408ZM138.328 234.523V241H136.205V230.091H138.243V231.866H138.378C138.629 231.289 139.022 230.825 139.557 230.474C140.097 230.124 140.776 229.949 141.596 229.949C142.339 229.949 142.99 230.105 143.549 230.418C144.107 230.725 144.541 231.185 144.848 231.795C145.156 232.406 145.31 233.161 145.31 234.061V241H143.186V234.317C143.186 233.526 142.98 232.908 142.569 232.463C142.157 232.013 141.591 231.788 140.871 231.788C140.379 231.788 139.941 231.895 139.557 232.108C139.178 232.321 138.878 232.634 138.655 233.045C138.437 233.453 138.328 233.945 138.328 234.523ZM152.86 241.22C151.785 241.22 150.859 240.991 150.083 240.531C149.311 240.067 148.714 239.416 148.293 238.578C147.876 237.735 147.668 236.748 147.668 235.616C147.668 234.499 147.876 233.514 148.293 232.662C148.714 231.81 149.301 231.144 150.054 230.666C150.812 230.188 151.697 229.949 152.711 229.949C153.326 229.949 153.923 230.051 154.5 230.254C155.078 230.458 155.596 230.777 156.056 231.213C156.515 231.649 156.877 232.214 157.142 232.911C157.408 233.602 157.54 234.442 157.54 235.432V236.185H148.868V234.594H155.459C155.459 234.035 155.346 233.54 155.118 233.109C154.891 232.674 154.571 232.33 154.159 232.08C153.752 231.829 153.274 231.703 152.725 231.703C152.128 231.703 151.607 231.85 151.162 232.143C150.722 232.432 150.381 232.811 150.14 233.28C149.903 233.744 149.784 234.248 149.784 234.793V236.036C149.784 236.765 149.912 237.385 150.168 237.896C150.428 238.408 150.791 238.798 151.255 239.068C151.719 239.333 152.261 239.466 152.881 239.466C153.283 239.466 153.65 239.409 153.982 239.295C154.313 239.177 154.6 239.002 154.841 238.77C155.083 238.538 155.267 238.251 155.395 237.911L157.405 238.273C157.244 238.865 156.955 239.383 156.539 239.828C156.127 240.268 155.608 240.612 154.983 240.858C154.363 241.099 153.655 241.22 152.86 241.22Z" fill="black"/>
<rect x="1" y="1" width="671" height="266" rx="29" stroke="black" stroke-width="2"/>
<path d="M215 1V267" stroke="black" stroke-width="2"/>
<path d="M1 134H671" stroke="black" stroke-width="2"/>
<path d="M171 200H671" stroke="black" stroke-width="2"/>
<path d="M672 67H182.496H1" stroke="black" stroke-width="2"/>
<path d="M171 200H1.5" stroke="black" stroke-width="2"/>
<path d="M1 31C1 14.4315 14.4315 1 31 1H642C658.569 1 672 14.4315 672 31V67H1V31Z" fill="black"/>
<path d="M18.598 41V26.4545H27.6179V28.3438H20.7926V32.7756H26.9716V34.6577H20.7926V41H18.598ZM30.0096 41V30.0909H32.0621V31.8239H32.1758C32.3746 31.2367 32.725 30.7751 33.2269 30.4389C33.7335 30.098 34.3065 29.9276 34.9457 29.9276C35.0782 29.9276 35.2345 29.9323 35.4144 29.9418C35.5991 29.9512 35.7435 29.9631 35.8477 29.9773V32.0085C35.7624 31.9848 35.6109 31.9588 35.3931 31.9304C35.1753 31.8973 34.9575 31.8807 34.7397 31.8807C34.2378 31.8807 33.7904 31.9872 33.3974 32.2003C33.0091 32.4086 32.7013 32.6998 32.4741 33.0739C32.2468 33.4432 32.1332 33.8646 32.1332 34.3381V41H30.0096ZM37.6854 41V30.0909H39.8089V41H37.6854ZM38.7578 28.4077C38.3885 28.4077 38.0713 28.2846 37.8061 28.0384C37.5457 27.7874 37.4155 27.4891 37.4155 27.1435C37.4155 26.7931 37.5457 26.4948 37.8061 26.2486C38.0713 25.9976 38.3885 25.8722 38.7578 25.8722C39.1271 25.8722 39.442 25.9976 39.7024 26.2486C39.9676 26.4948 40.1001 26.7931 40.1001 27.1435C40.1001 27.4891 39.9676 27.7874 39.7024 28.0384C39.442 28.2846 39.1271 28.4077 38.7578 28.4077ZM46.7496 41.2131C45.869 41.2131 45.083 40.9882 44.3917 40.5384C43.7051 40.0838 43.1654 39.4375 42.7724 38.5994C42.3841 37.7566 42.19 36.7457 42.19 35.5668C42.19 34.3878 42.3865 33.3793 42.7795 32.5412C43.1772 31.7031 43.7217 31.0616 44.413 30.6165C45.1043 30.1714 45.8879 29.9489 46.7638 29.9489C47.4409 29.9489 47.9854 30.0625 48.3974 30.2898C48.814 30.5123 49.136 30.7727 49.3633 31.071C49.5953 31.3693 49.7752 31.6321 49.9031 31.8594H50.0309V26.4545H52.1545V41H50.0806V39.3026H49.9031C49.7752 39.5346 49.5906 39.7997 49.3491 40.098C49.1123 40.3963 48.7856 40.6567 48.369 40.8793C47.9523 41.1018 47.4125 41.2131 46.7496 41.2131ZM47.2184 39.402C47.8292 39.402 48.3453 39.241 48.7667 38.919C49.1928 38.5923 49.5148 38.1402 49.7326 37.5625C49.9551 36.9848 50.0664 36.3125 50.0664 35.5455C50.0664 34.7879 49.9575 34.125 49.7397 33.5568C49.5219 32.9886 49.2023 32.5459 48.7809 32.2287C48.3595 31.9115 47.8387 31.7528 47.2184 31.7528C46.5792 31.7528 46.0465 31.9186 45.6204 32.25C45.1942 32.5814 44.8723 33.0336 44.6545 33.6065C44.4414 34.1795 44.3349 34.8258 44.3349 35.5455C44.3349 36.2746 44.4438 36.9304 44.6616 37.5128C44.8794 38.0952 45.2013 38.5568 45.6275 38.8977C46.0584 39.2339 46.5887 39.402 47.2184 39.402ZM58.3601 41.2415C57.6688 41.2415 57.0438 41.1136 56.4851 40.858C55.9264 40.5975 55.4837 40.2211 55.157 39.7287C54.835 39.2363 54.674 38.6326 54.674 37.9176C54.674 37.3021 54.7924 36.7955 55.0291 36.3977C55.2659 36 55.5855 35.6851 55.9879 35.4531C56.3904 35.2211 56.8402 35.0459 57.3374 34.9276C57.8345 34.8092 58.3411 34.7192 58.8572 34.6577C59.5107 34.5819 60.041 34.5204 60.4482 34.473C60.8554 34.4209 61.1513 34.3381 61.3359 34.2244C61.5206 34.1108 61.6129 33.9261 61.6129 33.6705V33.6207C61.6129 33.0005 61.4377 32.5199 61.0874 32.179C60.7417 31.8381 60.2256 31.6676 59.5391 31.6676C58.8241 31.6676 58.2607 31.8262 57.8487 32.1435C57.4415 32.456 57.1598 32.804 57.0036 33.1875L55.0078 32.733C55.2446 32.0701 55.5902 31.535 56.0447 31.1278C56.504 30.7159 57.032 30.4176 57.6286 30.233C58.2251 30.0436 58.8525 29.9489 59.5107 29.9489C59.9463 29.9489 60.4079 30.0009 60.8956 30.1051C61.388 30.2045 61.8473 30.3892 62.2734 30.6591C62.7043 30.929 63.0571 31.3149 63.3317 31.8168C63.6063 32.3139 63.7436 32.9602 63.7436 33.7557V41H61.6697V39.5085H61.5845C61.4472 39.7831 61.2412 40.053 60.9666 40.3182C60.692 40.5833 60.3393 40.8035 59.9084 40.9787C59.4775 41.1539 58.9614 41.2415 58.3601 41.2415ZM58.8217 39.5369C59.4089 39.5369 59.9107 39.4209 60.3274 39.1889C60.7488 38.9569 61.0684 38.6539 61.2862 38.2798C61.5088 37.901 61.62 37.4962 61.62 37.0653V35.6591C61.5443 35.7348 61.3975 35.8059 61.1797 35.8722C60.9666 35.9337 60.7228 35.9882 60.4482 36.0355C60.1735 36.0781 59.906 36.1184 59.6456 36.1562C59.3852 36.1894 59.1674 36.2178 58.9922 36.2415C58.5803 36.2936 58.2038 36.3812 57.8629 36.5043C57.5268 36.6274 57.2569 36.8049 57.0533 37.0369C56.8544 37.2642 56.755 37.5672 56.755 37.946C56.755 38.4716 56.9491 38.8693 57.3374 39.1392C57.7256 39.4044 58.2204 39.5369 58.8217 39.5369ZM67.5238 45.0909C67.2066 45.0909 66.9177 45.0649 66.6573 45.0128C66.3969 44.9654 66.2028 44.9134 66.0749 44.8565L66.5863 43.1165C66.9746 43.2206 67.3202 43.2656 67.6232 43.2514C67.9263 43.2372 68.1938 43.1236 68.4258 42.9105C68.6625 42.6974 68.8709 42.3494 69.0508 41.8665L69.3136 41.142L65.3221 30.0909H67.5948L70.3576 38.5568H70.4712L73.234 30.0909H75.5138L71.0181 42.456C70.8098 43.0241 70.5446 43.5047 70.2227 43.8977C69.9007 44.2955 69.5172 44.5938 69.0721 44.7926C68.627 44.9915 68.1109 45.0909 67.5238 45.0909Z" fill="white"/>
</svg>
