<svg width="132" height="113" viewBox="0 0 132 113" fill="none" xmlns="http://www.w3.org/2000/svg">
<path d="M66 3L28 43L50.8439 28.8605L48.2081 43L59.4104 33.3256L67.3179 43L71.052 25.5116L84.4509 43V33.3256L104 43L66 3Z" stroke="white" stroke-width="3" stroke-linecap="round"/>
<path d="M30.8783 56.63L30.9283 54.96L36.8283 64H34.4083L29.6383 56.64L30.6883 56.78L28.5483 59.61L28.7583 58.22V64H26.5883V49.25H28.7583V57.21L28.3383 56.86L34.1483 49.25H36.4883L30.8783 56.63ZM41.9789 64.21C41.1789 64.21 40.4756 64.0833 39.8689 63.83C39.2689 63.5767 38.8022 63.2133 38.4689 62.74C38.1356 62.2667 37.9689 61.6967 37.9689 61.03C37.9689 60.3167 38.1556 59.7267 38.5289 59.26C38.9089 58.7933 39.4289 58.4333 40.0889 58.18C40.7556 57.92 41.5122 57.75 42.3589 57.67C43.6189 57.5433 44.5056 57.42 45.0189 57.3C45.5389 57.18 45.7989 56.9833 45.7989 56.71C45.7989 56.7033 45.7989 56.6967 45.7989 56.69C45.7989 56.15 45.5689 55.74 45.1089 55.46C44.6489 55.18 43.9922 55.04 43.1389 55.04C42.2389 55.04 41.5422 55.2 41.0489 55.52C40.5622 55.8333 40.3189 56.3333 40.3189 57.02H38.1889C38.1889 56.2067 38.3989 55.5167 38.8189 54.95C39.2456 54.3833 39.8322 53.9533 40.5789 53.66C41.3256 53.36 42.1822 53.21 43.1489 53.21C44.0356 53.21 44.8422 53.3467 45.5689 53.62C46.3022 53.8867 46.8856 54.2867 47.3189 54.82C47.7522 55.3533 47.9689 56.0167 47.9689 56.81C47.9689 56.95 47.9689 57.09 47.9689 57.23C47.9689 57.3633 47.9689 57.5 47.9689 57.64V61.88C47.9689 62.1267 47.9789 62.3667 47.9989 62.6C48.0189 62.8267 48.0556 63.03 48.1089 63.21C48.1689 63.4167 48.2389 63.5867 48.3189 63.72C48.4056 63.8533 48.4756 63.9467 48.5289 64H46.3689C46.3289 63.96 46.2689 63.8767 46.1889 63.75C46.1156 63.6167 46.0489 63.4633 45.9889 63.29C45.9289 63.1233 45.8822 62.9333 45.8489 62.72C45.8222 62.5 45.8089 62.2633 45.8089 62.01L46.2089 62.29C46.0089 62.6767 45.7056 63.0133 45.2989 63.3C44.8989 63.5867 44.4156 63.81 43.8489 63.97C43.2889 64.13 42.6656 64.21 41.9789 64.21ZM42.4289 62.41C43.0489 62.41 43.6122 62.3133 44.1189 62.12C44.6322 61.92 45.0422 61.62 45.3489 61.22C45.6556 60.8133 45.8089 60.3033 45.8089 59.69V57.93L46.3189 58.6C45.8922 58.7667 45.3689 58.9033 44.7489 59.01C44.1356 59.11 43.5022 59.1933 42.8489 59.26C41.9489 59.34 41.2722 59.4967 40.8189 59.73C40.3656 59.9567 40.1389 60.3367 40.1389 60.87C40.1389 61.3833 40.3256 61.77 40.6989 62.03C41.0789 62.2833 41.6556 62.41 42.4289 62.41ZM52.8936 48.37V64H50.7536V48.37H52.8936ZM62.3689 64V59.5C62.3689 59.0933 62.3689 58.7433 62.3689 58.45C62.3689 58.15 62.3689 57.8967 62.3689 57.69C62.3689 57.43 62.3489 57.1533 62.3089 56.86C62.2756 56.5667 62.1956 56.2933 62.0689 56.04C61.9489 55.78 61.7589 55.57 61.4989 55.41C61.2389 55.25 60.8822 55.17 60.4289 55.17C59.9756 55.17 59.5922 55.26 59.2789 55.44C58.9656 55.62 58.7122 55.86 58.5189 56.16C58.3256 56.4533 58.1856 56.7833 58.0989 57.15C58.0122 57.51 57.9689 57.8733 57.9689 58.24L57.0489 57.74C57.0489 56.9067 57.2122 56.15 57.5389 55.47C57.8722 54.7833 58.3389 54.2367 58.9389 53.83C59.5456 53.4167 60.2589 53.21 61.0789 53.21C61.9122 53.21 62.5789 53.3833 63.0789 53.73C63.5856 54.07 63.9522 54.5367 64.1789 55.13C64.4056 55.7167 64.5189 56.3833 64.5189 57.13C64.5189 57.4033 64.5189 57.76 64.5189 58.2C64.5189 58.64 64.5189 59.15 64.5189 59.73V64H62.3689ZM55.7989 64V53.38H57.9689V64H55.7989ZM68.9089 64V59.51C68.9089 59.07 68.9089 58.7033 68.9089 58.41C68.9089 58.11 68.9089 57.86 68.9089 57.66C68.9089 57.3867 68.8922 57.1067 68.8589 56.82C68.8256 56.5267 68.7456 56.2567 68.6189 56.01C68.4922 55.7633 68.2956 55.5633 68.0289 55.41C67.7689 55.25 67.4056 55.17 66.9389 55.17C66.4789 55.17 66.0922 55.26 65.7789 55.44C65.4722 55.6133 65.2256 55.8467 65.0389 56.14C64.8522 56.4267 64.7189 56.7433 64.6389 57.09C64.5589 57.4367 64.5189 57.78 64.5189 58.12L63.5989 57.64C63.5989 56.84 63.7589 56.1033 64.0789 55.43C64.4056 54.7567 64.8656 54.22 65.4589 53.82C66.0589 53.4133 66.7689 53.21 67.5889 53.21C68.3889 53.21 69.0456 53.37 69.5589 53.69C70.0722 54.01 70.4522 54.4533 70.6989 55.02C70.9456 55.5867 71.0689 56.2433 71.0689 56.99C71.0689 57.2767 71.0689 57.6367 71.0689 58.07C71.0689 58.5033 71.0689 59.0067 71.0689 59.58V64H68.9089ZM78.9563 64.2C77.8629 64.2 76.8963 63.9633 76.0563 63.49C75.2229 63.0167 74.5696 62.3667 74.0963 61.54C73.6296 60.7067 73.3963 59.7533 73.3963 58.68C73.3963 57.6133 73.6296 56.67 74.0963 55.85C74.5696 55.0233 75.2229 54.38 76.0563 53.92C76.8963 53.4533 77.8629 53.22 78.9563 53.22C80.0496 53.22 81.0129 53.4533 81.8463 53.92C82.6863 54.38 83.3396 55.0233 83.8063 55.85C84.2796 56.67 84.5163 57.6133 84.5163 58.68C84.5163 59.7533 84.2796 60.7067 83.8063 61.54C83.3396 62.3667 82.6863 63.0167 81.8463 63.49C81.0129 63.9633 80.0496 64.2 78.9563 64.2ZM78.9563 62.34C79.6229 62.34 80.2096 62.19 80.7163 61.89C81.2229 61.59 81.6196 61.1667 81.9063 60.62C82.1929 60.0667 82.3363 59.42 82.3363 58.68C82.3363 57.9467 82.1929 57.31 81.9063 56.77C81.6196 56.23 81.2229 55.8133 80.7163 55.52C80.2096 55.2267 79.6229 55.08 78.9563 55.08C78.2963 55.08 77.7096 55.2267 77.1963 55.52C76.6896 55.8133 76.2929 56.23 76.0063 56.77C75.7196 57.31 75.5763 57.9467 75.5763 58.68C75.5763 59.42 75.7196 60.0667 76.0063 60.62C76.2929 61.1667 76.6896 61.59 77.1963 61.89C77.7096 62.19 78.2963 62.34 78.9563 62.34ZM94.4917 64V59.1C94.4917 58.8133 94.4917 58.57 94.4917 58.37C94.4917 58.17 94.4917 57.9833 94.4917 57.81C94.4917 57.29 94.4117 56.8333 94.2517 56.44C94.0917 56.04 93.8284 55.73 93.4617 55.51C93.0951 55.2833 92.6051 55.17 91.9917 55.17C91.4517 55.17 90.9617 55.3033 90.5217 55.57C90.0884 55.8367 89.7417 56.2 89.4817 56.66C89.2284 57.1133 89.1017 57.63 89.1017 58.21L88.1717 57.75C88.1717 56.89 88.3751 56.12 88.7817 55.44C89.1884 54.7533 89.7317 54.21 90.4117 53.81C91.0984 53.41 91.8484 53.21 92.6617 53.21C93.5017 53.21 94.2184 53.3733 94.8117 53.7C95.4117 54.02 95.8684 54.48 96.1817 55.08C96.5017 55.6733 96.6617 56.3833 96.6617 57.21C96.6617 57.5167 96.6617 57.8567 96.6617 58.23C96.6617 58.6033 96.6617 58.9633 96.6617 59.31V64H94.4917ZM86.9317 64V53.38H89.1017V64H86.9317ZM103.659 64.18C103.306 64.18 102.953 64.1433 102.599 64.07C102.253 63.9967 101.933 63.8633 101.639 63.67C101.353 63.47 101.123 63.1867 100.949 62.82C100.776 62.4533 100.689 61.9733 100.689 61.38C100.689 61.24 100.689 61.0933 100.689 60.94C100.689 60.7867 100.689 60.63 100.689 60.47V55.18H98.1392V53.38H99.4792C99.7659 53.38 99.9892 53.37 100.149 53.35C100.316 53.3233 100.436 53.2667 100.509 53.18C100.589 53.0867 100.639 52.94 100.659 52.74C100.679 52.54 100.689 52.2667 100.689 51.92V49.87H102.859V53.38H106.109V55.18H102.859V59.89C102.859 60.0233 102.859 60.1567 102.859 60.29C102.859 60.4233 102.859 60.5467 102.859 60.66C102.859 61.1933 102.923 61.6133 103.049 61.92C103.183 62.2267 103.483 62.38 103.949 62.38C104.149 62.38 104.339 62.3633 104.519 62.33C104.699 62.2967 104.836 62.26 104.929 62.22V63.99C104.809 64.0367 104.639 64.08 104.419 64.12C104.199 64.16 103.946 64.18 103.659 64.18ZM31.2168 73.25H34.9268V88H32.8668V74.77L32.9268 74.79L29.4568 88H26.4768L22.9768 74.78L23.0368 74.75V88H20.9668V73.25H24.6768L27.9868 86.6H27.8868L31.2168 73.25ZM42.9895 88.2C41.8961 88.2 40.9295 87.9633 40.0895 87.49C39.2561 87.0167 38.6028 86.3667 38.1295 85.54C37.6628 84.7067 37.4295 83.7533 37.4295 82.68C37.4295 81.6133 37.6628 80.67 38.1295 79.85C38.6028 79.0233 39.2561 78.38 40.0895 77.92C40.9295 77.4533 41.8961 77.22 42.9895 77.22C44.0828 77.22 45.0461 77.4533 45.8795 77.92C46.7195 78.38 47.3728 79.0233 47.8395 79.85C48.3128 80.67 48.5495 81.6133 48.5495 82.68C48.5495 83.7533 48.3128 84.7067 47.8395 85.54C47.3728 86.3667 46.7195 87.0167 45.8795 87.49C45.0461 87.9633 44.0828 88.2 42.9895 88.2ZM42.9895 86.34C43.6561 86.34 44.2428 86.19 44.7495 85.89C45.2561 85.59 45.6528 85.1667 45.9395 84.62C46.2261 84.0667 46.3695 83.42 46.3695 82.68C46.3695 81.9467 46.2261 81.31 45.9395 80.77C45.6528 80.23 45.2561 79.8133 44.7495 79.52C44.2428 79.2267 43.6561 79.08 42.9895 79.08C42.3295 79.08 41.7428 79.2267 41.2295 79.52C40.7228 79.8133 40.3261 80.23 40.0395 80.77C39.7528 81.31 39.6095 81.9467 39.6095 82.68C39.6095 83.42 39.7528 84.0667 40.0395 84.62C40.3261 85.1667 40.7228 85.59 41.2295 85.89C41.7428 86.19 42.3295 86.34 42.9895 86.34ZM54.8349 88.19C54.0816 88.19 53.4549 88.0633 52.9549 87.81C52.4549 87.55 52.0583 87.2133 51.7649 86.8C51.4716 86.38 51.2649 85.9233 51.1449 85.43C51.0249 84.93 50.9649 84.4433 50.9649 83.97C50.9649 83.7233 50.9649 83.4667 50.9649 83.2C50.9649 82.9267 50.9649 82.6533 50.9649 82.38V77.38H53.1449V82.07C53.1449 82.31 53.1449 82.5467 53.1449 82.78C53.1449 83.0067 53.1449 83.22 53.1449 83.42C53.1449 83.9333 53.2116 84.4067 53.3449 84.84C53.4783 85.2667 53.7116 85.6133 54.0449 85.88C54.3849 86.14 54.8583 86.27 55.4649 86.27C56.0316 86.27 56.5249 86.1033 56.9449 85.77C57.3649 85.43 57.6916 85.0033 57.9249 84.49C58.1583 83.97 58.2749 83.45 58.2749 82.93L59.2249 83.44C59.2249 84.0533 59.1216 84.6433 58.9149 85.21C58.7149 85.7767 58.4249 86.2867 58.0449 86.74C57.6649 87.1867 57.2016 87.54 56.6549 87.8C56.1149 88.06 55.5083 88.19 54.8349 88.19ZM58.2749 88V77.38H60.4449V88H58.2749ZM70.7515 88V83.1C70.7515 82.8133 70.7515 82.57 70.7515 82.37C70.7515 82.17 70.7515 81.9833 70.7515 81.81C70.7515 81.29 70.6715 80.8333 70.5115 80.44C70.3515 80.04 70.0882 79.73 69.7215 79.51C69.3548 79.2833 68.8648 79.17 68.2515 79.17C67.7115 79.17 67.2215 79.3033 66.7815 79.57C66.3482 79.8367 66.0015 80.2 65.7415 80.66C65.4882 81.1133 65.3615 81.63 65.3615 82.21L64.4315 81.75C64.4315 80.89 64.6348 80.12 65.0415 79.44C65.4482 78.7533 65.9915 78.21 66.6715 77.81C67.3582 77.41 68.1082 77.21 68.9215 77.21C69.7615 77.21 70.4782 77.3733 71.0715 77.7C71.6715 78.02 72.1282 78.48 72.4415 79.08C72.7615 79.6733 72.9215 80.3833 72.9215 81.21C72.9215 81.5167 72.9215 81.8567 72.9215 82.23C72.9215 82.6033 72.9215 82.9633 72.9215 83.31V88H70.7515ZM63.1915 88V77.38H65.3615V88H63.1915ZM79.919 88.18C79.5657 88.18 79.2123 88.1433 78.859 88.07C78.5123 87.9967 78.1923 87.8633 77.899 87.67C77.6123 87.47 77.3823 87.1867 77.209 86.82C77.0357 86.4533 76.949 85.9733 76.949 85.38C76.949 85.24 76.949 85.0933 76.949 84.94C76.949 84.7867 76.949 84.63 76.949 84.47V79.18H74.399V77.38H75.739C76.0257 77.38 76.249 77.37 76.409 77.35C76.5757 77.3233 76.6957 77.2667 76.769 77.18C76.849 77.0867 76.899 76.94 76.919 76.74C76.939 76.54 76.949 76.2667 76.949 75.92V73.87H79.119V77.38H82.369V79.18H79.119V83.89C79.119 84.0233 79.119 84.1567 79.119 84.29C79.119 84.4233 79.119 84.5467 79.119 84.66C79.119 85.1933 79.1823 85.6133 79.309 85.92C79.4423 86.2267 79.7423 86.38 80.209 86.38C80.409 86.38 80.599 86.3633 80.779 86.33C80.959 86.2967 81.0957 86.26 81.189 86.22V87.99C81.069 88.0367 80.899 88.08 80.679 88.12C80.459 88.16 80.2057 88.18 79.919 88.18ZM87.809 88.21C87.009 88.21 86.3057 88.0833 85.699 87.83C85.099 87.5767 84.6323 87.2133 84.299 86.74C83.9657 86.2667 83.799 85.6967 83.799 85.03C83.799 84.3167 83.9857 83.7267 84.359 83.26C84.739 82.7933 85.259 82.4333 85.919 82.18C86.5857 81.92 87.3423 81.75 88.189 81.67C89.449 81.5433 90.3357 81.42 90.849 81.3C91.369 81.18 91.629 80.9833 91.629 80.71C91.629 80.7033 91.629 80.6967 91.629 80.69C91.629 80.15 91.399 79.74 90.939 79.46C90.479 79.18 89.8223 79.04 88.969 79.04C88.069 79.04 87.3723 79.2 86.879 79.52C86.3923 79.8333 86.149 80.3333 86.149 81.02H84.019C84.019 80.2067 84.229 79.5167 84.649 78.95C85.0757 78.3833 85.6623 77.9533 86.409 77.66C87.1557 77.36 88.0123 77.21 88.979 77.21C89.8657 77.21 90.6723 77.3467 91.399 77.62C92.1323 77.8867 92.7157 78.2867 93.149 78.82C93.5823 79.3533 93.799 80.0167 93.799 80.81C93.799 80.95 93.799 81.09 93.799 81.23C93.799 81.3633 93.799 81.5 93.799 81.64V85.88C93.799 86.1267 93.809 86.3667 93.829 86.6C93.849 86.8267 93.8857 87.03 93.939 87.21C93.999 87.4167 94.069 87.5867 94.149 87.72C94.2357 87.8533 94.3057 87.9467 94.359 88H92.199C92.159 87.96 92.099 87.8767 92.019 87.75C91.9457 87.6167 91.879 87.4633 91.819 87.29C91.759 87.1233 91.7123 86.9333 91.679 86.72C91.6523 86.5 91.639 86.2633 91.639 86.01L92.039 86.29C91.839 86.6767 91.5357 87.0133 91.129 87.3C90.729 87.5867 90.2457 87.81 89.679 87.97C89.119 88.13 88.4957 88.21 87.809 88.21ZM88.259 86.41C88.879 86.41 89.4423 86.3133 89.949 86.12C90.4623 85.92 90.8723 85.62 91.179 85.22C91.4857 84.8133 91.639 84.3033 91.639 83.69V81.93L92.149 82.6C91.7223 82.7667 91.199 82.9033 90.579 83.01C89.9657 83.11 89.3323 83.1933 88.679 83.26C87.779 83.34 87.1023 83.4967 86.649 83.73C86.1957 83.9567 85.969 84.3367 85.969 84.87C85.969 85.3833 86.1557 85.77 86.529 86.03C86.909 86.2833 87.4857 86.41 88.259 86.41ZM96.4637 88V77.38H98.6037V88H96.4637ZM97.5437 75.18C97.1703 75.18 96.847 75.08 96.5737 74.88C96.307 74.6733 96.1737 74.39 96.1737 74.03C96.1737 73.6767 96.307 73.4 96.5737 73.2C96.847 72.9933 97.1703 72.89 97.5437 72.89C97.9103 72.89 98.227 72.9933 98.4937 73.2C98.767 73.4 98.9037 73.6767 98.9037 74.03C98.9037 74.39 98.767 74.6733 98.4937 74.88C98.227 75.08 97.9103 75.18 97.5437 75.18ZM109.052 88V83.1C109.052 82.8133 109.052 82.57 109.052 82.37C109.052 82.17 109.052 81.9833 109.052 81.81C109.052 81.29 108.972 80.8333 108.812 80.44C108.652 80.04 108.389 79.73 108.022 79.51C107.656 79.2833 107.166 79.17 106.552 79.17C106.012 79.17 105.522 79.3033 105.082 79.57C104.649 79.8367 104.302 80.2 104.042 80.66C103.789 81.1133 103.662 81.63 103.662 82.21L102.732 81.75C102.732 80.89 102.936 80.12 103.342 79.44C103.749 78.7533 104.292 78.21 104.972 77.81C105.659 77.41 106.409 77.21 107.222 77.21C108.062 77.21 108.779 77.3733 109.372 77.7C109.972 78.02 110.429 78.48 110.742 79.08C111.062 79.6733 111.222 80.3833 111.222 81.21C111.222 81.5167 111.222 81.8567 111.222 82.23C111.222 82.6033 111.222 82.9633 111.222 83.31V88H109.052ZM101.492 88V77.38H103.662V88H101.492ZM9.47344 112L13.4134 97.22H16.8234L20.7234 112H18.4934L15.1034 98.59H15.1234L11.7134 112H9.47344ZM11.7534 108.25V106.45H18.4734V108.25H11.7534ZM27.113 112.21C26.2396 112.21 25.4363 112 24.703 111.58C23.9696 111.153 23.383 110.527 22.943 109.7C22.503 108.873 22.283 107.863 22.283 106.67C22.283 105.503 22.5063 104.513 22.953 103.7C23.3996 102.887 23.9896 102.27 24.723 101.85C25.4563 101.423 26.253 101.21 27.113 101.21C27.9396 101.21 28.7063 101.41 29.413 101.81C30.1263 102.21 30.6996 102.767 31.133 103.48C31.5663 104.187 31.783 105.003 31.783 105.93C31.783 105.957 31.783 105.983 31.783 106.01C31.783 106.03 31.783 106.05 31.783 106.07L30.523 106.11C30.523 106.09 30.523 106.07 30.523 106.05C30.523 106.023 30.523 106 30.523 105.98C30.523 105.427 30.383 104.937 30.103 104.51C29.823 104.077 29.453 103.737 28.993 103.49C28.5396 103.237 28.0563 103.11 27.543 103.11C26.683 103.11 25.963 103.4 25.383 103.98C24.803 104.553 24.513 105.45 24.513 106.67C24.513 107.883 24.803 108.783 25.383 109.37C25.9696 109.95 26.6896 110.24 27.543 110.24C28.0763 110.24 28.5696 110.113 29.023 109.86C29.4763 109.6 29.8396 109.247 30.113 108.8C30.3863 108.353 30.523 107.843 30.523 107.27L31.783 107.32C31.783 108.24 31.573 109.07 31.153 109.81C30.7396 110.55 30.1796 111.137 29.473 111.57C28.773 111.997 27.9863 112.21 27.113 112.21ZM30.523 112V96.37H32.703V112H30.523ZM44.3964 101.38L40.9564 112H38.0764L34.5464 101.38H36.7864L39.6864 111.09H39.3464L42.1564 101.38H44.3964ZM46.5298 107.45V105.76H54.3498L54.0498 106.26C54.0498 106.22 54.0498 106.18 54.0498 106.14C54.0498 106.093 54.0498 106.053 54.0498 106.02C54.0498 105.48 53.9332 104.983 53.6998 104.53C53.4665 104.07 53.1165 103.703 52.6498 103.43C52.1898 103.15 51.6132 103.01 50.9198 103.01C50.2265 103.01 49.6165 103.16 49.0898 103.46C48.5698 103.753 48.1632 104.173 47.8698 104.72C47.5832 105.26 47.4398 105.91 47.4398 106.67C47.4398 107.443 47.5798 108.11 47.8598 108.67C48.1398 109.223 48.5432 109.65 49.0698 109.95C49.5965 110.25 50.2265 110.4 50.9598 110.4C51.4732 110.4 51.9165 110.35 52.2898 110.25C52.6698 110.143 52.9798 110.003 53.2198 109.83C53.4665 109.657 53.6532 109.47 53.7798 109.27C53.9065 109.063 53.9798 108.86 53.9998 108.66H56.1598C56.1198 109.093 55.9765 109.523 55.7298 109.95C55.4898 110.37 55.1465 110.753 54.6998 111.1C54.2598 111.44 53.7198 111.713 53.0798 111.92C52.4465 112.12 51.7165 112.22 50.8898 112.22C49.7832 112.22 48.8132 111.987 47.9798 111.52C47.1465 111.053 46.4965 110.407 46.0298 109.58C45.5632 108.747 45.3298 107.793 45.3298 106.72C45.3298 105.627 45.5665 104.667 46.0398 103.84C46.5132 103.013 47.1698 102.37 48.0098 101.91C48.8498 101.443 49.8132 101.21 50.8998 101.21C52.0065 101.21 52.9632 101.443 53.7698 101.91C54.5832 102.377 55.2098 103.02 55.6498 103.84C56.0898 104.66 56.3098 105.603 56.3098 106.67C56.3098 106.797 56.3065 106.943 56.2998 107.11C56.2932 107.277 56.2832 107.39 56.2698 107.45H46.5298ZM66.2886 112V107.1C66.2886 106.813 66.2886 106.57 66.2886 106.37C66.2886 106.17 66.2886 105.983 66.2886 105.81C66.2886 105.29 66.2086 104.833 66.0486 104.44C65.8886 104.04 65.6253 103.73 65.2586 103.51C64.8919 103.283 64.4019 103.17 63.7886 103.17C63.2486 103.17 62.7586 103.303 62.3186 103.57C61.8853 103.837 61.5386 104.2 61.2786 104.66C61.0253 105.113 60.8986 105.63 60.8986 106.21L59.9686 105.75C59.9686 104.89 60.1719 104.12 60.5786 103.44C60.9853 102.753 61.5286 102.21 62.2086 101.81C62.8953 101.41 63.6453 101.21 64.4586 101.21C65.2986 101.21 66.0153 101.373 66.6086 101.7C67.2086 102.02 67.6653 102.48 67.9786 103.08C68.2986 103.673 68.4586 104.383 68.4586 105.21C68.4586 105.517 68.4586 105.857 68.4586 106.23C68.4586 106.603 68.4586 106.963 68.4586 107.31V112H66.2886ZM58.7286 112V101.38H60.8986V112H58.7286ZM75.4561 112.18C75.1028 112.18 74.7494 112.143 74.3961 112.07C74.0494 111.997 73.7294 111.863 73.4361 111.67C73.1494 111.47 72.9194 111.187 72.7461 110.82C72.5728 110.453 72.4861 109.973 72.4861 109.38C72.4861 109.24 72.4861 109.093 72.4861 108.94C72.4861 108.787 72.4861 108.63 72.4861 108.47V103.18H69.9361V101.38H71.2761C71.5628 101.38 71.7861 101.37 71.9461 101.35C72.1128 101.323 72.2328 101.267 72.3061 101.18C72.3861 101.087 72.4361 100.94 72.4561 100.74C72.4761 100.54 72.4861 100.267 72.4861 99.92V97.87H74.6561V101.38H77.9061V103.18H74.6561V107.89C74.6561 108.023 74.6561 108.157 74.6561 108.29C74.6561 108.423 74.6561 108.547 74.6561 108.66C74.6561 109.193 74.7194 109.613 74.8461 109.92C74.9794 110.227 75.2794 110.38 75.7461 110.38C75.9461 110.38 76.1361 110.363 76.3161 110.33C76.4961 110.297 76.6328 110.26 76.7261 110.22V111.99C76.6061 112.037 76.4361 112.08 76.2161 112.12C75.9961 112.16 75.7428 112.18 75.4561 112.18ZM83.8486 112.19C83.0953 112.19 82.4686 112.063 81.9686 111.81C81.4686 111.55 81.0719 111.213 80.7786 110.8C80.4853 110.38 80.2786 109.923 80.1586 109.43C80.0386 108.93 79.9786 108.443 79.9786 107.97C79.9786 107.723 79.9786 107.467 79.9786 107.2C79.9786 106.927 79.9786 106.653 79.9786 106.38V101.38H82.1586V106.07C82.1586 106.31 82.1586 106.547 82.1586 106.78C82.1586 107.007 82.1586 107.22 82.1586 107.42C82.1586 107.933 82.2253 108.407 82.3586 108.84C82.4919 109.267 82.7253 109.613 83.0586 109.88C83.3986 110.14 83.8719 110.27 84.4786 110.27C85.0453 110.27 85.5386 110.103 85.9586 109.77C86.3786 109.43 86.7053 109.003 86.9386 108.49C87.1719 107.97 87.2886 107.45 87.2886 106.93L88.2386 107.44C88.2386 108.053 88.1353 108.643 87.9286 109.21C87.7286 109.777 87.4386 110.287 87.0586 110.74C86.6786 111.187 86.2153 111.54 85.6686 111.8C85.1286 112.06 84.5219 112.19 83.8486 112.19ZM87.2886 112V101.38H89.4586V112H87.2886ZM92.2052 112V101.38H94.3752V104.77L93.7952 104.51C93.8418 104.077 93.9518 103.663 94.1252 103.27C94.2985 102.877 94.5285 102.527 94.8152 102.22C95.1085 101.907 95.4685 101.66 95.8952 101.48C96.3218 101.3 96.8152 101.21 97.3752 101.21C97.8018 101.21 98.1452 101.243 98.4052 101.31C98.6718 101.377 98.8352 101.43 98.8952 101.47L98.4352 103.51C98.3685 103.463 98.2318 103.403 98.0252 103.33C97.8252 103.257 97.5452 103.22 97.1852 103.22C96.6385 103.22 96.1852 103.317 95.8252 103.51C95.4652 103.703 95.1785 103.96 94.9652 104.28C94.7518 104.6 94.5985 104.95 94.5052 105.33C94.4185 105.703 94.3752 106.08 94.3752 106.46V112H92.2052ZM101.217 107.45V105.76H109.037L108.737 106.26C108.737 106.22 108.737 106.18 108.737 106.14C108.737 106.093 108.737 106.053 108.737 106.02C108.737 105.48 108.621 104.983 108.387 104.53C108.154 104.07 107.804 103.703 107.337 103.43C106.877 103.15 106.301 103.01 105.607 103.01C104.914 103.01 104.304 103.16 103.777 103.46C103.257 103.753 102.851 104.173 102.557 104.72C102.271 105.26 102.127 105.91 102.127 106.67C102.127 107.443 102.267 108.11 102.547 108.67C102.827 109.223 103.231 109.65 103.757 109.95C104.284 110.25 104.914 110.4 105.647 110.4C106.161 110.4 106.604 110.35 106.977 110.25C107.357 110.143 107.667 110.003 107.907 109.83C108.154 109.657 108.341 109.47 108.467 109.27C108.594 109.063 108.667 108.86 108.687 108.66H110.847C110.807 109.093 110.664 109.523 110.417 109.95C110.177 110.37 109.834 110.753 109.387 111.1C108.947 111.44 108.407 111.713 107.767 111.92C107.134 112.12 106.404 112.22 105.577 112.22C104.471 112.22 103.501 111.987 102.667 111.52C101.834 111.053 101.184 110.407 100.717 109.58C100.251 108.747 100.017 107.793 100.017 106.72C100.017 105.627 100.254 104.667 100.727 103.84C101.201 103.013 101.857 102.37 102.697 101.91C103.537 101.443 104.501 101.21 105.587 101.21C106.694 101.21 107.651 101.443 108.457 101.91C109.271 102.377 109.897 103.02 110.337 103.84C110.777 104.66 110.997 105.603 110.997 106.67C110.997 106.797 110.994 106.943 110.987 107.11C110.981 107.277 110.971 107.39 110.957 107.45H101.217ZM117.596 112.21C116.963 112.21 116.366 112.14 115.806 112C115.246 111.86 114.753 111.657 114.326 111.39C113.906 111.117 113.576 110.78 113.336 110.38C113.103 109.98 112.986 109.517 112.986 108.99C112.986 108.943 112.986 108.897 112.986 108.85C112.986 108.797 112.986 108.753 112.986 108.72H115.146C115.146 108.753 115.146 108.783 115.146 108.81C115.146 108.837 115.146 108.873 115.146 108.92C115.146 109.407 115.369 109.777 115.816 110.03C116.269 110.277 116.883 110.4 117.656 110.4C118.109 110.4 118.523 110.353 118.896 110.26C119.276 110.167 119.576 110.023 119.796 109.83C120.023 109.637 120.136 109.39 120.136 109.09C120.136 108.603 119.896 108.257 119.416 108.05C118.943 107.843 118.223 107.66 117.256 107.5C116.729 107.407 116.219 107.287 115.726 107.14C115.239 106.993 114.799 106.8 114.406 106.56C114.019 106.313 113.709 106.01 113.476 105.65C113.249 105.283 113.136 104.843 113.136 104.33C113.136 103.663 113.336 103.097 113.736 102.63C114.136 102.163 114.676 101.81 115.356 101.57C116.036 101.33 116.786 101.21 117.606 101.21C118.399 101.21 119.133 101.34 119.806 101.6C120.486 101.853 121.033 102.223 121.446 102.71C121.859 103.19 122.066 103.78 122.066 104.48C122.066 104.507 122.066 104.537 122.066 104.57C122.066 104.603 122.066 104.633 122.066 104.66H119.916C119.916 104.633 119.916 104.61 119.916 104.59C119.916 104.57 119.916 104.547 119.916 104.52C119.916 104.173 119.806 103.89 119.586 103.67C119.366 103.45 119.079 103.287 118.726 103.18C118.379 103.067 118.009 103.01 117.616 103.01C117.256 103.01 116.893 103.05 116.526 103.13C116.166 103.203 115.866 103.333 115.626 103.52C115.386 103.7 115.266 103.947 115.266 104.26C115.266 104.58 115.383 104.837 115.616 105.03C115.849 105.217 116.179 105.373 116.606 105.5C117.033 105.62 117.529 105.73 118.096 105.83C118.616 105.923 119.123 106.043 119.616 106.19C120.109 106.33 120.553 106.517 120.946 106.75C121.346 106.983 121.663 107.283 121.896 107.65C122.136 108.017 122.256 108.467 122.256 109C122.256 109.553 122.129 110.03 121.876 110.43C121.623 110.83 121.276 111.163 120.836 111.43C120.403 111.69 119.906 111.883 119.346 112.01C118.793 112.143 118.209 112.21 117.596 112.21Z" fill="white"/>
</svg>
