<svg width="348" height="291" viewBox="0 0 348 291" fill="none" xmlns="http://www.w3.org/2000/svg">
<path d="M174 3L75 110L134.514 72.1767L127.647 110L156.832 84.1209L177.434 110L187.162 63.2186L222.069 110V84.1209L273 110L174 3Z" stroke="black" stroke-width="3" stroke-linecap="round"/>
<path d="M89.7079 141.312L89.8279 137.304L103.988 159H98.1799L86.7319 141.336L89.2519 141.672L84.1159 148.464L84.6199 145.128V159H79.4119V123.6H84.6199V142.704L83.6119 141.864L97.5559 123.6H103.172L89.7079 141.312ZM116.349 159.504C114.429 159.504 112.741 159.2 111.285 158.592C109.845 157.984 108.725 157.112 107.925 155.976C107.125 154.84 106.725 153.472 106.725 151.872C106.725 150.16 107.173 148.744 108.069 147.624C108.981 146.504 110.229 145.64 111.813 145.032C113.413 144.408 115.229 144 117.261 143.808C120.285 143.504 122.413 143.208 123.645 142.92C124.893 142.632 125.517 142.16 125.517 141.504C125.517 141.488 125.517 141.472 125.517 141.456C125.517 140.16 124.965 139.176 123.861 138.504C122.757 137.832 121.181 137.496 119.133 137.496C116.973 137.496 115.301 137.88 114.117 138.648C112.949 139.4 112.365 140.6 112.365 142.248H107.253C107.253 140.296 107.757 138.64 108.765 137.28C109.789 135.92 111.197 134.888 112.989 134.184C114.781 133.464 116.837 133.104 119.157 133.104C121.285 133.104 123.221 133.432 124.965 134.088C126.725 134.728 128.125 135.688 129.165 136.968C130.205 138.248 130.725 139.84 130.725 141.744C130.725 142.08 130.725 142.416 130.725 142.752C130.725 143.072 130.725 143.4 130.725 143.736V153.912C130.725 154.504 130.749 155.08 130.797 155.64C130.845 156.184 130.933 156.672 131.061 157.104C131.205 157.6 131.373 158.008 131.565 158.328C131.773 158.648 131.941 158.872 132.069 159H126.885C126.789 158.904 126.645 158.704 126.453 158.4C126.277 158.08 126.117 157.712 125.973 157.296C125.829 156.896 125.717 156.44 125.637 155.928C125.573 155.4 125.541 154.832 125.541 154.224L126.501 154.896C126.021 155.824 125.293 156.632 124.317 157.32C123.357 158.008 122.197 158.544 120.837 158.928C119.493 159.312 117.997 159.504 116.349 159.504ZM117.429 155.184C118.917 155.184 120.269 154.952 121.485 154.488C122.717 154.008 123.701 153.288 124.437 152.328C125.173 151.352 125.541 150.128 125.541 148.656V144.432L126.765 146.04C125.741 146.44 124.485 146.768 122.997 147.024C121.525 147.264 120.005 147.464 118.437 147.624C116.277 147.816 114.653 148.192 113.565 148.752C112.477 149.296 111.933 150.208 111.933 151.488C111.933 152.72 112.381 153.648 113.277 154.272C114.189 154.88 115.573 155.184 117.429 155.184ZM142.545 121.488V159H137.409V121.488H142.545ZM165.285 159V148.2C165.285 147.224 165.285 146.384 165.285 145.68C165.285 144.96 165.285 144.352 165.285 143.856C165.285 143.232 165.237 142.568 165.141 141.864C165.061 141.16 164.869 140.504 164.565 139.896C164.277 139.272 163.821 138.768 163.197 138.384C162.573 138 161.717 137.808 160.629 137.808C159.541 137.808 158.621 138.024 157.869 138.456C157.117 138.888 156.509 139.464 156.045 140.184C155.581 140.888 155.245 141.68 155.037 142.56C154.829 143.424 154.725 144.296 154.725 145.176L152.517 143.976C152.517 141.976 152.909 140.16 153.693 138.528C154.493 136.88 155.613 135.568 157.053 134.592C158.509 133.6 160.221 133.104 162.189 133.104C164.189 133.104 165.789 133.52 166.989 134.352C168.205 135.168 169.085 136.288 169.629 137.712C170.173 139.12 170.445 140.72 170.445 142.512C170.445 143.168 170.445 144.024 170.445 145.08C170.445 146.136 170.445 147.36 170.445 148.752V159H165.285ZM149.517 159V133.512H154.725V159H149.517ZM180.981 159V148.224C180.981 147.168 180.981 146.288 180.981 145.584C180.981 144.864 180.981 144.264 180.981 143.784C180.981 143.128 180.941 142.456 180.861 141.768C180.781 141.064 180.589 140.416 180.285 139.824C179.981 139.232 179.509 138.752 178.869 138.384C178.245 138 177.373 137.808 176.253 137.808C175.149 137.808 174.221 138.024 173.469 138.456C172.733 138.872 172.141 139.432 171.693 140.136C171.245 140.824 170.925 141.584 170.733 142.416C170.541 143.248 170.445 144.072 170.445 144.888L168.237 143.736C168.237 141.816 168.621 140.048 169.389 138.432C170.173 136.816 171.277 135.528 172.701 134.568C174.141 133.592 175.845 133.104 177.813 133.104C179.733 133.104 181.309 133.488 182.541 134.256C183.773 135.024 184.685 136.088 185.277 137.448C185.869 138.808 186.165 140.384 186.165 142.176C186.165 142.864 186.165 143.728 186.165 144.768C186.165 145.808 186.165 147.016 186.165 148.392V159H180.981ZM205.095 159.48C202.471 159.48 200.151 158.912 198.135 157.776C196.135 156.64 194.567 155.08 193.431 153.096C192.311 151.096 191.751 148.808 191.751 146.232C191.751 143.672 192.311 141.408 193.431 139.44C194.567 137.456 196.135 135.912 198.135 134.808C200.151 133.688 202.471 133.128 205.095 133.128C207.719 133.128 210.031 133.688 212.031 134.808C214.047 135.912 215.615 137.456 216.735 139.44C217.871 141.408 218.439 143.672 218.439 146.232C218.439 148.808 217.871 151.096 216.735 153.096C215.615 155.08 214.047 156.64 212.031 157.776C210.031 158.912 207.719 159.48 205.095 159.48ZM205.095 155.016C206.695 155.016 208.103 154.656 209.319 153.936C210.535 153.216 211.487 152.2 212.175 150.888C212.863 149.56 213.207 148.008 213.207 146.232C213.207 144.472 212.863 142.944 212.175 141.648C211.487 140.352 210.535 139.352 209.319 138.648C208.103 137.944 206.695 137.592 205.095 137.592C203.511 137.592 202.103 137.944 200.871 138.648C199.655 139.352 198.703 140.352 198.015 141.648C197.327 142.944 196.983 144.472 196.983 146.232C196.983 148.008 197.327 149.56 198.015 150.888C198.703 152.2 199.655 153.216 200.871 153.936C202.103 154.656 203.511 155.016 205.095 155.016ZM242.38 159V147.24C242.38 146.552 242.38 145.968 242.38 145.488C242.38 145.008 242.38 144.56 242.38 144.144C242.38 142.896 242.188 141.8 241.804 140.856C241.42 139.896 240.788 139.152 239.908 138.624C239.028 138.08 237.852 137.808 236.38 137.808C235.084 137.808 233.908 138.128 232.852 138.768C231.812 139.408 230.98 140.28 230.356 141.384C229.748 142.472 229.444 143.712 229.444 145.104L227.212 144C227.212 141.936 227.7 140.088 228.676 138.456C229.652 136.808 230.956 135.504 232.588 134.544C234.236 133.584 236.036 133.104 237.988 133.104C240.004 133.104 241.724 133.496 243.148 134.28C244.588 135.048 245.684 136.152 246.436 137.592C247.204 139.016 247.588 140.72 247.588 142.704C247.588 143.44 247.588 144.256 247.588 145.152C247.588 146.048 247.588 146.912 247.588 147.744V159H242.38ZM224.236 159V133.512H229.444V159H224.236ZM264.382 159.432C263.534 159.432 262.686 159.344 261.838 159.168C261.006 158.992 260.238 158.672 259.534 158.208C258.846 157.728 258.294 157.048 257.878 156.168C257.462 155.288 257.254 154.136 257.254 152.712C257.254 152.376 257.254 152.024 257.254 151.656C257.254 151.288 257.254 150.912 257.254 150.528V137.832H251.134V133.512H254.35C255.038 133.512 255.574 133.488 255.958 133.44C256.358 133.376 256.646 133.24 256.822 133.032C257.014 132.808 257.134 132.456 257.182 131.976C257.23 131.496 257.254 130.84 257.254 130.008V125.088H262.462V133.512H270.262V137.832H262.462V149.136C262.462 149.456 262.462 149.776 262.462 150.096C262.462 150.416 262.462 150.712 262.462 150.984C262.462 152.264 262.614 153.272 262.918 154.008C263.238 154.744 263.958 155.112 265.078 155.112C265.558 155.112 266.014 155.072 266.446 154.992C266.878 154.912 267.206 154.824 267.43 154.728V158.976C267.142 159.088 266.734 159.192 266.206 159.288C265.678 159.384 265.07 159.432 264.382 159.432ZM90.5203 181.6H99.4243V217H94.4803V185.248L94.6243 185.296L86.2963 217H79.1443L70.7443 185.272L70.8883 185.2V217H65.9203V181.6H74.8243L82.7683 213.64H82.5283L90.5203 181.6ZM118.775 217.48C116.151 217.48 113.831 216.912 111.815 215.776C109.815 214.64 108.247 213.08 107.111 211.096C105.991 209.096 105.431 206.808 105.431 204.232C105.431 201.672 105.991 199.408 107.111 197.44C108.247 195.456 109.815 193.912 111.815 192.808C113.831 191.688 116.151 191.128 118.775 191.128C121.399 191.128 123.711 191.688 125.711 192.808C127.727 193.912 129.295 195.456 130.415 197.44C131.551 199.408 132.119 201.672 132.119 204.232C132.119 206.808 131.551 209.096 130.415 211.096C129.295 213.08 127.727 214.64 125.711 215.776C123.711 216.912 121.399 217.48 118.775 217.48ZM118.775 213.016C120.375 213.016 121.783 212.656 122.999 211.936C124.215 211.216 125.167 210.2 125.855 208.888C126.543 207.56 126.887 206.008 126.887 204.232C126.887 202.472 126.543 200.944 125.855 199.648C125.167 198.352 124.215 197.352 122.999 196.648C121.783 195.944 120.375 195.592 118.775 195.592C117.191 195.592 115.783 195.944 114.551 196.648C113.335 197.352 112.383 198.352 111.695 199.648C111.007 200.944 110.663 202.472 110.663 204.232C110.663 206.008 111.007 207.56 111.695 208.888C112.383 210.2 113.335 211.216 114.551 211.936C115.783 212.656 117.191 213.016 118.775 213.016ZM147.204 217.456C145.396 217.456 143.892 217.152 142.692 216.544C141.492 215.92 140.54 215.112 139.836 214.12C139.132 213.112 138.636 212.016 138.348 210.832C138.06 209.632 137.916 208.464 137.916 207.328C137.916 206.736 137.916 206.12 137.916 205.48C137.916 204.824 137.916 204.168 137.916 203.512V191.512H143.148V202.768C143.148 203.344 143.148 203.912 143.148 204.472C143.148 205.016 143.148 205.528 143.148 206.008C143.148 207.24 143.308 208.376 143.628 209.416C143.948 210.44 144.508 211.272 145.308 211.912C146.124 212.536 147.26 212.848 148.716 212.848C150.076 212.848 151.26 212.448 152.268 211.648C153.276 210.832 154.06 209.808 154.62 208.576C155.18 207.328 155.46 206.08 155.46 204.832L157.74 206.056C157.74 207.528 157.492 208.944 156.996 210.304C156.516 211.664 155.82 212.888 154.908 213.976C153.996 215.048 152.884 215.896 151.572 216.52C150.276 217.144 148.82 217.456 147.204 217.456ZM155.46 217V191.512H160.668V217H155.46ZM185.404 217V205.24C185.404 204.552 185.404 203.968 185.404 203.488C185.404 203.008 185.404 202.56 185.404 202.144C185.404 200.896 185.212 199.8 184.828 198.856C184.444 197.896 183.812 197.152 182.932 196.624C182.052 196.08 180.876 195.808 179.404 195.808C178.108 195.808 176.932 196.128 175.876 196.768C174.836 197.408 174.004 198.28 173.38 199.384C172.772 200.472 172.468 201.712 172.468 203.104L170.236 202C170.236 199.936 170.724 198.088 171.7 196.456C172.676 194.808 173.98 193.504 175.612 192.544C177.26 191.584 179.06 191.104 181.012 191.104C183.028 191.104 184.748 191.496 186.172 192.28C187.612 193.048 188.708 194.152 189.46 195.592C190.228 197.016 190.612 198.72 190.612 200.704C190.612 201.44 190.612 202.256 190.612 203.152C190.612 204.048 190.612 204.912 190.612 205.744V217H185.404ZM167.26 217V191.512H172.468V217H167.26ZM207.406 217.432C206.558 217.432 205.71 217.344 204.862 217.168C204.03 216.992 203.262 216.672 202.558 216.208C201.87 215.728 201.318 215.048 200.902 214.168C200.486 213.288 200.278 212.136 200.278 210.712C200.278 210.376 200.278 210.024 200.278 209.656C200.278 209.288 200.278 208.912 200.278 208.528V195.832H194.158V191.512H197.374C198.062 191.512 198.598 191.488 198.982 191.44C199.382 191.376 199.67 191.24 199.846 191.032C200.038 190.808 200.158 190.456 200.206 189.976C200.254 189.496 200.278 188.84 200.278 188.008V183.088H205.486V191.512H213.286V195.832H205.486V207.136C205.486 207.456 205.486 207.776 205.486 208.096C205.486 208.416 205.486 208.712 205.486 208.984C205.486 210.264 205.638 211.272 205.942 212.008C206.262 212.744 206.982 213.112 208.102 213.112C208.582 213.112 209.038 213.072 209.47 212.992C209.902 212.912 210.23 212.824 210.454 212.728V216.976C210.166 217.088 209.758 217.192 209.23 217.288C208.702 217.384 208.094 217.432 207.406 217.432ZM226.342 217.504C224.422 217.504 222.734 217.2 221.278 216.592C219.838 215.984 218.718 215.112 217.918 213.976C217.118 212.84 216.718 211.472 216.718 209.872C216.718 208.16 217.166 206.744 218.062 205.624C218.974 204.504 220.222 203.64 221.806 203.032C223.406 202.408 225.222 202 227.254 201.808C230.278 201.504 232.406 201.208 233.638 200.92C234.886 200.632 235.51 200.16 235.51 199.504C235.51 199.488 235.51 199.472 235.51 199.456C235.51 198.16 234.958 197.176 233.854 196.504C232.75 195.832 231.174 195.496 229.126 195.496C226.966 195.496 225.294 195.88 224.11 196.648C222.942 197.4 222.358 198.6 222.358 200.248H217.246C217.246 198.296 217.75 196.64 218.758 195.28C219.782 193.92 221.19 192.888 222.982 192.184C224.774 191.464 226.83 191.104 229.15 191.104C231.278 191.104 233.214 191.432 234.958 192.088C236.718 192.728 238.118 193.688 239.158 194.968C240.198 196.248 240.718 197.84 240.718 199.744C240.718 200.08 240.718 200.416 240.718 200.752C240.718 201.072 240.718 201.4 240.718 201.736V211.912C240.718 212.504 240.742 213.08 240.79 213.64C240.838 214.184 240.926 214.672 241.054 215.104C241.198 215.6 241.366 216.008 241.558 216.328C241.766 216.648 241.934 216.872 242.062 217H236.878C236.782 216.904 236.638 216.704 236.446 216.4C236.27 216.08 236.11 215.712 235.966 215.296C235.822 214.896 235.71 214.44 235.63 213.928C235.566 213.4 235.534 212.832 235.534 212.224L236.494 212.896C236.014 213.824 235.286 214.632 234.31 215.32C233.35 216.008 232.19 216.544 230.83 216.928C229.486 217.312 227.99 217.504 226.342 217.504ZM227.422 213.184C228.91 213.184 230.262 212.952 231.478 212.488C232.71 212.008 233.694 211.288 234.43 210.328C235.166 209.352 235.534 208.128 235.534 206.656V202.432L236.758 204.04C235.734 204.44 234.478 204.768 232.99 205.024C231.518 205.264 229.998 205.464 228.43 205.624C226.27 205.816 224.646 206.192 223.558 206.752C222.47 207.296 221.926 208.208 221.926 209.488C221.926 210.72 222.374 211.648 223.27 212.272C224.182 212.88 225.566 213.184 227.422 213.184ZM247.113 217V191.512H252.249V217H247.113ZM249.705 186.232C248.809 186.232 248.033 185.992 247.377 185.512C246.737 185.016 246.417 184.336 246.417 183.472C246.417 182.624 246.737 181.96 247.377 181.48C248.033 180.984 248.809 180.736 249.705 180.736C250.585 180.736 251.345 180.984 251.985 181.48C252.641 181.96 252.969 182.624 252.969 183.472C252.969 184.336 252.641 185.016 251.985 185.512C251.345 185.992 250.585 186.232 249.705 186.232ZM277.325 217V205.24C277.325 204.552 277.325 203.968 277.325 203.488C277.325 203.008 277.325 202.56 277.325 202.144C277.325 200.896 277.133 199.8 276.749 198.856C276.365 197.896 275.733 197.152 274.853 196.624C273.973 196.08 272.797 195.808 271.325 195.808C270.029 195.808 268.853 196.128 267.797 196.768C266.757 197.408 265.925 198.28 265.301 199.384C264.693 200.472 264.389 201.712 264.389 203.104L262.157 202C262.157 199.936 262.645 198.088 263.621 196.456C264.597 194.808 265.901 193.504 267.533 192.544C269.181 191.584 270.981 191.104 272.933 191.104C274.949 191.104 276.669 191.496 278.093 192.28C279.533 193.048 280.629 194.152 281.381 195.592C282.149 197.016 282.533 198.72 282.533 200.704C282.533 201.44 282.533 202.256 282.533 203.152C282.533 204.048 282.533 204.912 282.533 205.744V217H277.325ZM259.181 217V191.512H264.389V217H259.181ZM38.3363 275L47.7923 239.528H55.9763L65.3363 275H59.9843L51.8483 242.816H51.8963L43.7122 275H38.3363ZM43.8083 266V261.68H59.9363V266H43.8083ZM80.6711 275.504C78.5751 275.504 76.6471 275 74.8871 273.992C73.1271 272.968 71.7191 271.464 70.6631 269.48C69.6071 267.496 69.0791 265.072 69.0791 262.208C69.0791 259.408 69.6151 257.032 70.6871 255.08C71.7591 253.128 73.1751 251.648 74.9351 250.64C76.6951 249.616 78.6071 249.104 80.6711 249.104C82.6551 249.104 84.4951 249.584 86.1911 250.544C87.9031 251.504 89.2791 252.84 90.3191 254.552C91.3591 256.248 91.8791 258.208 91.8791 260.432C91.8791 260.496 91.8791 260.56 91.8791 260.624C91.8791 260.672 91.8791 260.72 91.8791 260.768L88.8551 260.864C88.8551 260.816 88.8551 260.768 88.8551 260.72C88.8551 260.656 88.8551 260.6 88.8551 260.552C88.8551 259.224 88.5191 258.048 87.8471 257.024C87.1751 255.984 86.2871 255.168 85.1831 254.576C84.0951 253.968 82.9351 253.664 81.7031 253.664C79.6391 253.664 77.9111 254.36 76.5191 255.752C75.1271 257.128 74.4311 259.28 74.4311 262.208C74.4311 265.12 75.1271 267.28 76.5191 268.688C77.9271 270.08 79.6551 270.776 81.7031 270.776C82.9831 270.776 84.1671 270.472 85.2551 269.864C86.3431 269.24 87.2151 268.392 87.8711 267.32C88.5271 266.248 88.8551 265.024 88.8551 263.648L91.8791 263.768C91.8791 265.976 91.3751 267.968 90.3671 269.744C89.3751 271.52 88.0311 272.928 86.3351 273.968C84.6551 274.992 82.7671 275.504 80.6711 275.504ZM88.8551 275V237.488H94.0871V275H88.8551ZM122.151 249.512L113.895 275H106.983L98.5114 249.512H103.887L110.847 272.816H110.031L116.775 249.512H122.151ZM127.272 264.08V260.024H146.04L145.32 261.224C145.32 261.128 145.32 261.032 145.32 260.936C145.32 260.824 145.32 260.728 145.32 260.648C145.32 259.352 145.04 258.16 144.48 257.072C143.92 255.968 143.08 255.088 141.96 254.432C140.856 253.76 139.472 253.424 137.808 253.424C136.144 253.424 134.68 253.784 133.416 254.504C132.168 255.208 131.192 256.216 130.488 257.528C129.8 258.824 129.456 260.384 129.456 262.208C129.456 264.064 129.792 265.664 130.464 267.008C131.136 268.336 132.104 269.36 133.368 270.08C134.632 270.8 136.144 271.16 137.904 271.16C139.136 271.16 140.2 271.04 141.096 270.8C142.008 270.544 142.752 270.208 143.328 269.792C143.92 269.376 144.368 268.928 144.672 268.448C144.976 267.952 145.152 267.464 145.2 266.984H150.384C150.288 268.024 149.944 269.056 149.352 270.08C148.776 271.088 147.952 272.008 146.88 272.84C145.824 273.656 144.528 274.312 142.992 274.808C141.472 275.288 139.72 275.528 137.736 275.528C135.08 275.528 132.752 274.968 130.752 273.848C128.752 272.728 127.192 271.176 126.072 269.192C124.952 267.192 124.392 264.904 124.392 262.328C124.392 259.704 124.96 257.4 126.096 255.416C127.232 253.432 128.808 251.888 130.824 250.784C132.84 249.664 135.152 249.104 137.76 249.104C140.416 249.104 142.712 249.664 144.648 250.784C146.6 251.904 148.104 253.448 149.16 255.416C150.216 257.384 150.744 259.648 150.744 262.208C150.744 262.512 150.736 262.864 150.72 263.264C150.704 263.664 150.68 263.936 150.648 264.08H127.272ZM174.693 275V263.24C174.693 262.552 174.693 261.968 174.693 261.488C174.693 261.008 174.693 260.56 174.693 260.144C174.693 258.896 174.501 257.8 174.117 256.856C173.733 255.896 173.101 255.152 172.221 254.624C171.341 254.08 170.165 253.808 168.693 253.808C167.397 253.808 166.221 254.128 165.165 254.768C164.125 255.408 163.293 256.28 162.669 257.384C162.061 258.472 161.757 259.712 161.757 261.104L159.525 260C159.525 257.936 160.013 256.088 160.989 254.456C161.965 252.808 163.269 251.504 164.901 250.544C166.549 249.584 168.349 249.104 170.301 249.104C172.317 249.104 174.037 249.496 175.461 250.28C176.901 251.048 177.997 252.152 178.749 253.592C179.517 255.016 179.901 256.72 179.901 258.704C179.901 259.44 179.901 260.256 179.901 261.152C179.901 262.048 179.901 262.912 179.901 263.744V275H174.693ZM156.549 275V249.512H161.757V275H156.549ZM196.695 275.432C195.847 275.432 194.999 275.344 194.151 275.168C193.319 274.992 192.551 274.672 191.847 274.208C191.159 273.728 190.607 273.048 190.191 272.168C189.775 271.288 189.567 270.136 189.567 268.712C189.567 268.376 189.567 268.024 189.567 267.656C189.567 267.288 189.567 266.912 189.567 266.528V253.832H183.447V249.512H186.663C187.351 249.512 187.887 249.488 188.271 249.44C188.671 249.376 188.959 249.24 189.135 249.032C189.327 248.808 189.447 248.456 189.495 247.976C189.543 247.496 189.567 246.84 189.567 246.008V241.088H194.775V249.512H202.575V253.832H194.775V265.136C194.775 265.456 194.775 265.776 194.775 266.096C194.775 266.416 194.775 266.712 194.775 266.984C194.775 268.264 194.927 269.272 195.231 270.008C195.551 270.744 196.271 271.112 197.391 271.112C197.871 271.112 198.327 271.072 198.759 270.992C199.191 270.912 199.519 270.824 199.743 270.728V274.976C199.455 275.088 199.047 275.192 198.519 275.288C197.991 275.384 197.383 275.432 196.695 275.432ZM216.837 275.456C215.029 275.456 213.525 275.152 212.325 274.544C211.125 273.92 210.173 273.112 209.469 272.12C208.765 271.112 208.269 270.016 207.981 268.832C207.693 267.632 207.549 266.464 207.549 265.328C207.549 264.736 207.549 264.12 207.549 263.48C207.549 262.824 207.549 262.168 207.549 261.512V249.512H212.781V260.768C212.781 261.344 212.781 261.912 212.781 262.472C212.781 263.016 212.781 263.528 212.781 264.008C212.781 265.24 212.941 266.376 213.261 267.416C213.581 268.44 214.141 269.272 214.941 269.912C215.757 270.536 216.893 270.848 218.349 270.848C219.709 270.848 220.893 270.448 221.901 269.648C222.909 268.832 223.693 267.808 224.253 266.576C224.813 265.328 225.093 264.08 225.093 262.832L227.373 264.056C227.373 265.528 227.125 266.944 226.629 268.304C226.149 269.664 225.453 270.888 224.541 271.976C223.629 273.048 222.517 273.896 221.205 274.52C219.909 275.144 218.453 275.456 216.837 275.456ZM225.093 275V249.512H230.301V275H225.093ZM236.892 275V249.512H242.1V257.648L240.708 257.024C240.82 255.984 241.084 254.992 241.5 254.048C241.916 253.104 242.468 252.264 243.156 251.528C243.86 250.776 244.724 250.184 245.748 249.752C246.772 249.32 247.956 249.104 249.3 249.104C250.324 249.104 251.148 249.184 251.772 249.344C252.412 249.504 252.804 249.632 252.948 249.728L251.844 254.624C251.684 254.512 251.356 254.368 250.86 254.192C250.38 254.016 249.708 253.928 248.844 253.928C247.532 253.928 246.444 254.16 245.58 254.624C244.716 255.088 244.028 255.704 243.516 256.472C243.004 257.24 242.636 258.08 242.412 258.992C242.204 259.888 242.1 260.792 242.1 261.704V275H236.892ZM258.522 264.08V260.024H277.29L276.57 261.224C276.57 261.128 276.57 261.032 276.57 260.936C276.57 260.824 276.57 260.728 276.57 260.648C276.57 259.352 276.29 258.16 275.73 257.072C275.17 255.968 274.33 255.088 273.21 254.432C272.106 253.76 270.722 253.424 269.058 253.424C267.394 253.424 265.93 253.784 264.666 254.504C263.418 255.208 262.442 256.216 261.738 257.528C261.05 258.824 260.706 260.384 260.706 262.208C260.706 264.064 261.042 265.664 261.714 267.008C262.386 268.336 263.354 269.36 264.618 270.08C265.882 270.8 267.394 271.16 269.154 271.16C270.386 271.16 271.45 271.04 272.346 270.8C273.258 270.544 274.002 270.208 274.578 269.792C275.17 269.376 275.618 268.928 275.922 268.448C276.226 267.952 276.402 267.464 276.45 266.984H281.634C281.538 268.024 281.194 269.056 280.602 270.08C280.026 271.088 279.202 272.008 278.13 272.84C277.074 273.656 275.778 274.312 274.242 274.808C272.722 275.288 270.97 275.528 268.986 275.528C266.33 275.528 264.002 274.968 262.002 273.848C260.002 272.728 258.442 271.176 257.322 269.192C256.202 267.192 255.642 264.904 255.642 262.328C255.642 259.704 256.21 257.4 257.346 255.416C258.482 253.432 260.058 251.888 262.074 250.784C264.09 249.664 266.402 249.104 269.01 249.104C271.666 249.104 273.962 249.664 275.898 250.784C277.85 251.904 279.354 253.448 280.41 255.416C281.466 257.384 281.994 259.648 281.994 262.208C281.994 262.512 281.986 262.864 281.97 263.264C281.954 263.664 281.93 263.936 281.898 264.08H258.522ZM297.831 275.504C296.311 275.504 294.879 275.336 293.535 275C292.191 274.664 291.007 274.176 289.983 273.536C288.975 272.88 288.183 272.072 287.607 271.112C287.047 270.152 286.767 269.04 286.767 267.776C286.767 267.664 286.767 267.552 286.767 267.44C286.767 267.312 286.767 267.208 286.767 267.128H291.951C291.951 267.208 291.951 267.28 291.951 267.344C291.951 267.408 291.951 267.496 291.951 267.608C291.951 268.776 292.487 269.664 293.559 270.272C294.647 270.864 296.119 271.16 297.975 271.16C299.063 271.16 300.055 271.048 300.951 270.824C301.863 270.6 302.583 270.256 303.111 269.792C303.655 269.328 303.927 268.736 303.927 268.016C303.927 266.848 303.351 266.016 302.199 265.52C301.063 265.024 299.335 264.584 297.015 264.2C295.751 263.976 294.527 263.688 293.343 263.336C292.175 262.984 291.119 262.52 290.175 261.944C289.247 261.352 288.503 260.624 287.943 259.76C287.399 258.88 287.127 257.824 287.127 256.592C287.127 254.992 287.607 253.632 288.567 252.512C289.527 251.392 290.823 250.544 292.455 249.968C294.087 249.392 295.887 249.104 297.855 249.104C299.759 249.104 301.519 249.416 303.135 250.04C304.767 250.648 306.079 251.536 307.071 252.704C308.063 253.856 308.559 255.272 308.559 256.952C308.559 257.016 308.559 257.088 308.559 257.168C308.559 257.248 308.559 257.32 308.559 257.384H303.399C303.399 257.32 303.399 257.264 303.399 257.216C303.399 257.168 303.399 257.112 303.399 257.048C303.399 256.216 303.135 255.536 302.607 255.008C302.079 254.48 301.391 254.088 300.543 253.832C299.711 253.56 298.823 253.424 297.879 253.424C297.015 253.424 296.143 253.52 295.263 253.712C294.399 253.888 293.679 254.2 293.103 254.648C292.527 255.08 292.239 255.672 292.239 256.424C292.239 257.192 292.519 257.808 293.079 258.272C293.639 258.72 294.431 259.096 295.455 259.4C296.479 259.688 297.671 259.952 299.031 260.192C300.279 260.416 301.495 260.704 302.679 261.056C303.863 261.392 304.927 261.84 305.871 262.4C306.831 262.96 307.591 263.68 308.151 264.56C308.727 265.44 309.015 266.52 309.015 267.8C309.015 269.128 308.711 270.272 308.103 271.232C307.495 272.192 306.663 272.992 305.607 273.632C304.567 274.256 303.375 274.72 302.031 275.024C300.703 275.344 299.303 275.504 297.831 275.504Z" fill="black"/>
</svg>
